<?xml version="1.0" encoding="UTF-8" standalone="no"?><svg xmlns="http://www.w3.org/2000/svg" xmlns:xlink="http://www.w3.org/1999/xlink" clip-rule="evenodd" stroke-miterlimit="10" viewBox="0 0 463 42"><desc>SVG generated by Keynote</desc><defs></defs><g transform="matrix(1.00, 0.00, -0.00, -1.00, 0.0, 42.0)"><text xml:space="preserve" font-family="ZapfDingbatsITC,Zapf Dingbats" font-size="12.0" fill="#5B86B8" transform="matrix(1.00, 0.00, -0.00, -1.00, 0.5, 26.3)">✤</text><text xml:space="preserve" font-family="Monaco,Monaco" font-size="17.2" fill="#000000" transform="matrix(1.00, 0.00, -0.00, -1.00, 18.5, 26.2)">(</text><text xml:space="preserve" font-family="Monaco,Monaco" font-size="17.2" fill="#000000" transform="matrix(1.00, 0.00, -0.00, -1.00, 28.8, 26.2)">&gt;</text><text xml:space="preserve" font-family="Monaco,Monaco" font-size="17.2" fill="#000000" transform="matrix(1.00, 0.00, -0.00, -1.00, 39.1, 26.2)"> </text><text xml:space="preserve" font-family="Monaco,Monaco" font-size="17.2" fill="#000000" transform="matrix(1.00, 0.00, -0.00, -1.00, 49.4, 26.2)">[</text><text xml:space="preserve" font-family="Monaco,Monaco" font-size="17.2" fill="#000000" transform="matrix(1.00, 0.00, -0.00, -1.00, 59.7, 26.2)">$</text><text xml:space="preserve" font-family="Monaco,Monaco" font-size="17.2" fill="#000000" transform="matrix(1.00, 0.00, -0.00, -1.00, 70.0, 26.2)">(</text><text xml:space="preserve" font-family="Monaco,Monaco" font-size="17.2" fill="#000000" transform="matrix(1.00, 0.00, -0.00, -1.00, 80.3, 26.2)">$</text><text xml:space="preserve" font-family="Monaco,Monaco" font-size="17.2" fill="#000000" transform="matrix(1.00, 0.00, -0.00, -1.00, 90.6, 26.2)">L</text><text xml:space="preserve" font-family="Monaco,Monaco" font-size="17.2" fill="#000000" transform="matrix(1.00, 0.00, -0.00, -1.00, 100.9, 26.2)">:</text><text xml:space="preserve" font-family="Monaco,Monaco" font-size="17.2" fill="#000000" transform="matrix(1.00, 0.00, -0.00, -1.00, 111.2, 26.2)">t</text><text xml:space="preserve" font-family="Monaco,Monaco" font-size="17.2" fill="#000000" transform="matrix(1.00, 0.00, -0.00, -1.00, 121.5, 26.2)">t</text><text xml:space="preserve" font-family="Monaco,Monaco" font-size="17.2" fill="#000000" transform="matrix(1.00, 0.00, -0.00, -1.00, 131.8, 26.2)">)</text><text xml:space="preserve" font-family="Monaco,Monaco" font-size="17.2" fill="#000000" transform="matrix(1.00, 0.00, -0.00, -1.00, 142.1, 26.2)">*</text><text xml:space="preserve" font-family="Monaco,Monaco" font-size="17.2" fill="#000000" transform="matrix(1.00, 0.00, -0.00, -1.00, 152.4, 26.2)">]</text><text xml:space="preserve" font-family="Monaco,Monaco" font-size="17.2" fill="#000000" transform="matrix(1.00, 0.00, -0.00, -1.00, 162.7, 26.2)"> </text><text xml:space="preserve" font-family="Monaco,Monaco" font-size="17.2" fill="#000000" transform="matrix(1.00, 0.00, -0.00, -1.00, 173.0, 26.2)">$</text><text xml:space="preserve" font-family="Monaco,Monaco" font-size="17.2" fill="#000000" transform="matrix(1.00, 0.00, -0.00, -1.00, 183.3, 26.2)">c</text><text xml:space="preserve" font-family="Monaco,Monaco" font-size="17.2" fill="#000000" transform="matrix(1.00, 0.00, -0.00, -1.00, 193.6, 26.2)">u</text><text xml:space="preserve" font-family="Monaco,Monaco" font-size="17.2" fill="#000000" transform="matrix(1.00, 0.00, -0.00, -1.00, 203.9, 26.2)">r</text><text xml:space="preserve" font-family="Monaco,Monaco" font-size="17.2" fill="#000000" transform="matrix(1.00, 0.00, -0.00, -1.00, 214.2, 26.2)">:</text><text xml:space="preserve" font-family="Monaco,Monaco" font-size="17.2" fill="#000000" transform="matrix(1.00, 0.00, -0.00, -1.00, 224.5, 26.2)">t</text><text xml:space="preserve" font-family="Monaco,Monaco" font-size="17.2" fill="#000000" transform="matrix(1.00, 0.00, -0.00, -1.00, 234.8, 26.2)">t</text><text xml:space="preserve" font-family="Monaco,Monaco" font-size="17.2" fill="#000000" transform="matrix(1.00, 0.00, -0.00, -1.00, 245.1, 26.2)"> </text><text xml:space="preserve" font-family="Monaco,Monaco" font-size="17.2" fill="#000000" transform="matrix(1.00, 0.00, -0.00, -1.00, 255.4, 26.2)">[</text><text xml:space="preserve" font-family="Monaco,Monaco" font-size="17.2" fill="#000000" transform="matrix(1.00, 0.00, -0.00, -1.00, 265.7, 26.2)">$</text><text xml:space="preserve" font-family="Monaco,Monaco" font-size="17.2" fill="#000000" transform="matrix(1.00, 0.00, -0.00, -1.00, 276.0, 26.2)">R</text><text xml:space="preserve" font-family="Monaco,Monaco" font-size="17.2" fill="#000000" transform="matrix(1.00, 0.00, -0.00, -1.00, 286.3, 26.2)">h</text><text xml:space="preserve" font-family="Monaco,Monaco" font-size="17.2" fill="#000000" transform="matrix(1.00, 0.00, -0.00, -1.00, 296.6, 26.2)">:</text><text xml:space="preserve" font-family="Monaco,Monaco" font-size="17.2" fill="#000000" transform="matrix(1.00, 0.00, -0.00, -1.00, 306.9, 26.2)">t</text><text xml:space="preserve" font-family="Monaco,Monaco" font-size="17.2" fill="#000000" transform="matrix(1.00, 0.00, -0.00, -1.00, 317.2, 26.2)">t</text><text xml:space="preserve" font-family="Monaco,Monaco" font-size="17.2" fill="#000000" transform="matrix(1.00, 0.00, -0.00, -1.00, 327.5, 26.2)"> </text><text xml:space="preserve" font-family="Monaco,Monaco" font-size="17.2" fill="#000000" transform="matrix(1.00, 0.00, -0.00, -1.00, 337.8, 26.2)">$</text><text xml:space="preserve" font-family="Monaco,Monaco" font-size="17.2" fill="#000000" transform="matrix(1.00, 0.00, -0.00, -1.00, 348.1, 26.2)">(</text><text xml:space="preserve" font-family="Monaco,Monaco" font-size="17.2" fill="#000000" transform="matrix(1.00, 0.00, -0.00, -1.00, 358.4, 26.2)">$</text><text xml:space="preserve" font-family="Monaco,Monaco" font-size="17.2" fill="#000000" transform="matrix(1.00, 0.00, -0.00, -1.00, 368.7, 26.2)">R</text><text xml:space="preserve" font-family="Monaco,Monaco" font-size="17.2" fill="#000000" transform="matrix(1.00, 0.00, -0.00, -1.00, 379.0, 26.2)">t</text><text xml:space="preserve" font-family="Monaco,Monaco" font-size="17.2" fill="#000000" transform="matrix(1.00, 0.00, -0.00, -1.00, 389.3, 26.2)">:</text><text xml:space="preserve" font-family="Monaco,Monaco" font-size="17.2" fill="#000000" transform="matrix(1.00, 0.00, -0.00, -1.00, 399.6, 26.2)">t</text><text xml:space="preserve" font-family="Monaco,Monaco" font-size="17.2" fill="#000000" transform="matrix(1.00, 0.00, -0.00, -1.00, 409.9, 26.2)">t</text><text xml:space="preserve" font-family="Monaco,Monaco" font-size="17.2" fill="#000000" transform="matrix(1.00, 0.00, -0.00, -1.00, 420.2, 26.2)">)</text><text xml:space="preserve" font-family="Monaco,Monaco" font-size="17.2" fill="#000000" transform="matrix(1.00, 0.00, -0.00, -1.00, 430.5, 26.2)">*</text><text xml:space="preserve" font-family="Monaco,Monaco" font-size="17.2" fill="#000000" transform="matrix(1.00, 0.00, -0.00, -1.00, 440.8, 26.2)">]</text><text xml:space="preserve" font-family="Monaco,Monaco" font-size="17.2" fill="#000000" transform="matrix(1.00, 0.00, -0.00, -1.00, 451.1, 26.2)">)</text><text xml:space="preserve" font-family="Monaco,Monaco" font-size="17.2" fill="#000000" transform="matrix(1.00, 0.00, -0.00, -1.00, 461.4, 26.2)"> </text><text xml:space="preserve" font-family="Monaco,Monaco" font-size="17.2" fill="#000000" transform="matrix(1.00, 0.00, -0.00, -1.00, 18.5, 4.2)">=</text><text xml:space="preserve" font-family="Monaco,Monaco" font-size="17.2" fill="#000000" transform="matrix(1.00, 0.00, -0.00, -1.00, 28.8, 4.2)">&gt;</text><text xml:space="preserve" font-family="Monaco,Monaco" font-size="17.2" fill="#000000" transform="matrix(1.00, 0.00, -0.00, -1.00, 39.1, 4.2)"> </text><text xml:space="preserve" font-family="Monaco,Monaco" font-size="17.2" fill="#000000" transform="matrix(1.00, 0.00, -0.00, -1.00, 49.4, 4.2)">{</text><text xml:space="preserve" font-family="Monaco,Monaco" font-size="17.2" fill="#000000" transform="matrix(1.00, 0.00, -0.00, -1.00, 59.7, 4.2)"> </text><text xml:space="preserve" font-family="Monaco,Monaco" font-size="17.2" fill="#000000" transform="matrix(1.00, 0.00, -0.00, -1.00, 70.0, 4.2)">m</text><text xml:space="preserve" font-family="Monaco,Monaco" font-size="17.2" fill="#000000" transform="matrix(1.00, 0.00, -0.00, -1.00, 80.3, 4.2)">!</text><text xml:space="preserve" font-family="Monaco,Monaco" font-size="17.2" fill="#000000" transform="matrix(1.00, 0.00, -0.00, -1.00, 90.6, 4.2)">(</text><text xml:space="preserve" font-family="Monaco,Monaco" font-size="17.2" fill="#000000" transform="matrix(1.00, 0.00, -0.00, -1.00, 100.9, 4.2)">[</text><text xml:space="preserve" font-family="Monaco,Monaco" font-size="17.2" fill="#000000" transform="matrix(1.00, 0.00, -0.00, -1.00, 111.2, 4.2)">$</text><text xml:space="preserve" font-family="Monaco,Monaco" font-size="17.2" fill="#000000" transform="matrix(1.00, 0.00, -0.00, -1.00, 121.5, 4.2)">c</text><text xml:space="preserve" font-family="Monaco,Monaco" font-size="17.2" fill="#000000" transform="matrix(1.00, 0.00, -0.00, -1.00, 131.8, 4.2)">u</text><text xml:space="preserve" font-family="Monaco,Monaco" font-size="17.2" fill="#000000" transform="matrix(1.00, 0.00, -0.00, -1.00, 142.1, 4.2)">r</text><text xml:space="preserve" font-family="Monaco,Monaco" font-size="17.2" fill="#000000" transform="matrix(1.00, 0.00, -0.00, -1.00, 152.4, 4.2)"> </text><text xml:space="preserve" font-family="Monaco,Monaco" font-size="17.2" fill="#000000" transform="matrix(1.00, 0.00, -0.00, -1.00, 162.7, 4.2)">$</text><text xml:space="preserve" font-family="Monaco,Monaco" font-size="17.2" fill="#000000" transform="matrix(1.00, 0.00, -0.00, -1.00, 173.0, 4.2)">(</text><text xml:space="preserve" font-family="Monaco,Monaco" font-size="17.2" fill="#000000" transform="matrix(1.00, 0.00, -0.00, -1.00, 183.3, 4.2)">$</text><text xml:space="preserve" font-family="Monaco,Monaco" font-size="17.2" fill="#000000" transform="matrix(1.00, 0.00, -0.00, -1.00, 193.6, 4.2)">L</text><text xml:space="preserve" font-family="Monaco,Monaco" font-size="17.2" fill="#000000" transform="matrix(1.00, 0.00, -0.00, -1.00, 203.9, 4.2)">)</text><text xml:space="preserve" font-family="Monaco,Monaco" font-size="17.2" fill="#000000" transform="matrix(1.00, 0.00, -0.00, -1.00, 214.2, 4.2)">*</text><text xml:space="preserve" font-family="Monaco,Monaco" font-size="17.2" fill="#000000" transform="matrix(1.00, 0.00, -0.00, -1.00, 224.5, 4.2)">]</text><text xml:space="preserve" font-family="Monaco,Monaco" font-size="17.2" fill="#000000" transform="matrix(1.00, 0.00, -0.00, -1.00, 234.8, 4.2)"> </text><text xml:space="preserve" font-family="Monaco,Monaco" font-size="17.2" fill="#000000" transform="matrix(1.00, 0.00, -0.00, -1.00, 245.1, 4.2)">$</text><text xml:space="preserve" font-family="Monaco,Monaco" font-size="17.2" fill="#000000" transform="matrix(1.00, 0.00, -0.00, -1.00, 255.4, 4.2)">R</text><text xml:space="preserve" font-family="Monaco,Monaco" font-size="17.2" fill="#000000" transform="matrix(1.00, 0.00, -0.00, -1.00, 265.7, 4.2)">h</text><text xml:space="preserve" font-family="Monaco,Monaco" font-size="17.2" fill="#000000" transform="matrix(1.00, 0.00, -0.00, -1.00, 276.0, 4.2)"> </text><text xml:space="preserve" font-family="Monaco,Monaco" font-size="17.2" fill="#000000" transform="matrix(1.00, 0.00, -0.00, -1.00, 286.3, 4.2)">[</text><text xml:space="preserve" font-family="Monaco,Monaco" font-size="17.2" fill="#000000" transform="matrix(1.00, 0.00, -0.00, -1.00, 296.6, 4.2)">$</text><text xml:space="preserve" font-family="Monaco,Monaco" font-size="17.2" fill="#000000" transform="matrix(1.00, 0.00, -0.00, -1.00, 306.9, 4.2)">(</text><text xml:space="preserve" font-family="Monaco,Monaco" font-size="17.2" fill="#000000" transform="matrix(1.00, 0.00, -0.00, -1.00, 317.2, 4.2)">$</text><text xml:space="preserve" font-family="Monaco,Monaco" font-size="17.2" fill="#000000" transform="matrix(1.00, 0.00, -0.00, -1.00, 327.5, 4.2)">R</text><text xml:space="preserve" font-family="Monaco,Monaco" font-size="17.2" fill="#000000" transform="matrix(1.00, 0.00, -0.00, -1.00, 337.8, 4.2)">t</text><text xml:space="preserve" font-family="Monaco,Monaco" font-size="17.2" fill="#000000" transform="matrix(1.00, 0.00, -0.00, -1.00, 348.1, 4.2)">)</text><text xml:space="preserve" font-family="Monaco,Monaco" font-size="17.2" fill="#000000" transform="matrix(1.00, 0.00, -0.00, -1.00, 358.4, 4.2)">*</text><text xml:space="preserve" font-family="Monaco,Monaco" font-size="17.2" fill="#000000" transform="matrix(1.00, 0.00, -0.00, -1.00, 368.7, 4.2)">]</text><text xml:space="preserve" font-family="Monaco,Monaco" font-size="17.2" fill="#000000" transform="matrix(1.00, 0.00, -0.00, -1.00, 379.0, 4.2)">)</text><text xml:space="preserve" font-family="Monaco,Monaco" font-size="17.2" fill="#000000" transform="matrix(1.00, 0.00, -0.00, -1.00, 389.3, 4.2)"> </text><text xml:space="preserve" font-family="Monaco,Monaco" font-size="17.2" fill="#000000" transform="matrix(1.00, 0.00, -0.00, -1.00, 399.6, 4.2)">}</text></g></svg>