<?xml version="1.0" encoding="UTF-8" standalone="no"?><svg xmlns="http://www.w3.org/2000/svg" xmlns:xlink="http://www.w3.org/1999/xlink" clip-rule="evenodd" stroke-miterlimit="10" viewBox="0 0 63 63"><desc>SVG generated by Keynote</desc><defs></defs><g transform="matrix(1.00, 0.00, -0.00, -1.00, 0.0, 63.0)"><path d="M 5.4 58.8 C 5.2 58.9 5.0 58.4 4.4 58.3 C 3.9 58.1 3.2 58.1 3.3 58.4 C 3.4 58.7 3.7 58.9 3.4 59.3 C 3.1 59.7 2.7 60.4 3.1 60.7 C 3.5 61.0 5.2 61.7 5.7 61.3 C 6.1 60.9 6.3 60.8 6.7 60.5 C 7.0 60.3 6.8 61.1 6.8 61.1 C 6.8 61.1 7.7 61.2 8.4 61.3 C 9.0 61.3 9.8 61.3 9.8 61.2 C 9.9 61.1 10.1 60.8 10.1 60.8 C 10.1 60.8 10.5 61.2 10.9 61.2 C 11.4 61.3 11.2 61.1 11.1 60.9 C 11.0 60.7 10.4 60.2 10.6 60.2 C 10.8 60.2 11.5 61.0 11.9 61.1 C 12.2 61.2 13.0 61.1 13.0 61.1 C 13.0 61.1 12.8 60.7 12.9 60.5 C 12.9 60.4 13.7 60.4 13.7 60.5 C 13.8 60.7 13.8 61.2 14.2 61.2 C 15.4 61.3 15.0 60.4 15.1 60.4 C 15.2 60.4 15.4 61.0 15.7 61.2 C 16.0 61.3 18.2 61.2 18.3 61.0 C 18.4 60.8 19.3 61.4 19.6 61.0 C 19.8 60.6 19.8 60.5 19.9 60.4 C 19.9 60.3 20.1 59.6 20.4 59.8 C 20.7 60.1 20.0 60.9 20.4 61.1 C 20.7 61.3 22.2 61.3 22.3 61.1 C 22.6 60.8 22.5 60.2 22.7 60.2 C 22.9 60.2 24.0 61.0 24.0 60.9 C 24.0 60.8 23.9 60.0 23.8 59.9 C 23.8 59.8 23.6 58.5 23.3 58.4 C 23.1 58.2 22.1 57.7 22.4 58.1 C 22.6 58.4 22.9 58.9 22.7 59.0 C 22.5 59.2 22.3 59.2 22.2 59.1 C 22.1 59.0 22.2 58.8 21.6 58.6 C 21.1 58.3 21.2 58.0 20.8 58.1 C 20.3 58.1 20.0 58.2 20.1 58.5 C 20.2 58.7 19.8 59.1 19.5 59.1 C 19.2 59.1 19.5 58.5 18.5 58.2 C 17.4 58.0 16.7 57.9 16.5 58.2 C 16.2 58.4 16.4 59.1 15.8 58.8 C 15.2 58.5 15.5 58.3 14.8 58.3 C 14.2 58.3 14.0 58.9 13.6 58.9 C 13.2 59.0 13.0 58.9 13.0 58.9 C 13.0 58.9 13.1 58.1 12.2 58.1 C 11.2 58.0 11.0 57.9 11.3 58.5 C 11.6 59.2 10.9 59.2 10.8 58.8 C 10.7 58.4 10.1 58.1 9.8 58.1 C 9.4 58.0 9.5 59.0 9.3 59.1 C 9.2 59.1 8.8 59.0 8.9 58.7 C 9.1 58.4 8.7 58.3 8.4 58.2 C 8.1 58.1 7.2 58.2 7.2 58.3 C 7.3 58.5 7.7 59.2 7.1 58.9 C 6.5 58.5 6.3 58.0 5.8 58.0 C 5.2 58.1 5.7 58.7 5.4 58.8 C 5.4 58.8 5.4 58.8 5.4 58.8 Z M 23.6 58.0 C 22.6 58.1 24.2 60.7 24.8 61.3 C 25.4 61.8 26.0 61.5 26.8 61.5 C 27.5 61.6 26.9 60.8 27.2 60.6 C 27.5 60.3 27.6 60.9 28.0 61.3 C 28.3 61.6 29.2 61.3 29.9 61.3 C 30.6 61.4 30.8 60.5 31.3 60.4 C 31.8 60.4 30.7 60.0 31.6 60.0 C 32.6 60.1 32.3 60.6 31.4 60.8 C 30.5 61.1 32.1 61.4 32.7 61.5 C 33.4 61.5 34.2 61.2 34.7 61.2 C 35.2 61.3 34.2 60.6 34.9 60.6 C 35.6 60.6 35.6 61.3 36.4 61.4 C 37.1 61.5 36.7 60.9 36.9 60.7 C 37.2 60.6 37.3 61.0 37.7 61.0 C 38.0 61.1 38.6 61.3 39.1 61.1 C 39.7 61.0 39.4 60.8 39.6 60.7 C 39.9 60.7 40.4 60.7 40.4 60.7 C 40.6 60.9 40.8 61.1 41.0 61.4 C 41.0 61.4 42.2 61.4 42.6 61.5 C 43.0 61.5 43.6 61.2 43.2 61.1 C 42.9 60.9 43.4 60.5 43.7 60.6 C 43.9 60.7 44.7 61.0 45.2 61.2 C 45.8 61.3 44.4 59.6 44.2 59.3 C 44.0 59.1 43.6 58.2 43.2 58.1 C 42.8 58.0 42.7 58.3 42.6 58.1 C 42.5 57.8 41.7 58.1 41.4 58.1 C 41.1 58.1 41.2 58.7 41.2 58.7 C 41.2 58.7 41.3 59.2 40.9 59.2 C 40.4 59.2 39.5 58.2 39.5 58.2 C 39.5 58.2 38.8 58.0 38.3 58.0 C 37.8 58.1 37.7 59.0 37.7 59.2 C 37.7 59.3 37.3 58.5 36.8 58.4 C 36.4 58.3 35.6 58.1 35.5 58.1 C 35.4 58.2 35.4 58.7 35.4 58.7 C 35.4 58.7 34.8 59.1 34.7 59.1 C 34.5 59.1 34.4 58.3 34.4 58.3 C 34.4 58.3 32.7 58.0 32.4 58.0 C 32.0 57.9 31.6 58.1 31.4 58.2 C 31.2 58.2 31.4 59.2 31.0 59.1 C 30.6 59.0 31.1 58.5 30.7 58.4 C 30.3 58.3 29.6 58.1 29.4 58.1 C 29.2 58.1 29.2 58.4 28.9 58.5 C 28.7 58.5 28.6 59.3 28.2 59.3 C 27.7 59.3 27.3 58.8 27.1 58.7 C 26.9 58.6 26.5 58.0 26.1 57.9 C 25.8 57.9 26.2 58.4 25.9 58.4 C 25.5 58.4 25.7 58.9 25.4 58.8 C 25.0 58.7 24.9 57.9 24.5 58.0 C 24.4 58.0 24.5 58.0 23.6 58.0 C 23.6 58.0 23.6 58.0 23.6 58.0 Z M 44.1 58.2 C 43.3 57.8 43.2 58.3 43.6 58.6 C 43.9 59.0 44.8 60.0 44.8 60.2 C 44.8 60.5 44.7 61.2 45.7 61.4 C 46.7 61.5 46.7 61.2 46.5 61.0 C 46.4 60.8 45.8 59.7 46.1 59.8 C 46.4 59.9 46.8 60.2 47.0 60.3 C 47.1 60.5 48.2 61.5 48.6 61.3 C 48.9 61.2 49.1 60.9 49.1 60.9 C 49.3 60.9 49.5 60.9 49.7 60.8 C 49.7 60.8 50.8 61.4 51.1 61.3 C 51.5 61.2 52.0 61.2 52.4 61.2 C 52.8 61.3 53.1 61.2 53.0 60.9 C 52.8 60.7 52.6 59.9 52.6 59.9 C 52.6 59.9 52.9 59.6 53.2 59.8 C 53.6 59.9 54.1 60.4 54.2 60.6 C 54.3 60.8 54.7 61.2 55.2 61.3 C 55.6 61.4 57.6 61.9 57.6 61.6 C 57.6 61.3 57.2 60.9 57.2 60.8 C 57.3 60.8 58.3 60.7 58.6 60.9 C 58.9 61.2 59.3 61.7 59.6 61.6 C 59.9 61.6 60.6 61.7 60.4 61.6 C 60.3 61.5 60.4 61.3 60.1 61.0 C 59.9 60.8 60.2 60.5 60.2 60.4 C 60.2 60.3 60.3 60.3 60.3 60.3 C 60.3 60.1 60.3 59.8 60.3 59.8 C 60.4 59.8 60.6 59.8 60.7 59.7 C 60.7 59.7 61.2 60.6 61.3 60.8 C 61.4 61.1 61.7 61.1 61.8 61.0 C 61.8 60.8 61.7 59.6 61.7 59.6 C 61.4 59.2 61.0 58.8 60.6 58.4 C 60.5 58.1 60.4 57.7 60.3 57.4 C 60.3 57.4 61.7 58.7 61.7 58.2 C 61.7 57.6 61.7 56.9 61.7 56.9 C 61.7 56.9 61.2 55.9 61.1 55.8 C 61.1 55.6 59.9 54.5 59.9 54.5 C 59.4 54.2 59.0 53.9 58.5 53.5 C 58.5 53.5 58.0 53.7 58.2 54.2 C 58.4 54.7 58.9 54.9 59.1 55.1 C 59.4 55.4 59.6 56.1 59.6 56.1 C 59.3 56.1 59.1 56.1 58.8 56.1 C 58.8 56.1 58.6 56.1 58.4 56.1 C 58.1 56.1 58.0 56.7 58.1 57.0 C 58.2 57.4 58.5 57.9 58.7 58.4 C 58.9 58.7 59.1 58.9 59.1 59.1 C 59.1 59.1 59.1 59.1 58.8 59.0 C 58.1 58.7 57.6 58.3 57.4 58.3 C 57.2 58.3 56.9 58.8 56.9 58.8 C 56.8 58.9 56.7 59.0 56.6 59.1 C 56.6 59.1 56.3 59.3 56.0 59.0 C 55.6 58.8 54.8 59.1 54.8 59.1 C 54.8 59.1 54.1 58.3 53.7 58.1 C 53.3 58.0 52.7 57.8 52.4 57.9 C 52.1 58.1 52.4 58.9 52.4 58.9 C 52.1 58.7 51.8 58.5 51.4 58.2 C 51.0 58.2 50.5 58.1 50.0 58.1 C 50.0 58.1 49.1 58.1 49.2 58.3 C 49.3 58.4 50.0 59.1 50.1 59.3 C 50.2 59.5 49.9 59.7 49.7 59.5 C 49.4 59.2 48.4 58.6 48.4 58.6 C 48.4 58.6 47.7 58.2 47.4 58.1 C 47.0 58.1 46.8 58.3 46.8 58.4 C 46.8 58.6 46.7 59.1 46.7 59.1 C 46.4 58.9 46.1 58.7 45.8 58.4 C 45.8 58.4 45.3 58.8 44.1 58.2 C 44.1 58.2 44.1 58.2 44.1 58.2 Z M 58.1 52.8 C 58.1 53.8 60.8 55.3 61.3 55.3 C 61.9 55.3 61.5 54.3 61.6 53.7 C 61.7 53.0 60.9 52.6 60.6 52.1 C 60.4 51.5 60.9 52.0 61.3 52.1 C 61.7 52.2 61.4 50.8 61.4 50.2 C 61.4 49.5 60.6 48.3 60.5 47.8 C 60.4 47.2 60.0 47.9 60.1 47.1 C 60.1 46.2 60.6 46.9 60.9 48.1 C 61.2 49.4 61.4 48.0 61.5 47.4 C 61.6 46.8 61.2 45.6 61.3 45.2 C 61.3 44.7 60.6 45.0 60.6 44.3 C 60.7 43.6 61.4 44.3 61.5 43.6 C 61.6 43.0 60.9 42.8 60.8 42.4 C 60.6 42.0 61.0 42.2 61.1 41.9 C 61.1 41.6 61.3 41.2 61.2 40.5 C 61.0 39.8 60.8 39.9 60.8 39.6 C 60.7 39.3 60.7 38.8 60.7 38.8 C 60.9 38.8 61.2 38.8 61.4 38.8 C 61.4 38.8 61.5 37.6 61.5 37.3 C 61.6 36.9 61.3 36.0 61.1 36.2 C 61.0 36.4 60.5 35.6 60.6 35.4 C 60.7 35.2 61.1 34.7 61.2 34.3 C 61.4 33.9 59.6 33.8 59.4 33.8 C 59.2 33.8 58.2 33.5 58.1 33.8 C 58.0 34.1 58.4 34.4 58.1 34.4 C 57.9 34.3 58.1 35.3 58.1 35.5 C 58.1 35.8 58.8 36.2 58.8 36.2 C 58.8 36.2 59.3 36.6 59.3 37.1 C 59.3 37.5 58.2 37.4 58.2 37.4 C 58.2 37.4 58.0 37.9 58.1 38.5 C 58.1 39.0 59.0 39.9 59.2 40.1 C 59.4 40.3 58.6 40.0 58.5 40.3 C 58.4 40.7 58.1 41.1 58.2 41.3 C 58.2 41.5 58.8 42.0 58.8 42.0 C 58.8 42.0 59.1 42.8 59.1 43.0 C 59.1 43.2 58.3 42.5 58.3 42.5 C 58.3 42.5 58.1 43.9 58.0 44.2 C 58.0 44.5 58.2 45.0 58.2 45.3 C 58.3 45.5 59.3 46.4 59.2 46.7 C 59.1 46.9 58.5 46.0 58.4 46.3 C 58.3 46.5 58.1 47.0 58.1 47.2 C 58.1 47.3 58.5 47.7 58.5 48.1 C 58.6 48.4 59.3 49.2 59.3 49.7 C 59.3 50.1 58.9 50.0 58.8 50.1 C 58.7 50.2 58.0 49.9 58.0 50.2 C 58.0 50.5 58.4 50.6 58.4 50.9 C 58.4 51.3 58.9 51.6 58.8 51.9 C 58.7 52.1 57.9 51.3 58.0 51.8 C 58.1 52.0 58.0 51.8 58.1 52.8 C 58.1 52.8 58.1 52.8 58.1 52.8 Z M 58.2 33.0 C 57.9 33.4 58.3 33.9 58.7 33.9 C 59.0 33.9 60.0 33.8 60.3 34.0 C 60.6 34.2 61.3 34.8 61.4 33.9 C 61.6 33.0 61.3 32.8 61.0 32.8 C 60.8 32.8 59.8 32.6 59.9 32.4 C 60.0 32.1 60.3 31.9 60.4 31.8 C 60.5 31.8 61.5 31.4 61.4 31.0 C 61.2 30.6 60.9 30.2 60.9 30.2 C 60.9 29.9 60.9 29.7 60.9 29.5 C 60.9 29.5 61.5 28.8 61.4 28.4 C 61.2 27.9 61.2 27.4 61.3 27.0 C 61.3 26.6 61.2 26.3 61.0 26.2 C 60.8 26.2 59.9 25.9 59.9 25.9 C 59.9 25.9 59.7 25.4 59.8 25.2 C 60.0 24.9 60.4 24.7 60.6 24.8 C 60.8 24.8 61.3 24.6 61.4 24.2 C 61.5 23.8 61.9 22.1 61.6 21.9 C 61.4 21.8 61.0 21.9 60.9 21.8 C 60.8 21.6 60.8 20.6 61.0 20.5 C 61.2 20.3 61.7 20.2 61.7 19.9 C 61.6 19.6 61.8 18.9 61.6 19.0 C 61.5 19.0 61.4 18.9 61.1 19.0 C 60.8 19.1 60.6 18.6 60.4 18.5 C 60.3 18.5 60.3 18.0 60.3 18.0 C 60.4 17.7 60.6 17.5 60.7 17.2 C 60.7 17.2 61.2 17.3 61.3 17.4 C 61.4 17.6 61.7 17.1 61.8 16.9 C 61.8 16.7 61.7 15.6 61.7 15.6 C 61.4 15.8 61.0 15.9 60.6 16.1 C 60.5 15.9 60.4 15.7 60.3 15.4 C 60.3 15.4 61.7 14.8 61.7 14.2 C 61.7 13.7 61.7 13.0 61.7 13.0 C 61.7 13.0 61.2 12.7 61.1 12.6 C 61.1 12.5 59.9 13.2 59.9 13.2 C 59.4 13.6 59.0 13.9 58.5 14.2 C 58.5 14.2 58.0 15.1 58.2 15.3 C 58.4 15.6 58.9 15.0 59.1 14.9 C 59.4 14.8 59.6 15.2 59.6 15.2 C 59.3 15.6 59.1 16.0 58.8 16.3 C 58.8 16.3 58.6 16.7 58.4 17.0 C 58.1 17.4 58.0 18.2 58.1 18.4 C 58.2 18.5 58.5 18.6 58.7 18.8 C 59.0 18.9 59.4 18.7 59.0 19.2 C 58.7 19.7 58.4 20.0 58.4 20.2 C 58.4 20.3 58.8 20.9 58.8 20.9 C 58.9 21.0 59.0 21.2 59.1 21.4 C 59.1 21.4 59.4 21.8 59.1 22.0 C 58.8 22.2 59.1 23.2 59.1 23.2 C 59.1 23.2 58.3 23.3 58.2 23.6 C 58.0 23.9 57.8 24.4 58.0 24.8 C 58.1 25.2 58.9 25.4 58.9 25.4 C 58.7 25.6 58.5 25.7 58.3 25.9 C 58.2 26.3 58.2 26.8 58.1 27.2 C 58.1 27.2 58.2 28.1 58.3 28.1 C 58.4 28.1 59.1 27.9 59.3 27.9 C 59.5 27.9 59.7 28.4 59.5 28.5 C 59.3 28.6 58.6 29.1 58.6 29.1 C 58.6 29.1 58.2 29.5 58.2 29.8 C 58.1 30.1 58.4 30.5 58.5 30.6 C 58.6 30.7 59.1 31.2 59.1 31.2 C 58.9 31.3 58.7 31.4 58.5 31.5 C 58.5 31.5 58.8 32.3 58.2 33.0 C 58.2 33.0 58.2 33.0 58.2 33.0 Z M 58.1 14.1 C 58.1 15.0 60.8 12.7 61.3 11.9 C 61.9 11.2 61.5 10.7 61.6 9.9 C 61.7 9.1 60.9 9.9 60.6 9.7 C 60.4 9.4 60.9 9.2 61.3 8.7 C 61.7 8.2 61.4 7.4 61.4 6.7 C 61.4 6.0 60.6 6.0 60.5 5.6 C 60.4 5.1 60.0 6.4 60.1 5.5 C 60.1 4.5 60.6 4.5 60.9 5.3 C 61.2 6.2 61.4 4.4 61.5 3.7 C 61.6 3.0 61.2 2.4 61.3 1.9 C 61.3 1.7 61.2 1.7 61.2 1.8 C 60.9 1.9 60.8 2.3 60.3 2.3 C 59.6 2.3 60.6 1.6 60.0 1.5 C 59.4 1.4 58.9 2.0 58.4 2.2 C 57.9 2.3 58.3 1.9 58.1 1.9 C 57.8 1.8 57.5 1.6 56.7 1.8 C 56.0 1.9 56.0 2.1 55.6 2.2 C 55.3 2.2 54.8 2.2 54.8 2.2 C 54.9 2.0 55.1 1.8 55.2 1.5 C 55.2 1.5 54.0 1.5 53.7 1.4 C 53.4 1.4 52.3 1.7 52.5 1.8 C 52.6 2.0 51.5 2.4 51.3 2.3 C 51.2 2.2 50.9 1.9 50.5 1.7 C 50.2 1.6 49.3 3.3 49.1 3.5 C 48.9 3.8 48.1 4.7 48.4 4.8 C 48.7 4.9 49.2 4.6 48.9 4.8 C 48.7 5.0 49.9 4.8 50.1 4.8 C 50.4 4.8 51.2 4.2 51.2 4.2 C 51.2 4.2 51.8 3.6 52.3 3.6 C 52.7 3.6 52.1 4.7 52.1 4.7 C 52.1 4.7 52.5 4.9 53.0 4.8 C 53.6 4.8 55.0 3.9 55.2 3.7 C 55.5 3.5 54.8 4.3 55.1 4.4 C 55.4 4.5 55.7 4.8 55.9 4.7 C 56.1 4.7 56.9 4.2 56.9 4.2 C 56.9 4.2 57.9 3.8 58.1 3.8 C 58.3 3.8 57.2 4.6 57.2 4.6 C 57.2 4.6 57.7 4.7 58.1 4.8 C 58.1 5.1 58.0 5.5 58.0 5.6 C 58.0 6.0 58.2 6.2 58.2 6.4 C 58.3 6.6 59.3 6.0 59.2 6.4 C 59.1 6.8 58.5 6.7 58.4 7.1 C 58.3 7.5 58.1 8.3 58.1 8.4 C 58.1 8.6 58.5 8.5 58.5 8.7 C 58.6 9.0 59.3 8.7 59.3 9.2 C 59.3 9.6 58.9 10.2 58.8 10.5 C 58.7 10.7 58.0 11.3 58.0 11.6 C 58.0 12.0 58.4 11.4 58.4 11.8 C 58.4 12.1 58.9 11.7 58.8 12.1 C 58.7 12.5 57.9 12.9 58.0 13.2 C 58.1 13.3 58.0 13.2 58.1 14.1 C 58.1 14.1 58.1 14.1 58.1 14.1 Z M 46.7 4.0 C 47.0 3.9 46.9 4.4 47.4 4.6 C 47.8 4.8 48.4 4.8 48.5 4.5 C 48.6 4.1 48.5 3.9 49.1 3.5 C 49.6 3.1 50.4 2.4 50.2 2.2 C 49.9 1.9 48.7 1.2 47.9 1.6 C 47.2 1.9 47.0 2.1 46.5 2.3 C 46.0 2.6 46.6 1.8 46.6 1.8 C 46.6 1.8 45.8 1.7 45.1 1.6 C 44.5 1.6 43.7 1.5 43.6 1.7 C 43.5 1.8 43.1 2.1 43.1 2.1 C 43.1 2.1 42.9 1.7 42.5 1.6 C 42.0 1.6 42.1 1.8 42.1 2.0 C 42.1 2.2 42.5 2.7 42.3 2.7 C 42.1 2.7 41.8 1.9 41.4 1.8 C 41.1 1.7 40.3 1.8 40.3 1.8 C 40.3 1.8 40.3 2.2 40.2 2.3 C 40.1 2.4 39.3 2.5 39.3 2.3 C 39.3 2.2 39.5 1.7 39.1 1.7 C 38.0 1.6 37.9 2.5 37.8 2.5 C 37.7 2.5 37.9 1.8 37.6 1.7 C 37.3 1.6 35.0 1.7 34.8 1.9 C 34.7 2.0 34.0 1.4 33.6 1.9 C 33.2 2.3 33.1 2.4 33.0 2.5 C 32.9 2.6 32.5 3.3 32.3 3.0 C 32.1 2.8 33.0 2.0 32.7 1.8 C 32.5 1.6 31.0 1.5 30.7 1.8 C 30.4 2.0 30.3 2.7 30.1 2.7 C 29.9 2.7 29.1 1.8 29.0 2.0 C 28.9 2.1 28.9 2.8 28.9 3.0 C 28.9 3.1 28.8 4.4 29.0 4.5 C 29.1 4.7 30.0 5.2 29.8 4.8 C 29.7 4.4 29.5 4.0 29.8 3.8 C 30.0 3.7 30.2 3.6 30.3 3.8 C 30.4 3.9 30.2 4.1 30.7 4.3 C 31.2 4.5 30.9 4.8 31.4 4.8 C 31.8 4.8 32.2 4.7 32.2 4.4 C 32.1 4.1 32.6 3.7 32.9 3.8 C 33.3 3.8 32.7 4.4 33.7 4.6 C 34.6 4.9 35.3 4.9 35.6 4.7 C 35.9 4.5 36.1 3.7 36.5 4.1 C 36.9 4.4 36.6 4.6 37.3 4.6 C 37.9 4.5 38.3 4.0 38.7 3.9 C 39.1 3.9 39.3 3.9 39.3 3.9 C 39.3 3.9 38.8 4.8 39.7 4.8 C 40.6 4.9 40.8 4.9 40.8 4.3 C 40.8 3.7 41.5 3.7 41.4 4.1 C 41.3 4.5 41.7 4.7 42.0 4.8 C 42.3 4.8 42.8 3.8 43.0 3.8 C 43.1 3.8 43.5 3.8 43.2 4.2 C 42.9 4.5 43.2 4.5 43.5 4.7 C 43.7 4.8 44.6 4.7 44.6 4.5 C 44.7 4.4 44.6 3.7 45.1 4.0 C 45.4 4.4 45.3 4.9 45.9 4.8 C 46.4 4.8 46.3 4.2 46.7 4.0 C 46.7 4.0 46.7 4.0 46.7 4.0 Z M 28.2 4.7 C 28.7 5.1 29.1 4.6 29.0 4.2 C 28.9 3.9 28.6 2.9 28.8 2.6 C 28.9 2.4 29.5 1.7 28.6 1.5 C 27.6 1.4 27.5 1.7 27.5 1.9 C 27.5 2.1 27.5 3.1 27.2 3.0 C 27.0 3.0 26.7 2.7 26.6 2.5 C 26.6 2.4 26.0 1.4 25.6 1.6 C 25.2 1.7 24.9 2.0 24.9 2.0 C 24.6 2.0 24.4 2.0 24.2 2.0 C 24.2 2.0 23.4 1.4 23.0 1.6 C 22.5 1.7 22.0 1.7 21.6 1.7 C 21.2 1.6 20.9 1.7 20.9 1.9 C 20.9 2.2 20.8 3.0 20.8 3.0 C 20.8 3.0 20.4 3.2 20.1 3.1 C 19.8 3.0 19.5 2.5 19.5 2.3 C 19.5 2.1 19.2 1.7 18.8 1.6 C 18.4 1.5 16.6 1.0 16.5 1.3 C 16.4 1.6 16.6 1.9 16.5 2.0 C 16.4 2.1 15.4 2.2 15.1 1.9 C 14.9 1.7 14.7 1.2 14.4 1.2 C 14.1 1.3 13.4 1.1 13.5 1.3 C 13.6 1.4 13.5 1.6 13.6 1.8 C 13.8 2.1 13.3 2.4 13.3 2.5 C 13.3 2.6 12.8 2.7 12.8 2.7 C 12.5 2.5 12.2 2.4 11.9 2.2 C 11.9 2.2 12.0 1.7 12.1 1.6 C 12.2 1.5 11.7 1.2 11.5 1.1 C 11.2 1.1 10.1 1.2 10.1 1.2 C 10.4 1.6 10.6 2.0 10.9 2.3 C 10.7 2.4 10.4 2.5 10.2 2.6 C 10.2 2.6 9.4 1.2 8.8 1.2 C 8.2 1.2 7.6 1.2 7.6 1.2 C 7.6 1.2 7.4 1.7 7.3 1.8 C 7.2 1.8 8.1 3.0 8.1 3.0 C 8.5 3.5 9.0 4.0 9.4 4.4 C 9.4 4.4 10.4 4.9 10.5 4.7 C 10.7 4.5 10.0 4.0 9.9 3.8 C 9.8 3.6 10.1 3.3 10.1 3.3 C 10.6 3.6 11.0 3.8 11.4 4.1 C 11.4 4.1 11.8 4.3 12.2 4.6 C 12.6 4.8 13.4 4.9 13.6 4.8 C 13.7 4.8 13.7 4.4 13.9 4.2 C 14.0 4.0 13.7 3.6 14.2 3.9 C 14.8 4.2 15.2 4.6 15.3 4.6 C 15.5 4.6 15.9 4.1 15.9 4.1 C 16.1 4.0 16.2 3.9 16.4 3.8 C 16.4 3.8 16.8 3.6 17.0 3.8 C 17.2 4.1 18.2 3.8 18.2 3.8 C 18.2 3.8 18.5 4.6 18.8 4.8 C 19.2 4.9 19.7 5.1 20.0 4.9 C 20.4 4.8 20.4 4.0 20.4 4.0 C 20.7 4.2 20.9 4.4 21.1 4.6 C 21.5 4.7 22.0 4.7 22.4 4.8 C 22.4 4.8 23.3 4.8 23.3 4.6 C 23.2 4.5 22.9 3.8 22.9 3.6 C 22.9 3.4 23.3 3.2 23.5 3.4 C 23.6 3.6 24.2 4.3 24.2 4.3 C 24.2 4.3 24.7 4.7 25.0 4.8 C 25.3 4.8 25.7 4.6 25.7 4.4 C 25.8 4.3 26.2 3.8 26.2 3.8 C 26.3 4.0 26.5 4.2 26.7 4.4 C 26.7 4.4 27.4 4.1 28.2 4.7 C 28.2 4.7 28.2 4.7 28.2 4.7 Z M 9.3 4.8 C 10.2 4.8 7.4 2.2 6.6 1.6 C 5.7 1.1 5.2 1.4 4.4 1.3 C 3.6 1.2 4.6 2.1 4.4 2.3 C 4.2 2.5 3.9 2.0 3.3 1.6 C 2.9 1.3 2.2 1.5 1.6 1.5 C 1.6 1.6 1.6 1.7 1.6 1.8 C 1.5 2.4 2.4 4.0 2.5 4.5 C 2.5 5.1 2.9 4.5 2.9 5.4 C 2.8 6.3 2.4 5.4 2.1 4.0 C 1.8 2.7 1.6 4.0 1.5 4.5 C 1.4 5.0 1.8 6.3 1.7 6.8 C 1.7 7.2 2.4 7.2 2.3 7.9 C 2.3 8.5 1.6 7.6 1.5 8.2 C 1.4 8.8 2.1 9.2 2.2 9.7 C 2.4 10.2 2.0 9.8 1.9 10.0 C 1.9 10.3 1.7 10.6 1.8 11.4 C 2.0 12.1 2.2 12.1 2.2 12.4 C 2.3 12.8 2.3 13.3 2.3 13.3 C 2.0 13.1 1.8 13.0 1.6 12.9 C 1.6 12.9 1.5 14.0 1.5 14.3 C 1.4 14.6 1.7 15.7 1.9 15.5 C 2.0 15.5 2.4 16.6 2.4 16.7 C 2.3 16.8 1.9 17.1 1.8 17.4 C 1.6 17.7 3.3 18.8 3.6 19.0 C 3.8 19.2 4.8 20.1 4.9 19.8 C 4.9 19.6 4.6 19.0 4.9 19.3 C 5.1 19.5 4.9 18.3 4.9 18.1 C 4.9 17.8 4.2 16.9 4.2 16.9 C 4.2 16.9 3.7 16.3 3.7 15.8 C 3.7 15.3 4.8 16.0 4.8 16.0 C 4.8 16.0 4.9 15.6 4.9 15.0 C 4.9 14.4 4.0 13.1 3.8 12.8 C 3.6 12.5 4.4 13.3 4.5 12.9 C 4.6 12.6 4.9 12.3 4.8 12.1 C 4.8 11.9 4.2 11.1 4.2 11.1 C 4.2 11.1 3.9 10.1 3.9 9.9 C 3.9 9.7 4.7 10.7 4.7 10.7 C 4.7 10.7 4.9 9.4 5.0 9.2 C 5.0 8.9 4.8 8.2 4.8 8.0 C 4.7 7.7 3.7 6.4 3.8 6.2 C 3.9 5.9 4.5 7.1 4.6 6.9 C 4.6 6.6 4.8 6.2 4.8 6.1 C 4.8 5.9 4.5 5.3 4.5 5.0 C 4.4 4.8 4.2 4.3 3.9 3.9 C 4.0 3.7 4.0 3.6 4.2 3.6 C 4.6 3.6 5.3 4.1 5.5 4.2 C 5.8 4.3 6.5 4.9 6.9 4.9 C 7.2 4.9 6.6 4.5 6.9 4.5 C 7.2 4.5 6.8 4.0 7.2 4.1 C 7.6 4.2 8.1 5.0 8.4 4.9 C 8.5 4.8 8.4 4.9 9.3 4.8 C 9.3 4.8 9.3 4.8 9.3 4.8 Z M 4.8 20.6 C 5.1 20.4 4.7 19.6 4.3 19.4 C 3.9 19.2 3.0 18.7 2.7 18.3 C 2.4 17.9 1.7 16.8 1.6 17.6 C 1.4 18.4 1.7 18.8 1.9 18.9 C 2.2 19.1 3.2 20.0 3.1 20.2 C 3.0 20.3 2.7 20.4 2.6 20.3 C 2.4 20.3 1.5 20.0 1.6 20.5 C 1.8 21.0 2.0 21.6 2.0 21.6 C 2.0 21.8 2.1 22.1 2.1 22.3 C 2.1 22.3 1.5 22.5 1.6 23.1 C 1.8 23.6 1.8 24.2 1.7 24.5 C 1.7 24.8 1.8 25.2 2.0 25.4 C 2.2 25.6 3.0 26.6 3.0 26.6 C 3.0 26.6 3.3 27.2 3.1 27.4 C 3.0 27.5 2.5 27.3 2.4 27.2 C 2.2 27.0 1.7 26.8 1.6 27.1 C 1.5 27.4 1.1 28.7 1.3 29.1 C 1.6 29.5 2.0 29.6 2.1 29.9 C 2.2 30.1 2.2 31.1 2.0 31.1 C 1.8 31.1 1.2 30.7 1.3 31.1 C 1.3 31.4 1.2 31.9 1.3 32.0 C 1.5 32.1 1.6 32.3 1.9 32.5 C 2.2 32.6 2.4 33.3 2.5 33.5 C 2.7 33.7 2.7 34.2 2.7 34.2 C 2.6 34.3 2.4 34.4 2.3 34.5 C 2.3 34.5 1.8 34.0 1.7 33.7 C 1.6 33.5 1.2 33.7 1.2 33.8 C 1.2 34.0 1.2 35.2 1.2 35.2 C 1.6 35.4 2.0 35.5 2.4 35.7 C 2.5 36.0 2.6 36.3 2.6 36.6 C 2.6 36.6 1.3 36.0 1.3 36.5 C 1.3 37.1 1.3 37.7 1.3 37.7 C 1.3 37.7 1.8 38.5 1.8 38.6 C 1.9 38.8 3.1 39.3 3.1 39.3 C 3.6 39.4 4.0 39.5 4.5 39.7 C 4.5 39.7 4.9 39.2 4.8 38.8 C 4.6 38.4 4.1 38.5 3.8 38.3 C 3.6 38.2 3.4 37.6 3.4 37.6 C 3.6 37.4 3.9 37.3 4.2 37.2 C 4.2 37.2 4.4 37.1 4.6 36.9 C 4.9 36.8 5.0 36.1 4.9 35.8 C 4.8 35.5 4.5 35.2 4.2 34.8 C 4.0 34.4 3.6 34.3 3.9 34.1 C 4.2 33.9 4.6 33.9 4.6 33.7 C 4.6 33.5 4.2 32.6 4.2 32.6 C 4.1 32.3 3.9 32.1 3.8 31.8 C 3.8 31.8 3.6 31.1 3.9 31.2 C 4.2 31.3 3.8 30.0 3.8 30.0 C 3.8 30.0 4.7 30.5 4.8 30.3 C 4.9 30.1 5.1 29.8 5.0 29.2 C 4.9 28.7 4.1 27.9 4.1 27.9 C 4.3 27.9 4.5 27.9 4.7 27.8 C 4.7 27.5 4.8 27.1 4.9 26.7 C 4.9 26.7 4.8 25.7 4.7 25.6 C 4.5 25.5 3.8 25.2 3.6 25.0 C 3.5 24.9 3.2 24.2 3.5 24.3 C 3.7 24.4 4.3 24.3 4.3 24.3 C 4.3 24.3 4.8 24.2 4.8 23.9 C 4.9 23.7 4.6 23.1 4.5 22.9 C 4.3 22.7 3.8 21.9 3.8 21.9 C 4.0 21.9 4.3 21.9 4.5 22.0 C 4.5 22.0 4.2 21.0 4.8 20.6 C 4.8 20.6 4.8 20.6 4.8 20.6 Z M 4.9 40.2 C 4.9 39.2 2.2 38.9 1.7 39.1 C 1.1 39.4 1.5 40.2 1.4 40.9 C 1.3 41.5 2.1 41.6 2.4 42.0 C 2.6 42.5 2.1 42.2 1.7 42.3 C 1.3 42.3 1.6 43.5 1.6 44.2 C 1.5 44.8 2.4 45.7 2.5 46.2 C 2.5 46.8 2.9 45.9 2.9 46.8 C 2.8 47.7 2.4 47.1 2.1 46.0 C 1.8 44.9 1.6 46.3 1.5 46.9 C 1.4 47.5 1.8 48.5 1.7 49.0 C 1.7 49.5 2.4 49.0 2.3 49.7 C 2.3 50.3 1.6 49.9 1.5 50.6 C 1.4 51.2 2.1 51.2 2.2 51.6 C 2.4 52.0 2.0 51.9 1.9 52.1 C 1.9 52.4 1.7 52.9 1.8 53.5 C 2.0 54.2 2.2 54.0 2.2 54.3 C 2.3 54.6 2.3 55.2 2.3 55.2 C 2.0 55.2 1.8 55.2 1.6 55.2 C 1.6 55.2 1.5 56.4 1.5 56.7 C 1.4 57.1 1.7 57.9 1.9 57.7 C 2.0 57.5 2.4 58.3 2.4 58.5 C 2.3 58.6 1.9 59.2 1.8 59.6 C 1.6 60.0 3.3 59.9 3.6 59.9 C 3.8 59.9 4.8 60.1 4.9 59.8 C 4.9 59.5 4.6 59.2 4.9 59.2 C 5.1 59.3 4.9 58.3 4.9 58.0 C 4.9 57.7 4.2 57.4 4.2 57.4 C 4.2 57.4 3.7 57.1 3.7 56.6 C 3.7 56.2 4.8 56.1 4.8 56.1 C 4.8 56.1 4.9 55.5 4.9 55.0 C 4.9 54.4 4.0 53.7 3.8 53.6 C 3.6 53.4 4.4 53.6 4.5 53.2 C 4.6 52.8 4.9 52.2 4.8 52.1 C 4.8 51.9 4.2 51.5 4.2 51.5 C 4.2 51.5 3.9 50.8 3.9 50.6 C 3.9 50.4 4.7 50.8 4.7 50.8 C 4.7 50.8 4.9 49.4 5.0 49.1 C 5.0 48.8 4.8 48.2 4.8 48.0 C 4.7 47.8 3.7 47.2 3.8 46.9 C 3.9 46.6 4.5 47.4 4.6 47.1 C 4.6 46.8 4.8 46.2 4.8 46.0 C 4.8 45.9 4.5 45.6 4.5 45.3 C 4.4 45.0 3.7 44.4 3.7 43.9 C 3.7 43.5 4.1 43.4 4.2 43.2 C 4.3 43.1 4.9 43.2 5.0 42.8 C 5.0 42.5 4.6 42.6 4.6 42.3 C 4.6 41.9 4.1 41.8 4.2 41.5 C 4.3 41.2 5.1 41.6 4.9 41.2 C 4.9 41.1 4.9 41.2 4.9 40.2 C 4.9 40.2 4.9 40.2 4.9 40.2 Z M 4.9 40.2 " fill="#605F5C"></path></g></svg>