<?xml version="1.0" encoding="UTF-8" standalone="no"?><svg xmlns="http://www.w3.org/2000/svg" xmlns:xlink="http://www.w3.org/1999/xlink" clip-rule="evenodd" stroke-miterlimit="10" viewBox="0 0 496 49"><desc>SVG generated by Keynote</desc><defs></defs><g transform="matrix(1.00, 0.00, -0.00, -1.00, 0.0, 49.0)"><text xml:space="preserve" font-family="ZapfDingbatsITC,Zapf Dingbats" font-size="13.8" fill="#5B86B8" transform="matrix(1.00, 0.00, -0.00, -1.00, 0.5, 33.1)">✤</text><text xml:space="preserve" font-family="Palatino-Roman,Palatino" font-size="19.8" fill="#000000" transform="matrix(1.00, 0.00, -0.00, -1.00, 21.3, 32.1)">S</text><text xml:space="preserve" font-family="Palatino-Roman,Palatino" font-size="19.8" fill="#000000" transform="matrix(1.00, 0.00, -0.00, -1.00, 31.6, 32.1)">t</text><text xml:space="preserve" font-family="Palatino-Roman,Palatino" font-size="19.8" fill="#000000" transform="matrix(1.00, 0.00, -0.00, -1.00, 38.1, 32.1)">o</text><text xml:space="preserve" font-family="Palatino-Roman,Palatino" font-size="19.8" fill="#000000" transform="matrix(1.00, 0.00, -0.00, -1.00, 48.9, 32.1)">r</text><text xml:space="preserve" font-family="Palatino-Roman,Palatino" font-size="19.8" fill="#000000" transform="matrix(1.00, 0.00, -0.00, -1.00, 56.3, 32.1)">e</text><text xml:space="preserve" font-family="Palatino-Roman,Palatino" font-size="19.8" fill="#000000" transform="matrix(1.00, 0.00, -0.00, -1.00, 65.8, 32.1)">s</text><text xml:space="preserve" font-family="Palatino-Roman,Palatino" font-size="19.8" fill="#000000" transform="matrix(1.00, 0.00, -0.00, -1.00, 74.2, 32.1)"> </text><text xml:space="preserve" font-family="Palatino-Roman,Palatino" font-size="19.8" fill="#000000" transform="matrix(1.00, 0.00, -0.00, -1.00, 79.1, 32.1)">m</text><text xml:space="preserve" font-family="Palatino-Roman,Palatino" font-size="19.8" fill="#000000" transform="matrix(1.00, 0.00, -0.00, -1.00, 96.5, 32.1)">e</text><text xml:space="preserve" font-family="Palatino-Roman,Palatino" font-size="19.8" fill="#000000" transform="matrix(1.00, 0.00, -0.00, -1.00, 106.0, 32.1)">m</text><text xml:space="preserve" font-family="Palatino-Roman,Palatino" font-size="19.8" fill="#000000" transform="matrix(1.00, 0.00, -0.00, -1.00, 123.4, 32.1)">o</text><text xml:space="preserve" font-family="Palatino-Roman,Palatino" font-size="19.8" fill="#000000" transform="matrix(1.00, 0.00, -0.00, -1.00, 134.2, 32.1)">r</text><text xml:space="preserve" font-family="Palatino-Roman,Palatino" font-size="19.8" fill="#000000" transform="matrix(1.00, 0.00, -0.00, -1.00, 142.0, 32.1)">y</text><text xml:space="preserve" font-family="Palatino-Roman,Palatino" font-size="19.8" fill="#000000" transform="matrix(1.00, 0.00, -0.00, -1.00, 153.0, 32.1)"> </text><text xml:space="preserve" font-family="Palatino-Roman,Palatino" font-size="19.8" fill="#000000" transform="matrix(1.00, 0.00, -0.00, -1.00, 158.0, 32.1)">a</text><text xml:space="preserve" font-family="Palatino-Roman,Palatino" font-size="19.8" fill="#000000" transform="matrix(1.00, 0.00, -0.00, -1.00, 167.9, 32.1)">n</text><text xml:space="preserve" font-family="Palatino-Roman,Palatino" font-size="19.8" fill="#000000" transform="matrix(1.00, 0.00, -0.00, -1.00, 179.4, 32.1)">d</text><text xml:space="preserve" font-family="Palatino-Roman,Palatino" font-size="19.8" fill="#000000" transform="matrix(1.00, 0.00, -0.00, -1.00, 191.4, 32.1)"> </text><text xml:space="preserve" font-family="Palatino-Roman,Palatino" font-size="19.8" fill="#000000" transform="matrix(1.00, 0.00, -0.00, -1.00, 196.4, 32.1)">p</text><text xml:space="preserve" font-family="Palatino-Roman,Palatino" font-size="19.8" fill="#000000" transform="matrix(1.00, 0.00, -0.00, -1.00, 208.2, 32.1)">o</text><text xml:space="preserve" font-family="Palatino-Roman,Palatino" font-size="19.8" fill="#000000" transform="matrix(1.00, 0.00, -0.00, -1.00, 219.0, 32.1)">s</text><text xml:space="preserve" font-family="Palatino-Roman,Palatino" font-size="19.8" fill="#000000" transform="matrix(1.00, 0.00, -0.00, -1.00, 227.4, 32.1)">i</text><text xml:space="preserve" font-family="Palatino-Roman,Palatino" font-size="19.8" fill="#000000" transform="matrix(1.00, 0.00, -0.00, -1.00, 233.1, 32.1)">t</text><text xml:space="preserve" font-family="Palatino-Roman,Palatino" font-size="19.8" fill="#000000" transform="matrix(1.00, 0.00, -0.00, -1.00, 239.6, 32.1)">i</text><text xml:space="preserve" font-family="Palatino-Roman,Palatino" font-size="19.8" fill="#000000" transform="matrix(1.00, 0.00, -0.00, -1.00, 245.3, 32.1)">o</text><text xml:space="preserve" font-family="Palatino-Roman,Palatino" font-size="19.8" fill="#000000" transform="matrix(1.00, 0.00, -0.00, -1.00, 256.1, 32.1)">n</text><text xml:space="preserve" font-family="Palatino-Roman,Palatino" font-size="19.8" fill="#000000" transform="matrix(1.00, 0.00, -0.00, -1.00, 267.6, 32.1)"> </text><text xml:space="preserve" font-family="Palatino-Roman,Palatino" font-size="19.8" fill="#000000" transform="matrix(1.00, 0.00, -0.00, -1.00, 272.6, 32.1)">t</text><text xml:space="preserve" font-family="Palatino-Roman,Palatino" font-size="19.8" fill="#000000" transform="matrix(1.00, 0.00, -0.00, -1.00, 279.0, 32.1)">o</text><text xml:space="preserve" font-family="Palatino-Roman,Palatino" font-size="19.8" fill="#000000" transform="matrix(1.00, 0.00, -0.00, -1.00, 289.8, 32.1)">g</text><text xml:space="preserve" font-family="Palatino-Roman,Palatino" font-size="19.8" fill="#000000" transform="matrix(1.00, 0.00, -0.00, -1.00, 300.8, 32.1)">e</text><text xml:space="preserve" font-family="Palatino-Roman,Palatino" font-size="19.8" fill="#000000" transform="matrix(1.00, 0.00, -0.00, -1.00, 310.3, 32.1)">t</text><text xml:space="preserve" font-family="Palatino-Roman,Palatino" font-size="19.8" fill="#000000" transform="matrix(1.00, 0.00, -0.00, -1.00, 316.7, 32.1)">h</text><text xml:space="preserve" font-family="Palatino-Roman,Palatino" font-size="19.8" fill="#000000" transform="matrix(1.00, 0.00, -0.00, -1.00, 328.2, 32.1)">e</text><text xml:space="preserve" font-family="Palatino-Roman,Palatino" font-size="19.8" fill="#000000" transform="matrix(1.00, 0.00, -0.00, -1.00, 337.7, 32.1)">r</text><text xml:space="preserve" font-family="Palatino-Roman,Palatino" font-size="19.8" fill="#000000" transform="matrix(1.00, 0.00, -0.00, -1.00, 344.0, 32.1)">,</text><text xml:space="preserve" font-family="Palatino-Roman,Palatino" font-size="19.8" fill="#000000" transform="matrix(1.00, 0.00, -0.00, -1.00, 349.0, 32.1)"> </text><text xml:space="preserve" font-family="Palatino-Roman,Palatino" font-size="19.8" fill="#000000" transform="matrix(1.00, 0.00, -0.00, -1.00, 353.9, 32.1)">a</text><text xml:space="preserve" font-family="Palatino-Roman,Palatino" font-size="19.8" fill="#000000" transform="matrix(1.00, 0.00, -0.00, -1.00, 363.8, 32.1)">l</text><text xml:space="preserve" font-family="Palatino-Roman,Palatino" font-size="19.8" fill="#000000" transform="matrix(1.00, 0.00, -0.00, -1.00, 369.5, 32.1)">l</text><text xml:space="preserve" font-family="Palatino-Roman,Palatino" font-size="19.8" fill="#000000" transform="matrix(1.00, 0.00, -0.00, -1.00, 375.3, 32.1)">o</text><text xml:space="preserve" font-family="Palatino-Roman,Palatino" font-size="19.8" fill="#000000" transform="matrix(1.00, 0.00, -0.00, -1.00, 386.1, 32.1)">w</text><text xml:space="preserve" font-family="Palatino-Roman,Palatino" font-size="19.8" fill="#000000" transform="matrix(1.00, 0.00, -0.00, -1.00, 402.6, 32.1)">i</text><text xml:space="preserve" font-family="Palatino-Roman,Palatino" font-size="19.8" fill="#000000" transform="matrix(1.00, 0.00, -0.00, -1.00, 408.3, 32.1)">n</text><text xml:space="preserve" font-family="Palatino-Roman,Palatino" font-size="19.8" fill="#000000" transform="matrix(1.00, 0.00, -0.00, -1.00, 419.8, 32.1)">g</text><text xml:space="preserve" font-family="Palatino-Roman,Palatino" font-size="19.8" fill="#000000" transform="matrix(1.00, 0.00, -0.00, -1.00, 430.8, 32.1)"> </text><text xml:space="preserve" font-family="Palatino-Roman,Palatino" font-size="19.8" fill="#000000" transform="matrix(1.00, 0.00, -0.00, -1.00, 435.7, 32.1)">a</text><text xml:space="preserve" font-family="Palatino-Roman,Palatino" font-size="19.8" fill="#000000" transform="matrix(1.00, 0.00, -0.00, -1.00, 445.6, 32.1)">c</text><text xml:space="preserve" font-family="Palatino-Roman,Palatino" font-size="19.8" fill="#000000" transform="matrix(1.00, 0.00, -0.00, -1.00, 454.4, 32.1)">c</text><text xml:space="preserve" font-family="Palatino-Roman,Palatino" font-size="19.8" fill="#000000" transform="matrix(1.00, 0.00, -0.00, -1.00, 463.2, 32.1)">e</text><text xml:space="preserve" font-family="Palatino-Roman,Palatino" font-size="19.8" fill="#000000" transform="matrix(1.00, 0.00, -0.00, -1.00, 472.6, 32.1)">s</text><text xml:space="preserve" font-family="Palatino-Roman,Palatino" font-size="19.8" fill="#000000" transform="matrix(1.00, 0.00, -0.00, -1.00, 481.0, 32.1)">s</text><text xml:space="preserve" font-family="Palatino-Roman,Palatino" font-size="19.8" fill="#000000" transform="matrix(1.00, 0.00, -0.00, -1.00, 489.4, 32.1)">,</text><text xml:space="preserve" font-family="Palatino-Roman,Palatino" font-size="19.8" fill="#000000" transform="matrix(1.00, 0.00, -0.00, -1.00, 494.3, 32.1)"> </text><text xml:space="preserve" font-family="Palatino-Roman,Palatino" font-size="19.8" fill="#000000" transform="matrix(1.00, 0.00, -0.00, -1.00, 21.3, 7.1)">m</text><text xml:space="preserve" font-family="Palatino-Roman,Palatino" font-size="19.8" fill="#000000" transform="matrix(1.00, 0.00, -0.00, -1.00, 38.7, 7.1)">o</text><text xml:space="preserve" font-family="Palatino-Roman,Palatino" font-size="19.8" fill="#000000" transform="matrix(1.00, 0.00, -0.00, -1.00, 49.5, 7.1)">d</text><text xml:space="preserve" font-family="Palatino-Roman,Palatino" font-size="19.8" fill="#000000" transform="matrix(1.00, 0.00, -0.00, -1.00, 61.6, 7.1)">i</text><text xml:space="preserve" font-family="Palatino-Roman,Palatino" font-size="19.8" fill="#000000" transform="matrix(1.00, 0.00, -0.00, -1.00, 67.3, 7.1)">ﬁ</text><text xml:space="preserve" font-family="Palatino-Roman,Palatino" font-size="19.8" fill="#000000" transform="matrix(1.00, 0.00, -0.00, -1.00, 79.3, 7.1)">c</text><text xml:space="preserve" font-family="Palatino-Roman,Palatino" font-size="19.8" fill="#000000" transform="matrix(1.00, 0.00, -0.00, -1.00, 88.0, 7.1)">a</text><text xml:space="preserve" font-family="Palatino-Roman,Palatino" font-size="19.8" fill="#000000" transform="matrix(1.00, 0.00, -0.00, -1.00, 97.9, 7.1)">t</text><text xml:space="preserve" font-family="Palatino-Roman,Palatino" font-size="19.8" fill="#000000" transform="matrix(1.00, 0.00, -0.00, -1.00, 104.4, 7.1)">i</text><text xml:space="preserve" font-family="Palatino-Roman,Palatino" font-size="19.8" fill="#000000" transform="matrix(1.00, 0.00, -0.00, -1.00, 110.1, 7.1)">o</text><text xml:space="preserve" font-family="Palatino-Roman,Palatino" font-size="19.8" fill="#000000" transform="matrix(1.00, 0.00, -0.00, -1.00, 120.9, 7.1)">n</text><text xml:space="preserve" font-family="Palatino-Roman,Palatino" font-size="19.8" fill="#000000" transform="matrix(1.00, 0.00, -0.00, -1.00, 132.4, 7.1)"> </text><text xml:space="preserve" font-family="Palatino-Roman,Palatino" font-size="19.8" fill="#000000" transform="matrix(1.00, 0.00, -0.00, -1.00, 137.3, 7.1)">a</text><text xml:space="preserve" font-family="Palatino-Roman,Palatino" font-size="19.8" fill="#000000" transform="matrix(1.00, 0.00, -0.00, -1.00, 147.2, 7.1)">n</text><text xml:space="preserve" font-family="Palatino-Roman,Palatino" font-size="19.8" fill="#000000" transform="matrix(1.00, 0.00, -0.00, -1.00, 158.7, 7.1)">d</text><text xml:space="preserve" font-family="Palatino-Roman,Palatino" font-size="19.8" fill="#000000" transform="matrix(1.00, 0.00, -0.00, -1.00, 170.8, 7.1)"> </text><text xml:space="preserve" font-family="Palatino-Roman,Palatino" font-size="19.8" fill="#000000" transform="matrix(1.00, 0.00, -0.00, -1.00, 175.7, 7.1)">l</text><text xml:space="preserve" font-family="Palatino-Roman,Palatino" font-size="19.8" fill="#000000" transform="matrix(1.00, 0.00, -0.00, -1.00, 181.5, 7.1)">e</text><text xml:space="preserve" font-family="Palatino-Roman,Palatino" font-size="19.8" fill="#000000" transform="matrix(1.00, 0.00, -0.00, -1.00, 190.9, 7.1)">f</text><text xml:space="preserve" font-family="Palatino-Roman,Palatino" font-size="19.8" fill="#000000" transform="matrix(1.00, 0.00, -0.00, -1.00, 197.5, 7.1)">t</text><text xml:space="preserve" font-family="Palatino-Roman,Palatino" font-size="19.8" fill="#000000" transform="matrix(1.00, 0.00, -0.00, -1.00, 204.0, 7.1)">/</text><text xml:space="preserve" font-family="Palatino-Roman,Palatino" font-size="19.8" fill="#000000" transform="matrix(1.00, 0.00, -0.00, -1.00, 215.9, 7.1)">r</text><text xml:space="preserve" font-family="Palatino-Roman,Palatino" font-size="19.8" fill="#000000" transform="matrix(1.00, 0.00, -0.00, -1.00, 223.7, 7.1)">i</text><text xml:space="preserve" font-family="Palatino-Roman,Palatino" font-size="19.8" fill="#000000" transform="matrix(1.00, 0.00, -0.00, -1.00, 229.5, 7.1)">g</text><text xml:space="preserve" font-family="Palatino-Roman,Palatino" font-size="19.8" fill="#000000" transform="matrix(1.00, 0.00, -0.00, -1.00, 240.5, 7.1)">h</text><text xml:space="preserve" font-family="Palatino-Roman,Palatino" font-size="19.8" fill="#000000" transform="matrix(1.00, 0.00, -0.00, -1.00, 252.0, 7.1)">t</text><text xml:space="preserve" font-family="Palatino-Roman,Palatino" font-size="19.8" fill="#000000" transform="matrix(1.00, 0.00, -0.00, -1.00, 258.4, 7.1)"> </text><text xml:space="preserve" font-family="Palatino-Roman,Palatino" font-size="19.8" fill="#000000" transform="matrix(1.00, 0.00, -0.00, -1.00, 263.4, 7.1)">m</text><text xml:space="preserve" font-family="Palatino-Roman,Palatino" font-size="19.8" fill="#000000" transform="matrix(1.00, 0.00, -0.00, -1.00, 280.8, 7.1)">o</text><text xml:space="preserve" font-family="Palatino-Roman,Palatino" font-size="19.8" fill="#000000" transform="matrix(1.00, 0.00, -0.00, -1.00, 291.6, 7.1)">v</text><text xml:space="preserve" font-family="Palatino-Roman,Palatino" font-size="19.8" fill="#000000" transform="matrix(1.00, 0.00, -0.00, -1.00, 302.8, 7.1)">e</text><text xml:space="preserve" font-family="Palatino-Roman,Palatino" font-size="19.8" fill="#000000" transform="matrix(1.00, 0.00, -0.00, -1.00, 312.2, 7.1)">s</text><text xml:space="preserve" font-family="Palatino-Roman,Palatino" font-size="19.8" fill="#000000" transform="matrix(1.00, 0.00, -0.00, -1.00, 320.6, 7.1)"> </text><text xml:space="preserve" font-family="Palatino-Roman,Palatino" font-size="19.8" fill="#000000" transform="matrix(1.00, 0.00, -0.00, -1.00, 325.5, 7.1)">w</text><text xml:space="preserve" font-family="Palatino-Roman,Palatino" font-size="19.8" fill="#000000" transform="matrix(1.00, 0.00, -0.00, -1.00, 342.0, 7.1)">i</text><text xml:space="preserve" font-family="Palatino-Roman,Palatino" font-size="19.8" fill="#000000" transform="matrix(1.00, 0.00, -0.00, -1.00, 347.8, 7.1)">t</text><text xml:space="preserve" font-family="Palatino-Roman,Palatino" font-size="19.8" fill="#000000" transform="matrix(1.00, 0.00, -0.00, -1.00, 354.2, 7.1)">h</text><text xml:space="preserve" font-family="Palatino-Roman,Palatino" font-size="19.8" fill="#000000" transform="matrix(1.00, 0.00, -0.00, -1.00, 365.7, 7.1)"> </text><text xml:space="preserve" font-family="Palatino-Bold,Palatino" font-weight="bold" font-size="19.8" fill="#000000" transform="matrix(1.00, 0.00, -0.00, -1.00, 370.7, 7.1)">n</text><text xml:space="preserve" font-family="Palatino-Bold,Palatino" font-weight="bold" font-size="19.8" fill="#000000" transform="matrix(1.00, 0.00, -0.00, -1.00, 382.7, 7.1)">o</text><text xml:space="preserve" font-family="Palatino-Bold,Palatino" font-weight="bold" font-size="19.8" fill="#000000" transform="matrix(1.00, 0.00, -0.00, -1.00, 393.7, 7.1)"> </text><text xml:space="preserve" font-family="Palatino-Bold,Palatino" font-weight="bold" font-size="19.8" fill="#000000" transform="matrix(1.00, 0.00, -0.00, -1.00, 398.7, 7.1)">i</text><text xml:space="preserve" font-family="Palatino-Bold,Palatino" font-weight="bold" font-size="19.8" fill="#000000" transform="matrix(1.00, 0.00, -0.00, -1.00, 405.3, 7.1)">n</text><text xml:space="preserve" font-family="Palatino-Bold,Palatino" font-weight="bold" font-size="19.8" fill="#000000" transform="matrix(1.00, 0.00, -0.00, -1.00, 417.3, 7.1)">d</text><text xml:space="preserve" font-family="Palatino-Bold,Palatino" font-weight="bold" font-size="19.8" fill="#000000" transform="matrix(1.00, 0.00, -0.00, -1.00, 429.4, 7.1)">e</text><text xml:space="preserve" font-family="Palatino-Bold,Palatino" font-weight="bold" font-size="19.8" fill="#000000" transform="matrix(1.00, 0.00, -0.00, -1.00, 439.3, 7.1)">x</text><text xml:space="preserve" font-family="Palatino-Bold,Palatino" font-weight="bold" font-size="19.8" fill="#000000" transform="matrix(1.00, 0.00, -0.00, -1.00, 449.1, 7.1)">i</text><text xml:space="preserve" font-family="Palatino-Bold,Palatino" font-weight="bold" font-size="19.8" fill="#000000" transform="matrix(1.00, 0.00, -0.00, -1.00, 455.7, 7.1)">n</text><text xml:space="preserve" font-family="Palatino-Bold,Palatino" font-weight="bold" font-size="19.8" fill="#000000" transform="matrix(1.00, 0.00, -0.00, -1.00, 467.8, 7.1)">g</text></g></svg>