<?xml version="1.0" encoding="UTF-8" standalone="no"?><svg xmlns="http://www.w3.org/2000/svg" xmlns:xlink="http://www.w3.org/1999/xlink" clip-rule="evenodd" stroke-miterlimit="10" viewBox="0 0 831 65"><desc>SVG generated by Keynote</desc><defs></defs><g transform="matrix(1.00, 0.00, -0.00, -1.00, 0.0, 65.0)"><text xml:space="preserve" font-family="Didot-Bold,Didot" font-weight="bold" font-size="60.0" fill="#304863" transform="matrix(1.00, 0.00, -0.00, -1.00, -1.0, 18.5)">H</text><text xml:space="preserve" font-family="Didot-Bold,Didot" font-weight="bold" font-size="60.0" fill="#304863" transform="matrix(1.00, 0.00, -0.00, -1.00, 47.8, 18.5)">o</text><text xml:space="preserve" font-family="Didot-Bold,Didot" font-weight="bold" font-size="60.0" fill="#304863" transform="matrix(1.00, 0.00, -0.00, -1.00, 79.3, 18.5)">w</text><text xml:space="preserve" font-family="Didot,Didot" font-size="60.0" fill="#304863" transform="matrix(1.00, 0.00, -0.00, -1.00, 122.6, 18.5)"> </text><text xml:space="preserve" font-family="Didot,Didot" font-size="60.0" fill="#304863" transform="matrix(1.00, 0.00, -0.00, -1.00, 138.1, 18.5)">w</text><text xml:space="preserve" font-family="Didot,Didot" font-size="60.0" fill="#304863" transform="matrix(1.00, 0.00, -0.00, -1.00, 181.3, 18.5)">i</text><text xml:space="preserve" font-family="Didot,Didot" font-size="60.0" fill="#304863" transform="matrix(1.00, 0.00, -0.00, -1.00, 197.9, 18.5)">l</text><text xml:space="preserve" font-family="Didot,Didot" font-size="60.0" fill="#304863" transform="matrix(1.00, 0.00, -0.00, -1.00, 214.5, 18.5)">l</text><text xml:space="preserve" font-family="Didot,Didot" font-size="60.0" fill="#304863" transform="matrix(1.00, 0.00, -0.00, -1.00, 231.0, 18.5)"> </text><text xml:space="preserve" font-family="Didot,Didot" font-size="60.0" fill="#304863" transform="matrix(1.00, 0.00, -0.00, -1.00, 246.5, 18.5)">w</text><text xml:space="preserve" font-family="Didot,Didot" font-size="60.0" fill="#304863" transform="matrix(1.00, 0.00, -0.00, -1.00, 289.2, 18.5)">e</text><text xml:space="preserve" font-family="Didot,Didot" font-size="60.0" fill="#304863" transform="matrix(1.00, 0.00, -0.00, -1.00, 318.0, 18.5)"> </text><text xml:space="preserve" font-family="Didot,Didot" font-size="60.0" fill="#304863" transform="matrix(1.00, 0.00, -0.00, -1.00, 333.4, 18.5)">r</text><text xml:space="preserve" font-family="Didot,Didot" font-size="60.0" fill="#304863" transform="matrix(1.00, 0.00, -0.00, -1.00, 356.7, 18.5)">e</text><text xml:space="preserve" font-family="Didot,Didot" font-size="60.0" fill="#304863" transform="matrix(1.00, 0.00, -0.00, -1.00, 385.5, 18.5)">p</text><text xml:space="preserve" font-family="Didot,Didot" font-size="60.0" fill="#304863" transform="matrix(1.00, 0.00, -0.00, -1.00, 419.8, 18.5)">r</text><text xml:space="preserve" font-family="Didot,Didot" font-size="60.0" fill="#304863" transform="matrix(1.00, 0.00, -0.00, -1.00, 443.1, 18.5)">e</text><text xml:space="preserve" font-family="Didot,Didot" font-size="60.0" fill="#304863" transform="matrix(1.00, 0.00, -0.00, -1.00, 471.9, 18.5)">s</text><text xml:space="preserve" font-family="Didot,Didot" font-size="60.0" fill="#304863" transform="matrix(1.00, 0.00, -0.00, -1.00, 496.2, 18.5)">e</text><text xml:space="preserve" font-family="Didot,Didot" font-size="60.0" fill="#304863" transform="matrix(1.00, 0.00, -0.00, -1.00, 525.0, 18.5)">n</text><text xml:space="preserve" font-family="Didot,Didot" font-size="60.0" fill="#304863" transform="matrix(1.00, 0.00, -0.00, -1.00, 560.5, 18.5)">t</text><text xml:space="preserve" font-family="Didot,Didot" font-size="60.0" fill="#304863" transform="matrix(1.00, 0.00, -0.00, -1.00, 579.3, 18.5)"> </text><text xml:space="preserve" font-family="Didot,Didot" font-size="60.0" fill="#304863" transform="matrix(1.00, 0.00, -0.00, -1.00, 594.7, 18.5)">m</text><text xml:space="preserve" font-family="Didot,Didot" font-size="60.0" fill="#304863" transform="matrix(1.00, 0.00, -0.00, -1.00, 645.7, 18.5)">e</text><text xml:space="preserve" font-family="Didot,Didot" font-size="60.0" fill="#304863" transform="matrix(1.00, 0.00, -0.00, -1.00, 674.5, 18.5)">m</text><text xml:space="preserve" font-family="Didot,Didot" font-size="60.0" fill="#304863" transform="matrix(1.00, 0.00, -0.00, -1.00, 725.5, 18.5)">o</text><text xml:space="preserve" font-family="Didot,Didot" font-size="60.0" fill="#304863" transform="matrix(1.00, 0.00, -0.00, -1.00, 757.7, 18.5)">r</text><text xml:space="preserve" font-family="Didot,Didot" font-size="60.0" fill="#304863" transform="matrix(1.00, 0.00, -0.00, -1.00, 780.9, 18.5)">y</text><text xml:space="preserve" font-family="Didot,Didot" font-size="60.0" fill="#304863" transform="matrix(1.00, 0.00, -0.00, -1.00, 808.6, 18.5)">?</text></g></svg>