<?xml version="1.0" encoding="UTF-8" standalone="no"?><svg xmlns="http://www.w3.org/2000/svg" xmlns:xlink="http://www.w3.org/1999/xlink" clip-rule="evenodd" stroke-miterlimit="10" viewBox="0 0 396 27"><desc>SVG generated by Keynote</desc><defs></defs><g transform="matrix(1.00, 0.00, -0.00, -1.00, 0.0, 27.0)"><text xml:space="preserve" font-family="Palatino-Roman,Palatino" font-size="24.0" fill="#5B86B8" transform="matrix(1.00, 0.00, -0.00, -1.00, 1.0, 7.7)">B</text><text xml:space="preserve" font-family="Palatino-Roman,Palatino" font-size="24.0" fill="#5B86B8" transform="matrix(1.00, 0.00, -0.00, -1.00, 15.7, 7.7)">r</text><text xml:space="preserve" font-family="Palatino-Roman,Palatino" font-size="24.0" fill="#5B86B8" transform="matrix(1.00, 0.00, -0.00, -1.00, 25.1, 7.7)">a</text><text xml:space="preserve" font-family="Palatino-Roman,Palatino" font-size="24.0" fill="#5B86B8" transform="matrix(1.00, 0.00, -0.00, -1.00, 37.1, 7.7)">i</text><text xml:space="preserve" font-family="Palatino-Roman,Palatino" font-size="24.0" fill="#5B86B8" transform="matrix(1.00, 0.00, -0.00, -1.00, 44.1, 7.7)">n</text><text xml:space="preserve" font-family="Palatino-Roman,Palatino" font-size="24.0" fill="#5B86B8" transform="matrix(1.00, 0.00, -0.00, -1.00, 58.1, 7.7)">f</text><text xml:space="preserve" font-family="Palatino-Roman,Palatino" font-size="24.0" fill="#5B86B8" transform="matrix(1.00, 0.00, -0.00, -1.00, 66.1, 7.7)">u</text><text xml:space="preserve" font-family="Palatino-Roman,Palatino" font-size="24.0" fill="#5B86B8" transform="matrix(1.00, 0.00, -0.00, -1.00, 80.6, 7.7)">c</text><text xml:space="preserve" font-family="Palatino-Roman,Palatino" font-size="24.0" fill="#5B86B8" transform="matrix(1.00, 0.00, -0.00, -1.00, 91.2, 7.7)">k</text><text xml:space="preserve" font-family="Palatino-Roman,Palatino" font-size="24.0" fill="#5B86B8" transform="matrix(1.00, 0.00, -0.00, -1.00, 104.6, 7.7)"> </text><text xml:space="preserve" font-family="Palatino-Roman,Palatino" font-size="24.0" fill="#5B86B8" transform="matrix(1.00, 0.00, -0.00, -1.00, 110.6, 7.7)">i</text><text xml:space="preserve" font-family="Palatino-Roman,Palatino" font-size="24.0" fill="#5B86B8" transform="matrix(1.00, 0.00, -0.00, -1.00, 117.5, 7.7)">n</text><text xml:space="preserve" font-family="Palatino-Roman,Palatino" font-size="24.0" fill="#5B86B8" transform="matrix(1.00, 0.00, -0.00, -1.00, 131.5, 7.7)">t</text><text xml:space="preserve" font-family="Palatino-Roman,Palatino" font-size="24.0" fill="#5B86B8" transform="matrix(1.00, 0.00, -0.00, -1.00, 139.3, 7.7)">e</text><text xml:space="preserve" font-family="Palatino-Roman,Palatino" font-size="24.0" fill="#5B86B8" transform="matrix(1.00, 0.00, -0.00, -1.00, 150.8, 7.7)">r</text><text xml:space="preserve" font-family="Palatino-Roman,Palatino" font-size="24.0" fill="#5B86B8" transform="matrix(1.00, 0.00, -0.00, -1.00, 160.3, 7.7)">p</text><text xml:space="preserve" font-family="Palatino-Roman,Palatino" font-size="24.0" fill="#5B86B8" transform="matrix(1.00, 0.00, -0.00, -1.00, 174.7, 7.7)">r</text><text xml:space="preserve" font-family="Palatino-Roman,Palatino" font-size="24.0" fill="#5B86B8" transform="matrix(1.00, 0.00, -0.00, -1.00, 183.8, 7.7)">e</text><text xml:space="preserve" font-family="Palatino-Roman,Palatino" font-size="24.0" fill="#5B86B8" transform="matrix(1.00, 0.00, -0.00, -1.00, 195.3, 7.7)">t</text><text xml:space="preserve" font-family="Palatino-Roman,Palatino" font-size="24.0" fill="#5B86B8" transform="matrix(1.00, 0.00, -0.00, -1.00, 203.1, 7.7)">e</text><text xml:space="preserve" font-family="Palatino-Roman,Palatino" font-size="24.0" fill="#5B86B8" transform="matrix(1.00, 0.00, -0.00, -1.00, 214.6, 7.7)">r</text><text xml:space="preserve" font-family="Palatino-Roman,Palatino" font-size="24.0" fill="#5B86B8" transform="matrix(1.00, 0.00, -0.00, -1.00, 224.1, 7.7)"> </text><text xml:space="preserve" font-family="Palatino-Roman,Palatino" font-size="24.0" fill="#5B86B8" transform="matrix(1.00, 0.00, -0.00, -1.00, 230.1, 7.7)">i</text><text xml:space="preserve" font-family="Palatino-Roman,Palatino" font-size="24.0" fill="#5B86B8" transform="matrix(1.00, 0.00, -0.00, -1.00, 237.1, 7.7)">n</text><text xml:space="preserve" font-family="Palatino-Roman,Palatino" font-size="24.0" fill="#5B86B8" transform="matrix(1.00, 0.00, -0.00, -1.00, 251.1, 7.7)"> </text><text xml:space="preserve" font-family="Palatino-Roman,Palatino" font-size="24.0" fill="#5B86B8" transform="matrix(1.00, 0.00, -0.00, -1.00, 257.1, 7.7)">a</text><text xml:space="preserve" font-family="Palatino-Roman,Palatino" font-size="24.0" fill="#5B86B8" transform="matrix(1.00, 0.00, -0.00, -1.00, 269.1, 7.7)"> </text><text xml:space="preserve" font-family="Palatino-Roman,Palatino" font-size="24.0" fill="#5B86B8" transform="matrix(1.00, 0.00, -0.00, -1.00, 275.1, 7.7)">R</text><text xml:space="preserve" font-family="Palatino-Roman,Palatino" font-size="24.0" fill="#5B86B8" transform="matrix(1.00, 0.00, -0.00, -1.00, 291.1, 7.7)">u</text><text xml:space="preserve" font-family="Palatino-Roman,Palatino" font-size="24.0" fill="#5B86B8" transform="matrix(1.00, 0.00, -0.00, -1.00, 305.6, 7.7)">s</text><text xml:space="preserve" font-family="Palatino-Roman,Palatino" font-size="24.0" fill="#5B86B8" transform="matrix(1.00, 0.00, -0.00, -1.00, 315.7, 7.7)">t</text><text xml:space="preserve" font-family="Palatino-Roman,Palatino" font-size="24.0" fill="#5B86B8" transform="matrix(1.00, 0.00, -0.00, -1.00, 323.6, 7.7)"> </text><text xml:space="preserve" font-family="Palatino-Roman,Palatino" font-size="24.0" fill="#5B86B8" transform="matrix(1.00, 0.00, -0.00, -1.00, 329.6, 7.7)">m</text><text xml:space="preserve" font-family="Palatino-Roman,Palatino" font-size="24.0" fill="#5B86B8" transform="matrix(1.00, 0.00, -0.00, -1.00, 350.7, 7.7)">a</text><text xml:space="preserve" font-family="Palatino-Roman,Palatino" font-size="24.0" fill="#5B86B8" transform="matrix(1.00, 0.00, -0.00, -1.00, 362.7, 7.7)">c</text><text xml:space="preserve" font-family="Palatino-Roman,Palatino" font-size="24.0" fill="#5B86B8" transform="matrix(1.00, 0.00, -0.00, -1.00, 373.4, 7.7)">r</text><text xml:space="preserve" font-family="Palatino-Roman,Palatino" font-size="24.0" fill="#5B86B8" transform="matrix(1.00, 0.00, -0.00, -1.00, 382.5, 7.7)">o</text></g></svg>