<?xml version="1.0" encoding="UTF-8" standalone="no"?><svg xmlns="http://www.w3.org/2000/svg" xmlns:xlink="http://www.w3.org/1999/xlink" clip-rule="evenodd" stroke-miterlimit="10" viewBox="0 0 234 77"><desc>SVG generated by Keynote</desc><defs></defs><g transform="matrix(1.00, 0.00, -0.00, -1.00, 0.0, 77.0)"><text xml:space="preserve" font-family="Palatino-Roman,Palatino" font-size="78.0" fill="#324763" transform="matrix(1.00, 0.00, -0.00, -1.00, 3.2, 15.9)">,</text><text xml:space="preserve" font-family="Palatino-Roman,Palatino" font-size="78.0" fill="#324763" transform="matrix(1.00, 0.00, -0.00, -1.00, 22.7, 15.9)">[</text><text xml:space="preserve" font-family="Palatino-Roman,Palatino" font-size="78.0" fill="#324763" transform="matrix(1.00, 0.00, -0.00, -1.00, 48.7, 15.9)">+</text><text xml:space="preserve" font-family="Palatino-Roman,Palatino" font-size="78.0" fill="#324763" transform="matrix(1.00, 0.00, -0.00, -1.00, 95.9, 15.9)">.</text><text xml:space="preserve" font-family="Palatino-Roman,Palatino" font-size="78.0" fill="#324763" transform="matrix(1.00, 0.00, -0.00, -1.00, 115.4, 15.9)">[</text><text xml:space="preserve" font-family="Palatino-Roman,Palatino" font-size="78.0" fill="#324763" transform="matrix(1.00, 0.00, -0.00, -1.00, 141.4, 15.9)">-</text><text xml:space="preserve" font-family="Palatino-Roman,Palatino" font-size="78.0" fill="#324763" transform="matrix(1.00, 0.00, -0.00, -1.00, 167.4, 15.9)">]</text><text xml:space="preserve" font-family="Palatino-Roman,Palatino" font-size="78.0" fill="#324763" transform="matrix(1.00, 0.00, -0.00, -1.00, 193.3, 15.9)">,</text><text xml:space="preserve" font-family="Palatino-Roman,Palatino" font-size="78.0" fill="#324763" transform="matrix(1.00, 0.00, -0.00, -1.00, 212.8, 15.9)">]</text></g></svg>