<?xml version="1.0" encoding="UTF-8" standalone="no"?><svg xmlns="http://www.w3.org/2000/svg" xmlns:xlink="http://www.w3.org/1999/xlink" clip-rule="evenodd" stroke-miterlimit="10" viewBox="0 0 1024 768"><desc>SVG generated by Keynote</desc><defs></defs><g transform="matrix(1.00, 0.00, -0.00, -1.00, 0.0, 768.0)"><g><clipPath id="clip0x6000050aada0"><path d="M 0.0 768.0 L 1024.0 768.0 L 1024.0 0.0 L 0.0 0.0 Z M 0.0 768.0 "></path></clipPath><g clip-path="url(#clip0x6000050aada0)"><image xlink:href="../../CABF5236-1324-4602-9291-A4670FFDE0C7/assets/1783979FC7716684DCC3F94F50982FFC.jpeg" width="2048.00" height="1536.00" transform="matrix(0.50, 0.00, -0.00, -0.50, 0.0, 768.0)"></image></g></g><path d="M 0.0 0.5 L 960.0 0.5 L 960.0 0.5 L 0.0 0.5 Z M 0.0 0.0 " fill="none" stroke="#7995B9" stroke-width="1.00" transform="matrix(1.00, 0.00, 0.00, -1.00, 32.0, 89.0)"></path><path d="M 0.0 0.5 L 960.0 0.5 L 960.0 0.5 L 0.0 0.5 Z M 0.0 0.0 " fill="none" stroke="#7995B9" stroke-width="1.00" transform="matrix(1.00, 0.00, 0.00, -1.00, 32.0, 85.0)"></path><text xml:space="preserve" font-family="Palatino-Italic,Palatino" font-style="italic" font-size="18.0" fill="#5B86B8" transform="matrix(1.00, 0.00, -0.00, -1.00, 30.9, 51.5)">S</text><text xml:space="preserve" font-family="Palatino-Italic,Palatino" font-style="italic" font-size="18.0" fill="#5B86B8" transform="matrix(1.00, 0.00, -0.00, -1.00, 40.9, 51.5)">e</text><text xml:space="preserve" font-family="Palatino-Italic,Palatino" font-style="italic" font-size="18.0" fill="#5B86B8" transform="matrix(1.00, 0.00, -0.00, -1.00, 47.9, 51.5)">p</text><text xml:space="preserve" font-family="Palatino-Italic,Palatino" font-style="italic" font-size="18.0" fill="#5B86B8" transform="matrix(1.00, 0.00, -0.00, -1.00, 56.9, 51.5)">t</text><text xml:space="preserve" font-family="Palatino-Italic,Palatino" font-style="italic" font-size="18.0" fill="#5B86B8" transform="matrix(1.00, 0.00, -0.00, -1.00, 62.9, 51.5)">e</text><text xml:space="preserve" font-family="Palatino-Italic,Palatino" font-style="italic" font-size="18.0" fill="#5B86B8" transform="matrix(1.00, 0.00, -0.00, -1.00, 69.9, 51.5)">m</text><text xml:space="preserve" font-family="Palatino-Italic,Palatino" font-style="italic" font-size="18.0" fill="#5B86B8" transform="matrix(1.00, 0.00, -0.00, -1.00, 83.9, 51.5)">b</text><text xml:space="preserve" font-family="Palatino-Italic,Palatino" font-style="italic" font-size="18.0" fill="#5B86B8" transform="matrix(1.00, 0.00, -0.00, -1.00, 92.3, 51.5)">e</text><text xml:space="preserve" font-family="Palatino-Italic,Palatino" font-style="italic" font-size="18.0" fill="#5B86B8" transform="matrix(1.00, 0.00, -0.00, -1.00, 99.3, 51.5)">r</text><text xml:space="preserve" font-family="Palatino-Italic,Palatino" font-style="italic" font-size="18.0" fill="#5B86B8" transform="matrix(1.00, 0.00, -0.00, -1.00, 106.3, 51.5)"> </text><text xml:space="preserve" font-family="Palatino-Italic,Palatino" font-style="italic" font-size="18.0" fill="#5B86B8" transform="matrix(1.00, 0.00, -0.00, -1.00, 110.8, 51.5)">3</text><text xml:space="preserve" font-family="Palatino-Italic,Palatino" font-style="italic" font-size="18.0" fill="#5B86B8" transform="matrix(1.00, 0.00, -0.00, -1.00, 119.8, 51.5)">0</text><text xml:space="preserve" font-family="Palatino-Italic,Palatino" font-style="italic" font-size="18.0" fill="#5B86B8" transform="matrix(1.00, 0.00, -0.00, -1.00, 128.8, 51.5)">,</text><text xml:space="preserve" font-family="Palatino-Italic,Palatino" font-style="italic" font-size="18.0" fill="#5B86B8" transform="matrix(1.00, 0.00, -0.00, -1.00, 133.3, 51.5)"> </text><text xml:space="preserve" font-family="Palatino-Italic,Palatino" font-style="italic" font-size="18.0" fill="#5B86B8" transform="matrix(1.00, 0.00, -0.00, -1.00, 137.8, 51.5)">2</text><text xml:space="preserve" font-family="Palatino-Italic,Palatino" font-style="italic" font-size="18.0" fill="#5B86B8" transform="matrix(1.00, 0.00, -0.00, -1.00, 146.8, 51.5)">0</text><text xml:space="preserve" font-family="Palatino-Italic,Palatino" font-style="italic" font-size="18.0" fill="#5B86B8" transform="matrix(1.00, 0.00, -0.00, -1.00, 155.8, 51.5)">1</text><text xml:space="preserve" font-family="Palatino-Italic,Palatino" font-style="italic" font-size="18.0" fill="#5B86B8" transform="matrix(1.00, 0.00, -0.00, -1.00, 164.8, 51.5)">7</text><text xml:space="preserve" font-family="Palatino-Italic,Palatino" font-style="italic" font-size="18.0" fill="#5B86B8" transform="matrix(1.00, 0.00, -0.00, -1.00, 819.2, 51.5)">R</text><text xml:space="preserve" font-family="Palatino-Italic,Palatino" font-style="italic" font-size="18.0" fill="#5B86B8" transform="matrix(1.00, 0.00, -0.00, -1.00, 831.2, 51.5)">u</text><text xml:space="preserve" font-family="Palatino-Italic,Palatino" font-style="italic" font-size="18.0" fill="#5B86B8" transform="matrix(1.00, 0.00, -0.00, -1.00, 841.2, 51.5)">s</text><text xml:space="preserve" font-family="Palatino-Italic,Palatino" font-style="italic" font-size="18.0" fill="#5B86B8" transform="matrix(1.00, 0.00, -0.00, -1.00, 848.2, 51.5)">t</text><text xml:space="preserve" font-family="Palatino-Italic,Palatino" font-style="italic" font-size="18.0" fill="#5B86B8" transform="matrix(1.00, 0.00, -0.00, -1.00, 854.2, 51.5)">F</text><text xml:space="preserve" font-family="Palatino-Italic,Palatino" font-style="italic" font-size="18.0" fill="#5B86B8" transform="matrix(1.00, 0.00, -0.00, -1.00, 864.2, 51.5)">e</text><text xml:space="preserve" font-family="Palatino-Italic,Palatino" font-style="italic" font-size="18.0" fill="#5B86B8" transform="matrix(1.00, 0.00, -0.00, -1.00, 871.3, 51.5)">s</text><text xml:space="preserve" font-family="Palatino-Italic,Palatino" font-style="italic" font-size="18.0" fill="#5B86B8" transform="matrix(1.00, 0.00, -0.00, -1.00, 878.3, 51.5)">t</text><text xml:space="preserve" font-family="Palatino-Italic,Palatino" font-style="italic" font-size="18.0" fill="#5B86B8" transform="matrix(1.00, 0.00, -0.00, -1.00, 884.3, 51.5)"> </text><text xml:space="preserve" font-family="Palatino-Italic,Palatino" font-style="italic" font-size="18.0" fill="#5B86B8" transform="matrix(1.00, 0.00, -0.00, -1.00, 888.8, 51.5)">Z</text><text xml:space="preserve" font-family="Palatino-Italic,Palatino" font-style="italic" font-size="18.0" fill="#5B86B8" transform="matrix(1.00, 0.00, -0.00, -1.00, 900.8, 51.5)">ü</text><text xml:space="preserve" font-family="Palatino-Italic,Palatino" font-style="italic" font-size="18.0" fill="#5B86B8" transform="matrix(1.00, 0.00, -0.00, -1.00, 910.8, 51.5)">r</text><text xml:space="preserve" font-family="Palatino-Italic,Palatino" font-style="italic" font-size="18.0" fill="#5B86B8" transform="matrix(1.00, 0.00, -0.00, -1.00, 917.8, 51.5)">i</text><text xml:space="preserve" font-family="Palatino-Italic,Palatino" font-style="italic" font-size="18.0" fill="#5B86B8" transform="matrix(1.00, 0.00, -0.00, -1.00, 922.8, 51.5)">c</text><text xml:space="preserve" font-family="Palatino-Italic,Palatino" font-style="italic" font-size="18.0" fill="#5B86B8" transform="matrix(1.00, 0.00, -0.00, -1.00, 930.1, 51.5)">h</text><text xml:space="preserve" font-family="Palatino-Italic,Palatino" font-style="italic" font-size="18.0" fill="#5B86B8" transform="matrix(1.00, 0.00, -0.00, -1.00, 939.1, 51.5)"> </text><text xml:space="preserve" font-family="Palatino-Italic,Palatino" font-style="italic" font-size="18.0" fill="#5B86B8" transform="matrix(1.00, 0.00, -0.00, -1.00, 943.6, 51.5)">2</text><text xml:space="preserve" font-family="Palatino-Italic,Palatino" font-style="italic" font-size="18.0" fill="#5B86B8" transform="matrix(1.00, 0.00, -0.00, -1.00, 952.6, 51.5)">0</text><text xml:space="preserve" font-family="Palatino-Italic,Palatino" font-style="italic" font-size="18.0" fill="#5B86B8" transform="matrix(1.00, 0.00, -0.00, -1.00, 961.6, 51.5)">1</text><text xml:space="preserve" font-family="Palatino-Italic,Palatino" font-style="italic" font-size="18.0" fill="#5B86B8" transform="matrix(1.00, 0.00, -0.00, -1.00, 970.6, 51.5)">7</text><text xml:space="preserve" font-family="Palatino-Italic,Palatino" font-style="italic" font-size="18.0" fill="#5B86B8" transform="matrix(1.00, 0.00, -0.00, -1.00, 979.6, 51.5)">.</text><text xml:space="preserve" font-family="Palatino-Italic,Palatino" font-style="italic" font-size="18.0" fill="#5B86B8" transform="matrix(1.00, 0.00, -0.00, -1.00, 984.1, 51.5)">2</text><text xml:space="preserve" font-family="Didot,Didot" font-size="64.0" fill="#304863" transform="matrix(1.00, 0.00, -0.00, -1.00, 32.0, 159.7)">I</text><text xml:space="preserve" font-family="Didot,Didot" font-size="64.0" fill="#304863" transform="matrix(1.00, 0.00, -0.00, -1.00, 55.6, 159.7)">m</text><text xml:space="preserve" font-family="Didot,Didot" font-size="64.0" fill="#304863" transform="matrix(1.00, 0.00, -0.00, -1.00, 110.0, 159.7)">p</text><text xml:space="preserve" font-family="Didot,Didot" font-size="64.0" fill="#304863" transform="matrix(1.00, 0.00, -0.00, -1.00, 146.6, 159.7)">r</text><text xml:space="preserve" font-family="Didot,Didot" font-size="64.0" fill="#304863" transform="matrix(1.00, 0.00, -0.00, -1.00, 171.4, 159.7)">a</text><text xml:space="preserve" font-family="Didot,Didot" font-size="64.0" fill="#304863" transform="matrix(1.00, 0.00, -0.00, -1.00, 200.9, 159.7)">c</text><text xml:space="preserve" font-family="Didot,Didot" font-size="64.0" fill="#304863" transform="matrix(1.00, 0.00, -0.00, -1.00, 230.4, 159.7)">t</text><text xml:space="preserve" font-family="Didot,Didot" font-size="64.0" fill="#304863" transform="matrix(1.00, 0.00, -0.00, -1.00, 250.4, 159.7)">i</text><text xml:space="preserve" font-family="Didot,Didot" font-size="64.0" fill="#304863" transform="matrix(1.00, 0.00, -0.00, -1.00, 268.1, 159.7)">c</text><text xml:space="preserve" font-family="Didot,Didot" font-size="64.0" fill="#304863" transform="matrix(1.00, 0.00, -0.00, -1.00, 297.6, 159.7)">a</text><text xml:space="preserve" font-family="Didot,Didot" font-size="64.0" fill="#304863" transform="matrix(1.00, 0.00, -0.00, -1.00, 327.1, 159.7)">l</text><text xml:space="preserve" font-family="Didot,Didot" font-size="64.0" fill="#304863" transform="matrix(1.00, 0.00, -0.00, -1.00, 344.8, 159.7)"> </text><text xml:space="preserve" font-family="Didot,Didot" font-size="64.0" fill="#304863" transform="matrix(1.00, 0.00, -0.00, -1.00, 361.3, 159.7)">M</text><text xml:space="preserve" font-family="Didot,Didot" font-size="64.0" fill="#304863" transform="matrix(1.00, 0.00, -0.00, -1.00, 415.7, 159.7)">a</text><text xml:space="preserve" font-family="Didot,Didot" font-size="64.0" fill="#304863" transform="matrix(1.00, 0.00, -0.00, -1.00, 445.2, 159.7)">c</text><text xml:space="preserve" font-family="Didot,Didot" font-size="64.0" fill="#304863" transform="matrix(1.00, 0.00, -0.00, -1.00, 474.7, 159.7)">r</text><text xml:space="preserve" font-family="Didot,Didot" font-size="64.0" fill="#304863" transform="matrix(1.00, 0.00, -0.00, -1.00, 499.5, 159.7)">o</text><text xml:space="preserve" font-family="Didot,Didot" font-size="64.0" fill="#304863" transform="matrix(1.00, 0.00, -0.00, -1.00, 533.8, 159.7)">s</text><text xml:space="preserve" font-family="Didot,Didot" font-size="64.0" fill="#304863" transform="matrix(1.00, 0.00, -0.00, -1.00, 559.7, 159.7)">:</text><text xml:space="preserve" font-family="Didot,Didot" font-size="64.0" fill="#304863" transform="matrix(1.00, 0.00, -0.00, -1.00, 572.7, 159.7)"> </text><text xml:space="preserve" font-family="Didot,Didot" font-size="64.0" fill="#304863" transform="matrix(1.00, 0.00, -0.00, -1.00, 589.2, 159.7)">B</text><text xml:space="preserve" font-family="Didot,Didot" font-size="64.0" fill="#304863" transform="matrix(1.00, 0.00, -0.00, -1.00, 630.7, 159.7)">r</text><text xml:space="preserve" font-family="Didot,Didot" font-size="64.0" fill="#304863" transform="matrix(1.00, 0.00, -0.00, -1.00, 655.4, 159.7)">a</text><text xml:space="preserve" font-family="Didot,Didot" font-size="64.0" fill="#304863" transform="matrix(1.00, 0.00, -0.00, -1.00, 684.9, 159.7)">i</text><text xml:space="preserve" font-family="Didot,Didot" font-size="64.0" fill="#304863" transform="matrix(1.00, 0.00, -0.00, -1.00, 702.6, 159.7)">n</text><text xml:space="preserve" font-family="Didot,Didot" font-size="64.0" fill="#304863" transform="matrix(1.00, 0.00, -0.00, -1.00, 740.4, 159.7)">m</text><text xml:space="preserve" font-family="Didot,Didot" font-size="64.0" fill="#304863" transform="matrix(1.00, 0.00, -0.00, -1.00, 794.8, 159.7)">u</text><text xml:space="preserve" font-family="Didot,Didot" font-size="64.0" fill="#304863" transform="matrix(1.00, 0.00, -0.00, -1.00, 831.5, 159.7)">n</text><text xml:space="preserve" font-family="Didot,Didot" font-size="64.0" fill="#304863" transform="matrix(1.00, 0.00, -0.00, -1.00, 869.3, 159.7)">c</text><text xml:space="preserve" font-family="Didot,Didot" font-size="64.0" fill="#304863" transform="matrix(1.00, 0.00, -0.00, -1.00, 898.2, 159.7)">h</text><text xml:space="preserve" font-family="Palatino-Roman,Palatino" font-size="24.0" fill="#5B86B8" transform="matrix(1.00, 0.00, -0.00, -1.00, 32.0, 108.7)">B</text><text xml:space="preserve" font-family="Palatino-Roman,Palatino" font-size="24.0" fill="#5B86B8" transform="matrix(1.00, 0.00, -0.00, -1.00, 46.7, 108.7)">r</text><text xml:space="preserve" font-family="Palatino-Roman,Palatino" font-size="24.0" fill="#5B86B8" transform="matrix(1.00, 0.00, -0.00, -1.00, 56.1, 108.7)">a</text><text xml:space="preserve" font-family="Palatino-Roman,Palatino" font-size="24.0" fill="#5B86B8" transform="matrix(1.00, 0.00, -0.00, -1.00, 68.1, 108.7)">i</text><text xml:space="preserve" font-family="Palatino-Roman,Palatino" font-size="24.0" fill="#5B86B8" transform="matrix(1.00, 0.00, -0.00, -1.00, 75.1, 108.7)">n</text><text xml:space="preserve" font-family="Palatino-Roman,Palatino" font-size="24.0" fill="#5B86B8" transform="matrix(1.00, 0.00, -0.00, -1.00, 89.1, 108.7)">f</text><text xml:space="preserve" font-family="Palatino-Roman,Palatino" font-size="24.0" fill="#5B86B8" transform="matrix(1.00, 0.00, -0.00, -1.00, 97.1, 108.7)">u</text><text xml:space="preserve" font-family="Palatino-Roman,Palatino" font-size="24.0" fill="#5B86B8" transform="matrix(1.00, 0.00, -0.00, -1.00, 111.6, 108.7)">c</text><text xml:space="preserve" font-family="Palatino-Roman,Palatino" font-size="24.0" fill="#5B86B8" transform="matrix(1.00, 0.00, -0.00, -1.00, 122.2, 108.7)">k</text><text xml:space="preserve" font-family="Palatino-Roman,Palatino" font-size="24.0" fill="#5B86B8" transform="matrix(1.00, 0.00, -0.00, -1.00, 135.6, 108.7)"> </text><text xml:space="preserve" font-family="Palatino-Roman,Palatino" font-size="24.0" fill="#5B86B8" transform="matrix(1.00, 0.00, -0.00, -1.00, 141.6, 108.7)">i</text><text xml:space="preserve" font-family="Palatino-Roman,Palatino" font-size="24.0" fill="#5B86B8" transform="matrix(1.00, 0.00, -0.00, -1.00, 148.5, 108.7)">n</text><text xml:space="preserve" font-family="Palatino-Roman,Palatino" font-size="24.0" fill="#5B86B8" transform="matrix(1.00, 0.00, -0.00, -1.00, 162.5, 108.7)">t</text><text xml:space="preserve" font-family="Palatino-Roman,Palatino" font-size="24.0" fill="#5B86B8" transform="matrix(1.00, 0.00, -0.00, -1.00, 170.3, 108.7)">e</text><text xml:space="preserve" font-family="Palatino-Roman,Palatino" font-size="24.0" fill="#5B86B8" transform="matrix(1.00, 0.00, -0.00, -1.00, 181.8, 108.7)">r</text><text xml:space="preserve" font-family="Palatino-Roman,Palatino" font-size="24.0" fill="#5B86B8" transform="matrix(1.00, 0.00, -0.00, -1.00, 191.3, 108.7)">p</text><text xml:space="preserve" font-family="Palatino-Roman,Palatino" font-size="24.0" fill="#5B86B8" transform="matrix(1.00, 0.00, -0.00, -1.00, 205.7, 108.7)">r</text><text xml:space="preserve" font-family="Palatino-Roman,Palatino" font-size="24.0" fill="#5B86B8" transform="matrix(1.00, 0.00, -0.00, -1.00, 214.8, 108.7)">e</text><text xml:space="preserve" font-family="Palatino-Roman,Palatino" font-size="24.0" fill="#5B86B8" transform="matrix(1.00, 0.00, -0.00, -1.00, 226.3, 108.7)">t</text><text xml:space="preserve" font-family="Palatino-Roman,Palatino" font-size="24.0" fill="#5B86B8" transform="matrix(1.00, 0.00, -0.00, -1.00, 234.1, 108.7)">e</text><text xml:space="preserve" font-family="Palatino-Roman,Palatino" font-size="24.0" fill="#5B86B8" transform="matrix(1.00, 0.00, -0.00, -1.00, 245.6, 108.7)">r</text><text xml:space="preserve" font-family="Palatino-Roman,Palatino" font-size="24.0" fill="#5B86B8" transform="matrix(1.00, 0.00, -0.00, -1.00, 255.1, 108.7)"> </text><text xml:space="preserve" font-family="Palatino-Roman,Palatino" font-size="24.0" fill="#5B86B8" transform="matrix(1.00, 0.00, -0.00, -1.00, 261.1, 108.7)">i</text><text xml:space="preserve" font-family="Palatino-Roman,Palatino" font-size="24.0" fill="#5B86B8" transform="matrix(1.00, 0.00, -0.00, -1.00, 268.1, 108.7)">n</text><text xml:space="preserve" font-family="Palatino-Roman,Palatino" font-size="24.0" fill="#5B86B8" transform="matrix(1.00, 0.00, -0.00, -1.00, 282.1, 108.7)"> </text><text xml:space="preserve" font-family="Palatino-Roman,Palatino" font-size="24.0" fill="#5B86B8" transform="matrix(1.00, 0.00, -0.00, -1.00, 288.1, 108.7)">a</text><text xml:space="preserve" font-family="Palatino-Roman,Palatino" font-size="24.0" fill="#5B86B8" transform="matrix(1.00, 0.00, -0.00, -1.00, 300.1, 108.7)"> </text><text xml:space="preserve" font-family="Palatino-Roman,Palatino" font-size="24.0" fill="#5B86B8" transform="matrix(1.00, 0.00, -0.00, -1.00, 306.1, 108.7)">R</text><text xml:space="preserve" font-family="Palatino-Roman,Palatino" font-size="24.0" fill="#5B86B8" transform="matrix(1.00, 0.00, -0.00, -1.00, 322.1, 108.7)">u</text><text xml:space="preserve" font-family="Palatino-Roman,Palatino" font-size="24.0" fill="#5B86B8" transform="matrix(1.00, 0.00, -0.00, -1.00, 336.6, 108.7)">s</text><text xml:space="preserve" font-family="Palatino-Roman,Palatino" font-size="24.0" fill="#5B86B8" transform="matrix(1.00, 0.00, -0.00, -1.00, 346.7, 108.7)">t</text><text xml:space="preserve" font-family="Palatino-Roman,Palatino" font-size="24.0" fill="#5B86B8" transform="matrix(1.00, 0.00, -0.00, -1.00, 354.6, 108.7)"> </text><text xml:space="preserve" font-family="Palatino-Roman,Palatino" font-size="24.0" fill="#5B86B8" transform="matrix(1.00, 0.00, -0.00, -1.00, 360.6, 108.7)">m</text><text xml:space="preserve" font-family="Palatino-Roman,Palatino" font-size="24.0" fill="#5B86B8" transform="matrix(1.00, 0.00, -0.00, -1.00, 381.7, 108.7)">a</text><text xml:space="preserve" font-family="Palatino-Roman,Palatino" font-size="24.0" fill="#5B86B8" transform="matrix(1.00, 0.00, -0.00, -1.00, 393.7, 108.7)">c</text><text xml:space="preserve" font-family="Palatino-Roman,Palatino" font-size="24.0" fill="#5B86B8" transform="matrix(1.00, 0.00, -0.00, -1.00, 404.4, 108.7)">r</text><text xml:space="preserve" font-family="Palatino-Roman,Palatino" font-size="24.0" fill="#5B86B8" transform="matrix(1.00, 0.00, -0.00, -1.00, 413.5, 108.7)">o</text><text xml:space="preserve" font-family="Palatino-Roman,Palatino" font-size="78.0" fill="#324763" transform="matrix(1.00, 0.00, -0.00, -1.00, 394.2, 438.9)">,</text><text xml:space="preserve" font-family="Palatino-Roman,Palatino" font-size="78.0" fill="#324763" transform="matrix(1.00, 0.00, -0.00, -1.00, 413.7, 438.9)">[</text><text xml:space="preserve" font-family="Palatino-Roman,Palatino" font-size="78.0" fill="#324763" transform="matrix(1.00, 0.00, -0.00, -1.00, 439.7, 438.9)">+</text><text xml:space="preserve" font-family="Palatino-Roman,Palatino" font-size="78.0" fill="#324763" transform="matrix(1.00, 0.00, -0.00, -1.00, 486.9, 438.9)">.</text><text xml:space="preserve" font-family="Palatino-Roman,Palatino" font-size="78.0" fill="#324763" transform="matrix(1.00, 0.00, -0.00, -1.00, 506.4, 438.9)">[</text><text xml:space="preserve" font-family="Palatino-Roman,Palatino" font-size="78.0" fill="#324763" transform="matrix(1.00, 0.00, -0.00, -1.00, 532.4, 438.9)">-</text><text xml:space="preserve" font-family="Palatino-Roman,Palatino" font-size="78.0" fill="#324763" transform="matrix(1.00, 0.00, -0.00, -1.00, 558.4, 438.9)">]</text><text xml:space="preserve" font-family="Palatino-Roman,Palatino" font-size="78.0" fill="#324763" transform="matrix(1.00, 0.00, -0.00, -1.00, 584.3, 438.9)">,</text><text xml:space="preserve" font-family="Palatino-Roman,Palatino" font-size="78.0" fill="#324763" transform="matrix(1.00, 0.00, -0.00, -1.00, 603.8, 438.9)">]</text></g></svg>