<?xml version="1.0" encoding="UTF-8" standalone="no"?><svg xmlns="http://www.w3.org/2000/svg" xmlns:xlink="http://www.w3.org/1999/xlink" clip-rule="evenodd" stroke-miterlimit="10" viewBox="0 0 863 103"><desc>SVG generated by Keynote</desc><defs></defs><g transform="matrix(1.00, 0.00, -0.00, -1.00, 0.0, 103.0)"><text xml:space="preserve" font-family="ZapfDingbatsITC,Zapf Dingbats" font-size="18.9" fill="#5B86B8" transform="matrix(1.00, 0.00, -0.00, -1.00, 0.0, 82.5)">✤</text><text xml:space="preserve" font-family="Palatino-Roman,Palatino" font-size="27.0" fill="#000000" transform="matrix(1.00, 0.00, -0.00, -1.00, 28.4, 80.1)">O</text><text xml:space="preserve" font-family="Palatino-Roman,Palatino" font-size="27.0" fill="#000000" transform="matrix(1.00, 0.00, -0.00, -1.00, 49.6, 80.1)">o</text><text xml:space="preserve" font-family="Palatino-Roman,Palatino" font-size="27.0" fill="#000000" transform="matrix(1.00, 0.00, -0.00, -1.00, 64.3, 80.1)">k</text><text xml:space="preserve" font-family="Palatino-Roman,Palatino" font-size="27.0" fill="#000000" transform="matrix(1.00, 0.00, -0.00, -1.00, 79.3, 80.1)">!</text><text xml:space="preserve" font-family="Palatino-Roman,Palatino" font-size="27.0" fill="#000000" transform="matrix(1.00, 0.00, -0.00, -1.00, 86.8, 80.1)">/</text><text xml:space="preserve" font-family="Palatino-Roman,Palatino" font-size="27.0" fill="#000000" transform="matrix(1.00, 0.00, -0.00, -1.00, 103.2, 80.1)">H</text><text xml:space="preserve" font-family="Palatino-Roman,Palatino" font-size="27.0" fill="#000000" transform="matrix(1.00, 0.00, -0.00, -1.00, 125.6, 80.1)">O</text><text xml:space="preserve" font-family="Palatino-Roman,Palatino" font-size="27.0" fill="#000000" transform="matrix(1.00, 0.00, -0.00, -1.00, 146.8, 80.1)">D</text><text xml:space="preserve" font-family="Palatino-Roman,Palatino" font-size="27.0" fill="#000000" transform="matrix(1.00, 0.00, -0.00, -1.00, 167.7, 80.1)">O</text><text xml:space="preserve" font-family="Palatino-Roman,Palatino" font-size="27.0" fill="#000000" transform="matrix(1.00, 0.00, -0.00, -1.00, 188.9, 80.1)">R</text><text xml:space="preserve" font-family="Palatino-Roman,Palatino" font-size="27.0" fill="#000000" transform="matrix(1.00, 0.00, -0.00, -1.00, 207.0, 80.1)"> </text><text xml:space="preserve" font-family="Palatino-Roman,Palatino" font-size="27.0" fill="#000000" transform="matrix(1.00, 0.00, -0.00, -1.00, 213.7, 80.1)">c</text><text xml:space="preserve" font-family="Palatino-Roman,Palatino" font-size="27.0" fill="#000000" transform="matrix(1.00, 0.00, -0.00, -1.00, 225.7, 80.1)">o</text><text xml:space="preserve" font-family="Palatino-Roman,Palatino" font-size="27.0" fill="#000000" transform="matrix(1.00, 0.00, -0.00, -1.00, 240.4, 80.1)">m</text><text xml:space="preserve" font-family="Palatino-Roman,Palatino" font-size="27.0" fill="#000000" transform="matrix(1.00, 0.00, -0.00, -1.00, 264.2, 80.1)">p</text><text xml:space="preserve" font-family="Palatino-Roman,Palatino" font-size="27.0" fill="#000000" transform="matrix(1.00, 0.00, -0.00, -1.00, 280.4, 80.1)">i</text><text xml:space="preserve" font-family="Palatino-Roman,Palatino" font-size="27.0" fill="#000000" transform="matrix(1.00, 0.00, -0.00, -1.00, 288.3, 80.1)">l</text><text xml:space="preserve" font-family="Palatino-Roman,Palatino" font-size="27.0" fill="#000000" transform="matrix(1.00, 0.00, -0.00, -1.00, 296.1, 80.1)">e</text><text xml:space="preserve" font-family="Palatino-Roman,Palatino" font-size="27.0" fill="#000000" transform="matrix(1.00, 0.00, -0.00, -1.00, 309.1, 80.1)">r</text><text xml:space="preserve" font-family="Palatino-Roman,Palatino" font-size="27.0" fill="#000000" transform="matrix(1.00, 0.00, -0.00, -1.00, 319.7, 80.1)"> </text><text xml:space="preserve" font-family="Palatino-Roman,Palatino" font-size="27.0" fill="#000000" transform="matrix(1.00, 0.00, -0.00, -1.00, 326.5, 80.1)">i</text><text xml:space="preserve" font-family="Palatino-Roman,Palatino" font-size="27.0" fill="#000000" transform="matrix(1.00, 0.00, -0.00, -1.00, 334.3, 80.1)">n</text><text xml:space="preserve" font-family="Palatino-Roman,Palatino" font-size="27.0" fill="#000000" transform="matrix(1.00, 0.00, -0.00, -1.00, 350.0, 80.1)"> </text><text xml:space="preserve" font-family="Palatino-Roman,Palatino" font-size="27.0" fill="#000000" transform="matrix(1.00, 0.00, -0.00, -1.00, 356.8, 80.1)">t</text><text xml:space="preserve" font-family="Palatino-Roman,Palatino" font-size="27.0" fill="#000000" transform="matrix(1.00, 0.00, -0.00, -1.00, 365.6, 80.1)">h</text><text xml:space="preserve" font-family="Palatino-Roman,Palatino" font-size="27.0" fill="#000000" transform="matrix(1.00, 0.00, -0.00, -1.00, 381.3, 80.1)">e</text><text xml:space="preserve" font-family="Palatino-Roman,Palatino" font-size="27.0" fill="#000000" transform="matrix(1.00, 0.00, -0.00, -1.00, 394.2, 80.1)"> </text><text xml:space="preserve" font-family="Palatino-Roman,Palatino" font-size="27.0" fill="#000000" transform="matrix(1.00, 0.00, -0.00, -1.00, 400.9, 80.1)">m</text><text xml:space="preserve" font-family="Palatino-Roman,Palatino" font-size="27.0" fill="#000000" transform="matrix(1.00, 0.00, -0.00, -1.00, 424.8, 80.1)">a</text><text xml:space="preserve" font-family="Palatino-Roman,Palatino" font-size="27.0" fill="#000000" transform="matrix(1.00, 0.00, -0.00, -1.00, 438.2, 80.1)">c</text><text xml:space="preserve" font-family="Palatino-Roman,Palatino" font-size="27.0" fill="#000000" transform="matrix(1.00, 0.00, -0.00, -1.00, 450.2, 80.1)">r</text><text xml:space="preserve" font-family="Palatino-Roman,Palatino" font-size="27.0" fill="#000000" transform="matrix(1.00, 0.00, -0.00, -1.00, 460.4, 80.1)">o</text><text xml:space="preserve" font-family="Palatino-Roman,Palatino" font-size="27.0" fill="#000000" transform="matrix(1.00, 0.00, -0.00, -1.00, 475.1, 80.1)"> </text><text xml:space="preserve" font-family="Palatino-Roman,Palatino" font-size="27.0" fill="#000000" transform="matrix(1.00, 0.00, -0.00, -1.00, 481.9, 80.1)">s</text><text xml:space="preserve" font-family="Palatino-Roman,Palatino" font-size="27.0" fill="#000000" transform="matrix(1.00, 0.00, -0.00, -1.00, 493.3, 80.1)">y</text><text xml:space="preserve" font-family="Palatino-Roman,Palatino" font-size="27.0" fill="#000000" transform="matrix(1.00, 0.00, -0.00, -1.00, 508.3, 80.1)">s</text><text xml:space="preserve" font-family="Palatino-Roman,Palatino" font-size="27.0" fill="#000000" transform="matrix(1.00, 0.00, -0.00, -1.00, 519.7, 80.1)">t</text><text xml:space="preserve" font-family="Palatino-Roman,Palatino" font-size="27.0" fill="#000000" transform="matrix(1.00, 0.00, -0.00, -1.00, 528.5, 80.1)">e</text><text xml:space="preserve" font-family="Palatino-Roman,Palatino" font-size="27.0" fill="#000000" transform="matrix(1.00, 0.00, -0.00, -1.00, 541.5, 80.1)">m</text><text xml:space="preserve" font-family="ZapfDingbatsITC,Zapf Dingbats" font-size="14.4" fill="#5B86B8" transform="matrix(1.00, 0.00, -0.00, -1.00, 40.0, 44.4)">✤</text><text xml:space="preserve" font-family="Palatino-Roman,Palatino" font-size="20.6" fill="#3D5A84" transform="matrix(1.00, 0.00, -0.00, -1.00, 59.4, 46.1)">h</text><text xml:space="preserve" font-family="Palatino-Roman,Palatino" font-size="20.6" fill="#3D5A84" transform="matrix(1.00, 0.00, -0.00, -1.00, 71.4, 46.1)">t</text><text xml:space="preserve" font-family="Palatino-Roman,Palatino" font-size="20.6" fill="#3D5A84" transform="matrix(1.00, 0.00, -0.00, -1.00, 78.1, 46.1)">t</text><text xml:space="preserve" font-family="Palatino-Roman,Palatino" font-size="20.6" fill="#3D5A84" transform="matrix(1.00, 0.00, -0.00, -1.00, 84.9, 46.1)">p</text><text xml:space="preserve" font-family="Palatino-Roman,Palatino" font-size="20.6" fill="#3D5A84" transform="matrix(1.00, 0.00, -0.00, -1.00, 97.2, 46.1)">s</text><text xml:space="preserve" font-family="Palatino-Roman,Palatino" font-size="20.6" fill="#3D5A84" transform="matrix(1.00, 0.00, -0.00, -1.00, 106.0, 46.1)">:</text><text xml:space="preserve" font-family="Palatino-Roman,Palatino" font-size="20.6" fill="#3D5A84" transform="matrix(1.00, 0.00, -0.00, -1.00, 111.1, 46.1)">/</text><text xml:space="preserve" font-family="Palatino-Roman,Palatino" font-size="20.6" fill="#3D5A84" transform="matrix(1.00, 0.00, -0.00, -1.00, 123.6, 46.1)">/</text><text xml:space="preserve" font-family="Palatino-Roman,Palatino" font-size="20.6" fill="#3D5A84" transform="matrix(1.00, 0.00, -0.00, -1.00, 136.1, 46.1)">d</text><text xml:space="preserve" font-family="Palatino-Roman,Palatino" font-size="20.6" fill="#3D5A84" transform="matrix(1.00, 0.00, -0.00, -1.00, 148.6, 46.1)">a</text><text xml:space="preserve" font-family="Palatino-Roman,Palatino" font-size="20.6" fill="#3D5A84" transform="matrix(1.00, 0.00, -0.00, -1.00, 158.9, 46.1)">n</text><text xml:space="preserve" font-family="Palatino-Roman,Palatino" font-size="20.6" fill="#3D5A84" transform="matrix(1.00, 0.00, -0.00, -1.00, 170.9, 46.1)">i</text><text xml:space="preserve" font-family="Palatino-Roman,Palatino" font-size="20.6" fill="#3D5A84" transform="matrix(1.00, 0.00, -0.00, -1.00, 176.9, 46.1)">e</text><text xml:space="preserve" font-family="Palatino-Roman,Palatino" font-size="20.6" fill="#3D5A84" transform="matrix(1.00, 0.00, -0.00, -1.00, 186.8, 46.1)">l</text><text xml:space="preserve" font-family="Palatino-Roman,Palatino" font-size="20.6" fill="#3D5A84" transform="matrix(1.00, 0.00, -0.00, -1.00, 192.8, 46.1)">k</text><text xml:space="preserve" font-family="Palatino-Roman,Palatino" font-size="20.6" fill="#3D5A84" transform="matrix(1.00, 0.00, -0.00, -1.00, 204.2, 46.1)">e</text><text xml:space="preserve" font-family="Palatino-Roman,Palatino" font-size="20.6" fill="#3D5A84" transform="matrix(1.00, 0.00, -0.00, -1.00, 214.1, 46.1)">e</text><text xml:space="preserve" font-family="Palatino-Roman,Palatino" font-size="20.6" fill="#3D5A84" transform="matrix(1.00, 0.00, -0.00, -1.00, 223.9, 46.1)">p</text><text xml:space="preserve" font-family="Palatino-Roman,Palatino" font-size="20.6" fill="#3D5A84" transform="matrix(1.00, 0.00, -0.00, -1.00, 236.3, 46.1)">.</text><text xml:space="preserve" font-family="Palatino-Roman,Palatino" font-size="20.6" fill="#3D5A84" transform="matrix(1.00, 0.00, -0.00, -1.00, 241.5, 46.1)">g</text><text xml:space="preserve" font-family="Palatino-Roman,Palatino" font-size="20.6" fill="#3D5A84" transform="matrix(1.00, 0.00, -0.00, -1.00, 252.9, 46.1)">i</text><text xml:space="preserve" font-family="Palatino-Roman,Palatino" font-size="20.6" fill="#3D5A84" transform="matrix(1.00, 0.00, -0.00, -1.00, 258.9, 46.1)">t</text><text xml:space="preserve" font-family="Palatino-Roman,Palatino" font-size="20.6" fill="#3D5A84" transform="matrix(1.00, 0.00, -0.00, -1.00, 265.6, 46.1)">h</text><text xml:space="preserve" font-family="Palatino-Roman,Palatino" font-size="20.6" fill="#3D5A84" transform="matrix(1.00, 0.00, -0.00, -1.00, 277.6, 46.1)">u</text><text xml:space="preserve" font-family="Palatino-Roman,Palatino" font-size="20.6" fill="#3D5A84" transform="matrix(1.00, 0.00, -0.00, -1.00, 290.0, 46.1)">b</text><text xml:space="preserve" font-family="Palatino-Roman,Palatino" font-size="20.6" fill="#3D5A84" transform="matrix(1.00, 0.00, -0.00, -1.00, 301.4, 46.1)">.</text><text xml:space="preserve" font-family="Palatino-Roman,Palatino" font-size="20.6" fill="#3D5A84" transform="matrix(1.00, 0.00, -0.00, -1.00, 306.6, 46.1)">i</text><text xml:space="preserve" font-family="Palatino-Roman,Palatino" font-size="20.6" fill="#3D5A84" transform="matrix(1.00, 0.00, -0.00, -1.00, 312.6, 46.1)">o</text><text xml:space="preserve" font-family="Palatino-Roman,Palatino" font-size="20.6" fill="#3D5A84" transform="matrix(1.00, 0.00, -0.00, -1.00, 323.8, 46.1)">/</text><text xml:space="preserve" font-family="Palatino-Roman,Palatino" font-size="20.6" fill="#3D5A84" transform="matrix(1.00, 0.00, -0.00, -1.00, 336.3, 46.1)">t</text><text xml:space="preserve" font-family="Palatino-Roman,Palatino" font-size="20.6" fill="#3D5A84" transform="matrix(1.00, 0.00, -0.00, -1.00, 343.0, 46.1)">l</text><text xml:space="preserve" font-family="Palatino-Roman,Palatino" font-size="20.6" fill="#3D5A84" transform="matrix(1.00, 0.00, -0.00, -1.00, 349.0, 46.1)">b</text><text xml:space="preserve" font-family="Palatino-Roman,Palatino" font-size="20.6" fill="#3D5A84" transform="matrix(1.00, 0.00, -0.00, -1.00, 360.4, 46.1)">o</text><text xml:space="preserve" font-family="Palatino-Roman,Palatino" font-size="20.6" fill="#3D5A84" transform="matrix(1.00, 0.00, -0.00, -1.00, 371.6, 46.1)">r</text><text xml:space="preserve" font-family="Palatino-Roman,Palatino" font-size="20.6" fill="#3D5A84" transform="matrix(1.00, 0.00, -0.00, -1.00, 379.8, 46.1)">m</text><text xml:space="preserve" font-family="Palatino-Roman,Palatino" font-size="20.6" fill="#3D5A84" transform="matrix(1.00, 0.00, -0.00, -1.00, 397.9, 46.1)">/</text><text xml:space="preserve" font-family="Palatino-Roman,Palatino" font-size="20.6" fill="#3D5A84" transform="matrix(1.00, 0.00, -0.00, -1.00, 410.4, 46.1)">b</text><text xml:space="preserve" font-family="Palatino-Roman,Palatino" font-size="20.6" fill="#3D5A84" transform="matrix(1.00, 0.00, -0.00, -1.00, 421.8, 46.1)">o</text><text xml:space="preserve" font-family="Palatino-Roman,Palatino" font-size="20.6" fill="#3D5A84" transform="matrix(1.00, 0.00, -0.00, -1.00, 433.0, 46.1)">o</text><text xml:space="preserve" font-family="Palatino-Roman,Palatino" font-size="20.6" fill="#3D5A84" transform="matrix(1.00, 0.00, -0.00, -1.00, 444.3, 46.1)">k</text><text xml:space="preserve" font-family="Palatino-Roman,Palatino" font-size="20.6" fill="#3D5A84" transform="matrix(1.00, 0.00, -0.00, -1.00, 455.7, 46.1)">/</text><text xml:space="preserve" font-family="Palatino-Roman,Palatino" font-size="20.6" fill="#3D5A84" transform="matrix(1.00, 0.00, -0.00, -1.00, 468.2, 46.1)">a</text><text xml:space="preserve" font-family="Palatino-Roman,Palatino" font-size="20.6" fill="#3D5A84" transform="matrix(1.00, 0.00, -0.00, -1.00, 478.5, 46.1)">e</text><text xml:space="preserve" font-family="Palatino-Roman,Palatino" font-size="20.6" fill="#3D5A84" transform="matrix(1.00, 0.00, -0.00, -1.00, 488.4, 46.1)">g</text><text xml:space="preserve" font-family="Palatino-Roman,Palatino" font-size="20.6" fill="#3D5A84" transform="matrix(1.00, 0.00, -0.00, -1.00, 499.8, 46.1)">-</text><text xml:space="preserve" font-family="Palatino-Roman,Palatino" font-size="20.6" fill="#3D5A84" transform="matrix(1.00, 0.00, -0.00, -1.00, 506.7, 46.1)">o</text><text xml:space="preserve" font-family="Palatino-Roman,Palatino" font-size="20.6" fill="#3D5A84" transform="matrix(1.00, 0.00, -0.00, -1.00, 517.9, 46.1)">o</text><text xml:space="preserve" font-family="Palatino-Roman,Palatino" font-size="20.6" fill="#3D5A84" transform="matrix(1.00, 0.00, -0.00, -1.00, 529.2, 46.1)">k</text><text xml:space="preserve" font-family="Palatino-Roman,Palatino" font-size="20.6" fill="#3D5A84" transform="matrix(1.00, 0.00, -0.00, -1.00, 540.6, 46.1)">.</text><text xml:space="preserve" font-family="Palatino-Roman,Palatino" font-size="20.6" fill="#3D5A84" transform="matrix(1.00, 0.00, -0.00, -1.00, 545.8, 46.1)">h</text><text xml:space="preserve" font-family="Palatino-Roman,Palatino" font-size="20.6" fill="#3D5A84" transform="matrix(1.00, 0.00, -0.00, -1.00, 557.7, 46.1)">t</text><text xml:space="preserve" font-family="Palatino-Roman,Palatino" font-size="20.6" fill="#3D5A84" transform="matrix(1.00, 0.00, -0.00, -1.00, 564.5, 46.1)">m</text><text xml:space="preserve" font-family="Palatino-Roman,Palatino" font-size="20.6" fill="#3D5A84" transform="matrix(1.00, 0.00, -0.00, -1.00, 582.6, 46.1)">l</text><text xml:space="preserve" font-family="ZapfDingbatsITC,Zapf Dingbats" font-size="14.4" fill="#5B86B8" transform="matrix(1.00, 0.00, -0.00, -1.00, 40.0, 6.1)">✤</text><text xml:space="preserve" font-family="Palatino-Roman,Palatino" font-size="20.6" fill="#3D5A84" transform="matrix(1.00, 0.00, -0.00, -1.00, 57.9, 7.8)">h</text><text xml:space="preserve" font-family="Palatino-Roman,Palatino" font-size="20.6" fill="#3D5A84" transform="matrix(1.00, 0.00, -0.00, -1.00, 69.9, 7.8)">t</text><text xml:space="preserve" font-family="Palatino-Roman,Palatino" font-size="20.6" fill="#3D5A84" transform="matrix(1.00, 0.00, -0.00, -1.00, 76.6, 7.8)">t</text><text xml:space="preserve" font-family="Palatino-Roman,Palatino" font-size="20.6" fill="#3D5A84" transform="matrix(1.00, 0.00, -0.00, -1.00, 83.4, 7.8)">p</text><text xml:space="preserve" font-family="Palatino-Roman,Palatino" font-size="20.6" fill="#3D5A84" transform="matrix(1.00, 0.00, -0.00, -1.00, 95.7, 7.8)">s</text><text xml:space="preserve" font-family="Palatino-Roman,Palatino" font-size="20.6" fill="#3D5A84" transform="matrix(1.00, 0.00, -0.00, -1.00, 104.5, 7.8)">:</text><text xml:space="preserve" font-family="Palatino-Roman,Palatino" font-size="20.6" fill="#3D5A84" transform="matrix(1.00, 0.00, -0.00, -1.00, 109.6, 7.8)">/</text><text xml:space="preserve" font-family="Palatino-Roman,Palatino" font-size="20.6" fill="#3D5A84" transform="matrix(1.00, 0.00, -0.00, -1.00, 122.1, 7.8)">/</text><text xml:space="preserve" font-family="Palatino-Roman,Palatino" font-size="20.6" fill="#3D5A84" transform="matrix(1.00, 0.00, -0.00, -1.00, 134.6, 7.8)">w</text><text xml:space="preserve" font-family="Palatino-Roman,Palatino" font-size="20.6" fill="#3D5A84" transform="matrix(1.00, 0.00, -0.00, -1.00, 151.7, 7.8)">w</text><text xml:space="preserve" font-family="Palatino-Roman,Palatino" font-size="20.6" fill="#3D5A84" transform="matrix(1.00, 0.00, -0.00, -1.00, 168.9, 7.8)">w</text><text xml:space="preserve" font-family="Palatino-Roman,Palatino" font-size="20.6" fill="#3D5A84" transform="matrix(1.00, 0.00, -0.00, -1.00, 184.2, 7.8)">.</text><text xml:space="preserve" font-family="Palatino-Roman,Palatino" font-size="20.6" fill="#3D5A84" transform="matrix(1.00, 0.00, -0.00, -1.00, 189.3, 7.8)">r</text><text xml:space="preserve" font-family="Palatino-Roman,Palatino" font-size="20.6" fill="#3D5A84" transform="matrix(1.00, 0.00, -0.00, -1.00, 197.1, 7.8)">e</text><text xml:space="preserve" font-family="Palatino-Roman,Palatino" font-size="20.6" fill="#3D5A84" transform="matrix(1.00, 0.00, -0.00, -1.00, 207.0, 7.8)">d</text><text xml:space="preserve" font-family="Palatino-Roman,Palatino" font-size="20.6" fill="#3D5A84" transform="matrix(1.00, 0.00, -0.00, -1.00, 219.5, 7.8)">d</text><text xml:space="preserve" font-family="Palatino-Roman,Palatino" font-size="20.6" fill="#3D5A84" transform="matrix(1.00, 0.00, -0.00, -1.00, 232.1, 7.8)">i</text><text xml:space="preserve" font-family="Palatino-Roman,Palatino" font-size="20.6" fill="#3D5A84" transform="matrix(1.00, 0.00, -0.00, -1.00, 238.1, 7.8)">t</text><text xml:space="preserve" font-family="Palatino-Roman,Palatino" font-size="20.6" fill="#3D5A84" transform="matrix(1.00, 0.00, -0.00, -1.00, 244.8, 7.8)">.</text><text xml:space="preserve" font-family="Palatino-Roman,Palatino" font-size="20.6" fill="#3D5A84" transform="matrix(1.00, 0.00, -0.00, -1.00, 250.0, 7.8)">c</text><text xml:space="preserve" font-family="Palatino-Roman,Palatino" font-size="20.6" fill="#3D5A84" transform="matrix(1.00, 0.00, -0.00, -1.00, 259.1, 7.8)">o</text><text xml:space="preserve" font-family="Palatino-Roman,Palatino" font-size="20.6" fill="#3D5A84" transform="matrix(1.00, 0.00, -0.00, -1.00, 270.3, 7.8)">m</text><text xml:space="preserve" font-family="Palatino-Roman,Palatino" font-size="20.6" fill="#3D5A84" transform="matrix(1.00, 0.00, -0.00, -1.00, 288.5, 7.8)">/</text><text xml:space="preserve" font-family="Palatino-Roman,Palatino" font-size="20.6" fill="#3D5A84" transform="matrix(1.00, 0.00, -0.00, -1.00, 301.0, 7.8)">r</text><text xml:space="preserve" font-family="Palatino-Roman,Palatino" font-size="20.6" fill="#3D5A84" transform="matrix(1.00, 0.00, -0.00, -1.00, 309.1, 7.8)">/</text><text xml:space="preserve" font-family="Palatino-Roman,Palatino" font-size="20.6" fill="#3D5A84" transform="matrix(1.00, 0.00, -0.00, -1.00, 321.6, 7.8)">r</text><text xml:space="preserve" font-family="Palatino-Roman,Palatino" font-size="20.6" fill="#3D5A84" transform="matrix(1.00, 0.00, -0.00, -1.00, 329.6, 7.8)">u</text><text xml:space="preserve" font-family="Palatino-Roman,Palatino" font-size="20.6" fill="#3D5A84" transform="matrix(1.00, 0.00, -0.00, -1.00, 342.0, 7.8)">s</text><text xml:space="preserve" font-family="Palatino-Roman,Palatino" font-size="20.6" fill="#3D5A84" transform="matrix(1.00, 0.00, -0.00, -1.00, 350.7, 7.8)">t</text><text xml:space="preserve" font-family="Palatino-Roman,Palatino" font-size="20.6" fill="#3D5A84" transform="matrix(1.00, 0.00, -0.00, -1.00, 357.4, 7.8)">/</text><text xml:space="preserve" font-family="Palatino-Roman,Palatino" font-size="20.6" fill="#3D5A84" transform="matrix(1.00, 0.00, -0.00, -1.00, 369.9, 7.8)">c</text><text xml:space="preserve" font-family="Palatino-Roman,Palatino" font-size="20.6" fill="#3D5A84" transform="matrix(1.00, 0.00, -0.00, -1.00, 379.0, 7.8)">o</text><text xml:space="preserve" font-family="Palatino-Roman,Palatino" font-size="20.6" fill="#3D5A84" transform="matrix(1.00, 0.00, -0.00, -1.00, 390.3, 7.8)">m</text><text xml:space="preserve" font-family="Palatino-Roman,Palatino" font-size="20.6" fill="#3D5A84" transform="matrix(1.00, 0.00, -0.00, -1.00, 408.5, 7.8)">m</text><text xml:space="preserve" font-family="Palatino-Roman,Palatino" font-size="20.6" fill="#3D5A84" transform="matrix(1.00, 0.00, -0.00, -1.00, 426.6, 7.8)">e</text><text xml:space="preserve" font-family="Palatino-Roman,Palatino" font-size="20.6" fill="#3D5A84" transform="matrix(1.00, 0.00, -0.00, -1.00, 436.5, 7.8)">n</text><text xml:space="preserve" font-family="Palatino-Roman,Palatino" font-size="20.6" fill="#3D5A84" transform="matrix(1.00, 0.00, -0.00, -1.00, 448.5, 7.8)">t</text><text xml:space="preserve" font-family="Palatino-Roman,Palatino" font-size="20.6" fill="#3D5A84" transform="matrix(1.00, 0.00, -0.00, -1.00, 455.2, 7.8)">s</text><text xml:space="preserve" font-family="Palatino-Roman,Palatino" font-size="20.6" fill="#3D5A84" transform="matrix(1.00, 0.00, -0.00, -1.00, 463.9, 7.8)">/</text><text xml:space="preserve" font-family="Palatino-Roman,Palatino" font-size="20.6" fill="#3D5A84" transform="matrix(1.00, 0.00, -0.00, -1.00, 476.4, 7.8)">3</text><text xml:space="preserve" font-family="Palatino-Roman,Palatino" font-size="20.6" fill="#3D5A84" transform="matrix(1.00, 0.00, -0.00, -1.00, 486.7, 7.8)">9</text><text xml:space="preserve" font-family="Palatino-Roman,Palatino" font-size="20.6" fill="#3D5A84" transform="matrix(1.00, 0.00, -0.00, -1.00, 497.0, 7.8)">w</text><text xml:space="preserve" font-family="Palatino-Roman,Palatino" font-size="20.6" fill="#3D5A84" transform="matrix(1.00, 0.00, -0.00, -1.00, 514.2, 7.8)">v</text><text xml:space="preserve" font-family="Palatino-Roman,Palatino" font-size="20.6" fill="#3D5A84" transform="matrix(1.00, 0.00, -0.00, -1.00, 525.8, 7.8)">r</text><text xml:space="preserve" font-family="Palatino-Roman,Palatino" font-size="20.6" fill="#3D5A84" transform="matrix(1.00, 0.00, -0.00, -1.00, 533.9, 7.8)">m</text><text xml:space="preserve" font-family="Palatino-Roman,Palatino" font-size="20.6" fill="#3D5A84" transform="matrix(1.00, 0.00, -0.00, -1.00, 552.1, 7.8)">/</text><text xml:space="preserve" font-family="Palatino-Roman,Palatino" font-size="20.6" fill="#3D5A84" transform="matrix(1.00, 0.00, -0.00, -1.00, 564.6, 7.8)">h</text><text xml:space="preserve" font-family="Palatino-Roman,Palatino" font-size="20.6" fill="#3D5A84" transform="matrix(1.00, 0.00, -0.00, -1.00, 576.6, 7.8)">o</text><text xml:space="preserve" font-family="Palatino-Roman,Palatino" font-size="20.6" fill="#3D5A84" transform="matrix(1.00, 0.00, -0.00, -1.00, 587.8, 7.8)">d</text><text xml:space="preserve" font-family="Palatino-Roman,Palatino" font-size="20.6" fill="#3D5A84" transform="matrix(1.00, 0.00, -0.00, -1.00, 600.4, 7.8)">o</text><text xml:space="preserve" font-family="Palatino-Roman,Palatino" font-size="20.6" fill="#3D5A84" transform="matrix(1.00, 0.00, -0.00, -1.00, 611.6, 7.8)">r</text><text xml:space="preserve" font-family="Palatino-Roman,Palatino" font-size="20.6" fill="#3D5A84" transform="matrix(1.00, 0.00, -0.00, -1.00, 619.7, 7.8)">_</text><text xml:space="preserve" font-family="Palatino-Roman,Palatino" font-size="20.6" fill="#3D5A84" transform="matrix(1.00, 0.00, -0.00, -1.00, 630.0, 7.8)">e</text><text xml:space="preserve" font-family="Palatino-Roman,Palatino" font-size="20.6" fill="#3D5A84" transform="matrix(1.00, 0.00, -0.00, -1.00, 639.9, 7.8)">s</text><text xml:space="preserve" font-family="Palatino-Roman,Palatino" font-size="20.6" fill="#3D5A84" transform="matrix(1.00, 0.00, -0.00, -1.00, 648.6, 7.8)">o</text><text xml:space="preserve" font-family="Palatino-Roman,Palatino" font-size="20.6" fill="#3D5A84" transform="matrix(1.00, 0.00, -0.00, -1.00, 659.9, 7.8)">l</text><text xml:space="preserve" font-family="Palatino-Roman,Palatino" font-size="20.6" fill="#3D5A84" transform="matrix(1.00, 0.00, -0.00, -1.00, 665.9, 7.8)">a</text><text xml:space="preserve" font-family="Palatino-Roman,Palatino" font-size="20.6" fill="#3D5A84" transform="matrix(1.00, 0.00, -0.00, -1.00, 676.1, 7.8)">n</text><text xml:space="preserve" font-family="Palatino-Roman,Palatino" font-size="20.6" fill="#3D5A84" transform="matrix(1.00, 0.00, -0.00, -1.00, 688.1, 7.8)">g</text><text xml:space="preserve" font-family="Palatino-Roman,Palatino" font-size="20.6" fill="#3D5A84" transform="matrix(1.00, 0.00, -0.00, -1.00, 699.6, 7.8)">_</text><text xml:space="preserve" font-family="Palatino-Roman,Palatino" font-size="20.6" fill="#3D5A84" transform="matrix(1.00, 0.00, -0.00, -1.00, 709.9, 7.8)">a</text><text xml:space="preserve" font-family="Palatino-Roman,Palatino" font-size="20.6" fill="#3D5A84" transform="matrix(1.00, 0.00, -0.00, -1.00, 720.2, 7.8)">s</text><text xml:space="preserve" font-family="Palatino-Roman,Palatino" font-size="20.6" fill="#3D5A84" transform="matrix(1.00, 0.00, -0.00, -1.00, 728.9, 7.8)">_</text><text xml:space="preserve" font-family="Palatino-Roman,Palatino" font-size="20.6" fill="#3D5A84" transform="matrix(1.00, 0.00, -0.00, -1.00, 739.2, 7.8)">a</text><text xml:space="preserve" font-family="Palatino-Roman,Palatino" font-size="20.6" fill="#3D5A84" transform="matrix(1.00, 0.00, -0.00, -1.00, 749.5, 7.8)">_</text><text xml:space="preserve" font-family="Palatino-Roman,Palatino" font-size="20.6" fill="#3D5A84" transform="matrix(1.00, 0.00, -0.00, -1.00, 759.8, 7.8)">r</text><text xml:space="preserve" font-family="Palatino-Roman,Palatino" font-size="20.6" fill="#3D5A84" transform="matrix(1.00, 0.00, -0.00, -1.00, 767.8, 7.8)">u</text><text xml:space="preserve" font-family="Palatino-Roman,Palatino" font-size="20.6" fill="#3D5A84" transform="matrix(1.00, 0.00, -0.00, -1.00, 780.2, 7.8)">s</text><text xml:space="preserve" font-family="Palatino-Roman,Palatino" font-size="20.6" fill="#3D5A84" transform="matrix(1.00, 0.00, -0.00, -1.00, 788.9, 7.8)">t</text><text xml:space="preserve" font-family="Palatino-Roman,Palatino" font-size="20.6" fill="#3D5A84" transform="matrix(1.00, 0.00, -0.00, -1.00, 795.6, 7.8)">_</text><text xml:space="preserve" font-family="Palatino-Roman,Palatino" font-size="20.6" fill="#3D5A84" transform="matrix(1.00, 0.00, -0.00, -1.00, 805.9, 7.8)">m</text><text xml:space="preserve" font-family="Palatino-Roman,Palatino" font-size="20.6" fill="#3D5A84" transform="matrix(1.00, 0.00, -0.00, -1.00, 824.1, 7.8)">a</text><text xml:space="preserve" font-family="Palatino-Roman,Palatino" font-size="20.6" fill="#3D5A84" transform="matrix(1.00, 0.00, -0.00, -1.00, 834.4, 7.8)">c</text><text xml:space="preserve" font-family="Palatino-Roman,Palatino" font-size="20.6" fill="#3D5A84" transform="matrix(1.00, 0.00, -0.00, -1.00, 843.5, 7.8)">r</text><text xml:space="preserve" font-family="Palatino-Roman,Palatino" font-size="20.6" fill="#3D5A84" transform="matrix(1.00, 0.00, -0.00, -1.00, 851.3, 7.8)">o</text></g></svg>