<?xml version="1.0" encoding="UTF-8" standalone="no"?><svg xmlns="http://www.w3.org/2000/svg" xmlns:xlink="http://www.w3.org/1999/xlink" clip-rule="evenodd" stroke-miterlimit="10" viewBox="0 0 970 123"><desc>SVG generated by Keynote</desc><defs></defs><g transform="matrix(1.00, 0.00, -0.00, -1.00, 0.0, 123.0)"><g><clipPath id="clip0x60000d2bf920"><path d="M -2.4 -1.2 L 972.4 -1.2 L 972.4 124.9 L -2.4 124.9 Z M -2.4 -1.2 "></path></clipPath><g clip-path="url(#clip0x60000d2bf920)"><text xml:space="preserve" font-family="ZapfDingbatsITC,Zapf Dingbats" font-size="18.9" fill="#5B86B8" transform="matrix(1.00, 0.00, -0.00, -1.00, 5.0, 92.3)">✤</text><text xml:space="preserve" font-family="Palatino-Roman,Palatino" font-size="27.0" fill="#000000" transform="matrix(1.00, 0.00, -0.00, -1.00, 33.4, 89.9)"> </text><text xml:space="preserve" font-family="Palatino-Roman,Palatino" font-size="27.0" fill="#000000" transform="matrix(1.00, 0.00, -0.00, -1.00, 40.1, 89.9)"> </text><text xml:space="preserve" font-family="Palatino-Roman,Palatino" font-size="27.0" fill="#000000" transform="matrix(1.00, 0.00, -0.00, -1.00, 46.9, 89.9)"> </text><text xml:space="preserve" font-family="Palatino-Roman,Palatino" font-size="27.0" fill="#000000" transform="matrix(1.00, 0.00, -0.00, -1.00, 53.6, 89.9)"> </text><text xml:space="preserve" font-family="Palatino-Roman,Palatino" font-size="27.0" fill="#000000" transform="matrix(1.00, 0.00, -0.00, -1.00, 60.4, 89.9)"> </text><text xml:space="preserve" font-family="Palatino-Roman,Palatino" font-size="27.0" fill="#000000" transform="matrix(1.00, 0.00, -0.00, -1.00, 67.1, 89.9)"> </text><text xml:space="preserve" font-family="Palatino-Roman,Palatino" font-size="27.0" fill="#000000" transform="matrix(1.00, 0.00, -0.00, -1.00, 73.9, 89.9)">T</text><text xml:space="preserve" font-family="Palatino-Roman,Palatino" font-size="27.0" fill="#000000" transform="matrix(1.00, 0.00, -0.00, -1.00, 90.4, 89.9)">M</text><text xml:space="preserve" font-family="Palatino-Roman,Palatino" font-size="27.0" fill="#000000" transform="matrix(1.00, 0.00, -0.00, -1.00, 115.9, 89.9)">:</text><text xml:space="preserve" font-family="Palatino-Roman,Palatino" font-size="27.0" fill="#000000" transform="matrix(1.00, 0.00, -0.00, -1.00, 122.7, 89.9)"> </text><text xml:space="preserve" font-family="Palatino-Roman,Palatino" font-size="27.0" fill="#000000" transform="matrix(1.00, 0.00, -0.00, -1.00, 129.4, 89.9)">T</text><text xml:space="preserve" font-family="Palatino-Roman,Palatino" font-size="27.0" fill="#000000" transform="matrix(1.00, 0.00, -0.00, -1.00, 143.5, 89.9)">u</text><text xml:space="preserve" font-family="Palatino-Roman,Palatino" font-size="27.0" fill="#000000" transform="matrix(1.00, 0.00, -0.00, -1.00, 159.8, 89.9)">r</text><text xml:space="preserve" font-family="Palatino-Roman,Palatino" font-size="27.0" fill="#000000" transform="matrix(1.00, 0.00, -0.00, -1.00, 170.4, 89.9)">i</text><text xml:space="preserve" font-family="Palatino-Roman,Palatino" font-size="27.0" fill="#000000" transform="matrix(1.00, 0.00, -0.00, -1.00, 178.3, 89.9)">n</text><text xml:space="preserve" font-family="Palatino-Roman,Palatino" font-size="27.0" fill="#000000" transform="matrix(1.00, 0.00, -0.00, -1.00, 194.0, 89.9)">g</text><text xml:space="preserve" font-family="Palatino-Roman,Palatino" font-size="27.0" fill="#000000" transform="matrix(1.00, 0.00, -0.00, -1.00, 209.0, 89.9)"> </text><text xml:space="preserve" font-family="Palatino-Roman,Palatino" font-size="27.0" fill="#000000" transform="matrix(1.00, 0.00, -0.00, -1.00, 215.7, 89.9)">M</text><text xml:space="preserve" font-family="Palatino-Roman,Palatino" font-size="27.0" fill="#000000" transform="matrix(1.00, 0.00, -0.00, -1.00, 241.3, 89.9)">a</text><text xml:space="preserve" font-family="Palatino-Roman,Palatino" font-size="27.0" fill="#000000" transform="matrix(1.00, 0.00, -0.00, -1.00, 254.7, 89.9)">c</text><text xml:space="preserve" font-family="Palatino-Roman,Palatino" font-size="27.0" fill="#000000" transform="matrix(1.00, 0.00, -0.00, -1.00, 266.7, 89.9)">h</text><text xml:space="preserve" font-family="Palatino-Roman,Palatino" font-size="27.0" fill="#000000" transform="matrix(1.00, 0.00, -0.00, -1.00, 282.4, 89.9)">i</text><text xml:space="preserve" font-family="Palatino-Roman,Palatino" font-size="27.0" fill="#000000" transform="matrix(1.00, 0.00, -0.00, -1.00, 290.3, 89.9)">n</text><text xml:space="preserve" font-family="Palatino-Roman,Palatino" font-size="27.0" fill="#000000" transform="matrix(1.00, 0.00, -0.00, -1.00, 306.0, 89.9)">e</text><text xml:space="preserve" font-family="Palatino-Roman,Palatino" font-size="27.0" fill="#000000" transform="matrix(1.00, 0.00, -0.00, -1.00, 318.9, 89.9)"> </text><text xml:space="preserve" font-family="Palatino-Roman,Palatino" font-size="27.0" fill="#000000" transform="matrix(1.00, 0.00, -0.00, -1.00, 325.6, 89.9)">u</text><text xml:space="preserve" font-family="Palatino-Roman,Palatino" font-size="27.0" fill="#000000" transform="matrix(1.00, 0.00, -0.00, -1.00, 341.9, 89.9)">s</text><text xml:space="preserve" font-family="Palatino-Roman,Palatino" font-size="27.0" fill="#000000" transform="matrix(1.00, 0.00, -0.00, -1.00, 353.3, 89.9)">i</text><text xml:space="preserve" font-family="Palatino-Roman,Palatino" font-size="27.0" fill="#000000" transform="matrix(1.00, 0.00, -0.00, -1.00, 361.2, 89.9)">n</text><text xml:space="preserve" font-family="Palatino-Roman,Palatino" font-size="27.0" fill="#000000" transform="matrix(1.00, 0.00, -0.00, -1.00, 376.9, 89.9)">g</text><text xml:space="preserve" font-family="Palatino-Roman,Palatino" font-size="27.0" fill="#000000" transform="matrix(1.00, 0.00, -0.00, -1.00, 391.9, 89.9)"> </text><text xml:space="preserve" font-family="Palatino-Roman,Palatino" font-size="27.0" fill="#000000" transform="matrix(1.00, 0.00, -0.00, -1.00, 398.6, 89.9)">P</text><text xml:space="preserve" font-family="Palatino-Roman,Palatino" font-size="27.0" fill="#000000" transform="matrix(1.00, 0.00, -0.00, -1.00, 414.9, 89.9)">o</text><text xml:space="preserve" font-family="Palatino-Roman,Palatino" font-size="27.0" fill="#000000" transform="matrix(1.00, 0.00, -0.00, -1.00, 429.7, 89.9)">w</text><text xml:space="preserve" font-family="Palatino-Roman,Palatino" font-size="27.0" fill="#000000" transform="matrix(1.00, 0.00, -0.00, -1.00, 452.2, 89.9)">e</text><text xml:space="preserve" font-family="Palatino-Roman,Palatino" font-size="27.0" fill="#000000" transform="matrix(1.00, 0.00, -0.00, -1.00, 465.1, 89.9)">r</text><text xml:space="preserve" font-family="Palatino-Roman,Palatino" font-size="27.0" fill="#000000" transform="matrix(1.00, 0.00, -0.00, -1.00, 475.8, 89.9)">P</text><text xml:space="preserve" font-family="Palatino-Roman,Palatino" font-size="27.0" fill="#000000" transform="matrix(1.00, 0.00, -0.00, -1.00, 492.0, 89.9)">o</text><text xml:space="preserve" font-family="Palatino-Roman,Palatino" font-size="27.0" fill="#000000" transform="matrix(1.00, 0.00, -0.00, -1.00, 506.8, 89.9)">i</text><text xml:space="preserve" font-family="Palatino-Roman,Palatino" font-size="27.0" fill="#000000" transform="matrix(1.00, 0.00, -0.00, -1.00, 514.6, 89.9)">n</text><text xml:space="preserve" font-family="Palatino-Roman,Palatino" font-size="27.0" fill="#000000" transform="matrix(1.00, 0.00, -0.00, -1.00, 530.3, 89.9)">t</text><text xml:space="preserve" font-family="Palatino-Roman,Palatino" font-size="27.0" fill="#000000" transform="matrix(1.00, 0.00, -0.00, -1.00, 539.1, 89.9)"> </text><text xml:space="preserve" font-family="Palatino-Roman,Palatino" font-size="27.0" fill="#000000" transform="matrix(1.00, 0.00, -0.00, -1.00, 545.9, 89.9)">a</text><text xml:space="preserve" font-family="Palatino-Roman,Palatino" font-size="27.0" fill="#000000" transform="matrix(1.00, 0.00, -0.00, -1.00, 559.4, 89.9)">n</text><text xml:space="preserve" font-family="Palatino-Roman,Palatino" font-size="27.0" fill="#000000" transform="matrix(1.00, 0.00, -0.00, -1.00, 575.1, 89.9)">i</text><text xml:space="preserve" font-family="Palatino-Roman,Palatino" font-size="27.0" fill="#000000" transform="matrix(1.00, 0.00, -0.00, -1.00, 582.9, 89.9)">m</text><text xml:space="preserve" font-family="Palatino-Roman,Palatino" font-size="27.0" fill="#000000" transform="matrix(1.00, 0.00, -0.00, -1.00, 606.7, 89.9)">a</text><text xml:space="preserve" font-family="Palatino-Roman,Palatino" font-size="27.0" fill="#000000" transform="matrix(1.00, 0.00, -0.00, -1.00, 620.2, 89.9)">t</text><text xml:space="preserve" font-family="Palatino-Roman,Palatino" font-size="27.0" fill="#000000" transform="matrix(1.00, 0.00, -0.00, -1.00, 629.0, 89.9)">i</text><text xml:space="preserve" font-family="Palatino-Roman,Palatino" font-size="27.0" fill="#000000" transform="matrix(1.00, 0.00, -0.00, -1.00, 636.9, 89.9)">o</text><text xml:space="preserve" font-family="Palatino-Roman,Palatino" font-size="27.0" fill="#000000" transform="matrix(1.00, 0.00, -0.00, -1.00, 651.6, 89.9)">n</text><text xml:space="preserve" font-family="Palatino-Roman,Palatino" font-size="27.0" fill="#000000" transform="matrix(1.00, 0.00, -0.00, -1.00, 667.3, 89.9)">s</text><text xml:space="preserve" font-family="ZapfDingbatsITC,Zapf Dingbats" font-size="14.4" fill="#5B86B8" transform="matrix(1.00, 0.00, -0.00, -1.00, 45.0, 54.2)">✤</text><text xml:space="preserve" font-family="Palatino-Roman,Palatino" font-size="20.6" fill="#3D5A84" transform="matrix(1.00, 0.00, -0.00, -1.00, 64.4, 55.9)">h</text><text xml:space="preserve" font-family="Palatino-Roman,Palatino" font-size="20.6" fill="#3D5A84" transform="matrix(1.00, 0.00, -0.00, -1.00, 76.4, 55.9)">t</text><text xml:space="preserve" font-family="Palatino-Roman,Palatino" font-size="20.6" fill="#3D5A84" transform="matrix(1.00, 0.00, -0.00, -1.00, 83.1, 55.9)">t</text><text xml:space="preserve" font-family="Palatino-Roman,Palatino" font-size="20.6" fill="#3D5A84" transform="matrix(1.00, 0.00, -0.00, -1.00, 89.9, 55.9)">p</text><text xml:space="preserve" font-family="Palatino-Roman,Palatino" font-size="20.6" fill="#3D5A84" transform="matrix(1.00, 0.00, -0.00, -1.00, 102.2, 55.9)">:</text><text xml:space="preserve" font-family="Palatino-Roman,Palatino" font-size="20.6" fill="#3D5A84" transform="matrix(1.00, 0.00, -0.00, -1.00, 107.4, 55.9)">/</text><text xml:space="preserve" font-family="Palatino-Roman,Palatino" font-size="20.6" fill="#3D5A84" transform="matrix(1.00, 0.00, -0.00, -1.00, 119.9, 55.9)">/</text><text xml:space="preserve" font-family="Palatino-Roman,Palatino" font-size="20.6" fill="#3D5A84" transform="matrix(1.00, 0.00, -0.00, -1.00, 132.3, 55.9)">w</text><text xml:space="preserve" font-family="Palatino-Roman,Palatino" font-size="20.6" fill="#3D5A84" transform="matrix(1.00, 0.00, -0.00, -1.00, 149.5, 55.9)">w</text><text xml:space="preserve" font-family="Palatino-Roman,Palatino" font-size="20.6" fill="#3D5A84" transform="matrix(1.00, 0.00, -0.00, -1.00, 166.7, 55.9)">w</text><text xml:space="preserve" font-family="Palatino-Roman,Palatino" font-size="20.6" fill="#3D5A84" transform="matrix(1.00, 0.00, -0.00, -1.00, 182.0, 55.9)">.</text><text xml:space="preserve" font-family="Palatino-Roman,Palatino" font-size="20.6" fill="#3D5A84" transform="matrix(1.00, 0.00, -0.00, -1.00, 187.1, 55.9)">a</text><text xml:space="preserve" font-family="Palatino-Roman,Palatino" font-size="20.6" fill="#3D5A84" transform="matrix(1.00, 0.00, -0.00, -1.00, 197.4, 55.9)">n</text><text xml:space="preserve" font-family="Palatino-Roman,Palatino" font-size="20.6" fill="#3D5A84" transform="matrix(1.00, 0.00, -0.00, -1.00, 209.4, 55.9)">d</text><text xml:space="preserve" font-family="Palatino-Roman,Palatino" font-size="20.6" fill="#3D5A84" transform="matrix(1.00, 0.00, -0.00, -1.00, 222.0, 55.9)">r</text><text xml:space="preserve" font-family="Palatino-Roman,Palatino" font-size="20.6" fill="#3D5A84" transform="matrix(1.00, 0.00, -0.00, -1.00, 229.7, 55.9)">e</text><text xml:space="preserve" font-family="Palatino-Roman,Palatino" font-size="20.6" fill="#3D5A84" transform="matrix(1.00, 0.00, -0.00, -1.00, 239.6, 55.9)">w</text><text xml:space="preserve" font-family="Palatino-Roman,Palatino" font-size="20.6" fill="#3D5A84" transform="matrix(1.00, 0.00, -0.00, -1.00, 254.9, 55.9)">.</text><text xml:space="preserve" font-family="Palatino-Roman,Palatino" font-size="20.6" fill="#3D5A84" transform="matrix(1.00, 0.00, -0.00, -1.00, 260.0, 55.9)">c</text><text xml:space="preserve" font-family="Palatino-Roman,Palatino" font-size="20.6" fill="#3D5A84" transform="matrix(1.00, 0.00, -0.00, -1.00, 269.2, 55.9)">m</text><text xml:space="preserve" font-family="Palatino-Roman,Palatino" font-size="20.6" fill="#3D5A84" transform="matrix(1.00, 0.00, -0.00, -1.00, 287.3, 55.9)">u</text><text xml:space="preserve" font-family="Palatino-Roman,Palatino" font-size="20.6" fill="#3D5A84" transform="matrix(1.00, 0.00, -0.00, -1.00, 299.7, 55.9)">.</text><text xml:space="preserve" font-family="Palatino-Roman,Palatino" font-size="20.6" fill="#3D5A84" transform="matrix(1.00, 0.00, -0.00, -1.00, 304.9, 55.9)">e</text><text xml:space="preserve" font-family="Palatino-Roman,Palatino" font-size="20.6" fill="#3D5A84" transform="matrix(1.00, 0.00, -0.00, -1.00, 314.8, 55.9)">d</text><text xml:space="preserve" font-family="Palatino-Roman,Palatino" font-size="20.6" fill="#3D5A84" transform="matrix(1.00, 0.00, -0.00, -1.00, 327.3, 55.9)">u</text><text xml:space="preserve" font-family="Palatino-Roman,Palatino" font-size="20.6" fill="#3D5A84" transform="matrix(1.00, 0.00, -0.00, -1.00, 339.7, 55.9)">/</text><text xml:space="preserve" font-family="Palatino-Roman,Palatino" font-size="20.6" fill="#3D5A84" transform="matrix(1.00, 0.00, -0.00, -1.00, 352.2, 55.9)">u</text><text xml:space="preserve" font-family="Palatino-Roman,Palatino" font-size="20.6" fill="#3D5A84" transform="matrix(1.00, 0.00, -0.00, -1.00, 364.6, 55.9)">s</text><text xml:space="preserve" font-family="Palatino-Roman,Palatino" font-size="20.6" fill="#3D5A84" transform="matrix(1.00, 0.00, -0.00, -1.00, 373.4, 55.9)">e</text><text xml:space="preserve" font-family="Palatino-Roman,Palatino" font-size="20.6" fill="#3D5A84" transform="matrix(1.00, 0.00, -0.00, -1.00, 383.2, 55.9)">r</text><text xml:space="preserve" font-family="Palatino-Roman,Palatino" font-size="20.6" fill="#3D5A84" transform="matrix(1.00, 0.00, -0.00, -1.00, 391.4, 55.9)">/</text><text xml:space="preserve" font-family="Palatino-Roman,Palatino" font-size="20.6" fill="#3D5A84" transform="matrix(1.00, 0.00, -0.00, -1.00, 403.8, 55.9)">t</text><text xml:space="preserve" font-family="Palatino-Roman,Palatino" font-size="20.6" fill="#3D5A84" transform="matrix(1.00, 0.00, -0.00, -1.00, 410.6, 55.9)">w</text><text xml:space="preserve" font-family="Palatino-Roman,Palatino" font-size="20.6" fill="#3D5A84" transform="matrix(1.00, 0.00, -0.00, -1.00, 427.7, 55.9)">i</text><text xml:space="preserve" font-family="Palatino-Roman,Palatino" font-size="20.6" fill="#3D5A84" transform="matrix(1.00, 0.00, -0.00, -1.00, 433.7, 55.9)">l</text><text xml:space="preserve" font-family="Palatino-Roman,Palatino" font-size="20.6" fill="#3D5A84" transform="matrix(1.00, 0.00, -0.00, -1.00, 439.7, 55.9)">d</text><text xml:space="preserve" font-family="Palatino-Roman,Palatino" font-size="20.6" fill="#3D5A84" transform="matrix(1.00, 0.00, -0.00, -1.00, 452.3, 55.9)">e</text><text xml:space="preserve" font-family="Palatino-Roman,Palatino" font-size="20.6" fill="#3D5A84" transform="matrix(1.00, 0.00, -0.00, -1.00, 462.1, 55.9)">n</text><text xml:space="preserve" font-family="Palatino-Roman,Palatino" font-size="20.6" fill="#3D5A84" transform="matrix(1.00, 0.00, -0.00, -1.00, 474.1, 55.9)">h</text><text xml:space="preserve" font-family="Palatino-Roman,Palatino" font-size="20.6" fill="#3D5A84" transform="matrix(1.00, 0.00, -0.00, -1.00, 486.1, 55.9)">/</text><text xml:space="preserve" font-family="Palatino-Roman,Palatino" font-size="20.6" fill="#3D5A84" transform="matrix(1.00, 0.00, -0.00, -1.00, 498.6, 55.9)">P</text><text xml:space="preserve" font-family="Palatino-Roman,Palatino" font-size="20.6" fill="#3D5A84" transform="matrix(1.00, 0.00, -0.00, -1.00, 511.0, 55.9)">o</text><text xml:space="preserve" font-family="Palatino-Roman,Palatino" font-size="20.6" fill="#3D5A84" transform="matrix(1.00, 0.00, -0.00, -1.00, 522.3, 55.9)">w</text><text xml:space="preserve" font-family="Palatino-Roman,Palatino" font-size="20.6" fill="#3D5A84" transform="matrix(1.00, 0.00, -0.00, -1.00, 539.4, 55.9)">e</text><text xml:space="preserve" font-family="Palatino-Roman,Palatino" font-size="20.6" fill="#3D5A84" transform="matrix(1.00, 0.00, -0.00, -1.00, 549.3, 55.9)">r</text><text xml:space="preserve" font-family="Palatino-Roman,Palatino" font-size="20.6" fill="#3D5A84" transform="matrix(1.00, 0.00, -0.00, -1.00, 557.4, 55.9)">P</text><text xml:space="preserve" font-family="Palatino-Roman,Palatino" font-size="20.6" fill="#3D5A84" transform="matrix(1.00, 0.00, -0.00, -1.00, 569.9, 55.9)">o</text><text xml:space="preserve" font-family="Palatino-Roman,Palatino" font-size="20.6" fill="#3D5A84" transform="matrix(1.00, 0.00, -0.00, -1.00, 581.1, 55.9)">i</text><text xml:space="preserve" font-family="Palatino-Roman,Palatino" font-size="20.6" fill="#3D5A84" transform="matrix(1.00, 0.00, -0.00, -1.00, 587.1, 55.9)">n</text><text xml:space="preserve" font-family="Palatino-Roman,Palatino" font-size="20.6" fill="#3D5A84" transform="matrix(1.00, 0.00, -0.00, -1.00, 599.1, 55.9)">t</text><text xml:space="preserve" font-family="Palatino-Roman,Palatino" font-size="20.6" fill="#3D5A84" transform="matrix(1.00, 0.00, -0.00, -1.00, 605.8, 55.9)">T</text><text xml:space="preserve" font-family="Palatino-Roman,Palatino" font-size="20.6" fill="#3D5A84" transform="matrix(1.00, 0.00, -0.00, -1.00, 618.4, 55.9)">M</text><text xml:space="preserve" font-family="Palatino-Roman,Palatino" font-size="20.6" fill="#3D5A84" transform="matrix(1.00, 0.00, -0.00, -1.00, 637.9, 55.9)">/</text><text xml:space="preserve" font-family="Palatino-Roman,Palatino" font-size="20.6" fill="#3D5A84" transform="matrix(1.00, 0.00, -0.00, -1.00, 650.4, 55.9)">P</text><text xml:space="preserve" font-family="Palatino-Roman,Palatino" font-size="20.6" fill="#3D5A84" transform="matrix(1.00, 0.00, -0.00, -1.00, 662.8, 55.9)">a</text><text xml:space="preserve" font-family="Palatino-Roman,Palatino" font-size="20.6" fill="#3D5A84" transform="matrix(1.00, 0.00, -0.00, -1.00, 673.1, 55.9)">p</text><text xml:space="preserve" font-family="Palatino-Roman,Palatino" font-size="20.6" fill="#3D5A84" transform="matrix(1.00, 0.00, -0.00, -1.00, 685.5, 55.9)">e</text><text xml:space="preserve" font-family="Palatino-Roman,Palatino" font-size="20.6" fill="#3D5A84" transform="matrix(1.00, 0.00, -0.00, -1.00, 695.3, 55.9)">r</text><text xml:space="preserve" font-family="Palatino-Roman,Palatino" font-size="20.6" fill="#3D5A84" transform="matrix(1.00, 0.00, -0.00, -1.00, 702.0, 55.9)">.</text><text xml:space="preserve" font-family="Palatino-Roman,Palatino" font-size="20.6" fill="#3D5A84" transform="matrix(1.00, 0.00, -0.00, -1.00, 707.1, 55.9)">p</text><text xml:space="preserve" font-family="Palatino-Roman,Palatino" font-size="20.6" fill="#3D5A84" transform="matrix(1.00, 0.00, -0.00, -1.00, 719.5, 55.9)">d</text><text xml:space="preserve" font-family="Palatino-Roman,Palatino" font-size="20.6" fill="#3D5A84" transform="matrix(1.00, 0.00, -0.00, -1.00, 732.0, 55.9)">f</text><text xml:space="preserve" font-family="ZapfDingbatsITC,Zapf Dingbats" font-size="14.4" fill="#5B86B8" transform="matrix(1.00, 0.00, -0.00, -1.00, 45.0, 16.0)">✤</text><text xml:space="preserve" font-family="Palatino-Roman,Palatino" font-size="20.6" fill="#3D5A84" transform="matrix(1.00, 0.00, -0.00, -1.00, 64.4, 17.6)">h</text><text xml:space="preserve" font-family="Palatino-Roman,Palatino" font-size="20.6" fill="#3D5A84" transform="matrix(1.00, 0.00, -0.00, -1.00, 76.4, 17.6)">t</text><text xml:space="preserve" font-family="Palatino-Roman,Palatino" font-size="20.6" fill="#3D5A84" transform="matrix(1.00, 0.00, -0.00, -1.00, 83.1, 17.6)">t</text><text xml:space="preserve" font-family="Palatino-Roman,Palatino" font-size="20.6" fill="#3D5A84" transform="matrix(1.00, 0.00, -0.00, -1.00, 89.9, 17.6)">p</text><text xml:space="preserve" font-family="Palatino-Roman,Palatino" font-size="20.6" fill="#3D5A84" transform="matrix(1.00, 0.00, -0.00, -1.00, 102.2, 17.6)">s</text><text xml:space="preserve" font-family="Palatino-Roman,Palatino" font-size="20.6" fill="#3D5A84" transform="matrix(1.00, 0.00, -0.00, -1.00, 111.0, 17.6)">:</text><text xml:space="preserve" font-family="Palatino-Roman,Palatino" font-size="20.6" fill="#3D5A84" transform="matrix(1.00, 0.00, -0.00, -1.00, 116.1, 17.6)">/</text><text xml:space="preserve" font-family="Palatino-Roman,Palatino" font-size="20.6" fill="#3D5A84" transform="matrix(1.00, 0.00, -0.00, -1.00, 128.6, 17.6)">/</text><text xml:space="preserve" font-family="Palatino-Roman,Palatino" font-size="20.6" fill="#3D5A84" transform="matrix(1.00, 0.00, -0.00, -1.00, 141.1, 17.6)">w</text><text xml:space="preserve" font-family="Palatino-Roman,Palatino" font-size="20.6" fill="#3D5A84" transform="matrix(1.00, 0.00, -0.00, -1.00, 158.2, 17.6)">w</text><text xml:space="preserve" font-family="Palatino-Roman,Palatino" font-size="20.6" fill="#3D5A84" transform="matrix(1.00, 0.00, -0.00, -1.00, 175.4, 17.6)">w</text><text xml:space="preserve" font-family="Palatino-Roman,Palatino" font-size="20.6" fill="#3D5A84" transform="matrix(1.00, 0.00, -0.00, -1.00, 190.7, 17.6)">.</text><text xml:space="preserve" font-family="Palatino-Roman,Palatino" font-size="20.6" fill="#3D5A84" transform="matrix(1.00, 0.00, -0.00, -1.00, 195.8, 17.6)">y</text><text xml:space="preserve" font-family="Palatino-Roman,Palatino" font-size="20.6" fill="#3D5A84" transform="matrix(1.00, 0.00, -0.00, -1.00, 207.3, 17.6)">o</text><text xml:space="preserve" font-family="Palatino-Roman,Palatino" font-size="20.6" fill="#3D5A84" transform="matrix(1.00, 0.00, -0.00, -1.00, 218.5, 17.6)">u</text><text xml:space="preserve" font-family="Palatino-Roman,Palatino" font-size="20.6" fill="#3D5A84" transform="matrix(1.00, 0.00, -0.00, -1.00, 230.9, 17.6)">t</text><text xml:space="preserve" font-family="Palatino-Roman,Palatino" font-size="20.6" fill="#3D5A84" transform="matrix(1.00, 0.00, -0.00, -1.00, 237.7, 17.6)">u</text><text xml:space="preserve" font-family="Palatino-Roman,Palatino" font-size="20.6" fill="#3D5A84" transform="matrix(1.00, 0.00, -0.00, -1.00, 250.1, 17.6)">b</text><text xml:space="preserve" font-family="Palatino-Roman,Palatino" font-size="20.6" fill="#3D5A84" transform="matrix(1.00, 0.00, -0.00, -1.00, 261.5, 17.6)">e</text><text xml:space="preserve" font-family="Palatino-Roman,Palatino" font-size="20.6" fill="#3D5A84" transform="matrix(1.00, 0.00, -0.00, -1.00, 271.3, 17.6)">.</text><text xml:space="preserve" font-family="Palatino-Roman,Palatino" font-size="20.6" fill="#3D5A84" transform="matrix(1.00, 0.00, -0.00, -1.00, 276.5, 17.6)">c</text><text xml:space="preserve" font-family="Palatino-Roman,Palatino" font-size="20.6" fill="#3D5A84" transform="matrix(1.00, 0.00, -0.00, -1.00, 285.6, 17.6)">o</text><text xml:space="preserve" font-family="Palatino-Roman,Palatino" font-size="20.6" fill="#3D5A84" transform="matrix(1.00, 0.00, -0.00, -1.00, 296.9, 17.6)">m</text><text xml:space="preserve" font-family="Palatino-Roman,Palatino" font-size="20.6" fill="#3D5A84" transform="matrix(1.00, 0.00, -0.00, -1.00, 315.0, 17.6)">/</text><text xml:space="preserve" font-family="Palatino-Roman,Palatino" font-size="20.6" fill="#3D5A84" transform="matrix(1.00, 0.00, -0.00, -1.00, 327.5, 17.6)">w</text><text xml:space="preserve" font-family="Palatino-Roman,Palatino" font-size="20.6" fill="#3D5A84" transform="matrix(1.00, 0.00, -0.00, -1.00, 344.7, 17.6)">a</text><text xml:space="preserve" font-family="Palatino-Roman,Palatino" font-size="20.6" fill="#3D5A84" transform="matrix(1.00, 0.00, -0.00, -1.00, 355.0, 17.6)">t</text><text xml:space="preserve" font-family="Palatino-Roman,Palatino" font-size="20.6" fill="#3D5A84" transform="matrix(1.00, 0.00, -0.00, -1.00, 361.7, 17.6)">c</text><text xml:space="preserve" font-family="Palatino-Roman,Palatino" font-size="20.6" fill="#3D5A84" transform="matrix(1.00, 0.00, -0.00, -1.00, 370.8, 17.6)">h</text><text xml:space="preserve" font-family="Palatino-Roman,Palatino" font-size="20.6" fill="#3D5A84" transform="matrix(1.00, 0.00, -0.00, -1.00, 382.8, 17.6)">?</text><text xml:space="preserve" font-family="Palatino-Roman,Palatino" font-size="20.6" fill="#3D5A84" transform="matrix(1.00, 0.00, -0.00, -1.00, 391.9, 17.6)">v</text><text xml:space="preserve" font-family="Palatino-Roman,Palatino" font-size="20.6" fill="#3D5A84" transform="matrix(1.00, 0.00, -0.00, -1.00, 403.6, 17.6)">=</text><text xml:space="preserve" font-family="Palatino-Roman,Palatino" font-size="20.6" fill="#3D5A84" transform="matrix(1.00, 0.00, -0.00, -1.00, 416.1, 17.6)">u</text><text xml:space="preserve" font-family="Palatino-Roman,Palatino" font-size="20.6" fill="#3D5A84" transform="matrix(1.00, 0.00, -0.00, -1.00, 428.5, 17.6)">N</text><text xml:space="preserve" font-family="Palatino-Roman,Palatino" font-size="20.6" fill="#3D5A84" transform="matrix(1.00, 0.00, -0.00, -1.00, 445.6, 17.6)">j</text><text xml:space="preserve" font-family="Palatino-Roman,Palatino" font-size="20.6" fill="#3D5A84" transform="matrix(1.00, 0.00, -0.00, -1.00, 450.4, 17.6)">x</text><text xml:space="preserve" font-family="Palatino-Roman,Palatino" font-size="20.6" fill="#3D5A84" transform="matrix(1.00, 0.00, -0.00, -1.00, 461.0, 17.6)">e</text><text xml:space="preserve" font-family="Palatino-Roman,Palatino" font-size="20.6" fill="#3D5A84" transform="matrix(1.00, 0.00, -0.00, -1.00, 470.9, 17.6)">8</text><text xml:space="preserve" font-family="Palatino-Roman,Palatino" font-size="20.6" fill="#3D5A84" transform="matrix(1.00, 0.00, -0.00, -1.00, 481.2, 17.6)">S</text><text xml:space="preserve" font-family="Palatino-Roman,Palatino" font-size="20.6" fill="#3D5A84" transform="matrix(1.00, 0.00, -0.00, -1.00, 492.0, 17.6)">h</text><text xml:space="preserve" font-family="Palatino-Roman,Palatino" font-size="20.6" fill="#3D5A84" transform="matrix(1.00, 0.00, -0.00, -1.00, 504.0, 17.6)">M</text><text xml:space="preserve" font-family="Palatino-Roman,Palatino" font-size="20.6" fill="#3D5A84" transform="matrix(1.00, 0.00, -0.00, -1.00, 523.4, 17.6)">-</text><text xml:space="preserve" font-family="Palatino-Roman,Palatino" font-size="20.6" fill="#3D5A84" transform="matrix(1.00, 0.00, -0.00, -1.00, 530.3, 17.6)">8</text></g></g><g><clipPath id="clip0x60800d4be360"><path d="M 25.0 121.0 L 71.0 121.0 L 71.0 78.0 L 25.0 78.0 Z M 25.4 121.2 "></path></clipPath><g clip-path="url(#clip0x60800d4be360)"><g><clipPath id="clip0x60800d4be4e0"><path d="M 25.4 78.3 L 70.8 78.3 L 70.8 121.2 L 25.4 121.2 Z M 25.4 78.3 "></path></clipPath><g clip-path="url(#clip0x60800d4be4e0)"><image xlink:href="36618E8055C4D5E96680419AAF193887.png" width="266.00" height="251.00" transform="matrix(0.17, 0.00, -0.00, -0.17, 25.4, 121.2)"></image></g></g></g></g></g></svg>