<?xml version="1.0" encoding="UTF-8" standalone="no"?><svg xmlns="http://www.w3.org/2000/svg" xmlns:xlink="http://www.w3.org/1999/xlink" clip-rule="evenodd" stroke-miterlimit="10" viewBox="0 0 680 36"><desc>SVG generated by Keynote</desc><defs></defs><g transform="matrix(1.00, 0.00, -0.00, -1.00, 0.0, 36.0)"><text xml:space="preserve" font-family="ZapfDingbatsITC,Zapf Dingbats" font-size="22.3" fill="#5B86B8" transform="matrix(1.00, 0.00, -0.00, -1.00, 0.0, 13.5)">✤</text><text xml:space="preserve" font-family="Palatino-Roman,Palatino" font-size="31.9" fill="#000000" transform="matrix(1.00, 0.00, -0.00, -1.00, 33.6, 10.4)">.</text><text xml:space="preserve" font-family="Palatino-Roman,Palatino" font-size="31.9" fill="#000000" transform="matrix(1.00, 0.00, -0.00, -1.00, 41.6, 10.4)">.</text><text xml:space="preserve" font-family="Palatino-Roman,Palatino" font-size="31.9" fill="#000000" transform="matrix(1.00, 0.00, -0.00, -1.00, 49.6, 10.4)">.</text><text xml:space="preserve" font-family="Palatino-Roman,Palatino" font-size="31.9" fill="#000000" transform="matrix(1.00, 0.00, -0.00, -1.00, 57.5, 10.4)"> </text><text xml:space="preserve" font-family="Palatino-Roman,Palatino" font-size="31.9" fill="#000000" transform="matrix(1.00, 0.00, -0.00, -1.00, 65.5, 10.4)">t</text><text xml:space="preserve" font-family="Palatino-Roman,Palatino" font-size="31.9" fill="#000000" transform="matrix(1.00, 0.00, -0.00, -1.00, 75.9, 10.4)">o</text><text xml:space="preserve" font-family="Palatino-Roman,Palatino" font-size="31.9" fill="#000000" transform="matrix(1.00, 0.00, -0.00, -1.00, 93.4, 10.4)">o</text><text xml:space="preserve" font-family="Palatino-Roman,Palatino" font-size="31.9" fill="#000000" transform="matrix(1.00, 0.00, -0.00, -1.00, 110.8, 10.4)"> </text><text xml:space="preserve" font-family="Palatino-Roman,Palatino" font-size="31.9" fill="#000000" transform="matrix(1.00, 0.00, -0.00, -1.00, 118.8, 10.4)">m</text><text xml:space="preserve" font-family="Palatino-Roman,Palatino" font-size="31.9" fill="#000000" transform="matrix(1.00, 0.00, -0.00, -1.00, 146.9, 10.4)">a</text><text xml:space="preserve" font-family="Palatino-Roman,Palatino" font-size="31.9" fill="#000000" transform="matrix(1.00, 0.00, -0.00, -1.00, 162.9, 10.4)">n</text><text xml:space="preserve" font-family="Palatino-Roman,Palatino" font-size="31.9" fill="#000000" transform="matrix(1.00, 0.00, -0.00, -1.00, 181.5, 10.4)">y</text><text xml:space="preserve" font-family="Palatino-Roman,Palatino" font-size="31.9" fill="#000000" transform="matrix(1.00, 0.00, -0.00, -1.00, 199.2, 10.4)"> </text><text xml:space="preserve" font-family="Palatino-Roman,Palatino" font-size="31.9" fill="#000000" transform="matrix(1.00, 0.00, -0.00, -1.00, 207.2, 10.4)">m</text><text xml:space="preserve" font-family="Palatino-Roman,Palatino" font-size="31.9" fill="#000000" transform="matrix(1.00, 0.00, -0.00, -1.00, 235.4, 10.4)">o</text><text xml:space="preserve" font-family="Palatino-Roman,Palatino" font-size="31.9" fill="#000000" transform="matrix(1.00, 0.00, -0.00, -1.00, 252.8, 10.4)">r</text><text xml:space="preserve" font-family="Palatino-Roman,Palatino" font-size="31.9" fill="#000000" transform="matrix(1.00, 0.00, -0.00, -1.00, 264.9, 10.4)">e</text><text xml:space="preserve" font-family="Palatino-Roman,Palatino" font-size="31.9" fill="#000000" transform="matrix(1.00, 0.00, -0.00, -1.00, 280.1, 10.4)"> </text><text xml:space="preserve" font-family="Palatino-Roman,Palatino" font-size="31.9" fill="#000000" transform="matrix(1.00, 0.00, -0.00, -1.00, 288.1, 10.4)">t</text><text xml:space="preserve" font-family="Palatino-Roman,Palatino" font-size="31.9" fill="#000000" transform="matrix(1.00, 0.00, -0.00, -1.00, 298.5, 10.4)">o</text><text xml:space="preserve" font-family="Palatino-Roman,Palatino" font-size="31.9" fill="#000000" transform="matrix(1.00, 0.00, -0.00, -1.00, 316.0, 10.4)"> </text><text xml:space="preserve" font-family="Palatino-Roman,Palatino" font-size="31.9" fill="#000000" transform="matrix(1.00, 0.00, -0.00, -1.00, 323.9, 10.4)">l</text><text xml:space="preserve" font-family="Palatino-Roman,Palatino" font-size="31.9" fill="#000000" transform="matrix(1.00, 0.00, -0.00, -1.00, 333.2, 10.4)">i</text><text xml:space="preserve" font-family="Palatino-Roman,Palatino" font-size="31.9" fill="#000000" transform="matrix(1.00, 0.00, -0.00, -1.00, 342.5, 10.4)">s</text><text xml:space="preserve" font-family="Palatino-Roman,Palatino" font-size="31.9" fill="#000000" transform="matrix(1.00, 0.00, -0.00, -1.00, 356.0, 10.4)">t</text><text xml:space="preserve" font-family="Palatino-Roman,Palatino" font-size="31.9" fill="#000000" transform="matrix(1.00, 0.00, -0.00, -1.00, 366.5, 10.4)">!</text><text xml:space="preserve" font-family="Palatino-Roman,Palatino" font-size="31.9" fill="#000000" transform="matrix(1.00, 0.00, -0.00, -1.00, 375.3, 10.4)"> </text><text xml:space="preserve" font-family="Monaco,Monaco" font-size="25.2" fill="#000000" transform="matrix(1.00, 0.00, -0.00, -1.00, 383.3, 10.4)">e</text><text xml:space="preserve" font-family="Monaco,Monaco" font-size="25.2" fill="#000000" transform="matrix(1.00, 0.00, -0.00, -1.00, 398.4, 10.4)">m</text><text xml:space="preserve" font-family="Monaco,Monaco" font-size="25.2" fill="#000000" transform="matrix(1.00, 0.00, -0.00, -1.00, 413.6, 10.4)">o</text><text xml:space="preserve" font-family="Monaco,Monaco" font-size="25.2" fill="#000000" transform="matrix(1.00, 0.00, -0.00, -1.00, 428.7, 10.4)">t</text><text xml:space="preserve" font-family="Monaco,Monaco" font-size="25.2" fill="#000000" transform="matrix(1.00, 0.00, -0.00, -1.00, 443.8, 10.4)">i</text><text xml:space="preserve" font-family="Monaco,Monaco" font-size="25.2" fill="#000000" transform="matrix(1.00, 0.00, -0.00, -1.00, 458.9, 10.4)">f</text><text xml:space="preserve" font-family="Monaco,Monaco" font-size="25.2" fill="#000000" transform="matrix(1.00, 0.00, -0.00, -1.00, 474.1, 10.4)">_</text><text xml:space="preserve" font-family="Monaco,Monaco" font-size="25.2" fill="#000000" transform="matrix(1.00, 0.00, -0.00, -1.00, 489.2, 10.4)">_</text><text xml:space="preserve" font-family="Monaco,Monaco" font-size="25.2" fill="#000000" transform="matrix(1.00, 0.00, -0.00, -1.00, 504.3, 10.4)">_</text><text xml:space="preserve" font-family="Palatino-Roman,Palatino" font-size="31.9" fill="#000000" transform="matrix(1.00, 0.00, -0.00, -1.00, 519.4, 10.4)">,</text><text xml:space="preserve" font-family="Palatino-Roman,Palatino" font-size="31.9" fill="#000000" transform="matrix(1.00, 0.00, -0.00, -1.00, 527.4, 10.4)"> </text><text xml:space="preserve" font-family="Monaco,Monaco" font-size="25.2" fill="#000000" transform="matrix(1.00, 0.00, -0.00, -1.00, 535.4, 10.4)">M</text><text xml:space="preserve" font-family="Monaco,Monaco" font-size="25.2" fill="#000000" transform="matrix(1.00, 0.00, -0.00, -1.00, 550.5, 10.4)">E</text><text xml:space="preserve" font-family="Monaco,Monaco" font-size="25.2" fill="#000000" transform="matrix(1.00, 0.00, -0.00, -1.00, 565.6, 10.4)">N</text><text xml:space="preserve" font-family="Monaco,Monaco" font-size="25.2" fill="#000000" transform="matrix(1.00, 0.00, -0.00, -1.00, 580.8, 10.4)">T</text><text xml:space="preserve" font-family="Monaco,Monaco" font-size="25.2" fill="#000000" transform="matrix(1.00, 0.00, -0.00, -1.00, 595.9, 10.4)">A</text><text xml:space="preserve" font-family="Monaco,Monaco" font-size="25.2" fill="#000000" transform="matrix(1.00, 0.00, -0.00, -1.00, 611.0, 10.4)">L</text><text xml:space="preserve" font-family="Monaco,Monaco" font-size="25.2" fill="#000000" transform="matrix(1.00, 0.00, -0.00, -1.00, 626.1, 10.4)">-</text><text xml:space="preserve" font-family="Monaco,Monaco" font-size="25.2" fill="#000000" transform="matrix(1.00, 0.00, -0.00, -1.00, 641.3, 10.4)">1</text><text xml:space="preserve" font-family="Palatino-Roman,Palatino" font-size="31.9" fill="#000000" transform="matrix(1.00, 0.00, -0.00, -1.00, 656.4, 10.4)">.</text><text xml:space="preserve" font-family="Palatino-Roman,Palatino" font-size="31.9" fill="#000000" transform="matrix(1.00, 0.00, -0.00, -1.00, 664.3, 10.4)">.</text><text xml:space="preserve" font-family="Palatino-Roman,Palatino" font-size="31.9" fill="#000000" transform="matrix(1.00, 0.00, -0.00, -1.00, 672.3, 10.4)">.</text></g></svg>