<?xml version="1.0" encoding="UTF-8" standalone="no"?><svg xmlns="http://www.w3.org/2000/svg" xmlns:xlink="http://www.w3.org/1999/xlink" clip-rule="evenodd" stroke-miterlimit="10" viewBox="0 0 579 65"><desc>SVG generated by Keynote</desc><defs></defs><g transform="matrix(1.00, 0.00, -0.00, -1.00, 0.0, 65.0)"><text xml:space="preserve" font-family="ZapfDingbatsITC,Zapf Dingbats" font-size="19.4" fill="#5B86B8" transform="matrix(1.00, 0.00, -0.00, -1.00, 0.0, 44.5)">✤</text><text xml:space="preserve" font-family="Palatino-Roman,Palatino" font-size="27.7" fill="#000000" transform="matrix(1.00, 0.00, -0.00, -1.00, 29.2, 41.7)">v</text><text xml:space="preserve" font-family="Palatino-Roman,Palatino" font-size="27.7" fill="#000000" transform="matrix(1.00, 0.00, -0.00, -1.00, 44.9, 41.7)">i</text><text xml:space="preserve" font-family="Palatino-Roman,Palatino" font-size="27.7" fill="#000000" transform="matrix(1.00, 0.00, -0.00, -1.00, 52.9, 41.7)">m</text><text xml:space="preserve" font-family="Palatino-Roman,Palatino" font-size="27.7" fill="#000000" transform="matrix(1.00, 0.00, -0.00, -1.00, 77.4, 41.7)">m</text><text xml:space="preserve" font-family="Palatino-Roman,Palatino" font-size="27.7" fill="#000000" transform="matrix(1.00, 0.00, -0.00, -1.00, 101.9, 41.7)">m</text><text xml:space="preserve" font-family="Palatino-Roman,Palatino" font-size="27.7" fill="#000000" transform="matrix(1.00, 0.00, -0.00, -1.00, 126.4, 41.7)">e</text><text xml:space="preserve" font-family="Palatino-Roman,Palatino" font-size="27.7" fill="#000000" transform="matrix(1.00, 0.00, -0.00, -1.00, 139.7, 41.7)">x</text><text xml:space="preserve" font-family="Palatino-Roman,Palatino" font-size="27.7" fill="#000000" transform="matrix(1.00, 0.00, -0.00, -1.00, 154.0, 41.7)">:</text><text xml:space="preserve" font-family="Palatino-Roman,Palatino" font-size="27.7" fill="#000000" transform="matrix(1.00, 0.00, -0.00, -1.00, 160.9, 41.7)"> </text><text xml:space="preserve" font-family="Palatino-Roman,Palatino" font-size="27.7" fill="#000000" transform="matrix(1.00, 0.00, -0.00, -1.00, 167.9, 41.7)">B</text><text xml:space="preserve" font-family="Palatino-Roman,Palatino" font-size="27.7" fill="#000000" transform="matrix(1.00, 0.00, -0.00, -1.00, 184.8, 41.7)">r</text><text xml:space="preserve" font-family="Palatino-Roman,Palatino" font-size="27.7" fill="#000000" transform="matrix(1.00, 0.00, -0.00, -1.00, 195.8, 41.7)">a</text><text xml:space="preserve" font-family="Palatino-Roman,Palatino" font-size="27.7" fill="#000000" transform="matrix(1.00, 0.00, -0.00, -1.00, 209.6, 41.7)">i</text><text xml:space="preserve" font-family="Palatino-Roman,Palatino" font-size="27.7" fill="#000000" transform="matrix(1.00, 0.00, -0.00, -1.00, 217.7, 41.7)">n</text><text xml:space="preserve" font-family="Palatino-Roman,Palatino" font-size="27.7" fill="#000000" transform="matrix(1.00, 0.00, -0.00, -1.00, 233.9, 41.7)">f</text><text xml:space="preserve" font-family="Palatino-Roman,Palatino" font-size="27.7" fill="#000000" transform="matrix(1.00, 0.00, -0.00, -1.00, 243.1, 41.7)">*</text><text xml:space="preserve" font-family="Palatino-Roman,Palatino" font-size="27.7" fill="#000000" transform="matrix(1.00, 0.00, -0.00, -1.00, 253.9, 41.7)">c</text><text xml:space="preserve" font-family="Palatino-Roman,Palatino" font-size="27.7" fill="#000000" transform="matrix(1.00, 0.00, -0.00, -1.00, 266.2, 41.7)">k</text><text xml:space="preserve" font-family="Palatino-Roman,Palatino" font-size="27.7" fill="#000000" transform="matrix(1.00, 0.00, -0.00, -1.00, 281.6, 41.7)"> </text><text xml:space="preserve" font-family="Palatino-Roman,Palatino" font-size="27.7" fill="#000000" transform="matrix(1.00, 0.00, -0.00, -1.00, 288.6, 41.7)">i</text><text xml:space="preserve" font-family="Palatino-Roman,Palatino" font-size="27.7" fill="#000000" transform="matrix(1.00, 0.00, -0.00, -1.00, 296.6, 41.7)">n</text><text xml:space="preserve" font-family="Palatino-Roman,Palatino" font-size="27.7" fill="#000000" transform="matrix(1.00, 0.00, -0.00, -1.00, 312.8, 41.7)">t</text><text xml:space="preserve" font-family="Palatino-Roman,Palatino" font-size="27.7" fill="#000000" transform="matrix(1.00, 0.00, -0.00, -1.00, 321.8, 41.7)">e</text><text xml:space="preserve" font-family="Palatino-Roman,Palatino" font-size="27.7" fill="#000000" transform="matrix(1.00, 0.00, -0.00, -1.00, 335.1, 41.7)">r</text><text xml:space="preserve" font-family="Palatino-Roman,Palatino" font-size="27.7" fill="#000000" transform="matrix(1.00, 0.00, -0.00, -1.00, 346.1, 41.7)">p</text><text xml:space="preserve" font-family="Palatino-Roman,Palatino" font-size="27.7" fill="#000000" transform="matrix(1.00, 0.00, -0.00, -1.00, 362.8, 41.7)">r</text><text xml:space="preserve" font-family="Palatino-Roman,Palatino" font-size="27.7" fill="#000000" transform="matrix(1.00, 0.00, -0.00, -1.00, 373.2, 41.7)">e</text><text xml:space="preserve" font-family="Palatino-Roman,Palatino" font-size="27.7" fill="#000000" transform="matrix(1.00, 0.00, -0.00, -1.00, 386.5, 41.7)">t</text><text xml:space="preserve" font-family="Palatino-Roman,Palatino" font-size="27.7" fill="#000000" transform="matrix(1.00, 0.00, -0.00, -1.00, 395.6, 41.7)">e</text><text xml:space="preserve" font-family="Palatino-Roman,Palatino" font-size="27.7" fill="#000000" transform="matrix(1.00, 0.00, -0.00, -1.00, 408.9, 41.7)">r</text><text xml:space="preserve" font-family="Palatino-Roman,Palatino" font-size="27.7" fill="#000000" transform="matrix(1.00, 0.00, -0.00, -1.00, 419.8, 41.7)"> </text><text xml:space="preserve" font-family="Palatino-Roman,Palatino" font-size="27.7" fill="#000000" transform="matrix(1.00, 0.00, -0.00, -1.00, 426.8, 41.7)">i</text><text xml:space="preserve" font-family="Palatino-Roman,Palatino" font-size="27.7" fill="#000000" transform="matrix(1.00, 0.00, -0.00, -1.00, 434.8, 41.7)">n</text><text xml:space="preserve" font-family="Palatino-Roman,Palatino" font-size="27.7" fill="#000000" transform="matrix(1.00, 0.00, -0.00, -1.00, 451.0, 41.7)"> </text><text xml:space="preserve" font-family="Palatino-Roman,Palatino" font-size="27.7" fill="#000000" transform="matrix(1.00, 0.00, -0.00, -1.00, 457.9, 41.7)">V</text><text xml:space="preserve" font-family="Palatino-Roman,Palatino" font-size="27.7" fill="#000000" transform="matrix(1.00, 0.00, -0.00, -1.00, 476.4, 41.7)">i</text><text xml:space="preserve" font-family="Palatino-Roman,Palatino" font-size="27.7" fill="#000000" transform="matrix(1.00, 0.00, -0.00, -1.00, 484.5, 41.7)">m</text><text xml:space="preserve" font-family="Palatino-Roman,Palatino" font-size="27.7" fill="#000000" transform="matrix(1.00, 0.00, -0.00, -1.00, 509.0, 41.7)">s</text><text xml:space="preserve" font-family="Palatino-Roman,Palatino" font-size="27.7" fill="#000000" transform="matrix(1.00, 0.00, -0.00, -1.00, 520.7, 41.7)">c</text><text xml:space="preserve" font-family="Palatino-Roman,Palatino" font-size="27.7" fill="#000000" transform="matrix(1.00, 0.00, -0.00, -1.00, 533.0, 41.7)">r</text><text xml:space="preserve" font-family="Palatino-Roman,Palatino" font-size="27.7" fill="#000000" transform="matrix(1.00, 0.00, -0.00, -1.00, 544.0, 41.7)">i</text><text xml:space="preserve" font-family="Palatino-Roman,Palatino" font-size="27.7" fill="#000000" transform="matrix(1.00, 0.00, -0.00, -1.00, 552.1, 41.7)">p</text><text xml:space="preserve" font-family="Palatino-Roman,Palatino" font-size="27.7" fill="#000000" transform="matrix(1.00, 0.00, -0.00, -1.00, 568.7, 41.7)">t</text><text xml:space="preserve" font-family="ZapfDingbatsITC,Zapf Dingbats" font-size="14.8" fill="#5B86B8" transform="matrix(1.00, 0.00, -0.00, -1.00, 40.0, 5.8)">✤</text><text xml:space="preserve" font-family="Palatino-Roman,Palatino" font-size="21.2" fill="#3D5A84" transform="matrix(1.00, 0.00, -0.00, -1.00, 60.0, 7.5)">h</text><text xml:space="preserve" font-family="Palatino-Roman,Palatino" font-size="21.2" fill="#3D5A84" transform="matrix(1.00, 0.00, -0.00, -1.00, 72.3, 7.5)">t</text><text xml:space="preserve" font-family="Palatino-Roman,Palatino" font-size="21.2" fill="#3D5A84" transform="matrix(1.00, 0.00, -0.00, -1.00, 79.2, 7.5)">t</text><text xml:space="preserve" font-family="Palatino-Roman,Palatino" font-size="21.2" fill="#3D5A84" transform="matrix(1.00, 0.00, -0.00, -1.00, 86.1, 7.5)">p</text><text xml:space="preserve" font-family="Palatino-Roman,Palatino" font-size="21.2" fill="#3D5A84" transform="matrix(1.00, 0.00, -0.00, -1.00, 98.8, 7.5)">s</text><text xml:space="preserve" font-family="Palatino-Roman,Palatino" font-size="21.2" fill="#3D5A84" transform="matrix(1.00, 0.00, -0.00, -1.00, 107.8, 7.5)">:</text><text xml:space="preserve" font-family="Palatino-Roman,Palatino" font-size="21.2" fill="#3D5A84" transform="matrix(1.00, 0.00, -0.00, -1.00, 113.1, 7.5)">/</text><text xml:space="preserve" font-family="Palatino-Roman,Palatino" font-size="21.2" fill="#3D5A84" transform="matrix(1.00, 0.00, -0.00, -1.00, 125.9, 7.5)">/</text><text xml:space="preserve" font-family="Palatino-Roman,Palatino" font-size="21.2" fill="#3D5A84" transform="matrix(1.00, 0.00, -0.00, -1.00, 138.8, 7.5)">g</text><text xml:space="preserve" font-family="Palatino-Roman,Palatino" font-size="21.2" fill="#3D5A84" transform="matrix(1.00, 0.00, -0.00, -1.00, 150.5, 7.5)">i</text><text xml:space="preserve" font-family="Palatino-Roman,Palatino" font-size="21.2" fill="#3D5A84" transform="matrix(1.00, 0.00, -0.00, -1.00, 156.7, 7.5)">t</text><text xml:space="preserve" font-family="Palatino-Roman,Palatino" font-size="21.2" fill="#3D5A84" transform="matrix(1.00, 0.00, -0.00, -1.00, 163.6, 7.5)">h</text><text xml:space="preserve" font-family="Palatino-Roman,Palatino" font-size="21.2" fill="#3D5A84" transform="matrix(1.00, 0.00, -0.00, -1.00, 175.9, 7.5)">u</text><text xml:space="preserve" font-family="Palatino-Roman,Palatino" font-size="21.2" fill="#3D5A84" transform="matrix(1.00, 0.00, -0.00, -1.00, 188.7, 7.5)">b</text><text xml:space="preserve" font-family="Palatino-Roman,Palatino" font-size="21.2" fill="#3D5A84" transform="matrix(1.00, 0.00, -0.00, -1.00, 200.4, 7.5)">.</text><text xml:space="preserve" font-family="Palatino-Roman,Palatino" font-size="21.2" fill="#3D5A84" transform="matrix(1.00, 0.00, -0.00, -1.00, 205.7, 7.5)">c</text><text xml:space="preserve" font-family="Palatino-Roman,Palatino" font-size="21.2" fill="#3D5A84" transform="matrix(1.00, 0.00, -0.00, -1.00, 215.1, 7.5)">o</text><text xml:space="preserve" font-family="Palatino-Roman,Palatino" font-size="21.2" fill="#3D5A84" transform="matrix(1.00, 0.00, -0.00, -1.00, 226.7, 7.5)">m</text><text xml:space="preserve" font-family="Palatino-Roman,Palatino" font-size="21.2" fill="#3D5A84" transform="matrix(1.00, 0.00, -0.00, -1.00, 245.3, 7.5)">/</text><text xml:space="preserve" font-family="Palatino-Roman,Palatino" font-size="21.2" fill="#3D5A84" transform="matrix(1.00, 0.00, -0.00, -1.00, 258.2, 7.5)">x</text><text xml:space="preserve" font-family="Palatino-Roman,Palatino" font-size="21.2" fill="#3D5A84" transform="matrix(1.00, 0.00, -0.00, -1.00, 269.1, 7.5)">o</text><text xml:space="preserve" font-family="Palatino-Roman,Palatino" font-size="21.2" fill="#3D5A84" transform="matrix(1.00, 0.00, -0.00, -1.00, 280.6, 7.5)">r</text><text xml:space="preserve" font-family="Palatino-Roman,Palatino" font-size="21.2" fill="#3D5A84" transform="matrix(1.00, 0.00, -0.00, -1.00, 288.6, 7.5)">e</text><text xml:space="preserve" font-family="Palatino-Roman,Palatino" font-size="21.2" fill="#3D5A84" transform="matrix(1.00, 0.00, -0.00, -1.00, 298.8, 7.5)">a</text><text xml:space="preserve" font-family="Palatino-Roman,Palatino" font-size="21.2" fill="#3D5A84" transform="matrix(1.00, 0.00, -0.00, -1.00, 309.4, 7.5)">x</text><text xml:space="preserve" font-family="Palatino-Roman,Palatino" font-size="21.2" fill="#3D5A84" transform="matrix(1.00, 0.00, -0.00, -1.00, 320.3, 7.5)">e</text><text xml:space="preserve" font-family="Palatino-Roman,Palatino" font-size="21.2" fill="#3D5A84" transform="matrix(1.00, 0.00, -0.00, -1.00, 330.4, 7.5)">a</text><text xml:space="preserve" font-family="Palatino-Roman,Palatino" font-size="21.2" fill="#3D5A84" transform="matrix(1.00, 0.00, -0.00, -1.00, 341.0, 7.5)">x</text><text xml:space="preserve" font-family="Palatino-Roman,Palatino" font-size="21.2" fill="#3D5A84" transform="matrix(1.00, 0.00, -0.00, -1.00, 351.9, 7.5)">e</text><text xml:space="preserve" font-family="Palatino-Roman,Palatino" font-size="21.2" fill="#3D5A84" transform="matrix(1.00, 0.00, -0.00, -1.00, 362.1, 7.5)">a</text><text xml:space="preserve" font-family="Palatino-Roman,Palatino" font-size="21.2" fill="#3D5A84" transform="matrix(1.00, 0.00, -0.00, -1.00, 372.7, 7.5)">x</text><text xml:space="preserve" font-family="Palatino-Roman,Palatino" font-size="21.2" fill="#3D5A84" transform="matrix(1.00, 0.00, -0.00, -1.00, 383.6, 7.5)">/</text><text xml:space="preserve" font-family="Palatino-Roman,Palatino" font-size="21.2" fill="#3D5A84" transform="matrix(1.00, 0.00, -0.00, -1.00, 396.4, 7.5)">v</text><text xml:space="preserve" font-family="Palatino-Roman,Palatino" font-size="21.2" fill="#3D5A84" transform="matrix(1.00, 0.00, -0.00, -1.00, 408.4, 7.5)">i</text><text xml:space="preserve" font-family="Palatino-Roman,Palatino" font-size="21.2" fill="#3D5A84" transform="matrix(1.00, 0.00, -0.00, -1.00, 414.5, 7.5)">m</text><text xml:space="preserve" font-family="Palatino-Roman,Palatino" font-size="21.2" fill="#3D5A84" transform="matrix(1.00, 0.00, -0.00, -1.00, 433.2, 7.5)">m</text><text xml:space="preserve" font-family="Palatino-Roman,Palatino" font-size="21.2" fill="#3D5A84" transform="matrix(1.00, 0.00, -0.00, -1.00, 451.9, 7.5)">m</text><text xml:space="preserve" font-family="Palatino-Roman,Palatino" font-size="21.2" fill="#3D5A84" transform="matrix(1.00, 0.00, -0.00, -1.00, 470.6, 7.5)">e</text><text xml:space="preserve" font-family="Palatino-Roman,Palatino" font-size="21.2" fill="#3D5A84" transform="matrix(1.00, 0.00, -0.00, -1.00, 480.7, 7.5)">x</text></g></svg>