<?xml version="1.0" encoding="UTF-8" standalone="no"?><svg xmlns="http://www.w3.org/2000/svg" xmlns:xlink="http://www.w3.org/1999/xlink" clip-rule="evenodd" stroke-miterlimit="10" viewBox="0 0 588 25"><desc>SVG generated by Keynote</desc><defs></defs><g transform="matrix(1.00, 0.00, -0.00, -1.00, 0.0, 25.0)"><text xml:space="preserve" font-family="ZapfDingbatsITC,Zapf Dingbats" font-size="14.0" fill="#5B86B8" transform="matrix(1.00, 0.00, -0.00, -1.00, 0.5, 8.1)">✤</text><text xml:space="preserve" font-family="Palatino-Roman,Palatino" font-size="20.0" fill="#000000" transform="matrix(1.00, 0.00, -0.00, -1.00, 21.5, 6.7)">P</text><text xml:space="preserve" font-family="Palatino-Roman,Palatino" font-size="20.0" fill="#000000" transform="matrix(1.00, 0.00, -0.00, -1.00, 33.6, 6.7)">u</text><text xml:space="preserve" font-family="Palatino-Roman,Palatino" font-size="20.0" fill="#000000" transform="matrix(1.00, 0.00, -0.00, -1.00, 45.7, 6.7)">r</text><text xml:space="preserve" font-family="Palatino-Roman,Palatino" font-size="20.0" fill="#000000" transform="matrix(1.00, 0.00, -0.00, -1.00, 53.2, 6.7)">e</text><text xml:space="preserve" font-family="Palatino-Roman,Palatino" font-size="20.0" fill="#000000" transform="matrix(1.00, 0.00, -0.00, -1.00, 62.8, 6.7)">l</text><text xml:space="preserve" font-family="Palatino-Roman,Palatino" font-size="20.0" fill="#000000" transform="matrix(1.00, 0.00, -0.00, -1.00, 68.6, 6.7)">y</text><text xml:space="preserve" font-family="Palatino-Roman,Palatino" font-size="20.0" fill="#000000" transform="matrix(1.00, 0.00, -0.00, -1.00, 79.7, 6.7)"> </text><text xml:space="preserve" font-family="Palatino-Roman,Palatino" font-size="20.0" fill="#000000" transform="matrix(1.00, 0.00, -0.00, -1.00, 84.7, 6.7)">f</text><text xml:space="preserve" font-family="Palatino-Roman,Palatino" font-size="20.0" fill="#000000" transform="matrix(1.00, 0.00, -0.00, -1.00, 91.4, 6.7)">u</text><text xml:space="preserve" font-family="Palatino-Roman,Palatino" font-size="20.0" fill="#000000" transform="matrix(1.00, 0.00, -0.00, -1.00, 103.5, 6.7)">n</text><text xml:space="preserve" font-family="Palatino-Roman,Palatino" font-size="20.0" fill="#000000" transform="matrix(1.00, 0.00, -0.00, -1.00, 115.1, 6.7)">c</text><text xml:space="preserve" font-family="Palatino-Roman,Palatino" font-size="20.0" fill="#000000" transform="matrix(1.00, 0.00, -0.00, -1.00, 124.0, 6.7)">t</text><text xml:space="preserve" font-family="Palatino-Roman,Palatino" font-size="20.0" fill="#000000" transform="matrix(1.00, 0.00, -0.00, -1.00, 130.5, 6.7)">i</text><text xml:space="preserve" font-family="Palatino-Roman,Palatino" font-size="20.0" fill="#000000" transform="matrix(1.00, 0.00, -0.00, -1.00, 136.3, 6.7)">o</text><text xml:space="preserve" font-family="Palatino-Roman,Palatino" font-size="20.0" fill="#000000" transform="matrix(1.00, 0.00, -0.00, -1.00, 147.2, 6.7)">n</text><text xml:space="preserve" font-family="Palatino-Roman,Palatino" font-size="20.0" fill="#000000" transform="matrix(1.00, 0.00, -0.00, -1.00, 158.9, 6.7)">a</text><text xml:space="preserve" font-family="Palatino-Roman,Palatino" font-size="20.0" fill="#000000" transform="matrix(1.00, 0.00, -0.00, -1.00, 168.9, 6.7)">l</text><text xml:space="preserve" font-family="Palatino-Roman,Palatino" font-size="20.0" fill="#000000" transform="matrix(1.00, 0.00, -0.00, -1.00, 174.7, 6.7)">,</text><text xml:space="preserve" font-family="Palatino-Roman,Palatino" font-size="20.0" fill="#000000" transform="matrix(1.00, 0.00, -0.00, -1.00, 179.7, 6.7)"> </text><text xml:space="preserve" font-family="Palatino-Roman,Palatino" font-size="20.0" fill="#000000" transform="matrix(1.00, 0.00, -0.00, -1.00, 184.7, 6.7)">w</text><text xml:space="preserve" font-family="Palatino-Roman,Palatino" font-size="20.0" fill="#000000" transform="matrix(1.00, 0.00, -0.00, -1.00, 201.4, 6.7)">e</text><text xml:space="preserve" font-family="Palatino-Roman,Palatino" font-size="20.0" fill="#000000" transform="matrix(1.00, 0.00, -0.00, -1.00, 211.0, 6.7)">a</text><text xml:space="preserve" font-family="Palatino-Roman,Palatino" font-size="20.0" fill="#000000" transform="matrix(1.00, 0.00, -0.00, -1.00, 221.0, 6.7)">k</text><text xml:space="preserve" font-family="Palatino-Roman,Palatino" font-size="20.0" fill="#000000" transform="matrix(1.00, 0.00, -0.00, -1.00, 232.1, 6.7)">l</text><text xml:space="preserve" font-family="Palatino-Roman,Palatino" font-size="20.0" fill="#000000" transform="matrix(1.00, 0.00, -0.00, -1.00, 237.9, 6.7)">y</text><text xml:space="preserve" font-family="Palatino-Roman,Palatino" font-size="20.0" fill="#000000" transform="matrix(1.00, 0.00, -0.00, -1.00, 249.0, 6.7)"> </text><text xml:space="preserve" font-family="Palatino-Roman,Palatino" font-size="20.0" fill="#000000" transform="matrix(1.00, 0.00, -0.00, -1.00, 254.0, 6.7)">t</text><text xml:space="preserve" font-family="Palatino-Roman,Palatino" font-size="20.0" fill="#000000" transform="matrix(1.00, 0.00, -0.00, -1.00, 260.6, 6.7)">y</text><text xml:space="preserve" font-family="Palatino-Roman,Palatino" font-size="20.0" fill="#000000" transform="matrix(1.00, 0.00, -0.00, -1.00, 271.7, 6.7)">p</text><text xml:space="preserve" font-family="Palatino-Roman,Palatino" font-size="20.0" fill="#000000" transform="matrix(1.00, 0.00, -0.00, -1.00, 283.7, 6.7)">e</text><text xml:space="preserve" font-family="Palatino-Roman,Palatino" font-size="20.0" fill="#000000" transform="matrix(1.00, 0.00, -0.00, -1.00, 293.3, 6.7)">d</text><text xml:space="preserve" font-family="Palatino-Roman,Palatino" font-size="20.0" fill="#000000" transform="matrix(1.00, 0.00, -0.00, -1.00, 305.5, 6.7)">,</text><text xml:space="preserve" font-family="Palatino-Roman,Palatino" font-size="20.0" fill="#000000" transform="matrix(1.00, 0.00, -0.00, -1.00, 310.5, 6.7)"> </text><text xml:space="preserve" font-family="Palatino-Roman,Palatino" font-size="20.0" fill="#000000" transform="matrix(1.00, 0.00, -0.00, -1.00, 315.5, 6.7)">h</text><text xml:space="preserve" font-family="Palatino-Roman,Palatino" font-size="20.0" fill="#000000" transform="matrix(1.00, 0.00, -0.00, -1.00, 327.2, 6.7)">o</text><text xml:space="preserve" font-family="Palatino-Roman,Palatino" font-size="20.0" fill="#000000" transform="matrix(1.00, 0.00, -0.00, -1.00, 338.1, 6.7)">m</text><text xml:space="preserve" font-family="Palatino-Roman,Palatino" font-size="20.0" fill="#000000" transform="matrix(1.00, 0.00, -0.00, -1.00, 355.7, 6.7)">o</text><text xml:space="preserve" font-family="Palatino-Roman,Palatino" font-size="20.0" fill="#000000" transform="matrix(1.00, 0.00, -0.00, -1.00, 366.6, 6.7)">i</text><text xml:space="preserve" font-family="Palatino-Roman,Palatino" font-size="20.0" fill="#000000" transform="matrix(1.00, 0.00, -0.00, -1.00, 372.5, 6.7)">c</text><text xml:space="preserve" font-family="Palatino-Roman,Palatino" font-size="20.0" fill="#000000" transform="matrix(1.00, 0.00, -0.00, -1.00, 381.3, 6.7)">o</text><text xml:space="preserve" font-family="Palatino-Roman,Palatino" font-size="20.0" fill="#000000" transform="matrix(1.00, 0.00, -0.00, -1.00, 392.2, 6.7)">n</text><text xml:space="preserve" font-family="Palatino-Roman,Palatino" font-size="20.0" fill="#000000" transform="matrix(1.00, 0.00, -0.00, -1.00, 403.9, 6.7)">i</text><text xml:space="preserve" font-family="Palatino-Roman,Palatino" font-size="20.0" fill="#000000" transform="matrix(1.00, 0.00, -0.00, -1.00, 409.7, 6.7)">c</text><text xml:space="preserve" font-family="Palatino-Roman,Palatino" font-size="20.0" fill="#000000" transform="matrix(1.00, 0.00, -0.00, -1.00, 418.6, 6.7)">,</text><text xml:space="preserve" font-family="Palatino-Roman,Palatino" font-size="20.0" fill="#000000" transform="matrix(1.00, 0.00, -0.00, -1.00, 423.6, 6.7)"> </text><text xml:space="preserve" font-family="Palatino-Roman,Palatino" font-size="20.0" fill="#000000" transform="matrix(1.00, 0.00, -0.00, -1.00, 428.6, 6.7)">p</text><text xml:space="preserve" font-family="Palatino-Roman,Palatino" font-size="20.0" fill="#000000" transform="matrix(1.00, 0.00, -0.00, -1.00, 440.6, 6.7)">a</text><text xml:space="preserve" font-family="Palatino-Roman,Palatino" font-size="20.0" fill="#000000" transform="matrix(1.00, 0.00, -0.00, -1.00, 450.6, 6.7)">t</text><text xml:space="preserve" font-family="Palatino-Roman,Palatino" font-size="20.0" fill="#000000" transform="matrix(1.00, 0.00, -0.00, -1.00, 457.1, 6.7)">t</text><text xml:space="preserve" font-family="Palatino-Roman,Palatino" font-size="20.0" fill="#000000" transform="matrix(1.00, 0.00, -0.00, -1.00, 463.7, 6.7)">e</text><text xml:space="preserve" font-family="Palatino-Roman,Palatino" font-size="20.0" fill="#000000" transform="matrix(1.00, 0.00, -0.00, -1.00, 473.2, 6.7)">r</text><text xml:space="preserve" font-family="Palatino-Roman,Palatino" font-size="20.0" fill="#000000" transform="matrix(1.00, 0.00, -0.00, -1.00, 481.1, 6.7)">n</text><text xml:space="preserve" font-family="Palatino-Roman,Palatino" font-size="20.0" fill="#000000" transform="matrix(1.00, 0.00, -0.00, -1.00, 492.8, 6.7)"> </text><text xml:space="preserve" font-family="Palatino-Roman,Palatino" font-size="20.0" fill="#000000" transform="matrix(1.00, 0.00, -0.00, -1.00, 497.8, 6.7)">o</text><text xml:space="preserve" font-family="Palatino-Roman,Palatino" font-size="20.0" fill="#000000" transform="matrix(1.00, 0.00, -0.00, -1.00, 508.7, 6.7)">r</text><text xml:space="preserve" font-family="Palatino-Roman,Palatino" font-size="20.0" fill="#000000" transform="matrix(1.00, 0.00, -0.00, -1.00, 516.6, 6.7)">i</text><text xml:space="preserve" font-family="Palatino-Roman,Palatino" font-size="20.0" fill="#000000" transform="matrix(1.00, 0.00, -0.00, -1.00, 522.4, 6.7)">e</text><text xml:space="preserve" font-family="Palatino-Roman,Palatino" font-size="20.0" fill="#000000" transform="matrix(1.00, 0.00, -0.00, -1.00, 532.0, 6.7)">n</text><text xml:space="preserve" font-family="Palatino-Roman,Palatino" font-size="20.0" fill="#000000" transform="matrix(1.00, 0.00, -0.00, -1.00, 543.6, 6.7)">t</text><text xml:space="preserve" font-family="Palatino-Roman,Palatino" font-size="20.0" fill="#000000" transform="matrix(1.00, 0.00, -0.00, -1.00, 550.2, 6.7)">e</text><text xml:space="preserve" font-family="Palatino-Roman,Palatino" font-size="20.0" fill="#000000" transform="matrix(1.00, 0.00, -0.00, -1.00, 559.7, 6.7)">d</text><text xml:space="preserve" font-family="Palatino-Roman,Palatino" font-size="20.0" fill="#000000" transform="matrix(1.00, 0.00, -0.00, -1.00, 572.0, 6.7)">.</text><text xml:space="preserve" font-family="Palatino-Roman,Palatino" font-size="20.0" fill="#000000" transform="matrix(1.00, 0.00, -0.00, -1.00, 577.0, 6.7)">.</text><text xml:space="preserve" font-family="Palatino-Roman,Palatino" font-size="20.0" fill="#000000" transform="matrix(1.00, 0.00, -0.00, -1.00, 582.0, 6.7)">.</text></g></svg>