<?xml version="1.0" encoding="UTF-8" standalone="no"?><svg xmlns="http://www.w3.org/2000/svg" xmlns:xlink="http://www.w3.org/1999/xlink" clip-rule="evenodd" stroke-miterlimit="10" viewBox="0 0 677 53"><desc>SVG generated by Keynote</desc><defs></defs><g transform="matrix(1.00, 0.00, -0.00, -1.00, 0.0, 53.0)"><text xml:space="preserve" font-family="ZapfDingbatsITC,Zapf Dingbats" font-size="14.0" fill="#5B86B8" transform="matrix(1.00, 0.00, -0.00, -1.00, 0.5, 36.1)">✤</text><text xml:space="preserve" font-family="Monaco,Monaco" font-size="20.0" fill="#000000" transform="matrix(1.00, 0.00, -0.00, -1.00, 21.5, 34.7)">b</text><text xml:space="preserve" font-family="Monaco,Monaco" font-size="20.0" fill="#000000" transform="matrix(1.00, 0.00, -0.00, -1.00, 33.5, 34.7)">f</text><text xml:space="preserve" font-family="Monaco,Monaco" font-size="20.0" fill="#000000" transform="matrix(1.00, 0.00, -0.00, -1.00, 45.5, 34.7)">!</text><text xml:space="preserve" font-family="Palatino-Roman,Palatino" font-size="20.0" fill="#000000" transform="matrix(1.00, 0.00, -0.00, -1.00, 57.5, 34.7)"> </text><text xml:space="preserve" font-family="Palatino-Roman,Palatino" font-size="20.0" fill="#000000" transform="matrix(1.00, 0.00, -0.00, -1.00, 62.5, 34.7)">m</text><text xml:space="preserve" font-family="Palatino-Roman,Palatino" font-size="20.0" fill="#000000" transform="matrix(1.00, 0.00, -0.00, -1.00, 80.2, 34.7)">u</text><text xml:space="preserve" font-family="Palatino-Roman,Palatino" font-size="20.0" fill="#000000" transform="matrix(1.00, 0.00, -0.00, -1.00, 92.3, 34.7)">n</text><text xml:space="preserve" font-family="Palatino-Roman,Palatino" font-size="20.0" fill="#000000" transform="matrix(1.00, 0.00, -0.00, -1.00, 103.9, 34.7)">c</text><text xml:space="preserve" font-family="Palatino-Roman,Palatino" font-size="20.0" fill="#000000" transform="matrix(1.00, 0.00, -0.00, -1.00, 112.8, 34.7)">h</text><text xml:space="preserve" font-family="Palatino-Roman,Palatino" font-size="20.0" fill="#000000" transform="matrix(1.00, 0.00, -0.00, -1.00, 124.4, 34.7)">e</text><text xml:space="preserve" font-family="Palatino-Roman,Palatino" font-size="20.0" fill="#000000" transform="matrix(1.00, 0.00, -0.00, -1.00, 134.0, 34.7)">s</text><text xml:space="preserve" font-family="Palatino-Roman,Palatino" font-size="20.0" fill="#000000" transform="matrix(1.00, 0.00, -0.00, -1.00, 142.5, 34.7)"> </text><text xml:space="preserve" font-family="Palatino-Bold,Palatino" font-weight="bold" font-size="20.0" fill="#000000" transform="matrix(1.00, 0.00, -0.00, -1.00, 147.5, 34.7)">n</text><text xml:space="preserve" font-family="Palatino-Bold,Palatino" font-weight="bold" font-size="20.0" fill="#000000" transform="matrix(1.00, 0.00, -0.00, -1.00, 159.7, 34.7)">o</text><text xml:space="preserve" font-family="Palatino-Bold,Palatino" font-weight="bold" font-size="20.0" fill="#000000" transform="matrix(1.00, 0.00, -0.00, -1.00, 170.8, 34.7)">r</text><text xml:space="preserve" font-family="Palatino-Bold,Palatino" font-weight="bold" font-size="20.0" fill="#000000" transform="matrix(1.00, 0.00, -0.00, -1.00, 178.6, 34.7)">m</text><text xml:space="preserve" font-family="Palatino-Bold,Palatino" font-weight="bold" font-size="20.0" fill="#000000" transform="matrix(1.00, 0.00, -0.00, -1.00, 196.4, 34.7)">a</text><text xml:space="preserve" font-family="Palatino-Bold,Palatino" font-weight="bold" font-size="20.0" fill="#000000" transform="matrix(1.00, 0.00, -0.00, -1.00, 206.4, 34.7)">l</text><text xml:space="preserve" font-family="Palatino-Bold,Palatino" font-weight="bold" font-size="20.0" fill="#000000" transform="matrix(1.00, 0.00, -0.00, -1.00, 213.0, 34.7)"> </text><text xml:space="preserve" font-family="Palatino-Bold,Palatino" font-weight="bold" font-size="20.0" fill="#000000" transform="matrix(1.00, 0.00, -0.00, -1.00, 218.0, 34.7)">B</text><text xml:space="preserve" font-family="Palatino-Bold,Palatino" font-weight="bold" font-size="20.0" fill="#000000" transform="matrix(1.00, 0.00, -0.00, -1.00, 231.4, 34.7)">r</text><text xml:space="preserve" font-family="Palatino-Bold,Palatino" font-weight="bold" font-size="20.0" fill="#000000" transform="matrix(1.00, 0.00, -0.00, -1.00, 239.2, 34.7)">a</text><text xml:space="preserve" font-family="Palatino-Bold,Palatino" font-weight="bold" font-size="20.0" fill="#000000" transform="matrix(1.00, 0.00, -0.00, -1.00, 249.2, 34.7)">i</text><text xml:space="preserve" font-family="Palatino-Bold,Palatino" font-weight="bold" font-size="20.0" fill="#000000" transform="matrix(1.00, 0.00, -0.00, -1.00, 255.8, 34.7)">n</text><text xml:space="preserve" font-family="Palatino-Bold,Palatino" font-weight="bold" font-size="20.0" fill="#000000" transform="matrix(1.00, 0.00, -0.00, -1.00, 268.0, 34.7)">f</text><text xml:space="preserve" font-family="Palatino-Bold,Palatino" font-weight="bold" font-size="20.0" fill="#000000" transform="matrix(1.00, 0.00, -0.00, -1.00, 275.8, 34.7)">u</text><text xml:space="preserve" font-family="Palatino-Bold,Palatino" font-weight="bold" font-size="20.0" fill="#000000" transform="matrix(1.00, 0.00, -0.00, -1.00, 288.0, 34.7)">c</text><text xml:space="preserve" font-family="Palatino-Bold,Palatino" font-weight="bold" font-size="20.0" fill="#000000" transform="matrix(1.00, 0.00, -0.00, -1.00, 296.9, 34.7)">k</text><text xml:space="preserve" font-family="Palatino-Bold,Palatino" font-weight="bold" font-size="20.0" fill="#000000" transform="matrix(1.00, 0.00, -0.00, -1.00, 309.1, 34.7)"> </text><text xml:space="preserve" font-family="Palatino-Bold,Palatino" font-weight="bold" font-size="20.0" fill="#000000" transform="matrix(1.00, 0.00, -0.00, -1.00, 314.1, 34.7)">s</text><text xml:space="preserve" font-family="Palatino-Bold,Palatino" font-weight="bold" font-size="20.0" fill="#000000" transform="matrix(1.00, 0.00, -0.00, -1.00, 323.0, 34.7)">y</text><text xml:space="preserve" font-family="Palatino-Bold,Palatino" font-weight="bold" font-size="20.0" fill="#000000" transform="matrix(1.00, 0.00, -0.00, -1.00, 334.1, 34.7)">n</text><text xml:space="preserve" font-family="Palatino-Bold,Palatino" font-weight="bold" font-size="20.0" fill="#000000" transform="matrix(1.00, 0.00, -0.00, -1.00, 346.3, 34.7)">t</text><text xml:space="preserve" font-family="Palatino-Bold,Palatino" font-weight="bold" font-size="20.0" fill="#000000" transform="matrix(1.00, 0.00, -0.00, -1.00, 353.0, 34.7)">a</text><text xml:space="preserve" font-family="Palatino-Bold,Palatino" font-weight="bold" font-size="20.0" fill="#000000" transform="matrix(1.00, 0.00, -0.00, -1.00, 363.0, 34.7)">x</text><text xml:space="preserve" font-family="Palatino-Roman,Palatino" font-size="20.0" fill="#000000" transform="matrix(1.00, 0.00, -0.00, -1.00, 373.0, 34.7)">,</text><text xml:space="preserve" font-family="Palatino-Roman,Palatino" font-size="20.0" fill="#000000" transform="matrix(1.00, 0.00, -0.00, -1.00, 378.0, 34.7)"> </text><text xml:space="preserve" font-family="Palatino-Roman,Palatino" font-size="20.0" fill="#000000" transform="matrix(1.00, 0.00, -0.00, -1.00, 383.0, 34.7)">a</text><text xml:space="preserve" font-family="Palatino-Roman,Palatino" font-size="20.0" fill="#000000" transform="matrix(1.00, 0.00, -0.00, -1.00, 393.0, 34.7)">s</text><text xml:space="preserve" font-family="Palatino-Roman,Palatino" font-size="20.0" fill="#000000" transform="matrix(1.00, 0.00, -0.00, -1.00, 401.5, 34.7)"> </text><text xml:space="preserve" font-family="Palatino-Roman,Palatino" font-size="20.0" fill="#000000" transform="matrix(1.00, 0.00, -0.00, -1.00, 406.5, 34.7)">w</text><text xml:space="preserve" font-family="Palatino-Roman,Palatino" font-size="20.0" fill="#000000" transform="matrix(1.00, 0.00, -0.00, -1.00, 423.2, 34.7)">e</text><text xml:space="preserve" font-family="Palatino-Roman,Palatino" font-size="20.0" fill="#000000" transform="matrix(1.00, 0.00, -0.00, -1.00, 432.7, 34.7)">l</text><text xml:space="preserve" font-family="Palatino-Roman,Palatino" font-size="20.0" fill="#000000" transform="matrix(1.00, 0.00, -0.00, -1.00, 438.6, 34.7)">l</text><text xml:space="preserve" font-family="Palatino-Roman,Palatino" font-size="20.0" fill="#000000" transform="matrix(1.00, 0.00, -0.00, -1.00, 444.4, 34.7)"> </text><text xml:space="preserve" font-family="Palatino-Roman,Palatino" font-size="20.0" fill="#000000" transform="matrix(1.00, 0.00, -0.00, -1.00, 449.4, 34.7)">a</text><text xml:space="preserve" font-family="Palatino-Roman,Palatino" font-size="20.0" fill="#000000" transform="matrix(1.00, 0.00, -0.00, -1.00, 459.4, 34.7)">s</text><text xml:space="preserve" font-family="Palatino-Roman,Palatino" font-size="20.0" fill="#000000" transform="matrix(1.00, 0.00, -0.00, -1.00, 467.9, 34.7)"> </text><text xml:space="preserve" font-family="Palatino-Roman,Palatino" font-size="20.0" fill="#000000" transform="matrix(1.00, 0.00, -0.00, -1.00, 472.9, 34.7)">p</text><text xml:space="preserve" font-family="Palatino-Roman,Palatino" font-size="20.0" fill="#000000" transform="matrix(1.00, 0.00, -0.00, -1.00, 484.9, 34.7)">r</text><text xml:space="preserve" font-family="Palatino-Roman,Palatino" font-size="20.0" fill="#000000" transform="matrix(1.00, 0.00, -0.00, -1.00, 492.4, 34.7)">o</text><text xml:space="preserve" font-family="Palatino-Roman,Palatino" font-size="20.0" fill="#000000" transform="matrix(1.00, 0.00, -0.00, -1.00, 503.3, 34.7)">c</text><text xml:space="preserve" font-family="Palatino-Roman,Palatino" font-size="20.0" fill="#000000" transform="matrix(1.00, 0.00, -0.00, -1.00, 512.2, 34.7)">e</text><text xml:space="preserve" font-family="Palatino-Roman,Palatino" font-size="20.0" fill="#000000" transform="matrix(1.00, 0.00, -0.00, -1.00, 521.8, 34.7)">s</text><text xml:space="preserve" font-family="Palatino-Roman,Palatino" font-size="20.0" fill="#000000" transform="matrix(1.00, 0.00, -0.00, -1.00, 530.3, 34.7)">s</text><text xml:space="preserve" font-family="Palatino-Roman,Palatino" font-size="20.0" fill="#000000" transform="matrix(1.00, 0.00, -0.00, -1.00, 538.7, 34.7)">i</text><text xml:space="preserve" font-family="Palatino-Roman,Palatino" font-size="20.0" fill="#000000" transform="matrix(1.00, 0.00, -0.00, -1.00, 544.6, 34.7)">n</text><text xml:space="preserve" font-family="Palatino-Roman,Palatino" font-size="20.0" fill="#000000" transform="matrix(1.00, 0.00, -0.00, -1.00, 556.2, 34.7)">g</text><text xml:space="preserve" font-family="Palatino-Roman,Palatino" font-size="20.0" fill="#000000" transform="matrix(1.00, 0.00, -0.00, -1.00, 567.3, 34.7)"> </text><text xml:space="preserve" font-family="Palatino-Roman,Palatino" font-size="20.0" fill="#000000" transform="matrix(1.00, 0.00, -0.00, -1.00, 572.3, 34.7)">d</text><text xml:space="preserve" font-family="Palatino-Roman,Palatino" font-size="20.0" fill="#000000" transform="matrix(1.00, 0.00, -0.00, -1.00, 584.5, 34.7)">e</text><text xml:space="preserve" font-family="Palatino-Roman,Palatino" font-size="20.0" fill="#000000" transform="matrix(1.00, 0.00, -0.00, -1.00, 594.1, 34.7)">c</text><text xml:space="preserve" font-family="Palatino-Roman,Palatino" font-size="20.0" fill="#000000" transform="matrix(1.00, 0.00, -0.00, -1.00, 603.0, 34.7)">i</text><text xml:space="preserve" font-family="Palatino-Roman,Palatino" font-size="20.0" fill="#000000" transform="matrix(1.00, 0.00, -0.00, -1.00, 608.8, 34.7)">m</text><text xml:space="preserve" font-family="Palatino-Roman,Palatino" font-size="20.0" fill="#000000" transform="matrix(1.00, 0.00, -0.00, -1.00, 626.5, 34.7)">a</text><text xml:space="preserve" font-family="Palatino-Roman,Palatino" font-size="20.0" fill="#000000" transform="matrix(1.00, 0.00, -0.00, -1.00, 636.5, 34.7)">l</text><text xml:space="preserve" font-family="Palatino-Roman,Palatino" font-size="20.0" fill="#000000" transform="matrix(1.00, 0.00, -0.00, -1.00, 642.3, 34.7)">-</text><text xml:space="preserve" font-family="Palatino-Roman,Palatino" font-size="20.0" fill="#000000" transform="matrix(1.00, 0.00, -0.00, -1.00, 21.5, 7.0)">e</text><text xml:space="preserve" font-family="Palatino-Roman,Palatino" font-size="20.0" fill="#000000" transform="matrix(1.00, 0.00, -0.00, -1.00, 31.1, 7.0)">n</text><text xml:space="preserve" font-family="Palatino-Roman,Palatino" font-size="20.0" fill="#000000" transform="matrix(1.00, 0.00, -0.00, -1.00, 42.8, 7.0)">c</text><text xml:space="preserve" font-family="Palatino-Roman,Palatino" font-size="20.0" fill="#000000" transform="matrix(1.00, 0.00, -0.00, -1.00, 51.6, 7.0)">o</text><text xml:space="preserve" font-family="Palatino-Roman,Palatino" font-size="20.0" fill="#000000" transform="matrix(1.00, 0.00, -0.00, -1.00, 62.5, 7.0)">d</text><text xml:space="preserve" font-family="Palatino-Roman,Palatino" font-size="20.0" fill="#000000" transform="matrix(1.00, 0.00, -0.00, -1.00, 74.8, 7.0)">e</text><text xml:space="preserve" font-family="Palatino-Roman,Palatino" font-size="20.0" fill="#000000" transform="matrix(1.00, 0.00, -0.00, -1.00, 84.3, 7.0)">d</text><text xml:space="preserve" font-family="Palatino-Roman,Palatino" font-size="20.0" fill="#000000" transform="matrix(1.00, 0.00, -0.00, -1.00, 96.5, 7.0)"> </text><text xml:space="preserve" font-family="Palatino-Roman,Palatino" font-size="20.0" fill="#000000" transform="matrix(1.00, 0.00, -0.00, -1.00, 101.5, 7.0)">i</text><text xml:space="preserve" font-family="Palatino-Roman,Palatino" font-size="20.0" fill="#000000" transform="matrix(1.00, 0.00, -0.00, -1.00, 107.4, 7.0)">n</text><text xml:space="preserve" font-family="Palatino-Roman,Palatino" font-size="20.0" fill="#000000" transform="matrix(1.00, 0.00, -0.00, -1.00, 119.0, 7.0)">p</text><text xml:space="preserve" font-family="Palatino-Roman,Palatino" font-size="20.0" fill="#000000" transform="matrix(1.00, 0.00, -0.00, -1.00, 131.0, 7.0)">u</text><text xml:space="preserve" font-family="Palatino-Roman,Palatino" font-size="20.0" fill="#000000" transform="matrix(1.00, 0.00, -0.00, -1.00, 143.1, 7.0)">t</text><text xml:space="preserve" font-family="Palatino-Roman,Palatino" font-size="20.0" fill="#000000" transform="matrix(1.00, 0.00, -0.00, -1.00, 149.6, 7.0)">,</text><text xml:space="preserve" font-family="Palatino-Roman,Palatino" font-size="20.0" fill="#000000" transform="matrix(1.00, 0.00, -0.00, -1.00, 154.6, 7.0)"> </text><text xml:space="preserve" font-family="Palatino-Roman,Palatino" font-size="20.0" fill="#000000" transform="matrix(1.00, 0.00, -0.00, -1.00, 159.6, 7.0)">a</text><text xml:space="preserve" font-family="Palatino-Roman,Palatino" font-size="20.0" fill="#000000" transform="matrix(1.00, 0.00, -0.00, -1.00, 169.6, 7.0)">n</text><text xml:space="preserve" font-family="Palatino-Roman,Palatino" font-size="20.0" fill="#000000" transform="matrix(1.00, 0.00, -0.00, -1.00, 181.3, 7.0)">d</text><text xml:space="preserve" font-family="Palatino-Roman,Palatino" font-size="20.0" fill="#000000" transform="matrix(1.00, 0.00, -0.00, -1.00, 193.5, 7.0)"> </text><text xml:space="preserve" font-family="Palatino-Roman,Palatino" font-size="20.0" fill="#000000" transform="matrix(1.00, 0.00, -0.00, -1.00, 198.5, 7.0)">p</text><text xml:space="preserve" font-family="Palatino-Roman,Palatino" font-size="20.0" fill="#000000" transform="matrix(1.00, 0.00, -0.00, -1.00, 210.5, 7.0)">r</text><text xml:space="preserve" font-family="Palatino-Roman,Palatino" font-size="20.0" fill="#000000" transform="matrix(1.00, 0.00, -0.00, -1.00, 218.0, 7.0)">o</text><text xml:space="preserve" font-family="Palatino-Roman,Palatino" font-size="20.0" fill="#000000" transform="matrix(1.00, 0.00, -0.00, -1.00, 229.0, 7.0)">d</text><text xml:space="preserve" font-family="Palatino-Roman,Palatino" font-size="20.0" fill="#000000" transform="matrix(1.00, 0.00, -0.00, -1.00, 241.2, 7.0)">u</text><text xml:space="preserve" font-family="Palatino-Roman,Palatino" font-size="20.0" fill="#000000" transform="matrix(1.00, 0.00, -0.00, -1.00, 253.2, 7.0)">c</text><text xml:space="preserve" font-family="Palatino-Roman,Palatino" font-size="20.0" fill="#000000" transform="matrix(1.00, 0.00, -0.00, -1.00, 262.1, 7.0)">e</text><text xml:space="preserve" font-family="Palatino-Roman,Palatino" font-size="20.0" fill="#000000" transform="matrix(1.00, 0.00, -0.00, -1.00, 271.7, 7.0)">s</text><text xml:space="preserve" font-family="Palatino-Roman,Palatino" font-size="20.0" fill="#000000" transform="matrix(1.00, 0.00, -0.00, -1.00, 280.2, 7.0)"> </text><text xml:space="preserve" font-family="Palatino-Roman,Palatino" font-size="20.0" fill="#000000" transform="matrix(1.00, 0.00, -0.00, -1.00, 285.2, 7.0)">a</text><text xml:space="preserve" font-family="Palatino-Roman,Palatino" font-size="20.0" fill="#000000" transform="matrix(1.00, 0.00, -0.00, -1.00, 295.2, 7.0)"> </text><text xml:space="preserve" font-family="Palatino-Roman,Palatino" font-size="20.0" fill="#000000" transform="matrix(1.00, 0.00, -0.00, -1.00, 300.2, 7.0)">s</text><text xml:space="preserve" font-family="Palatino-Roman,Palatino" font-size="20.0" fill="#000000" transform="matrix(1.00, 0.00, -0.00, -1.00, 308.6, 7.0)">t</text><text xml:space="preserve" font-family="Palatino-Roman,Palatino" font-size="20.0" fill="#000000" transform="matrix(1.00, 0.00, -0.00, -1.00, 315.2, 7.0)">r</text><text xml:space="preserve" font-family="Palatino-Roman,Palatino" font-size="20.0" fill="#000000" transform="matrix(1.00, 0.00, -0.00, -1.00, 322.9, 7.0)">u</text><text xml:space="preserve" font-family="Palatino-Roman,Palatino" font-size="20.0" fill="#000000" transform="matrix(1.00, 0.00, -0.00, -1.00, 335.0, 7.0)">c</text><text xml:space="preserve" font-family="Palatino-Roman,Palatino" font-size="20.0" fill="#000000" transform="matrix(1.00, 0.00, -0.00, -1.00, 343.8, 7.0)">t</text><text xml:space="preserve" font-family="Palatino-Roman,Palatino" font-size="20.0" fill="#000000" transform="matrix(1.00, 0.00, -0.00, -1.00, 350.4, 7.0)"> </text><text xml:space="preserve" font-family="Palatino-Roman,Palatino" font-size="20.0" fill="#000000" transform="matrix(1.00, 0.00, -0.00, -1.00, 355.4, 7.0)">l</text><text xml:space="preserve" font-family="Palatino-Roman,Palatino" font-size="20.0" fill="#000000" transform="matrix(1.00, 0.00, -0.00, -1.00, 361.2, 7.0)">i</text><text xml:space="preserve" font-family="Palatino-Roman,Palatino" font-size="20.0" fill="#000000" transform="matrix(1.00, 0.00, -0.00, -1.00, 367.0, 7.0)">t</text><text xml:space="preserve" font-family="Palatino-Roman,Palatino" font-size="20.0" fill="#000000" transform="matrix(1.00, 0.00, -0.00, -1.00, 373.5, 7.0)">e</text><text xml:space="preserve" font-family="Palatino-Roman,Palatino" font-size="20.0" fill="#000000" transform="matrix(1.00, 0.00, -0.00, -1.00, 383.1, 7.0)">r</text><text xml:space="preserve" font-family="Palatino-Roman,Palatino" font-size="20.0" fill="#000000" transform="matrix(1.00, 0.00, -0.00, -1.00, 391.0, 7.0)">a</text><text xml:space="preserve" font-family="Palatino-Roman,Palatino" font-size="20.0" fill="#000000" transform="matrix(1.00, 0.00, -0.00, -1.00, 401.0, 7.0)">l</text><text xml:space="preserve" font-family="Palatino-Roman,Palatino" font-size="20.0" fill="#000000" transform="matrix(1.00, 0.00, -0.00, -1.00, 406.8, 7.0)"> </text><text xml:space="preserve" font-family="Palatino-Roman,Palatino" font-size="20.0" fill="#000000" transform="matrix(1.00, 0.00, -0.00, -1.00, 411.8, 7.0)">t</text><text xml:space="preserve" font-family="Palatino-Roman,Palatino" font-size="20.0" fill="#000000" transform="matrix(1.00, 0.00, -0.00, -1.00, 418.4, 7.0)">h</text><text xml:space="preserve" font-family="Palatino-Roman,Palatino" font-size="20.0" fill="#000000" transform="matrix(1.00, 0.00, -0.00, -1.00, 430.0, 7.0)">a</text><text xml:space="preserve" font-family="Palatino-Roman,Palatino" font-size="20.0" fill="#000000" transform="matrix(1.00, 0.00, -0.00, -1.00, 440.0, 7.0)">t</text><text xml:space="preserve" font-family="Palatino-Roman,Palatino" font-size="20.0" fill="#000000" transform="matrix(1.00, 0.00, -0.00, -1.00, 446.5, 7.0)"> </text><text xml:space="preserve" font-family="Palatino-Roman,Palatino" font-size="20.0" fill="#000000" transform="matrix(1.00, 0.00, -0.00, -1.00, 451.5, 7.0)">c</text><text xml:space="preserve" font-family="Palatino-Roman,Palatino" font-size="20.0" fill="#000000" transform="matrix(1.00, 0.00, -0.00, -1.00, 460.4, 7.0)">a</text><text xml:space="preserve" font-family="Palatino-Roman,Palatino" font-size="20.0" fill="#000000" transform="matrix(1.00, 0.00, -0.00, -1.00, 470.4, 7.0)">n</text><text xml:space="preserve" font-family="Palatino-Roman,Palatino" font-size="20.0" fill="#000000" transform="matrix(1.00, 0.00, -0.00, -1.00, 482.0, 7.0)"> </text><text xml:space="preserve" font-family="Palatino-Roman,Palatino" font-size="20.0" fill="#000000" transform="matrix(1.00, 0.00, -0.00, -1.00, 487.0, 7.0)">b</text><text xml:space="preserve" font-family="Palatino-Roman,Palatino" font-size="20.0" fill="#000000" transform="matrix(1.00, 0.00, -0.00, -1.00, 498.1, 7.0)">e</text><text xml:space="preserve" font-family="Palatino-Roman,Palatino" font-size="20.0" fill="#000000" transform="matrix(1.00, 0.00, -0.00, -1.00, 507.7, 7.0)"> </text><text xml:space="preserve" font-family="Palatino-Roman,Palatino" font-size="20.0" fill="#000000" transform="matrix(1.00, 0.00, -0.00, -1.00, 512.7, 7.0)">p</text><text xml:space="preserve" font-family="Palatino-Roman,Palatino" font-size="20.0" fill="#000000" transform="matrix(1.00, 0.00, -0.00, -1.00, 524.7, 7.0)">r</text><text xml:space="preserve" font-family="Palatino-Roman,Palatino" font-size="20.0" fill="#000000" transform="matrix(1.00, 0.00, -0.00, -1.00, 532.6, 7.0)">i</text><text xml:space="preserve" font-family="Palatino-Roman,Palatino" font-size="20.0" fill="#000000" transform="matrix(1.00, 0.00, -0.00, -1.00, 538.4, 7.0)">n</text><text xml:space="preserve" font-family="Palatino-Roman,Palatino" font-size="20.0" fill="#000000" transform="matrix(1.00, 0.00, -0.00, -1.00, 550.1, 7.0)">t</text><text xml:space="preserve" font-family="Palatino-Roman,Palatino" font-size="20.0" fill="#000000" transform="matrix(1.00, 0.00, -0.00, -1.00, 556.6, 7.0)">e</text><text xml:space="preserve" font-family="Palatino-Roman,Palatino" font-size="20.0" fill="#000000" transform="matrix(1.00, 0.00, -0.00, -1.00, 566.2, 7.0)">d</text><text xml:space="preserve" font-family="Palatino-Roman,Palatino" font-size="20.0" fill="#000000" transform="matrix(1.00, 0.00, -0.00, -1.00, 578.4, 7.0)"> </text><text xml:space="preserve" font-family="Palatino-Roman,Palatino" font-size="20.0" fill="#000000" transform="matrix(1.00, 0.00, -0.00, -1.00, 583.4, 7.0)">a</text><text xml:space="preserve" font-family="Palatino-Roman,Palatino" font-size="20.0" fill="#000000" transform="matrix(1.00, 0.00, -0.00, -1.00, 593.4, 7.0)">t</text><text xml:space="preserve" font-family="Palatino-Roman,Palatino" font-size="20.0" fill="#000000" transform="matrix(1.00, 0.00, -0.00, -1.00, 599.9, 7.0)"> </text><text xml:space="preserve" font-family="Palatino-Roman,Palatino" font-size="20.0" fill="#000000" transform="matrix(1.00, 0.00, -0.00, -1.00, 604.9, 7.0)">r</text><text xml:space="preserve" font-family="Palatino-Roman,Palatino" font-size="20.0" fill="#000000" transform="matrix(1.00, 0.00, -0.00, -1.00, 612.7, 7.0)">u</text><text xml:space="preserve" font-family="Palatino-Roman,Palatino" font-size="20.0" fill="#000000" transform="matrix(1.00, 0.00, -0.00, -1.00, 624.7, 7.0)">n</text><text xml:space="preserve" font-family="Palatino-Roman,Palatino" font-size="20.0" fill="#000000" transform="matrix(1.00, 0.00, -0.00, -1.00, 636.4, 7.0)">t</text><text xml:space="preserve" font-family="Palatino-Roman,Palatino" font-size="20.0" fill="#000000" transform="matrix(1.00, 0.00, -0.00, -1.00, 642.9, 7.0)">i</text><text xml:space="preserve" font-family="Palatino-Roman,Palatino" font-size="20.0" fill="#000000" transform="matrix(1.00, 0.00, -0.00, -1.00, 648.7, 7.0)">m</text><text xml:space="preserve" font-family="Palatino-Roman,Palatino" font-size="20.0" fill="#000000" transform="matrix(1.00, 0.00, -0.00, -1.00, 666.4, 7.0)">e</text></g></svg>