<?xml version="1.0" encoding="UTF-8" standalone="no"?><svg xmlns="http://www.w3.org/2000/svg" xmlns:xlink="http://www.w3.org/1999/xlink" clip-rule="evenodd" stroke-miterlimit="10" viewBox="0 0 347 24"><desc>SVG generated by Keynote</desc><defs></defs><g transform="matrix(1.00, 0.00, -0.00, -1.00, 0.0, 24.0)"><text xml:space="preserve" font-family="ZapfDingbatsITC,Zapf Dingbats" font-size="14.0" fill="#5B86B8" transform="matrix(1.00, 0.00, -0.00, -1.00, 0.5, 8.1)">✤</text><text xml:space="preserve" font-family="Palatino-Roman,Palatino" font-size="20.0" fill="#000000" transform="matrix(1.00, 0.00, -0.00, -1.00, 21.5, 6.7)">O</text><text xml:space="preserve" font-family="Palatino-Roman,Palatino" font-size="20.0" fill="#000000" transform="matrix(1.00, 0.00, -0.00, -1.00, 37.3, 6.7)">u</text><text xml:space="preserve" font-family="Palatino-Roman,Palatino" font-size="20.0" fill="#000000" transform="matrix(1.00, 0.00, -0.00, -1.00, 49.3, 6.7)">t</text><text xml:space="preserve" font-family="Palatino-Roman,Palatino" font-size="20.0" fill="#000000" transform="matrix(1.00, 0.00, -0.00, -1.00, 55.8, 6.7)">p</text><text xml:space="preserve" font-family="Palatino-Roman,Palatino" font-size="20.0" fill="#000000" transform="matrix(1.00, 0.00, -0.00, -1.00, 67.9, 6.7)">u</text><text xml:space="preserve" font-family="Palatino-Roman,Palatino" font-size="20.0" fill="#000000" transform="matrix(1.00, 0.00, -0.00, -1.00, 79.9, 6.7)">t</text><text xml:space="preserve" font-family="Palatino-Roman,Palatino" font-size="20.0" fill="#000000" transform="matrix(1.00, 0.00, -0.00, -1.00, 86.5, 6.7)">s</text><text xml:space="preserve" font-family="Palatino-Roman,Palatino" font-size="20.0" fill="#000000" transform="matrix(1.00, 0.00, -0.00, -1.00, 94.9, 6.7)"> </text><text xml:space="preserve" font-family="Palatino-Italic,Palatino" font-style="italic" font-size="20.0" fill="#000000" transform="matrix(1.00, 0.00, -0.00, -1.00, 99.9, 6.7)">m</text><text xml:space="preserve" font-family="Palatino-Italic,Palatino" font-style="italic" font-size="20.0" fill="#000000" transform="matrix(1.00, 0.00, -0.00, -1.00, 115.5, 6.7)">u</text><text xml:space="preserve" font-family="Palatino-Italic,Palatino" font-style="italic" font-size="20.0" fill="#000000" transform="matrix(1.00, 0.00, -0.00, -1.00, 126.6, 6.7)">s</text><text xml:space="preserve" font-family="Palatino-Italic,Palatino" font-style="italic" font-size="20.0" fill="#000000" transform="matrix(1.00, 0.00, -0.00, -1.00, 134.4, 6.7)">t</text><text xml:space="preserve" font-family="Palatino-Roman,Palatino" font-size="20.0" fill="#000000" transform="matrix(1.00, 0.00, -0.00, -1.00, 141.0, 6.7)"> </text><text xml:space="preserve" font-family="Palatino-Roman,Palatino" font-size="20.0" fill="#000000" transform="matrix(1.00, 0.00, -0.00, -1.00, 146.0, 6.7)">b</text><text xml:space="preserve" font-family="Palatino-Roman,Palatino" font-size="20.0" fill="#000000" transform="matrix(1.00, 0.00, -0.00, -1.00, 157.1, 6.7)">e</text><text xml:space="preserve" font-family="Palatino-Roman,Palatino" font-size="20.0" fill="#000000" transform="matrix(1.00, 0.00, -0.00, -1.00, 166.7, 6.7)"> </text><text xml:space="preserve" font-family="Palatino-Roman,Palatino" font-size="20.0" fill="#000000" transform="matrix(1.00, 0.00, -0.00, -1.00, 171.7, 6.7)">a</text><text xml:space="preserve" font-family="Palatino-Roman,Palatino" font-size="20.0" fill="#000000" transform="matrix(1.00, 0.00, -0.00, -1.00, 181.7, 6.7)"> </text><text xml:space="preserve" font-family="Palatino-Bold,Palatino" font-weight="bold" font-size="20.0" fill="#000000" transform="matrix(1.00, 0.00, -0.00, -1.00, 186.7, 6.7)">c</text><text xml:space="preserve" font-family="Palatino-Bold,Palatino" font-weight="bold" font-size="20.0" fill="#000000" transform="matrix(1.00, 0.00, -0.00, -1.00, 195.6, 6.7)">o</text><text xml:space="preserve" font-family="Palatino-Bold,Palatino" font-weight="bold" font-size="20.0" fill="#000000" transform="matrix(1.00, 0.00, -0.00, -1.00, 206.7, 6.7)">m</text><text xml:space="preserve" font-family="Palatino-Bold,Palatino" font-weight="bold" font-size="20.0" fill="#000000" transform="matrix(1.00, 0.00, -0.00, -1.00, 224.5, 6.7)">p</text><text xml:space="preserve" font-family="Palatino-Bold,Palatino" font-weight="bold" font-size="20.0" fill="#000000" transform="matrix(1.00, 0.00, -0.00, -1.00, 236.7, 6.7)">l</text><text xml:space="preserve" font-family="Palatino-Bold,Palatino" font-weight="bold" font-size="20.0" fill="#000000" transform="matrix(1.00, 0.00, -0.00, -1.00, 243.3, 6.7)">e</text><text xml:space="preserve" font-family="Palatino-Bold,Palatino" font-weight="bold" font-size="20.0" fill="#000000" transform="matrix(1.00, 0.00, -0.00, -1.00, 253.3, 6.7)">t</text><text xml:space="preserve" font-family="Palatino-Bold,Palatino" font-weight="bold" font-size="20.0" fill="#000000" transform="matrix(1.00, 0.00, -0.00, -1.00, 260.0, 6.7)">e</text><text xml:space="preserve" font-family="Palatino-Roman,Palatino" font-size="20.0" fill="#000000" transform="matrix(1.00, 0.00, -0.00, -1.00, 270.0, 6.7)"> </text><text xml:space="preserve" font-family="Palatino-Roman,Palatino" font-size="20.0" fill="#000000" transform="matrix(1.00, 0.00, -0.00, -1.00, 275.0, 6.7)">e</text><text xml:space="preserve" font-family="Palatino-Roman,Palatino" font-size="20.0" fill="#000000" transform="matrix(1.00, 0.00, -0.00, -1.00, 284.6, 6.7)">l</text><text xml:space="preserve" font-family="Palatino-Roman,Palatino" font-size="20.0" fill="#000000" transform="matrix(1.00, 0.00, -0.00, -1.00, 290.4, 6.7)">e</text><text xml:space="preserve" font-family="Palatino-Roman,Palatino" font-size="20.0" fill="#000000" transform="matrix(1.00, 0.00, -0.00, -1.00, 300.0, 6.7)">m</text><text xml:space="preserve" font-family="Palatino-Roman,Palatino" font-size="20.0" fill="#000000" transform="matrix(1.00, 0.00, -0.00, -1.00, 317.6, 6.7)">e</text><text xml:space="preserve" font-family="Palatino-Roman,Palatino" font-size="20.0" fill="#000000" transform="matrix(1.00, 0.00, -0.00, -1.00, 327.2, 6.7)">n</text><text xml:space="preserve" font-family="Palatino-Roman,Palatino" font-size="20.0" fill="#000000" transform="matrix(1.00, 0.00, -0.00, -1.00, 338.9, 6.7)">t</text></g></svg>