<?xml version="1.0" encoding="UTF-8" standalone="no"?><svg xmlns="http://www.w3.org/2000/svg" xmlns:xlink="http://www.w3.org/1999/xlink" clip-rule="evenodd" stroke-miterlimit="10" viewBox="0 0 781 51"><desc>SVG generated by Keynote</desc><defs></defs><g transform="matrix(1.00, 0.00, -0.00, -1.00, 0.0, 51.0)"><text xml:space="preserve" font-family="ZapfDingbatsITC,Zapf Dingbats" font-size="14.0" fill="#5B86B8" transform="matrix(1.00, 0.00, -0.00, -1.00, 0.5, 34.1)">✤</text><text xml:space="preserve" font-family="Palatino-Roman,Palatino" font-size="20.0" fill="#000000" transform="matrix(1.00, 0.00, -0.00, -1.00, 21.5, 32.7)">A</text><text xml:space="preserve" font-family="Palatino-Roman,Palatino" font-size="20.0" fill="#000000" transform="matrix(1.00, 0.00, -0.00, -1.00, 36.0, 32.7)"> </text><text xml:space="preserve" font-family="Palatino-Bold,Palatino" font-weight="bold" font-size="20.0" fill="#000000" transform="matrix(1.00, 0.00, -0.00, -1.00, 41.0, 32.7)">m</text><text xml:space="preserve" font-family="Palatino-Bold,Palatino" font-weight="bold" font-size="20.0" fill="#000000" transform="matrix(1.00, 0.00, -0.00, -1.00, 58.8, 32.7)">a</text><text xml:space="preserve" font-family="Palatino-Bold,Palatino" font-weight="bold" font-size="20.0" fill="#000000" transform="matrix(1.00, 0.00, -0.00, -1.00, 68.8, 32.7)">c</text><text xml:space="preserve" font-family="Palatino-Bold,Palatino" font-weight="bold" font-size="20.0" fill="#000000" transform="matrix(1.00, 0.00, -0.00, -1.00, 77.7, 32.7)">r</text><text xml:space="preserve" font-family="Palatino-Bold,Palatino" font-weight="bold" font-size="20.0" fill="#000000" transform="matrix(1.00, 0.00, -0.00, -1.00, 85.4, 32.7)">o</text><text xml:space="preserve" font-family="Palatino-Roman,Palatino" font-size="20.0" fill="#000000" transform="matrix(1.00, 0.00, -0.00, -1.00, 96.6, 32.7)"> </text><text xml:space="preserve" font-family="Palatino-Roman,Palatino" font-size="20.0" fill="#000000" transform="matrix(1.00, 0.00, -0.00, -1.00, 101.6, 32.7)">i</text><text xml:space="preserve" font-family="Palatino-Roman,Palatino" font-size="20.0" fill="#000000" transform="matrix(1.00, 0.00, -0.00, -1.00, 107.4, 32.7)">s</text><text xml:space="preserve" font-family="Palatino-Roman,Palatino" font-size="20.0" fill="#000000" transform="matrix(1.00, 0.00, -0.00, -1.00, 115.9, 32.7)"> </text><text xml:space="preserve" font-family="Palatino-Roman,Palatino" font-size="20.0" fill="#000000" transform="matrix(1.00, 0.00, -0.00, -1.00, 120.9, 32.7)">a</text><text xml:space="preserve" font-family="Palatino-Roman,Palatino" font-size="20.0" fill="#000000" transform="matrix(1.00, 0.00, -0.00, -1.00, 130.9, 32.7)"> </text><text xml:space="preserve" font-family="Palatino-Bold,Palatino" font-weight="bold" font-size="20.0" fill="#000000" transform="matrix(1.00, 0.00, -0.00, -1.00, 135.9, 32.7)">f</text><text xml:space="preserve" font-family="Palatino-Bold,Palatino" font-weight="bold" font-size="20.0" fill="#000000" transform="matrix(1.00, 0.00, -0.00, -1.00, 143.6, 32.7)">u</text><text xml:space="preserve" font-family="Palatino-Bold,Palatino" font-weight="bold" font-size="20.0" fill="#000000" transform="matrix(1.00, 0.00, -0.00, -1.00, 155.9, 32.7)">n</text><text xml:space="preserve" font-family="Palatino-Bold,Palatino" font-weight="bold" font-size="20.0" fill="#000000" transform="matrix(1.00, 0.00, -0.00, -1.00, 168.1, 32.7)">c</text><text xml:space="preserve" font-family="Palatino-Bold,Palatino" font-weight="bold" font-size="20.0" fill="#000000" transform="matrix(1.00, 0.00, -0.00, -1.00, 176.9, 32.7)">t</text><text xml:space="preserve" font-family="Palatino-Bold,Palatino" font-weight="bold" font-size="20.0" fill="#000000" transform="matrix(1.00, 0.00, -0.00, -1.00, 183.6, 32.7)">i</text><text xml:space="preserve" font-family="Palatino-Bold,Palatino" font-weight="bold" font-size="20.0" fill="#000000" transform="matrix(1.00, 0.00, -0.00, -1.00, 190.3, 32.7)">o</text><text xml:space="preserve" font-family="Palatino-Bold,Palatino" font-weight="bold" font-size="20.0" fill="#000000" transform="matrix(1.00, 0.00, -0.00, -1.00, 201.4, 32.7)">n</text><text xml:space="preserve" font-family="Palatino-Roman,Palatino" font-size="20.0" fill="#000000" transform="matrix(1.00, 0.00, -0.00, -1.00, 213.6, 32.7)"> </text><text xml:space="preserve" font-family="Palatino-Roman,Palatino" font-size="20.0" fill="#000000" transform="matrix(1.00, 0.00, -0.00, -1.00, 218.6, 32.7)">t</text><text xml:space="preserve" font-family="Palatino-Roman,Palatino" font-size="20.0" fill="#000000" transform="matrix(1.00, 0.00, -0.00, -1.00, 225.1, 32.7)">h</text><text xml:space="preserve" font-family="Palatino-Roman,Palatino" font-size="20.0" fill="#000000" transform="matrix(1.00, 0.00, -0.00, -1.00, 236.8, 32.7)">a</text><text xml:space="preserve" font-family="Palatino-Roman,Palatino" font-size="20.0" fill="#000000" transform="matrix(1.00, 0.00, -0.00, -1.00, 246.8, 32.7)">t</text><text xml:space="preserve" font-family="Palatino-Roman,Palatino" font-size="20.0" fill="#000000" transform="matrix(1.00, 0.00, -0.00, -1.00, 253.3, 32.7)"> </text><text xml:space="preserve" font-family="Palatino-Roman,Palatino" font-size="20.0" fill="#000000" transform="matrix(1.00, 0.00, -0.00, -1.00, 258.3, 32.7)">r</text><text xml:space="preserve" font-family="Palatino-Roman,Palatino" font-size="20.0" fill="#000000" transform="matrix(1.00, 0.00, -0.00, -1.00, 266.1, 32.7)">u</text><text xml:space="preserve" font-family="Palatino-Roman,Palatino" font-size="20.0" fill="#000000" transform="matrix(1.00, 0.00, -0.00, -1.00, 278.1, 32.7)">n</text><text xml:space="preserve" font-family="Palatino-Roman,Palatino" font-size="20.0" fill="#000000" transform="matrix(1.00, 0.00, -0.00, -1.00, 289.8, 32.7)">s</text><text xml:space="preserve" font-family="Palatino-Roman,Palatino" font-size="20.0" fill="#000000" transform="matrix(1.00, 0.00, -0.00, -1.00, 298.2, 32.7)"> </text><text xml:space="preserve" font-family="Palatino-Roman,Palatino" font-size="20.0" fill="#000000" transform="matrix(1.00, 0.00, -0.00, -1.00, 303.2, 32.7)">a</text><text xml:space="preserve" font-family="Palatino-Roman,Palatino" font-size="20.0" fill="#000000" transform="matrix(1.00, 0.00, -0.00, -1.00, 313.2, 32.7)">t</text><text xml:space="preserve" font-family="Palatino-Roman,Palatino" font-size="20.0" fill="#000000" transform="matrix(1.00, 0.00, -0.00, -1.00, 319.8, 32.7)"> </text><text xml:space="preserve" font-family="Palatino-Bold,Palatino" font-weight="bold" font-size="20.0" fill="#000000" transform="matrix(1.00, 0.00, -0.00, -1.00, 324.7, 32.7)">c</text><text xml:space="preserve" font-family="Palatino-Bold,Palatino" font-weight="bold" font-size="20.0" fill="#000000" transform="matrix(1.00, 0.00, -0.00, -1.00, 333.6, 32.7)">o</text><text xml:space="preserve" font-family="Palatino-Bold,Palatino" font-weight="bold" font-size="20.0" fill="#000000" transform="matrix(1.00, 0.00, -0.00, -1.00, 344.7, 32.7)">m</text><text xml:space="preserve" font-family="Palatino-Bold,Palatino" font-weight="bold" font-size="20.0" fill="#000000" transform="matrix(1.00, 0.00, -0.00, -1.00, 362.5, 32.7)">p</text><text xml:space="preserve" font-family="Palatino-Bold,Palatino" font-weight="bold" font-size="20.0" fill="#000000" transform="matrix(1.00, 0.00, -0.00, -1.00, 374.7, 32.7)">i</text><text xml:space="preserve" font-family="Palatino-Bold,Palatino" font-weight="bold" font-size="20.0" fill="#000000" transform="matrix(1.00, 0.00, -0.00, -1.00, 381.4, 32.7)">l</text><text xml:space="preserve" font-family="Palatino-Bold,Palatino" font-weight="bold" font-size="20.0" fill="#000000" transform="matrix(1.00, 0.00, -0.00, -1.00, 388.1, 32.7)">e</text><text xml:space="preserve" font-family="Palatino-Bold,Palatino" font-weight="bold" font-size="20.0" fill="#000000" transform="matrix(1.00, 0.00, -0.00, -1.00, 398.1, 32.7)"> </text><text xml:space="preserve" font-family="Palatino-Bold,Palatino" font-weight="bold" font-size="20.0" fill="#000000" transform="matrix(1.00, 0.00, -0.00, -1.00, 403.1, 32.7)">t</text><text xml:space="preserve" font-family="Palatino-Bold,Palatino" font-weight="bold" font-size="20.0" fill="#000000" transform="matrix(1.00, 0.00, -0.00, -1.00, 409.7, 32.7)">i</text><text xml:space="preserve" font-family="Palatino-Bold,Palatino" font-weight="bold" font-size="20.0" fill="#000000" transform="matrix(1.00, 0.00, -0.00, -1.00, 416.4, 32.7)">m</text><text xml:space="preserve" font-family="Palatino-Bold,Palatino" font-weight="bold" font-size="20.0" fill="#000000" transform="matrix(1.00, 0.00, -0.00, -1.00, 434.2, 32.7)">e</text><text xml:space="preserve" font-family="Palatino-Roman,Palatino" font-size="20.0" fill="#000000" transform="matrix(1.00, 0.00, -0.00, -1.00, 444.2, 32.7)">,</text><text xml:space="preserve" font-family="Palatino-Roman,Palatino" font-size="20.0" fill="#000000" transform="matrix(1.00, 0.00, -0.00, -1.00, 449.2, 32.7)"> </text><text xml:space="preserve" font-family="Palatino-Roman,Palatino" font-size="20.0" fill="#000000" transform="matrix(1.00, 0.00, -0.00, -1.00, 454.2, 32.7)">t</text><text xml:space="preserve" font-family="Palatino-Roman,Palatino" font-size="20.0" fill="#000000" transform="matrix(1.00, 0.00, -0.00, -1.00, 460.7, 32.7)">a</text><text xml:space="preserve" font-family="Palatino-Roman,Palatino" font-size="20.0" fill="#000000" transform="matrix(1.00, 0.00, -0.00, -1.00, 470.7, 32.7)">k</text><text xml:space="preserve" font-family="Palatino-Roman,Palatino" font-size="20.0" fill="#000000" transform="matrix(1.00, 0.00, -0.00, -1.00, 481.8, 32.7)">e</text><text xml:space="preserve" font-family="Palatino-Roman,Palatino" font-size="20.0" fill="#000000" transform="matrix(1.00, 0.00, -0.00, -1.00, 491.4, 32.7)">s</text><text xml:space="preserve" font-family="Palatino-Roman,Palatino" font-size="20.0" fill="#000000" transform="matrix(1.00, 0.00, -0.00, -1.00, 499.9, 32.7)"> </text><text xml:space="preserve" font-family="Palatino-Roman,Palatino" font-size="20.0" fill="#000000" transform="matrix(1.00, 0.00, -0.00, -1.00, 504.9, 32.7)">a</text><text xml:space="preserve" font-family="Palatino-Roman,Palatino" font-size="20.0" fill="#000000" transform="matrix(1.00, 0.00, -0.00, -1.00, 514.9, 32.7)">n</text><text xml:space="preserve" font-family="Palatino-Roman,Palatino" font-size="20.0" fill="#000000" transform="matrix(1.00, 0.00, -0.00, -1.00, 526.5, 32.7)">d</text><text xml:space="preserve" font-family="Palatino-Roman,Palatino" font-size="20.0" fill="#000000" transform="matrix(1.00, 0.00, -0.00, -1.00, 538.7, 32.7)"> </text><text xml:space="preserve" font-family="Palatino-Roman,Palatino" font-size="20.0" fill="#000000" transform="matrix(1.00, 0.00, -0.00, -1.00, 543.7, 32.7)">r</text><text xml:space="preserve" font-family="Palatino-Roman,Palatino" font-size="20.0" fill="#000000" transform="matrix(1.00, 0.00, -0.00, -1.00, 551.3, 32.7)">e</text><text xml:space="preserve" font-family="Palatino-Roman,Palatino" font-size="20.0" fill="#000000" transform="matrix(1.00, 0.00, -0.00, -1.00, 560.9, 32.7)">t</text><text xml:space="preserve" font-family="Palatino-Roman,Palatino" font-size="20.0" fill="#000000" transform="matrix(1.00, 0.00, -0.00, -1.00, 567.4, 32.7)">u</text><text xml:space="preserve" font-family="Palatino-Roman,Palatino" font-size="20.0" fill="#000000" transform="matrix(1.00, 0.00, -0.00, -1.00, 579.4, 32.7)">r</text><text xml:space="preserve" font-family="Palatino-Roman,Palatino" font-size="20.0" fill="#000000" transform="matrix(1.00, 0.00, -0.00, -1.00, 587.3, 32.7)">n</text><text xml:space="preserve" font-family="Palatino-Roman,Palatino" font-size="20.0" fill="#000000" transform="matrix(1.00, 0.00, -0.00, -1.00, 599.0, 32.7)">s</text><text xml:space="preserve" font-family="Palatino-Roman,Palatino" font-size="20.0" fill="#000000" transform="matrix(1.00, 0.00, -0.00, -1.00, 607.5, 32.7)"> </text><text xml:space="preserve" font-family="Palatino-Roman,Palatino" font-size="20.0" fill="#000000" transform="matrix(1.00, 0.00, -0.00, -1.00, 612.5, 32.7)">s</text><text xml:space="preserve" font-family="Palatino-Roman,Palatino" font-size="20.0" fill="#000000" transform="matrix(1.00, 0.00, -0.00, -1.00, 620.9, 32.7)">y</text><text xml:space="preserve" font-family="Palatino-Roman,Palatino" font-size="20.0" fill="#000000" transform="matrix(1.00, 0.00, -0.00, -1.00, 632.1, 32.7)">n</text><text xml:space="preserve" font-family="Palatino-Roman,Palatino" font-size="20.0" fill="#000000" transform="matrix(1.00, 0.00, -0.00, -1.00, 643.7, 32.7)">t</text><text xml:space="preserve" font-family="Palatino-Roman,Palatino" font-size="20.0" fill="#000000" transform="matrix(1.00, 0.00, -0.00, -1.00, 650.2, 32.7)">a</text><text xml:space="preserve" font-family="Palatino-Roman,Palatino" font-size="20.0" fill="#000000" transform="matrix(1.00, 0.00, -0.00, -1.00, 660.2, 32.7)">c</text><text xml:space="preserve" font-family="Palatino-Roman,Palatino" font-size="20.0" fill="#000000" transform="matrix(1.00, 0.00, -0.00, -1.00, 669.1, 32.7)">t</text><text xml:space="preserve" font-family="Palatino-Roman,Palatino" font-size="20.0" fill="#000000" transform="matrix(1.00, 0.00, -0.00, -1.00, 675.6, 32.7)">i</text><text xml:space="preserve" font-family="Palatino-Roman,Palatino" font-size="20.0" fill="#000000" transform="matrix(1.00, 0.00, -0.00, -1.00, 681.4, 32.7)">c</text><text xml:space="preserve" font-family="Palatino-Roman,Palatino" font-size="20.0" fill="#000000" transform="matrix(1.00, 0.00, -0.00, -1.00, 690.3, 32.7)"> </text><text xml:space="preserve" font-family="Palatino-Roman,Palatino" font-size="20.0" fill="#000000" transform="matrix(1.00, 0.00, -0.00, -1.00, 695.3, 32.7)">e</text><text xml:space="preserve" font-family="Palatino-Roman,Palatino" font-size="20.0" fill="#000000" transform="matrix(1.00, 0.00, -0.00, -1.00, 704.9, 32.7)">l</text><text xml:space="preserve" font-family="Palatino-Roman,Palatino" font-size="20.0" fill="#000000" transform="matrix(1.00, 0.00, -0.00, -1.00, 710.7, 32.7)">e</text><text xml:space="preserve" font-family="Palatino-Roman,Palatino" font-size="20.0" fill="#000000" transform="matrix(1.00, 0.00, -0.00, -1.00, 720.3, 32.7)">m</text><text xml:space="preserve" font-family="Palatino-Roman,Palatino" font-size="20.0" fill="#000000" transform="matrix(1.00, 0.00, -0.00, -1.00, 738.0, 32.7)">e</text><text xml:space="preserve" font-family="Palatino-Roman,Palatino" font-size="20.0" fill="#000000" transform="matrix(1.00, 0.00, -0.00, -1.00, 747.5, 32.7)">n</text><text xml:space="preserve" font-family="Palatino-Roman,Palatino" font-size="20.0" fill="#000000" transform="matrix(1.00, 0.00, -0.00, -1.00, 759.2, 32.7)">t</text><text xml:space="preserve" font-family="Palatino-Roman,Palatino" font-size="20.0" fill="#000000" transform="matrix(1.00, 0.00, -0.00, -1.00, 765.7, 32.7)">s</text><text xml:space="preserve" font-family="Palatino-Roman,Palatino" font-size="20.0" fill="#000000" transform="matrix(1.00, 0.00, -0.00, -1.00, 774.2, 32.7)">,</text><text xml:space="preserve" font-family="Palatino-Roman,Palatino" font-size="20.0" fill="#000000" transform="matrix(1.00, 0.00, -0.00, -1.00, 779.2, 32.7)"> </text><text xml:space="preserve" font-family="Palatino-Roman,Palatino" font-size="20.0" fill="#000000" transform="matrix(1.00, 0.00, -0.00, -1.00, 21.5, 6.7)">w</text><text xml:space="preserve" font-family="Palatino-Roman,Palatino" font-size="20.0" fill="#000000" transform="matrix(1.00, 0.00, -0.00, -1.00, 38.2, 6.7)">r</text><text xml:space="preserve" font-family="Palatino-Roman,Palatino" font-size="20.0" fill="#000000" transform="matrix(1.00, 0.00, -0.00, -1.00, 46.1, 6.7)">i</text><text xml:space="preserve" font-family="Palatino-Roman,Palatino" font-size="20.0" fill="#000000" transform="matrix(1.00, 0.00, -0.00, -1.00, 51.9, 6.7)">t</text><text xml:space="preserve" font-family="Palatino-Roman,Palatino" font-size="20.0" fill="#000000" transform="matrix(1.00, 0.00, -0.00, -1.00, 58.5, 6.7)">t</text><text xml:space="preserve" font-family="Palatino-Roman,Palatino" font-size="20.0" fill="#000000" transform="matrix(1.00, 0.00, -0.00, -1.00, 65.0, 6.7)">e</text><text xml:space="preserve" font-family="Palatino-Roman,Palatino" font-size="20.0" fill="#000000" transform="matrix(1.00, 0.00, -0.00, -1.00, 74.6, 6.7)">n</text><text xml:space="preserve" font-family="Palatino-Roman,Palatino" font-size="20.0" fill="#000000" transform="matrix(1.00, 0.00, -0.00, -1.00, 86.2, 6.7)"> </text><text xml:space="preserve" font-family="Palatino-Roman,Palatino" font-size="20.0" fill="#000000" transform="matrix(1.00, 0.00, -0.00, -1.00, 91.2, 6.7)">i</text><text xml:space="preserve" font-family="Palatino-Roman,Palatino" font-size="20.0" fill="#000000" transform="matrix(1.00, 0.00, -0.00, -1.00, 97.0, 6.7)">n</text><text xml:space="preserve" font-family="Palatino-Roman,Palatino" font-size="20.0" fill="#000000" transform="matrix(1.00, 0.00, -0.00, -1.00, 108.7, 6.7)"> </text><text xml:space="preserve" font-family="Palatino-Roman,Palatino" font-size="20.0" fill="#000000" transform="matrix(1.00, 0.00, -0.00, -1.00, 113.7, 6.7)">a</text><text xml:space="preserve" font-family="Palatino-Roman,Palatino" font-size="20.0" fill="#000000" transform="matrix(1.00, 0.00, -0.00, -1.00, 123.7, 6.7)"> </text><text xml:space="preserve" font-family="Palatino-Roman,Palatino" font-size="20.0" fill="#000000" transform="matrix(1.00, 0.00, -0.00, -1.00, 128.7, 6.7)">s</text><text xml:space="preserve" font-family="Palatino-Roman,Palatino" font-size="20.0" fill="#000000" transform="matrix(1.00, 0.00, -0.00, -1.00, 137.1, 6.7)">h</text><text xml:space="preserve" font-family="Palatino-Roman,Palatino" font-size="20.0" fill="#000000" transform="matrix(1.00, 0.00, -0.00, -1.00, 148.8, 6.7)">o</text><text xml:space="preserve" font-family="Palatino-Roman,Palatino" font-size="20.0" fill="#000000" transform="matrix(1.00, 0.00, -0.00, -1.00, 159.7, 6.7)">r</text><text xml:space="preserve" font-family="Palatino-Roman,Palatino" font-size="20.0" fill="#000000" transform="matrix(1.00, 0.00, -0.00, -1.00, 167.6, 6.7)">t</text><text xml:space="preserve" font-family="Palatino-Roman,Palatino" font-size="20.0" fill="#000000" transform="matrix(1.00, 0.00, -0.00, -1.00, 174.1, 6.7)">h</text><text xml:space="preserve" font-family="Palatino-Roman,Palatino" font-size="20.0" fill="#000000" transform="matrix(1.00, 0.00, -0.00, -1.00, 185.8, 6.7)">a</text><text xml:space="preserve" font-family="Palatino-Roman,Palatino" font-size="20.0" fill="#000000" transform="matrix(1.00, 0.00, -0.00, -1.00, 195.8, 6.7)">n</text><text xml:space="preserve" font-family="Palatino-Roman,Palatino" font-size="20.0" fill="#000000" transform="matrix(1.00, 0.00, -0.00, -1.00, 207.4, 6.7)">d</text><text xml:space="preserve" font-family="Palatino-Roman,Palatino" font-size="20.0" fill="#000000" transform="matrix(1.00, 0.00, -0.00, -1.00, 219.6, 6.7)"> </text><text xml:space="preserve" font-family="Palatino-Roman,Palatino" font-size="20.0" fill="#000000" transform="matrix(1.00, 0.00, -0.00, -1.00, 224.6, 6.7)">t</text><text xml:space="preserve" font-family="Palatino-Roman,Palatino" font-size="20.0" fill="#000000" transform="matrix(1.00, 0.00, -0.00, -1.00, 231.1, 6.7)">h</text><text xml:space="preserve" font-family="Palatino-Roman,Palatino" font-size="20.0" fill="#000000" transform="matrix(1.00, 0.00, -0.00, -1.00, 242.8, 6.7)">a</text><text xml:space="preserve" font-family="Palatino-Roman,Palatino" font-size="20.0" fill="#000000" transform="matrix(1.00, 0.00, -0.00, -1.00, 252.8, 6.7)">t</text><text xml:space="preserve" font-family="Palatino-Roman,Palatino" font-size="20.0" fill="#000000" transform="matrix(1.00, 0.00, -0.00, -1.00, 259.3, 6.7)"> </text><text xml:space="preserve" font-family="Palatino-Roman,Palatino" font-size="20.0" fill="#000000" transform="matrix(1.00, 0.00, -0.00, -1.00, 264.3, 6.7)">i</text><text xml:space="preserve" font-family="Palatino-Roman,Palatino" font-size="20.0" fill="#000000" transform="matrix(1.00, 0.00, -0.00, -1.00, 270.1, 6.7)">n</text><text xml:space="preserve" font-family="Palatino-Roman,Palatino" font-size="20.0" fill="#000000" transform="matrix(1.00, 0.00, -0.00, -1.00, 281.8, 6.7)">t</text><text xml:space="preserve" font-family="Palatino-Roman,Palatino" font-size="20.0" fill="#000000" transform="matrix(1.00, 0.00, -0.00, -1.00, 288.3, 6.7)">e</text><text xml:space="preserve" font-family="Palatino-Roman,Palatino" font-size="20.0" fill="#000000" transform="matrix(1.00, 0.00, -0.00, -1.00, 297.9, 6.7)">r</text><text xml:space="preserve" font-family="Palatino-Roman,Palatino" font-size="20.0" fill="#000000" transform="matrix(1.00, 0.00, -0.00, -1.00, 305.8, 6.7)">m</text><text xml:space="preserve" font-family="Palatino-Roman,Palatino" font-size="20.0" fill="#000000" transform="matrix(1.00, 0.00, -0.00, -1.00, 323.4, 6.7)">i</text><text xml:space="preserve" font-family="Palatino-Roman,Palatino" font-size="20.0" fill="#000000" transform="matrix(1.00, 0.00, -0.00, -1.00, 329.3, 6.7)">n</text><text xml:space="preserve" font-family="Palatino-Roman,Palatino" font-size="20.0" fill="#000000" transform="matrix(1.00, 0.00, -0.00, -1.00, 340.9, 6.7)">g</text><text xml:space="preserve" font-family="Palatino-Roman,Palatino" font-size="20.0" fill="#000000" transform="matrix(1.00, 0.00, -0.00, -1.00, 352.0, 6.7)">l</text><text xml:space="preserve" font-family="Palatino-Roman,Palatino" font-size="20.0" fill="#000000" transform="matrix(1.00, 0.00, -0.00, -1.00, 357.8, 6.7)">e</text><text xml:space="preserve" font-family="Palatino-Roman,Palatino" font-size="20.0" fill="#000000" transform="matrix(1.00, 0.00, -0.00, -1.00, 367.4, 6.7)">s</text><text xml:space="preserve" font-family="Palatino-Roman,Palatino" font-size="20.0" fill="#000000" transform="matrix(1.00, 0.00, -0.00, -1.00, 375.9, 6.7)"> </text><text xml:space="preserve" font-family="Palatino-Roman,Palatino" font-size="20.0" fill="#000000" transform="matrix(1.00, 0.00, -0.00, -1.00, 380.9, 6.7)">w</text><text xml:space="preserve" font-family="Palatino-Roman,Palatino" font-size="20.0" fill="#000000" transform="matrix(1.00, 0.00, -0.00, -1.00, 397.6, 6.7)">i</text><text xml:space="preserve" font-family="Palatino-Roman,Palatino" font-size="20.0" fill="#000000" transform="matrix(1.00, 0.00, -0.00, -1.00, 403.4, 6.7)">t</text><text xml:space="preserve" font-family="Palatino-Roman,Palatino" font-size="20.0" fill="#000000" transform="matrix(1.00, 0.00, -0.00, -1.00, 409.9, 6.7)">h</text><text xml:space="preserve" font-family="Palatino-Roman,Palatino" font-size="20.0" fill="#000000" transform="matrix(1.00, 0.00, -0.00, -1.00, 421.6, 6.7)"> </text><text xml:space="preserve" font-family="Palatino-Roman,Palatino" font-size="20.0" fill="#000000" transform="matrix(1.00, 0.00, -0.00, -1.00, 426.6, 6.7)">R</text><text xml:space="preserve" font-family="Palatino-Roman,Palatino" font-size="20.0" fill="#000000" transform="matrix(1.00, 0.00, -0.00, -1.00, 439.9, 6.7)">u</text><text xml:space="preserve" font-family="Palatino-Roman,Palatino" font-size="20.0" fill="#000000" transform="matrix(1.00, 0.00, -0.00, -1.00, 452.0, 6.7)">s</text><text xml:space="preserve" font-family="Palatino-Roman,Palatino" font-size="20.0" fill="#000000" transform="matrix(1.00, 0.00, -0.00, -1.00, 460.5, 6.7)">t</text><text xml:space="preserve" font-family="Palatino-Roman,Palatino" font-size="20.0" fill="#000000" transform="matrix(1.00, 0.00, -0.00, -1.00, 467.0, 6.7)"> </text><text xml:space="preserve" font-family="Palatino-Roman,Palatino" font-size="20.0" fill="#000000" transform="matrix(1.00, 0.00, -0.00, -1.00, 472.0, 6.7)">s</text><text xml:space="preserve" font-family="Palatino-Roman,Palatino" font-size="20.0" fill="#000000" transform="matrix(1.00, 0.00, -0.00, -1.00, 480.5, 6.7)">y</text><text xml:space="preserve" font-family="Palatino-Roman,Palatino" font-size="20.0" fill="#000000" transform="matrix(1.00, 0.00, -0.00, -1.00, 491.6, 6.7)">n</text><text xml:space="preserve" font-family="Palatino-Roman,Palatino" font-size="20.0" fill="#000000" transform="matrix(1.00, 0.00, -0.00, -1.00, 503.2, 6.7)">t</text><text xml:space="preserve" font-family="Palatino-Roman,Palatino" font-size="20.0" fill="#000000" transform="matrix(1.00, 0.00, -0.00, -1.00, 509.8, 6.7)">a</text><text xml:space="preserve" font-family="Palatino-Roman,Palatino" font-size="20.0" fill="#000000" transform="matrix(1.00, 0.00, -0.00, -1.00, 519.8, 6.7)">x</text></g></svg>