<?xml version="1.0" encoding="UTF-8" standalone="no"?><svg xmlns="http://www.w3.org/2000/svg" xmlns:xlink="http://www.w3.org/1999/xlink" clip-rule="evenodd" stroke-miterlimit="10" viewBox="0 0 724 40"><desc>SVG generated by Keynote</desc><defs></defs><g transform="matrix(1.00, 0.00, -0.00, -1.00, 0.0, 40.0)"><text xml:space="preserve" font-family="Monaco,Monaco" font-size="15.0" fill="#000000" transform="matrix(1.00, 0.00, -0.00, -1.00, 2.0, 25.7)">b</text><text xml:space="preserve" font-family="Monaco,Monaco" font-size="15.0" fill="#000000" transform="matrix(1.00, 0.00, -0.00, -1.00, 11.0, 25.7)">f</text><text xml:space="preserve" font-family="Monaco,Monaco" font-size="15.0" fill="#000000" transform="matrix(1.00, 0.00, -0.00, -1.00, 20.0, 25.7)">!</text><text xml:space="preserve" font-family="Monaco,Monaco" font-size="15.0" fill="#000000" transform="matrix(1.00, 0.00, -0.00, -1.00, 29.0, 25.7)">(</text><text xml:space="preserve" font-family="Monaco,Monaco" font-size="15.0" fill="#000000" transform="matrix(1.00, 0.00, -0.00, -1.00, 38.0, 25.7)">{</text><text xml:space="preserve" font-family="Monaco,Monaco" font-size="15.0" fill="#000000" transform="matrix(1.00, 0.00, -0.00, -1.00, 47.0, 25.7)"> </text><text xml:space="preserve" font-family="Monaco,Monaco" font-size="15.0" fill="#000000" transform="matrix(1.00, 0.00, -0.00, -1.00, 56.0, 25.7)">+</text><text xml:space="preserve" font-family="Monaco,Monaco" font-size="15.0" fill="#000000" transform="matrix(1.00, 0.00, -0.00, -1.00, 65.0, 25.7)">+</text><text xml:space="preserve" font-family="Monaco,Monaco" font-size="15.0" fill="#000000" transform="matrix(1.00, 0.00, -0.00, -1.00, 74.0, 25.7)">+</text><text xml:space="preserve" font-family="Monaco,Monaco" font-size="15.0" fill="#000000" transform="matrix(1.00, 0.00, -0.00, -1.00, 83.0, 25.7)">+</text><text xml:space="preserve" font-family="Monaco,Monaco" font-size="15.0" fill="#000000" transform="matrix(1.00, 0.00, -0.00, -1.00, 92.0, 25.7)">+</text><text xml:space="preserve" font-family="Monaco,Monaco" font-size="15.0" fill="#000000" transform="matrix(1.00, 0.00, -0.00, -1.00, 101.0, 25.7)">+</text><text xml:space="preserve" font-family="Monaco,Monaco" font-size="15.0" fill="#000000" transform="matrix(1.00, 0.00, -0.00, -1.00, 110.0, 25.7)">+</text><text xml:space="preserve" font-family="Monaco,Monaco" font-size="15.0" fill="#000000" transform="matrix(1.00, 0.00, -0.00, -1.00, 119.0, 25.7)">+</text><text xml:space="preserve" font-family="Monaco,Monaco" font-size="15.0" fill="#000000" transform="matrix(1.00, 0.00, -0.00, -1.00, 128.0, 25.7)">+</text><text xml:space="preserve" font-family="Monaco,Monaco" font-size="15.0" fill="#000000" transform="matrix(1.00, 0.00, -0.00, -1.00, 137.0, 25.7)">+</text><text xml:space="preserve" font-family="Monaco,Monaco" font-size="15.0" fill="#000000" transform="matrix(1.00, 0.00, -0.00, -1.00, 146.0, 25.7)">[</text><text xml:space="preserve" font-family="Monaco,Monaco" font-size="15.0" fill="#000000" transform="matrix(1.00, 0.00, -0.00, -1.00, 155.0, 25.7)">&gt;</text><text xml:space="preserve" font-family="Monaco,Monaco" font-size="15.0" fill="#000000" transform="matrix(1.00, 0.00, -0.00, -1.00, 164.0, 25.7)">+</text><text xml:space="preserve" font-family="Monaco,Monaco" font-size="15.0" fill="#000000" transform="matrix(1.00, 0.00, -0.00, -1.00, 173.0, 25.7)">+</text><text xml:space="preserve" font-family="Monaco,Monaco" font-size="15.0" fill="#000000" transform="matrix(1.00, 0.00, -0.00, -1.00, 182.0, 25.7)">+</text><text xml:space="preserve" font-family="Monaco,Monaco" font-size="15.0" fill="#000000" transform="matrix(1.00, 0.00, -0.00, -1.00, 191.0, 25.7)">+</text><text xml:space="preserve" font-family="Monaco,Monaco" font-size="15.0" fill="#000000" transform="matrix(1.00, 0.00, -0.00, -1.00, 200.0, 25.7)">+</text><text xml:space="preserve" font-family="Monaco,Monaco" font-size="15.0" fill="#000000" transform="matrix(1.00, 0.00, -0.00, -1.00, 209.0, 25.7)">+</text><text xml:space="preserve" font-family="Monaco,Monaco" font-size="15.0" fill="#000000" transform="matrix(1.00, 0.00, -0.00, -1.00, 218.0, 25.7)">+</text><text xml:space="preserve" font-family="Monaco,Monaco" font-size="15.0" fill="#000000" transform="matrix(1.00, 0.00, -0.00, -1.00, 227.0, 25.7)">&gt;</text><text xml:space="preserve" font-family="Monaco,Monaco" font-size="15.0" fill="#000000" transform="matrix(1.00, 0.00, -0.00, -1.00, 236.1, 25.7)">+</text><text xml:space="preserve" font-family="Monaco,Monaco" font-size="15.0" fill="#000000" transform="matrix(1.00, 0.00, -0.00, -1.00, 245.1, 25.7)">+</text><text xml:space="preserve" font-family="Monaco,Monaco" font-size="15.0" fill="#000000" transform="matrix(1.00, 0.00, -0.00, -1.00, 254.1, 25.7)">+</text><text xml:space="preserve" font-family="Monaco,Monaco" font-size="15.0" fill="#000000" transform="matrix(1.00, 0.00, -0.00, -1.00, 263.1, 25.7)">+</text><text xml:space="preserve" font-family="Monaco,Monaco" font-size="15.0" fill="#000000" transform="matrix(1.00, 0.00, -0.00, -1.00, 272.1, 25.7)">+</text><text xml:space="preserve" font-family="Monaco,Monaco" font-size="15.0" fill="#000000" transform="matrix(1.00, 0.00, -0.00, -1.00, 281.1, 25.7)">+</text><text xml:space="preserve" font-family="Monaco,Monaco" font-size="15.0" fill="#000000" transform="matrix(1.00, 0.00, -0.00, -1.00, 290.1, 25.7)">+</text><text xml:space="preserve" font-family="Monaco,Monaco" font-size="15.0" fill="#000000" transform="matrix(1.00, 0.00, -0.00, -1.00, 299.1, 25.7)">+</text><text xml:space="preserve" font-family="Monaco,Monaco" font-size="15.0" fill="#000000" transform="matrix(1.00, 0.00, -0.00, -1.00, 308.1, 25.7)">+</text><text xml:space="preserve" font-family="Monaco,Monaco" font-size="15.0" fill="#000000" transform="matrix(1.00, 0.00, -0.00, -1.00, 317.1, 25.7)">+</text><text xml:space="preserve" font-family="Monaco,Monaco" font-size="15.0" fill="#000000" transform="matrix(1.00, 0.00, -0.00, -1.00, 326.1, 25.7)">&gt;</text><text xml:space="preserve" font-family="Monaco,Monaco" font-size="15.0" fill="#000000" transform="matrix(1.00, 0.00, -0.00, -1.00, 335.1, 25.7)">+</text><text xml:space="preserve" font-family="Monaco,Monaco" font-size="15.0" fill="#000000" transform="matrix(1.00, 0.00, -0.00, -1.00, 344.1, 25.7)">+</text><text xml:space="preserve" font-family="Monaco,Monaco" font-size="15.0" fill="#000000" transform="matrix(1.00, 0.00, -0.00, -1.00, 353.1, 25.7)">+</text><text xml:space="preserve" font-family="Monaco,Monaco" font-size="15.0" fill="#000000" transform="matrix(1.00, 0.00, -0.00, -1.00, 362.1, 25.7)">&gt;</text><text xml:space="preserve" font-family="Monaco,Monaco" font-size="15.0" fill="#000000" transform="matrix(1.00, 0.00, -0.00, -1.00, 371.1, 25.7)">+</text><text xml:space="preserve" font-family="Monaco,Monaco" font-size="15.0" fill="#000000" transform="matrix(1.00, 0.00, -0.00, -1.00, 380.1, 25.7)">&lt;</text><text xml:space="preserve" font-family="Monaco,Monaco" font-size="15.0" fill="#000000" transform="matrix(1.00, 0.00, -0.00, -1.00, 389.1, 25.7)">&lt;</text><text xml:space="preserve" font-family="Monaco,Monaco" font-size="15.0" fill="#000000" transform="matrix(1.00, 0.00, -0.00, -1.00, 398.1, 25.7)">&lt;</text><text xml:space="preserve" font-family="Monaco,Monaco" font-size="15.0" fill="#000000" transform="matrix(1.00, 0.00, -0.00, -1.00, 407.1, 25.7)">&lt;</text><text xml:space="preserve" font-family="Monaco,Monaco" font-size="15.0" fill="#000000" transform="matrix(1.00, 0.00, -0.00, -1.00, 416.1, 25.7)">-</text><text xml:space="preserve" font-family="Monaco,Monaco" font-size="15.0" fill="#000000" transform="matrix(1.00, 0.00, -0.00, -1.00, 425.1, 25.7)">]</text><text xml:space="preserve" font-family="Monaco,Monaco" font-size="15.0" fill="#000000" transform="matrix(1.00, 0.00, -0.00, -1.00, 434.1, 25.7)">&gt;</text><text xml:space="preserve" font-family="Monaco,Monaco" font-size="15.0" fill="#000000" transform="matrix(1.00, 0.00, -0.00, -1.00, 443.1, 25.7)">+</text><text xml:space="preserve" font-family="Monaco,Monaco" font-size="15.0" fill="#000000" transform="matrix(1.00, 0.00, -0.00, -1.00, 452.1, 25.7)">+</text><text xml:space="preserve" font-family="Monaco,Monaco" font-size="15.0" fill="#000000" transform="matrix(1.00, 0.00, -0.00, -1.00, 461.1, 25.7)">.</text><text xml:space="preserve" font-family="Monaco,Monaco" font-size="15.0" fill="#000000" transform="matrix(1.00, 0.00, -0.00, -1.00, 470.1, 25.7)">&gt;</text><text xml:space="preserve" font-family="Monaco,Monaco" font-size="15.0" fill="#000000" transform="matrix(1.00, 0.00, -0.00, -1.00, 479.1, 25.7)">+</text><text xml:space="preserve" font-family="Monaco,Monaco" font-size="15.0" fill="#000000" transform="matrix(1.00, 0.00, -0.00, -1.00, 488.1, 25.7)">.</text><text xml:space="preserve" font-family="Monaco,Monaco" font-size="15.0" fill="#000000" transform="matrix(1.00, 0.00, -0.00, -1.00, 497.1, 25.7)">+</text><text xml:space="preserve" font-family="Monaco,Monaco" font-size="15.0" fill="#000000" transform="matrix(1.00, 0.00, -0.00, -1.00, 506.1, 25.7)">+</text><text xml:space="preserve" font-family="Monaco,Monaco" font-size="15.0" fill="#000000" transform="matrix(1.00, 0.00, -0.00, -1.00, 515.1, 25.7)">+</text><text xml:space="preserve" font-family="Monaco,Monaco" font-size="15.0" fill="#000000" transform="matrix(1.00, 0.00, -0.00, -1.00, 524.1, 25.7)">+</text><text xml:space="preserve" font-family="Monaco,Monaco" font-size="15.0" fill="#000000" transform="matrix(1.00, 0.00, -0.00, -1.00, 533.1, 25.7)">+</text><text xml:space="preserve" font-family="Monaco,Monaco" font-size="15.0" fill="#000000" transform="matrix(1.00, 0.00, -0.00, -1.00, 542.2, 25.7)">+</text><text xml:space="preserve" font-family="Monaco,Monaco" font-size="15.0" fill="#000000" transform="matrix(1.00, 0.00, -0.00, -1.00, 551.2, 25.7)">+</text><text xml:space="preserve" font-family="Monaco,Monaco" font-size="15.0" fill="#000000" transform="matrix(1.00, 0.00, -0.00, -1.00, 560.2, 25.7)">.</text><text xml:space="preserve" font-family="Monaco,Monaco" font-size="15.0" fill="#000000" transform="matrix(1.00, 0.00, -0.00, -1.00, 569.2, 25.7)">.</text><text xml:space="preserve" font-family="Monaco,Monaco" font-size="15.0" fill="#000000" transform="matrix(1.00, 0.00, -0.00, -1.00, 578.2, 25.7)">+</text><text xml:space="preserve" font-family="Monaco,Monaco" font-size="15.0" fill="#000000" transform="matrix(1.00, 0.00, -0.00, -1.00, 587.2, 25.7)">+</text><text xml:space="preserve" font-family="Monaco,Monaco" font-size="15.0" fill="#000000" transform="matrix(1.00, 0.00, -0.00, -1.00, 596.2, 25.7)">+</text><text xml:space="preserve" font-family="Monaco,Monaco" font-size="15.0" fill="#000000" transform="matrix(1.00, 0.00, -0.00, -1.00, 605.2, 25.7)">.</text><text xml:space="preserve" font-family="Monaco,Monaco" font-size="15.0" fill="#000000" transform="matrix(1.00, 0.00, -0.00, -1.00, 614.2, 25.7)">&gt;</text><text xml:space="preserve" font-family="Monaco,Monaco" font-size="15.0" fill="#000000" transform="matrix(1.00, 0.00, -0.00, -1.00, 623.2, 25.7)">+</text><text xml:space="preserve" font-family="Monaco,Monaco" font-size="15.0" fill="#000000" transform="matrix(1.00, 0.00, -0.00, -1.00, 632.2, 25.7)">+</text><text xml:space="preserve" font-family="Monaco,Monaco" font-size="15.0" fill="#000000" transform="matrix(1.00, 0.00, -0.00, -1.00, 641.2, 25.7)">[</text><text xml:space="preserve" font-family="Monaco,Monaco" font-size="15.0" fill="#000000" transform="matrix(1.00, 0.00, -0.00, -1.00, 650.2, 25.7)">.</text><text xml:space="preserve" font-family="Monaco,Monaco" font-size="15.0" fill="#000000" transform="matrix(1.00, 0.00, -0.00, -1.00, 659.2, 25.7)">[</text><text xml:space="preserve" font-family="Monaco,Monaco" font-size="15.0" fill="#000000" transform="matrix(1.00, 0.00, -0.00, -1.00, 668.2, 25.7)">-</text><text xml:space="preserve" font-family="Monaco,Monaco" font-size="15.0" fill="#000000" transform="matrix(1.00, 0.00, -0.00, -1.00, 677.2, 25.7)">]</text><text xml:space="preserve" font-family="Monaco,Monaco" font-size="15.0" fill="#000000" transform="matrix(1.00, 0.00, -0.00, -1.00, 686.2, 25.7)">,</text><text xml:space="preserve" font-family="Monaco,Monaco" font-size="15.0" fill="#000000" transform="matrix(1.00, 0.00, -0.00, -1.00, 695.2, 25.7)">]</text><text xml:space="preserve" font-family="Monaco,Monaco" font-size="15.0" fill="#000000" transform="matrix(1.00, 0.00, -0.00, -1.00, 704.2, 25.7)"> </text><text xml:space="preserve" font-family="Monaco,Monaco" font-size="15.0" fill="#000000" transform="matrix(1.00, 0.00, -0.00, -1.00, 713.2, 25.7)">}</text><text xml:space="preserve" font-family="Monaco,Monaco" font-size="15.0" fill="#000000" transform="matrix(1.00, 0.00, -0.00, -1.00, 722.2, 25.7)"> </text><text xml:space="preserve" font-family="Monaco,Monaco" font-size="15.0" fill="#000000" transform="matrix(1.00, 0.00, -0.00, -1.00, 2.0, 5.7)"> </text><text xml:space="preserve" font-family="Monaco,Monaco" font-size="15.0" fill="#000000" transform="matrix(1.00, 0.00, -0.00, -1.00, 11.0, 5.7)"> </text><text xml:space="preserve" font-family="Monaco,Monaco" font-size="15.0" fill="#000000" transform="matrix(1.00, 0.00, -0.00, -1.00, 20.0, 5.7)"> </text><text xml:space="preserve" font-family="Monaco,Monaco" font-size="15.0" fill="#000000" transform="matrix(1.00, 0.00, -0.00, -1.00, 29.0, 5.7)"> </text><text xml:space="preserve" font-family="Monaco,Monaco" font-size="15.0" fill="#000000" transform="matrix(1.00, 0.00, -0.00, -1.00, 38.0, 5.7)">{</text><text xml:space="preserve" font-family="Monaco,Monaco" font-size="15.0" fill="#000000" transform="matrix(1.00, 0.00, -0.00, -1.00, 47.0, 5.7)"> </text><text xml:space="preserve" font-family="Monaco,Monaco" font-size="15.0" fill="#000000" transform="matrix(1.00, 0.00, -0.00, -1.00, 56.0, 5.7)">[</text><text xml:space="preserve" font-family="Monaco,Monaco" font-size="15.0" fill="#000000" transform="matrix(1.00, 0.00, -0.00, -1.00, 65.0, 5.7)">8</text><text xml:space="preserve" font-family="Monaco,Monaco" font-size="15.0" fill="#000000" transform="matrix(1.00, 0.00, -0.00, -1.00, 74.0, 5.7)"> </text><text xml:space="preserve" font-family="Monaco,Monaco" font-size="15.0" fill="#000000" transform="matrix(1.00, 0.00, -0.00, -1.00, 83.0, 5.7)">2</text><text xml:space="preserve" font-family="Monaco,Monaco" font-size="15.0" fill="#000000" transform="matrix(1.00, 0.00, -0.00, -1.00, 92.0, 5.7)">]</text><text xml:space="preserve" font-family="Monaco,Monaco" font-size="15.0" fill="#000000" transform="matrix(1.00, 0.00, -0.00, -1.00, 101.0, 5.7)"> </text><text xml:space="preserve" font-family="Monaco,Monaco" font-size="15.0" fill="#000000" transform="matrix(1.00, 0.00, -0.00, -1.00, 110.0, 5.7)">[</text><text xml:space="preserve" font-family="Monaco,Monaco" font-size="15.0" fill="#000000" transform="matrix(1.00, 0.00, -0.00, -1.00, 119.0, 5.7)">1</text><text xml:space="preserve" font-family="Monaco,Monaco" font-size="15.0" fill="#000000" transform="matrix(1.00, 0.00, -0.00, -1.00, 128.0, 5.7)"> </text><text xml:space="preserve" font-family="Monaco,Monaco" font-size="15.0" fill="#000000" transform="matrix(1.00, 0.00, -0.00, -1.00, 137.0, 5.7)">1</text><text xml:space="preserve" font-family="Monaco,Monaco" font-size="15.0" fill="#000000" transform="matrix(1.00, 0.00, -0.00, -1.00, 146.0, 5.7)"> </text><text xml:space="preserve" font-family="Monaco,Monaco" font-size="15.0" fill="#000000" transform="matrix(1.00, 0.00, -0.00, -1.00, 155.0, 5.7)">7</text><text xml:space="preserve" font-family="Monaco,Monaco" font-size="15.0" fill="#000000" transform="matrix(1.00, 0.00, -0.00, -1.00, 164.0, 5.7)">]</text><text xml:space="preserve" font-family="Monaco,Monaco" font-size="15.0" fill="#000000" transform="matrix(1.00, 0.00, -0.00, -1.00, 173.0, 5.7)"> </text><text xml:space="preserve" font-family="Monaco,Monaco" font-size="15.0" fill="#000000" transform="matrix(1.00, 0.00, -0.00, -1.00, 182.0, 5.7)">[</text><text xml:space="preserve" font-family="Monaco,Monaco" font-size="15.0" fill="#000000" transform="matrix(1.00, 0.00, -0.00, -1.00, 191.0, 5.7)">1</text><text xml:space="preserve" font-family="Monaco,Monaco" font-size="15.0" fill="#000000" transform="matrix(1.00, 0.00, -0.00, -1.00, 200.0, 5.7)"> </text><text xml:space="preserve" font-family="Monaco,Monaco" font-size="15.0" fill="#000000" transform="matrix(1.00, 0.00, -0.00, -1.00, 209.0, 5.7)">1</text><text xml:space="preserve" font-family="Monaco,Monaco" font-size="15.0" fill="#000000" transform="matrix(1.00, 0.00, -0.00, -1.00, 218.0, 5.7)"> </text><text xml:space="preserve" font-family="Monaco,Monaco" font-size="15.0" fill="#000000" transform="matrix(1.00, 0.00, -0.00, -1.00, 227.0, 5.7)">5</text><text xml:space="preserve" font-family="Monaco,Monaco" font-size="15.0" fill="#000000" transform="matrix(1.00, 0.00, -0.00, -1.00, 236.1, 5.7)">]</text><text xml:space="preserve" font-family="Monaco,Monaco" font-size="15.0" fill="#000000" transform="matrix(1.00, 0.00, -0.00, -1.00, 245.1, 5.7)"> </text><text xml:space="preserve" font-family="Monaco,Monaco" font-size="15.0" fill="#000000" transform="matrix(1.00, 0.00, -0.00, -1.00, 254.1, 5.7)">[</text><text xml:space="preserve" font-family="Monaco,Monaco" font-size="15.0" fill="#000000" transform="matrix(1.00, 0.00, -0.00, -1.00, 263.1, 5.7)">1</text><text xml:space="preserve" font-family="Monaco,Monaco" font-size="15.0" fill="#000000" transform="matrix(1.00, 0.00, -0.00, -1.00, 272.1, 5.7)"> </text><text xml:space="preserve" font-family="Monaco,Monaco" font-size="15.0" fill="#000000" transform="matrix(1.00, 0.00, -0.00, -1.00, 281.1, 5.7)">1</text><text xml:space="preserve" font-family="Monaco,Monaco" font-size="15.0" fill="#000000" transform="matrix(1.00, 0.00, -0.00, -1.00, 290.1, 5.7)"> </text><text xml:space="preserve" font-family="Monaco,Monaco" font-size="15.0" fill="#000000" transform="matrix(1.00, 0.00, -0.00, -1.00, 299.1, 5.7)">6</text><text xml:space="preserve" font-family="Monaco,Monaco" font-size="15.0" fill="#000000" transform="matrix(1.00, 0.00, -0.00, -1.00, 308.1, 5.7)">]</text><text xml:space="preserve" font-family="Monaco,Monaco" font-size="15.0" fill="#000000" transform="matrix(1.00, 0.00, -0.00, -1.00, 317.1, 5.7)"> </text><text xml:space="preserve" font-family="Monaco,Monaco" font-size="15.0" fill="#000000" transform="matrix(1.00, 0.00, -0.00, -1.00, 326.1, 5.7)">[</text><text xml:space="preserve" font-family="Monaco,Monaco" font-size="15.0" fill="#000000" transform="matrix(1.00, 0.00, -0.00, -1.00, 335.1, 5.7)">7</text><text xml:space="preserve" font-family="Monaco,Monaco" font-size="15.0" fill="#000000" transform="matrix(1.00, 0.00, -0.00, -1.00, 344.1, 5.7)"> </text><text xml:space="preserve" font-family="Monaco,Monaco" font-size="15.0" fill="#000000" transform="matrix(1.00, 0.00, -0.00, -1.00, 353.1, 5.7)">0</text><text xml:space="preserve" font-family="Monaco,Monaco" font-size="15.0" fill="#000000" transform="matrix(1.00, 0.00, -0.00, -1.00, 362.1, 5.7)">]</text><text xml:space="preserve" font-family="Monaco,Monaco" font-size="15.0" fill="#000000" transform="matrix(1.00, 0.00, -0.00, -1.00, 371.1, 5.7)"> </text><text xml:space="preserve" font-family="Monaco,Monaco" font-size="15.0" fill="#000000" transform="matrix(1.00, 0.00, -0.00, -1.00, 380.1, 5.7)">[</text><text xml:space="preserve" font-family="Monaco,Monaco" font-size="15.0" fill="#000000" transform="matrix(1.00, 0.00, -0.00, -1.00, 389.1, 5.7)">1</text><text xml:space="preserve" font-family="Monaco,Monaco" font-size="15.0" fill="#000000" transform="matrix(1.00, 0.00, -0.00, -1.00, 398.1, 5.7)"> </text><text xml:space="preserve" font-family="Monaco,Monaco" font-size="15.0" fill="#000000" transform="matrix(1.00, 0.00, -0.00, -1.00, 407.1, 5.7)">0</text><text xml:space="preserve" font-family="Monaco,Monaco" font-size="15.0" fill="#000000" transform="matrix(1.00, 0.00, -0.00, -1.00, 416.1, 5.7)"> </text><text xml:space="preserve" font-family="Monaco,Monaco" font-size="15.0" fill="#000000" transform="matrix(1.00, 0.00, -0.00, -1.00, 425.1, 5.7)">1</text><text xml:space="preserve" font-family="Monaco,Monaco" font-size="15.0" fill="#000000" transform="matrix(1.00, 0.00, -0.00, -1.00, 434.1, 5.7)">]</text><text xml:space="preserve" font-family="Monaco,Monaco" font-size="15.0" fill="#000000" transform="matrix(1.00, 0.00, -0.00, -1.00, 443.1, 5.7)"> </text><text xml:space="preserve" font-family="Monaco,Monaco" font-size="15.0" fill="#000000" transform="matrix(1.00, 0.00, -0.00, -1.00, 452.1, 5.7)">[</text><text xml:space="preserve" font-family="Monaco,Monaco" font-size="15.0" fill="#000000" transform="matrix(1.00, 0.00, -0.00, -1.00, 461.1, 5.7)">1</text><text xml:space="preserve" font-family="Monaco,Monaco" font-size="15.0" fill="#000000" transform="matrix(1.00, 0.00, -0.00, -1.00, 470.1, 5.7)"> </text><text xml:space="preserve" font-family="Monaco,Monaco" font-size="15.0" fill="#000000" transform="matrix(1.00, 0.00, -0.00, -1.00, 479.1, 5.7)">1</text><text xml:space="preserve" font-family="Monaco,Monaco" font-size="15.0" fill="#000000" transform="matrix(1.00, 0.00, -0.00, -1.00, 488.1, 5.7)"> </text><text xml:space="preserve" font-family="Monaco,Monaco" font-size="15.0" fill="#000000" transform="matrix(1.00, 0.00, -0.00, -1.00, 497.1, 5.7)">5</text><text xml:space="preserve" font-family="Monaco,Monaco" font-size="15.0" fill="#000000" transform="matrix(1.00, 0.00, -0.00, -1.00, 506.1, 5.7)">]</text><text xml:space="preserve" font-family="Monaco,Monaco" font-size="15.0" fill="#000000" transform="matrix(1.00, 0.00, -0.00, -1.00, 515.1, 5.7)"> </text><text xml:space="preserve" font-family="Monaco,Monaco" font-size="15.0" fill="#000000" transform="matrix(1.00, 0.00, -0.00, -1.00, 524.1, 5.7)">[</text><text xml:space="preserve" font-family="Monaco,Monaco" font-size="15.0" fill="#000000" transform="matrix(1.00, 0.00, -0.00, -1.00, 533.1, 5.7)">1</text><text xml:space="preserve" font-family="Monaco,Monaco" font-size="15.0" fill="#000000" transform="matrix(1.00, 0.00, -0.00, -1.00, 542.2, 5.7)"> </text><text xml:space="preserve" font-family="Monaco,Monaco" font-size="15.0" fill="#000000" transform="matrix(1.00, 0.00, -0.00, -1.00, 551.2, 5.7)">1</text><text xml:space="preserve" font-family="Monaco,Monaco" font-size="15.0" fill="#000000" transform="matrix(1.00, 0.00, -0.00, -1.00, 560.2, 5.7)"> </text><text xml:space="preserve" font-family="Monaco,Monaco" font-size="15.0" fill="#000000" transform="matrix(1.00, 0.00, -0.00, -1.00, 569.2, 5.7)">6</text><text xml:space="preserve" font-family="Monaco,Monaco" font-size="15.0" fill="#000000" transform="matrix(1.00, 0.00, -0.00, -1.00, 578.2, 5.7)">]</text><text xml:space="preserve" font-family="Monaco,Monaco" font-size="15.0" fill="#000000" transform="matrix(1.00, 0.00, -0.00, -1.00, 587.2, 5.7)"> </text><text xml:space="preserve" font-family="Monaco,Monaco" font-size="15.0" fill="#000000" transform="matrix(1.00, 0.00, -0.00, -1.00, 596.2, 5.7)">}</text><text xml:space="preserve" font-family="Monaco,Monaco" font-size="15.0" fill="#000000" transform="matrix(1.00, 0.00, -0.00, -1.00, 605.2, 5.7)">)</text><text xml:space="preserve" font-family="Monaco,Monaco" font-size="15.0" fill="#000000" transform="matrix(1.00, 0.00, -0.00, -1.00, 614.1, 5.7)">;</text></g></svg>