<?xml version="1.0" encoding="UTF-8" standalone="no"?><svg xmlns="http://www.w3.org/2000/svg" xmlns:xlink="http://www.w3.org/1999/xlink" clip-rule="evenodd" stroke-miterlimit="10" viewBox="0 0 756 50"><desc>SVG generated by Keynote</desc><defs></defs><g transform="matrix(1.00, 0.00, -0.00, -1.00, 0.0, 50.0)"><text xml:space="preserve" font-family="ZapfDingbatsITC,Zapf Dingbats" font-size="14.0" fill="#5B86B8" transform="matrix(1.00, 0.00, -0.00, -1.00, 0.5, 34.1)">✤</text><text xml:space="preserve" font-family="Palatino-Roman,Palatino" font-size="20.0" fill="#000000" transform="matrix(1.00, 0.00, -0.00, -1.00, 21.5, 32.7)">I</text><text xml:space="preserve" font-family="Palatino-Roman,Palatino" font-size="20.0" fill="#000000" transform="matrix(1.00, 0.00, -0.00, -1.00, 28.3, 32.7)">n</text><text xml:space="preserve" font-family="Palatino-Roman,Palatino" font-size="20.0" fill="#000000" transform="matrix(1.00, 0.00, -0.00, -1.00, 39.9, 32.7)">p</text><text xml:space="preserve" font-family="Palatino-Roman,Palatino" font-size="20.0" fill="#000000" transform="matrix(1.00, 0.00, -0.00, -1.00, 51.9, 32.7)">u</text><text xml:space="preserve" font-family="Palatino-Roman,Palatino" font-size="20.0" fill="#000000" transform="matrix(1.00, 0.00, -0.00, -1.00, 64.0, 32.7)">t</text><text xml:space="preserve" font-family="Palatino-Roman,Palatino" font-size="20.0" fill="#000000" transform="matrix(1.00, 0.00, -0.00, -1.00, 70.5, 32.7)">s</text><text xml:space="preserve" font-family="Palatino-Roman,Palatino" font-size="20.0" fill="#000000" transform="matrix(1.00, 0.00, -0.00, -1.00, 79.0, 32.7)"> </text><text xml:space="preserve" font-family="Palatino-Roman,Palatino" font-size="20.0" fill="#000000" transform="matrix(1.00, 0.00, -0.00, -1.00, 84.0, 32.7)">a</text><text xml:space="preserve" font-family="Palatino-Roman,Palatino" font-size="20.0" fill="#000000" transform="matrix(1.00, 0.00, -0.00, -1.00, 94.0, 32.7)">r</text><text xml:space="preserve" font-family="Palatino-Roman,Palatino" font-size="20.0" fill="#000000" transform="matrix(1.00, 0.00, -0.00, -1.00, 101.5, 32.7)">e</text><text xml:space="preserve" font-family="Palatino-Roman,Palatino" font-size="20.0" fill="#000000" transform="matrix(1.00, 0.00, -0.00, -1.00, 111.1, 32.7)"> </text><text xml:space="preserve" font-family="Palatino-Roman,Palatino" font-size="20.0" fill="#000000" transform="matrix(1.00, 0.00, -0.00, -1.00, 116.1, 32.7)">s</text><text xml:space="preserve" font-family="Palatino-Roman,Palatino" font-size="20.0" fill="#000000" transform="matrix(1.00, 0.00, -0.00, -1.00, 124.6, 32.7)">e</text><text xml:space="preserve" font-family="Palatino-Roman,Palatino" font-size="20.0" fill="#000000" transform="matrix(1.00, 0.00, -0.00, -1.00, 134.2, 32.7)">q</text><text xml:space="preserve" font-family="Palatino-Roman,Palatino" font-size="20.0" fill="#000000" transform="matrix(1.00, 0.00, -0.00, -1.00, 145.4, 32.7)">u</text><text xml:space="preserve" font-family="Palatino-Roman,Palatino" font-size="20.0" fill="#000000" transform="matrix(1.00, 0.00, -0.00, -1.00, 157.4, 32.7)">e</text><text xml:space="preserve" font-family="Palatino-Roman,Palatino" font-size="20.0" fill="#000000" transform="matrix(1.00, 0.00, -0.00, -1.00, 167.0, 32.7)">n</text><text xml:space="preserve" font-family="Palatino-Roman,Palatino" font-size="20.0" fill="#000000" transform="matrix(1.00, 0.00, -0.00, -1.00, 178.7, 32.7)">c</text><text xml:space="preserve" font-family="Palatino-Roman,Palatino" font-size="20.0" fill="#000000" transform="matrix(1.00, 0.00, -0.00, -1.00, 187.5, 32.7)">e</text><text xml:space="preserve" font-family="Palatino-Roman,Palatino" font-size="20.0" fill="#000000" transform="matrix(1.00, 0.00, -0.00, -1.00, 197.1, 32.7)">s</text><text xml:space="preserve" font-family="Palatino-Roman,Palatino" font-size="20.0" fill="#000000" transform="matrix(1.00, 0.00, -0.00, -1.00, 205.6, 32.7)"> </text><text xml:space="preserve" font-family="Palatino-Roman,Palatino" font-size="20.0" fill="#000000" transform="matrix(1.00, 0.00, -0.00, -1.00, 210.6, 32.7)">o</text><text xml:space="preserve" font-family="Palatino-Roman,Palatino" font-size="20.0" fill="#000000" transform="matrix(1.00, 0.00, -0.00, -1.00, 221.5, 32.7)">f</text><text xml:space="preserve" font-family="Palatino-Roman,Palatino" font-size="20.0" fill="#000000" transform="matrix(1.00, 0.00, -0.00, -1.00, 228.2, 32.7)"> </text><text xml:space="preserve" font-family="Palatino-Bold,Palatino" font-weight="bold" font-size="20.0" fill="#000000" transform="matrix(1.00, 0.00, -0.00, -1.00, 233.2, 32.7)">s</text><text xml:space="preserve" font-family="Palatino-Bold,Palatino" font-weight="bold" font-size="20.0" fill="#000000" transform="matrix(1.00, 0.00, -0.00, -1.00, 242.0, 32.7)">y</text><text xml:space="preserve" font-family="Palatino-Bold,Palatino" font-weight="bold" font-size="20.0" fill="#000000" transform="matrix(1.00, 0.00, -0.00, -1.00, 253.2, 32.7)">n</text><text xml:space="preserve" font-family="Palatino-Bold,Palatino" font-weight="bold" font-size="20.0" fill="#000000" transform="matrix(1.00, 0.00, -0.00, -1.00, 265.4, 32.7)">t</text><text xml:space="preserve" font-family="Palatino-Bold,Palatino" font-weight="bold" font-size="20.0" fill="#000000" transform="matrix(1.00, 0.00, -0.00, -1.00, 272.0, 32.7)">a</text><text xml:space="preserve" font-family="Palatino-Bold,Palatino" font-weight="bold" font-size="20.0" fill="#000000" transform="matrix(1.00, 0.00, -0.00, -1.00, 282.0, 32.7)">c</text><text xml:space="preserve" font-family="Palatino-Bold,Palatino" font-weight="bold" font-size="20.0" fill="#000000" transform="matrix(1.00, 0.00, -0.00, -1.00, 290.9, 32.7)">t</text><text xml:space="preserve" font-family="Palatino-Bold,Palatino" font-weight="bold" font-size="20.0" fill="#000000" transform="matrix(1.00, 0.00, -0.00, -1.00, 297.6, 32.7)">i</text><text xml:space="preserve" font-family="Palatino-Bold,Palatino" font-weight="bold" font-size="20.0" fill="#000000" transform="matrix(1.00, 0.00, -0.00, -1.00, 304.2, 32.7)">c</text><text xml:space="preserve" font-family="Palatino-Bold,Palatino" font-weight="bold" font-size="20.0" fill="#000000" transform="matrix(1.00, 0.00, -0.00, -1.00, 313.1, 32.7)"> </text><text xml:space="preserve" font-family="Palatino-Bold,Palatino" font-weight="bold" font-size="20.0" fill="#000000" transform="matrix(1.00, 0.00, -0.00, -1.00, 318.1, 32.7)">e</text><text xml:space="preserve" font-family="Palatino-Bold,Palatino" font-weight="bold" font-size="20.0" fill="#000000" transform="matrix(1.00, 0.00, -0.00, -1.00, 328.1, 32.7)">l</text><text xml:space="preserve" font-family="Palatino-Bold,Palatino" font-weight="bold" font-size="20.0" fill="#000000" transform="matrix(1.00, 0.00, -0.00, -1.00, 334.8, 32.7)">e</text><text xml:space="preserve" font-family="Palatino-Bold,Palatino" font-weight="bold" font-size="20.0" fill="#000000" transform="matrix(1.00, 0.00, -0.00, -1.00, 344.8, 32.7)">m</text><text xml:space="preserve" font-family="Palatino-Bold,Palatino" font-weight="bold" font-size="20.0" fill="#000000" transform="matrix(1.00, 0.00, -0.00, -1.00, 362.6, 32.7)">e</text><text xml:space="preserve" font-family="Palatino-Bold,Palatino" font-weight="bold" font-size="20.0" fill="#000000" transform="matrix(1.00, 0.00, -0.00, -1.00, 372.6, 32.7)">n</text><text xml:space="preserve" font-family="Palatino-Bold,Palatino" font-weight="bold" font-size="20.0" fill="#000000" transform="matrix(1.00, 0.00, -0.00, -1.00, 384.8, 32.7)">t</text><text xml:space="preserve" font-family="Palatino-Bold,Palatino" font-weight="bold" font-size="20.0" fill="#000000" transform="matrix(1.00, 0.00, -0.00, -1.00, 391.4, 32.7)">s</text><text xml:space="preserve" font-family="Palatino-Roman,Palatino" font-size="20.0" fill="#000000" transform="matrix(1.00, 0.00, -0.00, -1.00, 400.3, 32.7)"> </text><text xml:space="preserve" font-family="Palatino-Roman,Palatino" font-size="20.0" fill="#000000" transform="matrix(1.00, 0.00, -0.00, -1.00, 405.3, 32.7)">(</text><text xml:space="preserve" font-family="Palatino-Roman,Palatino" font-size="20.0" fill="#000000" transform="matrix(1.00, 0.00, -0.00, -1.00, 412.0, 32.7)">t</text><text xml:space="preserve" font-family="Palatino-Roman,Palatino" font-size="20.0" fill="#000000" transform="matrix(1.00, 0.00, -0.00, -1.00, 418.5, 32.7)">o</text><text xml:space="preserve" font-family="Palatino-Roman,Palatino" font-size="20.0" fill="#000000" transform="matrix(1.00, 0.00, -0.00, -1.00, 429.4, 32.7)">k</text><text xml:space="preserve" font-family="Palatino-Roman,Palatino" font-size="20.0" fill="#000000" transform="matrix(1.00, 0.00, -0.00, -1.00, 440.6, 32.7)">e</text><text xml:space="preserve" font-family="Palatino-Roman,Palatino" font-size="20.0" fill="#000000" transform="matrix(1.00, 0.00, -0.00, -1.00, 450.1, 32.7)">n</text><text xml:space="preserve" font-family="Palatino-Roman,Palatino" font-size="20.0" fill="#000000" transform="matrix(1.00, 0.00, -0.00, -1.00, 461.8, 32.7)">s</text><text xml:space="preserve" font-family="Palatino-Roman,Palatino" font-size="20.0" fill="#000000" transform="matrix(1.00, 0.00, -0.00, -1.00, 470.2, 32.7)">,</text><text xml:space="preserve" font-family="Palatino-Roman,Palatino" font-size="20.0" fill="#000000" transform="matrix(1.00, 0.00, -0.00, -1.00, 475.2, 32.7)"> </text><text xml:space="preserve" font-family="Palatino-Roman,Palatino" font-size="20.0" fill="#000000" transform="matrix(1.00, 0.00, -0.00, -1.00, 480.2, 32.7)">e</text><text xml:space="preserve" font-family="Palatino-Roman,Palatino" font-size="20.0" fill="#000000" transform="matrix(1.00, 0.00, -0.00, -1.00, 489.8, 32.7)">x</text><text xml:space="preserve" font-family="Palatino-Roman,Palatino" font-size="20.0" fill="#000000" transform="matrix(1.00, 0.00, -0.00, -1.00, 500.1, 32.7)">p</text><text xml:space="preserve" font-family="Palatino-Roman,Palatino" font-size="20.0" fill="#000000" transform="matrix(1.00, 0.00, -0.00, -1.00, 512.2, 32.7)">r</text><text xml:space="preserve" font-family="Palatino-Roman,Palatino" font-size="20.0" fill="#000000" transform="matrix(1.00, 0.00, -0.00, -1.00, 519.7, 32.7)">e</text><text xml:space="preserve" font-family="Palatino-Roman,Palatino" font-size="20.0" fill="#000000" transform="matrix(1.00, 0.00, -0.00, -1.00, 529.3, 32.7)">s</text><text xml:space="preserve" font-family="Palatino-Roman,Palatino" font-size="20.0" fill="#000000" transform="matrix(1.00, 0.00, -0.00, -1.00, 537.8, 32.7)">s</text><text xml:space="preserve" font-family="Palatino-Roman,Palatino" font-size="20.0" fill="#000000" transform="matrix(1.00, 0.00, -0.00, -1.00, 546.2, 32.7)">i</text><text xml:space="preserve" font-family="Palatino-Roman,Palatino" font-size="20.0" fill="#000000" transform="matrix(1.00, 0.00, -0.00, -1.00, 552.1, 32.7)">o</text><text xml:space="preserve" font-family="Palatino-Roman,Palatino" font-size="20.0" fill="#000000" transform="matrix(1.00, 0.00, -0.00, -1.00, 563.0, 32.7)">n</text><text xml:space="preserve" font-family="Palatino-Roman,Palatino" font-size="20.0" fill="#000000" transform="matrix(1.00, 0.00, -0.00, -1.00, 574.6, 32.7)">s</text><text xml:space="preserve" font-family="Palatino-Roman,Palatino" font-size="20.0" fill="#000000" transform="matrix(1.00, 0.00, -0.00, -1.00, 583.1, 32.7)">,</text><text xml:space="preserve" font-family="Palatino-Roman,Palatino" font-size="20.0" fill="#000000" transform="matrix(1.00, 0.00, -0.00, -1.00, 588.1, 32.7)"> </text><text xml:space="preserve" font-family="Palatino-Roman,Palatino" font-size="20.0" fill="#000000" transform="matrix(1.00, 0.00, -0.00, -1.00, 593.1, 32.7)">t</text><text xml:space="preserve" font-family="Palatino-Roman,Palatino" font-size="20.0" fill="#000000" transform="matrix(1.00, 0.00, -0.00, -1.00, 599.6, 32.7)">y</text><text xml:space="preserve" font-family="Palatino-Roman,Palatino" font-size="20.0" fill="#000000" transform="matrix(1.00, 0.00, -0.00, -1.00, 610.8, 32.7)">p</text><text xml:space="preserve" font-family="Palatino-Roman,Palatino" font-size="20.0" fill="#000000" transform="matrix(1.00, 0.00, -0.00, -1.00, 622.8, 32.7)">e</text><text xml:space="preserve" font-family="Palatino-Roman,Palatino" font-size="20.0" fill="#000000" transform="matrix(1.00, 0.00, -0.00, -1.00, 632.4, 32.7)">s</text><text xml:space="preserve" font-family="Palatino-Roman,Palatino" font-size="20.0" fill="#000000" transform="matrix(1.00, 0.00, -0.00, -1.00, 640.8, 32.7)">,</text><text xml:space="preserve" font-family="Palatino-Roman,Palatino" font-size="20.0" fill="#000000" transform="matrix(1.00, 0.00, -0.00, -1.00, 645.8, 32.7)"> </text><text xml:space="preserve" font-family="Palatino-Roman,Palatino" font-size="20.0" fill="#000000" transform="matrix(1.00, 0.00, -0.00, -1.00, 650.8, 32.7)">i</text><text xml:space="preserve" font-family="Palatino-Roman,Palatino" font-size="20.0" fill="#000000" transform="matrix(1.00, 0.00, -0.00, -1.00, 656.6, 32.7)">t</text><text xml:space="preserve" font-family="Palatino-Roman,Palatino" font-size="20.0" fill="#000000" transform="matrix(1.00, 0.00, -0.00, -1.00, 663.2, 32.7)">e</text><text xml:space="preserve" font-family="Palatino-Roman,Palatino" font-size="20.0" fill="#000000" transform="matrix(1.00, 0.00, -0.00, -1.00, 672.8, 32.7)">m</text><text xml:space="preserve" font-family="Palatino-Roman,Palatino" font-size="20.0" fill="#000000" transform="matrix(1.00, 0.00, -0.00, -1.00, 690.4, 32.7)">s</text><text xml:space="preserve" font-family="Palatino-Roman,Palatino" font-size="20.0" fill="#000000" transform="matrix(1.00, 0.00, -0.00, -1.00, 698.9, 32.7)">,</text><text xml:space="preserve" font-family="Palatino-Roman,Palatino" font-size="20.0" fill="#000000" transform="matrix(1.00, 0.00, -0.00, -1.00, 703.9, 32.7)"> </text><text xml:space="preserve" font-family="Palatino-Roman,Palatino" font-size="20.0" fill="#000000" transform="matrix(1.00, 0.00, -0.00, -1.00, 708.9, 32.7)">.</text><text xml:space="preserve" font-family="Palatino-Roman,Palatino" font-size="20.0" fill="#000000" transform="matrix(1.00, 0.00, -0.00, -1.00, 713.9, 32.7)">.</text><text xml:space="preserve" font-family="Palatino-Roman,Palatino" font-size="20.0" fill="#000000" transform="matrix(1.00, 0.00, -0.00, -1.00, 718.9, 32.7)">.</text><text xml:space="preserve" font-family="Palatino-Roman,Palatino" font-size="20.0" fill="#000000" transform="matrix(1.00, 0.00, -0.00, -1.00, 723.9, 32.7)">)</text><text xml:space="preserve" font-family="Palatino-Roman,Palatino" font-size="20.0" fill="#000000" transform="matrix(1.00, 0.00, -0.00, -1.00, 730.5, 32.7)"> </text><text xml:space="preserve" font-family="Palatino-Roman,Palatino" font-size="20.0" fill="#000000" transform="matrix(1.00, 0.00, -0.00, -1.00, 735.5, 32.7)">o</text><text xml:space="preserve" font-family="Palatino-Roman,Palatino" font-size="20.0" fill="#000000" transform="matrix(1.00, 0.00, -0.00, -1.00, 746.5, 32.7)">r</text><text xml:space="preserve" font-family="Palatino-Roman,Palatino" font-size="20.0" fill="#000000" transform="matrix(1.00, 0.00, -0.00, -1.00, 754.4, 32.7)"> </text><text xml:space="preserve" font-family="Palatino-Italic,Palatino" font-style="italic" font-size="20.0" fill="#000000" transform="matrix(1.00, 0.00, -0.00, -1.00, 21.5, 6.7)">r</text><text xml:space="preserve" font-family="Palatino-Italic,Palatino" font-style="italic" font-size="20.0" fill="#000000" transform="matrix(1.00, 0.00, -0.00, -1.00, 29.0, 6.7)">e</text><text xml:space="preserve" font-family="Palatino-Italic,Palatino" font-style="italic" font-size="20.0" fill="#000000" transform="matrix(1.00, 0.00, -0.00, -1.00, 36.8, 6.7)">p</text><text xml:space="preserve" font-family="Palatino-Italic,Palatino" font-style="italic" font-size="20.0" fill="#000000" transform="matrix(1.00, 0.00, -0.00, -1.00, 46.8, 6.7)">e</text><text xml:space="preserve" font-family="Palatino-Italic,Palatino" font-style="italic" font-size="20.0" fill="#000000" transform="matrix(1.00, 0.00, -0.00, -1.00, 54.5, 6.7)">t</text><text xml:space="preserve" font-family="Palatino-Italic,Palatino" font-style="italic" font-size="20.0" fill="#000000" transform="matrix(1.00, 0.00, -0.00, -1.00, 61.2, 6.7)">i</text><text xml:space="preserve" font-family="Palatino-Italic,Palatino" font-style="italic" font-size="20.0" fill="#000000" transform="matrix(1.00, 0.00, -0.00, -1.00, 66.8, 6.7)">t</text><text xml:space="preserve" font-family="Palatino-Italic,Palatino" font-style="italic" font-size="20.0" fill="#000000" transform="matrix(1.00, 0.00, -0.00, -1.00, 73.4, 6.7)">i</text><text xml:space="preserve" font-family="Palatino-Italic,Palatino" font-style="italic" font-size="20.0" fill="#000000" transform="matrix(1.00, 0.00, -0.00, -1.00, 79.0, 6.7)">o</text><text xml:space="preserve" font-family="Palatino-Italic,Palatino" font-style="italic" font-size="20.0" fill="#000000" transform="matrix(1.00, 0.00, -0.00, -1.00, 87.8, 6.7)">n</text><text xml:space="preserve" font-family="Palatino-Italic,Palatino" font-style="italic" font-size="20.0" fill="#000000" transform="matrix(1.00, 0.00, -0.00, -1.00, 99.0, 6.7)">s</text><text xml:space="preserve" font-family="Palatino-Roman,Palatino" font-size="20.0" fill="#000000" transform="matrix(1.00, 0.00, -0.00, -1.00, 106.7, 6.7)"> </text><text xml:space="preserve" font-family="Palatino-Roman,Palatino" font-size="20.0" fill="#000000" transform="matrix(1.00, 0.00, -0.00, -1.00, 111.7, 6.7)">(</text><text xml:space="preserve" font-family="Palatino-Roman,Palatino" font-size="20.0" fill="#000000" transform="matrix(1.00, 0.00, -0.00, -1.00, 118.4, 6.7)">s</text><text xml:space="preserve" font-family="Palatino-Roman,Palatino" font-size="20.0" fill="#000000" transform="matrix(1.00, 0.00, -0.00, -1.00, 126.9, 6.7)">u</text><text xml:space="preserve" font-family="Palatino-Roman,Palatino" font-size="20.0" fill="#000000" transform="matrix(1.00, 0.00, -0.00, -1.00, 138.9, 6.7)">b</text><text xml:space="preserve" font-family="Palatino-Roman,Palatino" font-size="20.0" fill="#000000" transform="matrix(1.00, 0.00, -0.00, -1.00, 150.0, 6.7)">j</text><text xml:space="preserve" font-family="Palatino-Roman,Palatino" font-size="20.0" fill="#000000" transform="matrix(1.00, 0.00, -0.00, -1.00, 154.7, 6.7)">e</text><text xml:space="preserve" font-family="Palatino-Roman,Palatino" font-size="20.0" fill="#000000" transform="matrix(1.00, 0.00, -0.00, -1.00, 164.3, 6.7)">c</text><text xml:space="preserve" font-family="Palatino-Roman,Palatino" font-size="20.0" fill="#000000" transform="matrix(1.00, 0.00, -0.00, -1.00, 173.1, 6.7)">t</text><text xml:space="preserve" font-family="Palatino-Roman,Palatino" font-size="20.0" fill="#000000" transform="matrix(1.00, 0.00, -0.00, -1.00, 179.7, 6.7)"> </text><text xml:space="preserve" font-family="Palatino-Roman,Palatino" font-size="20.0" fill="#000000" transform="matrix(1.00, 0.00, -0.00, -1.00, 184.7, 6.7)">t</text><text xml:space="preserve" font-family="Palatino-Roman,Palatino" font-size="20.0" fill="#000000" transform="matrix(1.00, 0.00, -0.00, -1.00, 191.2, 6.7)">o</text><text xml:space="preserve" font-family="Palatino-Roman,Palatino" font-size="20.0" fill="#000000" transform="matrix(1.00, 0.00, -0.00, -1.00, 202.1, 6.7)"> </text><text xml:space="preserve" font-family="Palatino-Roman,Palatino" font-size="20.0" fill="#000000" transform="matrix(1.00, 0.00, -0.00, -1.00, 207.1, 6.7)">f</text><text xml:space="preserve" font-family="Palatino-Roman,Palatino" font-size="20.0" fill="#000000" transform="matrix(1.00, 0.00, -0.00, -1.00, 213.8, 6.7)">u</text><text xml:space="preserve" font-family="Palatino-Roman,Palatino" font-size="20.0" fill="#000000" transform="matrix(1.00, 0.00, -0.00, -1.00, 225.8, 6.7)">t</text><text xml:space="preserve" font-family="Palatino-Roman,Palatino" font-size="20.0" fill="#000000" transform="matrix(1.00, 0.00, -0.00, -1.00, 232.4, 6.7)">u</text><text xml:space="preserve" font-family="Palatino-Roman,Palatino" font-size="20.0" fill="#000000" transform="matrix(1.00, 0.00, -0.00, -1.00, 244.4, 6.7)">r</text><text xml:space="preserve" font-family="Palatino-Roman,Palatino" font-size="20.0" fill="#000000" transform="matrix(1.00, 0.00, -0.00, -1.00, 252.0, 6.7)">e</text><text xml:space="preserve" font-family="Palatino-Roman,Palatino" font-size="20.0" fill="#000000" transform="matrix(1.00, 0.00, -0.00, -1.00, 261.5, 6.7)">-</text><text xml:space="preserve" font-family="Palatino-Roman,Palatino" font-size="20.0" fill="#000000" transform="matrix(1.00, 0.00, -0.00, -1.00, 268.2, 6.7)">p</text><text xml:space="preserve" font-family="Palatino-Roman,Palatino" font-size="20.0" fill="#000000" transform="matrix(1.00, 0.00, -0.00, -1.00, 280.2, 6.7)">r</text><text xml:space="preserve" font-family="Palatino-Roman,Palatino" font-size="20.0" fill="#000000" transform="matrix(1.00, 0.00, -0.00, -1.00, 287.8, 6.7)">o</text><text xml:space="preserve" font-family="Palatino-Roman,Palatino" font-size="20.0" fill="#000000" transform="matrix(1.00, 0.00, -0.00, -1.00, 298.7, 6.7)">o</text><text xml:space="preserve" font-family="Palatino-Roman,Palatino" font-size="20.0" fill="#000000" transform="matrix(1.00, 0.00, -0.00, -1.00, 309.6, 6.7)">ﬁ</text><text xml:space="preserve" font-family="Palatino-Roman,Palatino" font-size="20.0" fill="#000000" transform="matrix(1.00, 0.00, -0.00, -1.00, 321.7, 6.7)">n</text><text xml:space="preserve" font-family="Palatino-Roman,Palatino" font-size="20.0" fill="#000000" transform="matrix(1.00, 0.00, -0.00, -1.00, 333.3, 6.7)">g</text><text xml:space="preserve" font-family="Palatino-Roman,Palatino" font-size="20.0" fill="#000000" transform="matrix(1.00, 0.00, -0.00, -1.00, 344.5, 6.7)"> </text><text xml:space="preserve" font-family="Palatino-Roman,Palatino" font-size="20.0" fill="#000000" transform="matrix(1.00, 0.00, -0.00, -1.00, 349.5, 6.7)">r</text><text xml:space="preserve" font-family="Palatino-Roman,Palatino" font-size="20.0" fill="#000000" transform="matrix(1.00, 0.00, -0.00, -1.00, 357.0, 6.7)">e</text><text xml:space="preserve" font-family="Palatino-Roman,Palatino" font-size="20.0" fill="#000000" transform="matrix(1.00, 0.00, -0.00, -1.00, 366.6, 6.7)">s</text><text xml:space="preserve" font-family="Palatino-Roman,Palatino" font-size="20.0" fill="#000000" transform="matrix(1.00, 0.00, -0.00, -1.00, 375.1, 6.7)">t</text><text xml:space="preserve" font-family="Palatino-Roman,Palatino" font-size="20.0" fill="#000000" transform="matrix(1.00, 0.00, -0.00, -1.00, 381.6, 6.7)">r</text><text xml:space="preserve" font-family="Palatino-Roman,Palatino" font-size="20.0" fill="#000000" transform="matrix(1.00, 0.00, -0.00, -1.00, 389.5, 6.7)">i</text><text xml:space="preserve" font-family="Palatino-Roman,Palatino" font-size="20.0" fill="#000000" transform="matrix(1.00, 0.00, -0.00, -1.00, 395.3, 6.7)">c</text><text xml:space="preserve" font-family="Palatino-Roman,Palatino" font-size="20.0" fill="#000000" transform="matrix(1.00, 0.00, -0.00, -1.00, 404.2, 6.7)">t</text><text xml:space="preserve" font-family="Palatino-Roman,Palatino" font-size="20.0" fill="#000000" transform="matrix(1.00, 0.00, -0.00, -1.00, 410.7, 6.7)">i</text><text xml:space="preserve" font-family="Palatino-Roman,Palatino" font-size="20.0" fill="#000000" transform="matrix(1.00, 0.00, -0.00, -1.00, 416.5, 6.7)">o</text><text xml:space="preserve" font-family="Palatino-Roman,Palatino" font-size="20.0" fill="#000000" transform="matrix(1.00, 0.00, -0.00, -1.00, 427.5, 6.7)">n</text><text xml:space="preserve" font-family="Palatino-Roman,Palatino" font-size="20.0" fill="#000000" transform="matrix(1.00, 0.00, -0.00, -1.00, 439.1, 6.7)">s</text><text xml:space="preserve" font-family="Palatino-Roman,Palatino" font-size="20.0" fill="#000000" transform="matrix(1.00, 0.00, -0.00, -1.00, 447.6, 6.7)">)</text></g></svg>