<?xml version="1.0" encoding="UTF-8" standalone="no"?><svg xmlns="http://www.w3.org/2000/svg" xmlns:xlink="http://www.w3.org/1999/xlink" clip-rule="evenodd" stroke-miterlimit="10" viewBox="0 0 94 130"><desc>SVG generated by Keynote</desc><defs></defs><g transform="matrix(1.00, 0.00, -0.00, -1.00, 0.0, 130.0)"><text xml:space="preserve" font-family="Monaco,Monaco" font-size="13.8" fill="#000000" transform="matrix(1.00, 0.00, -0.00, -1.00, 1.3, 116.6)">I</text><text xml:space="preserve" font-family="Monaco,Monaco" font-size="13.8" fill="#000000" transform="matrix(1.00, 0.00, -0.00, -1.00, 9.6, 116.6)">N</text><text xml:space="preserve" font-family="Monaco,Monaco" font-size="13.8" fill="#000000" transform="matrix(1.00, 0.00, -0.00, -1.00, 17.8, 116.6)">S</text><text xml:space="preserve" font-family="Monaco,Monaco" font-size="13.8" fill="#000000" transform="matrix(1.00, 0.00, -0.00, -1.00, 26.1, 116.6)">T</text><text xml:space="preserve" font-family="Monaco,Monaco" font-size="13.8" fill="#000000" transform="matrix(1.00, 0.00, -0.00, -1.00, 34.4, 116.6)">R</text><text xml:space="preserve" font-family="Monaco,Monaco" font-size="13.8" fill="#000000" transform="matrix(1.00, 0.00, -0.00, -1.00, 42.7, 116.6)">U</text><text xml:space="preserve" font-family="Monaco,Monaco" font-size="13.8" fill="#000000" transform="matrix(1.00, 0.00, -0.00, -1.00, 50.9, 116.6)">C</text><text xml:space="preserve" font-family="Monaco,Monaco" font-size="13.8" fill="#000000" transform="matrix(1.00, 0.00, -0.00, -1.00, 59.2, 116.6)">T</text><text xml:space="preserve" font-family="Monaco,Monaco" font-size="13.8" fill="#000000" transform="matrix(1.00, 0.00, -0.00, -1.00, 67.5, 116.6)">I</text><text xml:space="preserve" font-family="Monaco,Monaco" font-size="13.8" fill="#000000" transform="matrix(1.00, 0.00, -0.00, -1.00, 75.7, 116.6)">O</text><text xml:space="preserve" font-family="Monaco,Monaco" font-size="13.8" fill="#000000" transform="matrix(1.00, 0.00, -0.00, -1.00, 84.0, 116.6)">N</text><text xml:space="preserve" font-family="Monaco,Monaco" font-size="13.8" fill="#000000" transform="matrix(1.00, 0.00, -0.00, -1.00, 92.3, 116.6)">	</text><text xml:space="preserve" font-family="Monaco,Monaco" font-size="13.8" fill="#000000" transform="matrix(1.00, 0.00, -0.00, -1.00, 1.3, 88.0)">S</text><text xml:space="preserve" font-family="Monaco,Monaco" font-size="13.8" fill="#000000" transform="matrix(1.00, 0.00, -0.00, -1.00, 9.6, 88.0)">T</text><text xml:space="preserve" font-family="Monaco,Monaco" font-size="13.8" fill="#000000" transform="matrix(1.00, 0.00, -0.00, -1.00, 17.8, 88.0)">A</text><text xml:space="preserve" font-family="Monaco,Monaco" font-size="13.8" fill="#000000" transform="matrix(1.00, 0.00, -0.00, -1.00, 26.1, 88.0)">T</text><text xml:space="preserve" font-family="Monaco,Monaco" font-size="13.8" fill="#000000" transform="matrix(1.00, 0.00, -0.00, -1.00, 34.4, 88.0)">E</text><text xml:space="preserve" font-family="Monaco,Monaco" font-size="13.8" fill="#000000" transform="matrix(1.00, 0.00, -0.00, -1.00, 42.7, 88.0)">	</text><text xml:space="preserve" font-family="Monaco,Monaco" font-size="13.8" fill="#000000" transform="matrix(1.00, 0.00, -0.00, -1.00, 1.3, 59.4)">P</text><text xml:space="preserve" font-family="Monaco,Monaco" font-size="13.8" fill="#000000" transform="matrix(1.00, 0.00, -0.00, -1.00, 9.6, 59.4)">R</text><text xml:space="preserve" font-family="Monaco,Monaco" font-size="13.8" fill="#000000" transform="matrix(1.00, 0.00, -0.00, -1.00, 17.8, 59.4)">O</text><text xml:space="preserve" font-family="Monaco,Monaco" font-size="13.8" fill="#000000" transform="matrix(1.00, 0.00, -0.00, -1.00, 26.1, 59.4)">G</text><text xml:space="preserve" font-family="Monaco,Monaco" font-size="13.8" fill="#000000" transform="matrix(1.00, 0.00, -0.00, -1.00, 34.4, 59.4)">R</text><text xml:space="preserve" font-family="Monaco,Monaco" font-size="13.8" fill="#000000" transform="matrix(1.00, 0.00, -0.00, -1.00, 42.7, 59.4)">A</text><text xml:space="preserve" font-family="Monaco,Monaco" font-size="13.8" fill="#000000" transform="matrix(1.00, 0.00, -0.00, -1.00, 50.9, 59.4)">M</text><text xml:space="preserve" font-family="Monaco,Monaco" font-size="13.8" fill="#000000" transform="matrix(1.00, 0.00, -0.00, -1.00, 59.2, 59.4)">	</text><text xml:space="preserve" font-family="Monaco,Monaco" font-size="13.8" fill="#000000" transform="matrix(1.00, 0.00, -0.00, -1.00, 1.3, 30.8)">L</text><text xml:space="preserve" font-family="Monaco,Monaco" font-size="13.8" fill="#000000" transform="matrix(1.00, 0.00, -0.00, -1.00, 9.6, 30.8)">O</text><text xml:space="preserve" font-family="Monaco,Monaco" font-size="13.8" fill="#000000" transform="matrix(1.00, 0.00, -0.00, -1.00, 17.8, 30.8)">O</text><text xml:space="preserve" font-family="Monaco,Monaco" font-size="13.8" fill="#000000" transform="matrix(1.00, 0.00, -0.00, -1.00, 26.1, 30.8)">P</text><text xml:space="preserve" font-family="Monaco,Monaco" font-size="13.8" fill="#000000" transform="matrix(1.00, 0.00, -0.00, -1.00, 34.4, 30.8)"> </text><text xml:space="preserve" font-family="Monaco,Monaco" font-size="13.8" fill="#000000" transform="matrix(1.00, 0.00, -0.00, -1.00, 42.7, 30.8)">S</text><text xml:space="preserve" font-family="Monaco,Monaco" font-size="13.8" fill="#000000" transform="matrix(1.00, 0.00, -0.00, -1.00, 50.9, 30.8)">T</text><text xml:space="preserve" font-family="Monaco,Monaco" font-size="13.8" fill="#000000" transform="matrix(1.00, 0.00, -0.00, -1.00, 59.2, 30.8)">A</text><text xml:space="preserve" font-family="Monaco,Monaco" font-size="13.8" fill="#000000" transform="matrix(1.00, 0.00, -0.00, -1.00, 67.5, 30.8)">C</text><text xml:space="preserve" font-family="Monaco,Monaco" font-size="13.8" fill="#000000" transform="matrix(1.00, 0.00, -0.00, -1.00, 75.7, 30.8)">K</text><text xml:space="preserve" font-family="Monaco,Monaco" font-size="13.8" fill="#000000" transform="matrix(1.00, 0.00, -0.00, -1.00, 84.0, 30.8)">	</text><text xml:space="preserve" font-family="Monaco,Monaco" font-size="13.8" fill="#000000" transform="matrix(1.00, 0.00, -0.00, -1.00, 1.3, 2.2)">T</text><text xml:space="preserve" font-family="Monaco,Monaco" font-size="13.8" fill="#000000" transform="matrix(1.00, 0.00, -0.00, -1.00, 9.6, 2.2)">A</text><text xml:space="preserve" font-family="Monaco,Monaco" font-size="13.8" fill="#000000" transform="matrix(1.00, 0.00, -0.00, -1.00, 17.8, 2.2)">I</text><text xml:space="preserve" font-family="Monaco,Monaco" font-size="13.8" fill="#000000" transform="matrix(1.00, 0.00, -0.00, -1.00, 26.1, 2.2)">L</text><text xml:space="preserve" font-family="Monaco,Monaco" font-size="13.8" fill="#000000" transform="matrix(1.00, 0.00, -0.00, -1.00, 34.4, 2.2)"> </text><text xml:space="preserve" font-family="Monaco,Monaco" font-size="13.8" fill="#000000" transform="matrix(1.00, 0.00, -0.00, -1.00, 42.7, 2.2)">S</text><text xml:space="preserve" font-family="Monaco,Monaco" font-size="13.8" fill="#000000" transform="matrix(1.00, 0.00, -0.00, -1.00, 50.9, 2.2)">T</text><text xml:space="preserve" font-family="Monaco,Monaco" font-size="13.8" fill="#000000" transform="matrix(1.00, 0.00, -0.00, -1.00, 59.2, 2.2)">A</text><text xml:space="preserve" font-family="Monaco,Monaco" font-size="13.8" fill="#000000" transform="matrix(1.00, 0.00, -0.00, -1.00, 67.5, 2.2)">C</text><text xml:space="preserve" font-family="Monaco,Monaco" font-size="13.8" fill="#000000" transform="matrix(1.00, 0.00, -0.00, -1.00, 75.7, 2.2)">K</text></g></svg>