<?xml version="1.0" encoding="UTF-8" standalone="no"?><svg xmlns="http://www.w3.org/2000/svg" xmlns:xlink="http://www.w3.org/1999/xlink" clip-rule="evenodd" stroke-miterlimit="10" viewBox="0 0 189 27"><desc>SVG generated by Keynote</desc><defs></defs><g transform="matrix(1.00, 0.00, -0.00, -1.00, 0.0, 27.0)"><path d="M 2.4 8.0 L 2.0 19.0 C 2.0 22.2 4.9 25.0 8.1 25.0 L 180.9 25.0 C 184.1 25.0 187.0 22.2 187.0 19.0 L 187.0 8.0 C 187.0 4.8 184.1 2.0 180.9 2.0 L 8.1 2.0 C 4.9 2.0 2.4 4.8 2.4 8.0 Z M 2.4 8.0 " fill="#929000" fill-opacity="0.50"></path><path d="M 0.0 16.8 L -0.4 5.8 C -0.4 2.6 2.6 -0.2 5.8 -0.2 L 178.6 -0.2 C 181.7 -0.2 184.6 2.6 184.6 5.8 L 184.6 16.8 C 184.6 20.0 181.7 22.8 178.6 22.8 L 5.8 22.8 C 2.6 22.8 0.0 20.0 0.0 16.8 Z M 0.0 16.8 " fill="none" stroke="#929000" stroke-width="2.00" transform="matrix(1.00, 0.00, 0.00, -1.00, 2.4, 24.8)"></path></g></svg>