<?xml version="1.0" encoding="UTF-8" standalone="no"?><svg xmlns="http://www.w3.org/2000/svg" xmlns:xlink="http://www.w3.org/1999/xlink" clip-rule="evenodd" stroke-miterlimit="10" viewBox="0 0 142 28"><desc>SVG generated by Keynote</desc><defs></defs><g transform="matrix(1.00, 0.00, -0.00, -1.00, 0.0, 28.0)"><path d="M 2.2 6.8 L 2.0 20.5 C 2.0 23.1 4.3 25.0 7.0 25.0 L 135.0 25.0 C 137.6 25.0 140.0 23.1 140.0 20.5 L 140.0 6.8 C 140.0 4.2 137.6 2.0 135.0 2.0 L 7.0 2.0 C 4.3 2.0 2.2 4.2 2.2 6.8 Z M 2.2 6.8 " fill="#000000" fill-opacity="0.25"></path><path d="M 0.0 18.4 L -0.2 4.8 C -0.2 2.1 2.1 0.2 4.8 0.2 L 132.8 0.2 C 135.4 0.2 137.8 2.1 137.8 4.8 L 137.8 18.4 C 137.8 21.1 135.4 23.2 132.8 23.2 L 4.8 23.2 C 2.1 23.2 0.0 21.1 0.0 18.4 Z M 0.0 18.4 " fill="none" stroke="#000000" stroke-opacity="0.50" stroke-width="2.00" transform="matrix(1.00, 0.00, 0.00, -1.00, 2.2, 25.2)"></path></g></svg>