<?xml version="1.0" encoding="UTF-8" standalone="no"?><svg xmlns="http://www.w3.org/2000/svg" xmlns:xlink="http://www.w3.org/1999/xlink" clip-rule="evenodd" stroke-miterlimit="10" viewBox="0 0 246 27"><desc>SVG generated by Keynote</desc><defs></defs><g transform="matrix(1.00, 0.00, -0.00, -1.00, 0.0, 27.0)"><path d="M 2.6 8.0 L 3.0 18.9 C 3.0 22.1 5.2 25.0 8.4 25.0 L 237.4 25.0 C 240.6 25.0 243.0 22.1 243.0 18.9 L 243.0 8.0 C 243.0 4.8 240.6 2.0 237.4 2.0 L 8.4 2.0 C 5.2 2.0 2.6 4.8 2.6 8.0 Z M 2.6 8.0 " fill="#008F51" fill-opacity="0.50"></path><path d="M 0.0 16.7 L 0.4 5.8 C 0.4 2.6 2.6 -0.3 5.8 -0.3 L 234.8 -0.3 C 238.1 -0.3 240.4 2.6 240.4 5.8 L 240.4 16.7 C 240.4 20.0 238.1 22.7 234.8 22.7 L 5.8 22.7 C 2.6 22.7 0.0 20.0 0.0 16.7 Z M 0.0 16.7 " fill="none" stroke="#008E00" stroke-width="2.00" transform="matrix(1.00, 0.00, 0.00, -1.00, 2.6, 24.7)"></path></g></svg>