<?xml version="1.0" encoding="UTF-8" standalone="no"?><svg xmlns="http://www.w3.org/2000/svg" xmlns:xlink="http://www.w3.org/1999/xlink" clip-rule="evenodd" stroke-miterlimit="10" viewBox="0 0 151 28"><desc>SVG generated by Keynote</desc><defs></defs><g transform="matrix(1.00, 0.00, -0.00, -1.00, 0.0, 28.0)"><path d="M 2.7 8.3 L 3.0 19.2 C 3.0 22.4 5.3 25.0 8.6 25.0 L 142.9 25.0 C 146.1 25.0 149.0 22.4 149.0 19.2 L 149.0 8.3 C 149.0 5.1 146.1 2.0 142.9 2.0 L 8.6 2.0 C 5.3 2.0 2.7 5.1 2.7 8.3 Z M 2.7 8.3 " fill="#7995B9" fill-opacity="0.50"></path><path d="M 0.0 16.7 L 0.3 5.8 C 0.3 2.6 2.6 0.0 5.8 0.0 L 140.1 0.0 C 143.4 0.0 146.3 2.6 146.3 5.8 L 146.3 16.7 C 146.3 20.0 143.4 23.0 140.1 23.0 L 5.8 23.0 C 2.6 23.0 0.0 20.0 0.0 16.7 Z M 0.0 16.7 " fill="none" stroke="#4C76A3" stroke-width="2.00" transform="matrix(1.00, 0.00, 0.00, -1.00, 2.7, 25.0)"></path></g></svg>