<?xml version="1.0" encoding="UTF-8" standalone="no"?><svg xmlns="http://www.w3.org/2000/svg" xmlns:xlink="http://www.w3.org/1999/xlink" clip-rule="evenodd" stroke-miterlimit="10" viewBox="0 0 81 28"><desc>SVG generated by Keynote</desc><defs></defs><g transform="matrix(1.00, 0.00, -0.00, -1.00, 0.0, 28.0)"><path d="M 2.7 8.5 L 3.0 19.4 C 3.0 22.6 5.3 25.0 8.6 25.0 L 72.7 25.0 C 76.0 25.0 79.0 22.6 79.0 19.4 L 79.0 8.5 C 79.0 5.3 76.0 3.0 72.7 3.0 L 8.6 3.0 C 5.3 3.0 2.7 5.3 2.7 8.5 Z M 2.7 8.5 " fill="#7995B9" fill-opacity="0.50"></path><path d="M 0.0 16.7 L 0.3 5.8 C 0.3 2.6 2.6 0.2 5.8 0.2 L 70.0 0.2 C 73.2 0.2 76.3 2.6 76.3 5.8 L 76.3 16.7 C 76.3 20.0 73.2 22.2 70.0 22.2 L 5.8 22.2 C 2.6 22.2 0.0 20.0 0.0 16.7 Z M 0.0 16.7 " fill="none" stroke="#4C76A3" stroke-width="2.00" transform="matrix(1.00, 0.00, 0.00, -1.00, 2.7, 25.2)"></path></g></svg>