<?xml version="1.0" encoding="UTF-8" standalone="no"?><svg xmlns="http://www.w3.org/2000/svg" xmlns:xlink="http://www.w3.org/1999/xlink" clip-rule="evenodd" stroke-miterlimit="10" viewBox="0 0 56 27"><desc>SVG generated by Keynote</desc><defs></defs><g transform="matrix(1.00, 0.00, -0.00, -1.00, 0.0, 27.0)"><path d="M 2.1 8.0 L 2.0 18.9 C 2.0 22.1 4.7 25.0 8.0 25.0 L 48.0 25.0 C 51.2 25.0 54.0 22.1 54.0 18.9 L 54.0 8.0 C 54.0 4.8 51.2 2.0 48.0 2.0 L 8.0 2.0 C 4.7 2.0 2.1 4.8 2.1 8.0 Z M 2.1 8.0 " fill="#7995B9" fill-opacity="0.50"></path><path d="M 0.0 16.7 L -0.1 5.8 C -0.1 2.6 2.6 -0.3 5.8 -0.3 L 45.8 -0.3 C 49.0 -0.3 51.9 2.6 51.9 5.8 L 51.9 16.7 C 51.9 20.0 49.0 22.7 45.8 22.7 L 5.8 22.7 C 2.6 22.7 0.0 20.0 0.0 16.7 Z M 0.0 16.7 " fill="none" stroke="#4C76A3" stroke-width="2.00" transform="matrix(1.00, 0.00, 0.00, -1.00, 2.1, 24.7)"></path></g></svg>