<?xml version="1.0" encoding="UTF-8" standalone="no"?><svg xmlns="http://www.w3.org/2000/svg" xmlns:xlink="http://www.w3.org/1999/xlink" clip-rule="evenodd" stroke-miterlimit="10" viewBox="0 0 96 28"><desc>SVG generated by Keynote</desc><defs></defs><g transform="matrix(1.00, 0.00, -0.00, -1.00, 0.0, 28.0)"><path d="M 3.0 8.7 L 3.0 19.7 C 3.0 22.9 5.5 25.0 8.7 25.0 L 87.5 25.0 C 90.7 25.0 93.0 22.9 93.0 19.7 L 93.0 8.7 C 93.0 5.5 90.7 3.0 87.5 3.0 L 8.7 3.0 C 5.5 3.0 3.0 5.5 3.0 8.7 Z M 3.0 8.7 " fill="#929000" fill-opacity="0.50"></path><path d="M 0.0 16.8 L 0.0 5.8 C 0.0 2.6 2.6 0.5 5.8 0.5 L 84.5 0.5 C 87.7 0.5 90.0 2.6 90.0 5.8 L 90.0 16.8 C 90.0 20.0 87.7 22.5 84.5 22.5 L 5.8 22.5 C 2.6 22.5 0.0 20.0 0.0 16.8 Z M 0.0 16.8 " fill="none" stroke="#929000" stroke-width="2.00" transform="matrix(1.00, 0.00, 0.00, -1.00, 3.0, 25.5)"></path></g></svg>