<?xml version="1.0" encoding="UTF-8" standalone="no"?><svg xmlns="http://www.w3.org/2000/svg" xmlns:xlink="http://www.w3.org/1999/xlink" clip-rule="evenodd" stroke-miterlimit="10" viewBox="0 0 25 28"><desc>SVG generated by Keynote</desc><defs></defs><g transform="matrix(1.00, 0.00, -0.00, -1.00, 0.0, 28.0)"><path d="M 2.8 7.2 L 3.0 21.3 C 3.0 23.7 4.7 26.0 7.0 26.0 L 18.2 26.0 C 20.5 26.0 22.0 23.7 22.0 21.3 L 22.0 7.2 C 22.0 4.9 20.5 3.0 18.2 3.0 L 7.0 3.0 C 4.7 3.0 2.8 4.9 2.8 7.2 Z M 2.8 7.2 " fill="#941100" fill-opacity="0.50"></path><path d="M 0.0 18.3 L 0.2 4.2 C 0.2 1.9 1.9 -0.4 4.2 -0.4 L 15.4 -0.4 C 17.7 -0.4 19.2 1.9 19.2 4.2 L 19.2 18.3 C 19.2 20.7 17.7 22.6 15.4 22.6 L 4.2 22.6 C 1.9 22.6 0.0 20.7 0.0 18.3 Z M 0.0 18.3 " fill="none" stroke="#941100" stroke-width="2.00" transform="matrix(1.00, 0.00, 0.00, -1.00, 2.8, 25.6)"></path></g></svg>