<?xml version="1.0" encoding="UTF-8" standalone="no"?><svg xmlns="http://www.w3.org/2000/svg" xmlns:xlink="http://www.w3.org/1999/xlink" clip-rule="evenodd" stroke-miterlimit="10" viewBox="0 0 189 28"><desc>SVG generated by Keynote</desc><defs></defs><g transform="matrix(1.00, 0.00, -0.00, -1.00, 0.0, 28.0)"><path d="M 2.6 6.8 L 3.0 20.5 C 3.0 23.1 4.8 25.0 7.4 25.0 L 181.5 25.0 C 184.1 25.0 186.0 23.1 186.0 20.5 L 186.0 6.8 C 186.0 4.2 184.1 2.0 181.5 2.0 L 7.4 2.0 C 4.8 2.0 2.6 4.2 2.6 6.8 Z M 2.6 6.8 " fill="#000000" fill-opacity="0.25"></path><path d="M 0.0 18.4 L 0.4 4.8 C 0.4 2.1 2.1 0.2 4.8 0.2 L 178.8 0.2 C 181.5 0.2 183.3 2.1 183.3 4.8 L 183.3 18.4 C 183.3 21.1 181.5 23.2 178.8 23.2 L 4.8 23.2 C 2.1 23.2 0.0 21.1 0.0 18.4 Z M 0.0 18.4 " fill="none" stroke="#000000" stroke-opacity="0.50" stroke-width="2.00" transform="matrix(1.00, 0.00, 0.00, -1.00, 2.6, 25.2)"></path></g></svg>