<?xml version="1.0" encoding="UTF-8" standalone="no"?><svg xmlns="http://www.w3.org/2000/svg" xmlns:xlink="http://www.w3.org/1999/xlink" clip-rule="evenodd" stroke-miterlimit="10" viewBox="0 0 165 27"><desc>SVG generated by Keynote</desc><defs></defs><g transform="matrix(1.00, 0.00, -0.00, -1.00, 0.0, 27.0)"><path d="M 2.2 8.1 L 2.0 19.2 C 2.0 22.3 4.8 25.0 7.9 25.0 L 157.2 25.0 C 160.4 25.0 163.0 22.3 163.0 19.2 L 163.0 8.1 C 163.0 4.9 160.4 2.0 157.2 2.0 L 7.9 2.0 C 4.8 2.0 2.2 4.9 2.2 8.1 Z M 2.2 8.1 " fill="#929000" fill-opacity="0.50"></path><path d="M 0.0 16.8 L -0.2 5.8 C -0.2 2.6 2.6 -0.1 5.8 -0.1 L 155.0 -0.1 C 158.2 -0.1 160.8 2.6 160.8 5.8 L 160.8 16.8 C 160.8 20.0 158.2 22.9 155.0 22.9 L 5.8 22.9 C 2.6 22.9 0.0 20.0 0.0 16.8 Z M 0.0 16.8 " fill="none" stroke="#929000" stroke-width="2.00" transform="matrix(1.00, 0.00, 0.00, -1.00, 2.2, 24.9)"></path></g></svg>