<?xml version="1.0" encoding="UTF-8" standalone="no"?><svg xmlns="http://www.w3.org/2000/svg" xmlns:xlink="http://www.w3.org/1999/xlink" clip-rule="evenodd" stroke-miterlimit="10" viewBox="0 0 95 27"><desc>SVG generated by Keynote</desc><defs></defs><g transform="matrix(1.00, 0.00, -0.00, -1.00, 0.0, 27.0)"><path d="M 2.4 8.1 L 2.0 19.2 C 2.0 22.4 4.9 25.0 8.1 25.0 L 86.4 25.0 C 89.6 25.0 92.0 22.4 92.0 19.2 L 92.0 8.1 C 92.0 4.9 89.6 2.0 86.4 2.0 L 8.1 2.0 C 4.9 2.0 2.4 4.9 2.4 8.1 Z M 2.4 8.1 " fill="#929000" fill-opacity="0.50"></path><path d="M 0.0 16.8 L -0.4 5.8 C -0.4 2.6 2.6 -0.1 5.8 -0.1 L 84.1 -0.1 C 87.2 -0.1 89.6 2.6 89.6 5.8 L 89.6 16.8 C 89.6 20.0 87.2 22.9 84.1 22.9 L 5.8 22.9 C 2.6 22.9 0.0 20.0 0.0 16.8 Z M 0.0 16.8 " fill="none" stroke="#929000" stroke-width="2.00" transform="matrix(1.00, 0.00, 0.00, -1.00, 2.4, 24.9)"></path></g></svg>