<?xml version="1.0" encoding="UTF-8" standalone="no"?><svg xmlns="http://www.w3.org/2000/svg" xmlns:xlink="http://www.w3.org/1999/xlink" clip-rule="evenodd" stroke-miterlimit="10" viewBox="0 0 24 28"><desc>SVG generated by Keynote</desc><defs></defs><g transform="matrix(1.00, 0.00, -0.00, -1.00, 0.0, 28.0)"><path d="M 2.1 7.1 L 2.0 21.2 C 2.0 23.5 4.0 25.0 6.3 25.0 L 17.5 25.0 C 19.8 25.0 22.0 23.5 22.0 21.2 L 22.0 7.1 C 22.0 4.7 19.8 3.0 17.5 3.0 L 6.3 3.0 C 4.0 3.0 2.1 4.7 2.1 7.1 Z M 2.1 7.1 " fill="#941100" fill-opacity="0.50"></path><path d="M 0.0 18.3 L -0.1 4.2 C -0.1 1.9 1.9 0.4 4.2 0.4 L 15.4 0.4 C 17.7 0.4 19.9 1.9 19.9 4.2 L 19.9 18.3 C 19.9 20.7 17.7 22.4 15.4 22.4 L 4.2 22.4 C 1.9 22.4 0.0 20.7 0.0 18.3 Z M 0.0 18.3 " fill="none" stroke="#941100" stroke-width="2.00" transform="matrix(1.00, 0.00, 0.00, -1.00, 2.1, 25.4)"></path></g></svg>