<?xml version="1.0" encoding="UTF-8" standalone="no"?><svg xmlns="http://www.w3.org/2000/svg" xmlns:xlink="http://www.w3.org/1999/xlink" clip-rule="evenodd" stroke-miterlimit="10" viewBox="0 0 318 28"><desc>SVG generated by Keynote</desc><defs></defs><g transform="matrix(1.00, 0.00, -0.00, -1.00, 0.0, 28.0)"><path d="M 2.9 8.6 L 3.0 20.0 C 3.0 23.2 5.5 26.0 8.7 26.0 L 309.2 26.0 C 312.4 26.0 315.0 23.2 315.0 20.0 L 315.0 8.6 C 315.0 5.4 312.4 3.0 309.2 3.0 L 8.7 3.0 C 5.5 3.0 2.9 5.4 2.9 8.6 Z M 2.9 8.6 " fill="#7995B9" fill-opacity="0.50"></path><path d="M 0.0 17.2 L 0.1 5.8 C 0.1 2.6 2.6 -0.2 5.8 -0.2 L 306.3 -0.2 C 309.5 -0.2 312.1 2.6 312.1 5.8 L 312.1 17.2 C 312.1 20.5 309.5 22.8 306.3 22.8 L 5.8 22.8 C 2.6 22.8 0.0 20.5 0.0 17.2 Z M 0.0 17.2 " fill="none" stroke="#4C76A3" stroke-width="2.00" transform="matrix(1.00, 0.00, 0.00, -1.00, 2.9, 25.8)"></path></g></svg>