<?xml version="1.0" encoding="UTF-8" standalone="no"?><svg xmlns="http://www.w3.org/2000/svg" xmlns:xlink="http://www.w3.org/1999/xlink" clip-rule="evenodd" stroke-miterlimit="10" viewBox="0 0 94 27"><desc>SVG generated by Keynote</desc><defs></defs><g transform="matrix(1.00, 0.00, -0.00, -1.00, 0.0, 27.0)"><path d="M 2.1 7.9 L 2.0 19.0 C 2.0 22.2 4.7 25.0 7.8 25.0 L 85.5 25.0 C 88.7 25.0 91.0 22.2 91.0 19.0 L 91.0 7.9 C 91.0 4.8 88.7 2.0 85.5 2.0 L 7.8 2.0 C 4.7 2.0 2.1 4.8 2.1 7.9 Z M 2.1 7.9 " fill="#929000" fill-opacity="0.50"></path><path d="M 0.0 16.8 L -0.1 5.8 C -0.1 2.6 2.6 -0.3 5.8 -0.3 L 83.4 -0.3 C 86.6 -0.3 88.9 2.6 88.9 5.8 L 88.9 16.8 C 88.9 20.0 86.6 22.7 83.4 22.7 L 5.8 22.7 C 2.6 22.7 0.0 20.0 0.0 16.8 Z M 0.0 16.8 " fill="none" stroke="#929000" stroke-width="2.00" transform="matrix(1.00, 0.00, 0.00, -1.00, 2.1, 24.7)"></path></g></svg>