<?xml version="1.0" encoding="UTF-8" standalone="no"?><svg xmlns="http://www.w3.org/2000/svg" xmlns:xlink="http://www.w3.org/1999/xlink" clip-rule="evenodd" stroke-miterlimit="10" viewBox="0 0 106 28"><desc>SVG generated by Keynote</desc><defs></defs><g transform="matrix(1.00, 0.00, -0.00, -1.00, 0.0, 28.0)"><path d="M 2.6 8.2 L 3.0 19.6 C 3.0 22.8 5.2 25.0 8.4 25.0 L 97.3 25.0 C 100.5 25.0 103.0 22.8 103.0 19.6 L 103.0 8.2 C 103.0 5.0 100.5 2.0 97.3 2.0 L 8.4 2.0 C 5.2 2.0 2.6 5.0 2.6 8.2 Z M 2.6 8.2 " fill="#7995B9" fill-opacity="0.50"></path><path d="M 0.0 17.2 L 0.4 5.8 C 0.4 2.6 2.6 0.5 5.8 0.5 L 94.7 0.5 C 97.9 0.5 100.4 2.6 100.4 5.8 L 100.4 17.2 C 100.4 20.5 97.9 23.5 94.7 23.5 L 5.8 23.5 C 2.6 23.5 0.0 20.5 0.0 17.2 Z M 0.0 17.2 " fill="none" stroke="#4C76A3" stroke-width="2.00" transform="matrix(1.00, 0.00, 0.00, -1.00, 2.6, 25.5)"></path></g></svg>