<?xml version="1.0" encoding="UTF-8" standalone="no"?><svg xmlns="http://www.w3.org/2000/svg" xmlns:xlink="http://www.w3.org/1999/xlink" clip-rule="evenodd" stroke-miterlimit="10" viewBox="0 0 64 64"><desc>SVG generated by Keynote</desc><defs></defs><g transform="matrix(1.00, 0.00, -0.00, -1.00, 0.0, 64.0)"><path d="M 5.8 59.4 C 5.5 59.5 5.3 59.0 4.8 58.9 C 4.2 58.7 3.6 58.7 3.7 59.0 C 3.8 59.3 4.0 59.5 3.7 59.9 C 3.4 60.3 3.1 61.0 3.5 61.3 C 3.9 61.6 5.5 62.3 6.0 61.9 C 6.5 61.5 6.7 61.4 7.0 61.1 C 7.4 60.9 7.2 61.7 7.2 61.7 C 7.2 61.7 8.1 61.8 8.7 61.9 C 9.4 61.9 10.1 61.9 10.2 61.8 C 10.2 61.7 10.4 61.4 10.4 61.4 C 10.4 61.4 10.8 61.8 11.3 61.8 C 11.8 61.9 11.6 61.7 11.5 61.5 C 11.4 61.3 10.8 60.8 11.0 60.8 C 11.2 60.8 11.9 61.6 12.3 61.7 C 12.6 61.8 13.3 61.7 13.3 61.7 C 13.3 61.7 13.2 61.3 13.2 61.1 C 13.3 61.0 14.0 61.0 14.1 61.1 C 14.2 61.3 14.2 61.8 14.6 61.8 C 15.8 61.9 15.4 61.0 15.5 61.0 C 15.6 61.0 15.7 61.6 16.0 61.8 C 16.3 61.9 18.6 61.8 18.7 61.6 C 18.8 61.4 19.7 62.0 19.9 61.6 C 20.2 61.2 20.2 61.1 20.2 61.0 C 20.3 60.9 20.5 60.2 20.8 60.4 C 21.1 60.7 20.4 61.5 20.8 61.7 C 21.1 61.9 22.5 61.9 22.7 61.7 C 23.0 61.4 22.8 60.8 23.0 60.8 C 23.2 60.8 24.3 61.6 24.4 61.5 C 24.4 61.4 24.2 60.6 24.2 60.5 C 24.1 60.4 23.9 59.1 23.7 59.0 C 23.5 58.8 22.5 58.3 22.7 58.7 C 23.0 59.0 23.3 59.5 23.1 59.6 C 22.8 59.8 22.7 59.8 22.6 59.7 C 22.5 59.6 22.6 59.4 22.0 59.2 C 21.4 58.9 21.6 58.6 21.2 58.7 C 20.7 58.7 20.3 58.8 20.5 59.1 C 20.6 59.3 20.2 59.7 19.9 59.7 C 19.5 59.7 19.9 59.1 18.8 58.8 C 17.7 58.6 17.1 58.5 16.9 58.8 C 16.6 59.0 16.7 59.7 16.2 59.4 C 15.6 59.1 15.8 58.9 15.2 58.9 C 14.5 58.9 14.4 59.5 14.0 59.5 C 13.5 59.6 13.4 59.5 13.4 59.5 C 13.4 59.5 13.5 58.7 12.5 58.7 C 11.6 58.6 11.4 58.5 11.7 59.1 C 12.0 59.8 11.2 59.8 11.2 59.4 C 11.1 59.0 10.5 58.7 10.1 58.7 C 9.8 58.6 9.8 59.6 9.7 59.7 C 9.6 59.7 9.2 59.6 9.3 59.3 C 9.4 59.0 9.0 58.9 8.7 58.8 C 8.4 58.7 7.6 58.8 7.6 58.9 C 7.6 59.1 8.1 59.8 7.5 59.5 C 6.9 59.1 6.7 58.6 6.1 58.6 C 5.6 58.7 6.1 59.3 5.8 59.4 C 5.8 59.4 5.8 59.4 5.8 59.4 Z M 23.9 58.6 C 23.0 58.7 24.6 61.3 25.2 61.9 C 25.8 62.4 26.4 62.1 27.1 62.1 C 27.9 62.2 27.3 61.4 27.6 61.2 C 27.9 60.9 28.0 61.5 28.3 61.9 C 28.7 62.2 29.6 61.9 30.3 61.9 C 31.0 62.0 31.2 61.1 31.7 61.0 C 32.2 61.0 31.0 60.6 32.0 60.6 C 32.9 60.7 32.7 61.2 31.8 61.4 C 30.8 61.7 32.5 62.0 33.1 62.1 C 33.7 62.1 34.5 61.8 35.0 61.8 C 35.5 61.9 34.6 61.2 35.3 61.2 C 35.9 61.2 36.0 61.9 36.7 62.0 C 37.5 62.1 37.0 61.5 37.3 61.3 C 37.5 61.2 37.7 61.6 38.0 61.6 C 38.3 61.7 38.9 61.9 39.5 61.7 C 40.0 61.6 39.7 61.4 40.0 61.3 C 40.3 61.3 40.8 61.3 40.8 61.3 C 41.0 61.5 41.2 61.7 41.3 62.0 C 41.3 62.0 42.6 62.0 42.9 62.1 C 43.3 62.1 43.9 61.8 43.6 61.7 C 43.3 61.5 43.8 61.1 44.0 61.2 C 44.3 61.3 45.1 61.6 45.6 61.8 C 46.1 61.9 44.8 60.2 44.6 59.9 C 44.4 59.7 44.0 58.8 43.6 58.7 C 43.1 58.6 43.1 58.9 43.0 58.7 C 42.9 58.4 42.0 58.7 41.8 58.7 C 41.5 58.7 41.6 59.3 41.6 59.3 C 41.6 59.3 41.7 59.8 41.2 59.8 C 40.8 59.8 39.9 58.8 39.9 58.8 C 39.9 58.8 39.2 58.6 38.7 58.6 C 38.2 58.7 38.1 59.6 38.1 59.8 C 38.1 59.9 37.6 59.1 37.2 59.0 C 36.7 58.9 36.0 58.7 35.9 58.7 C 35.7 58.8 35.8 59.3 35.8 59.3 C 35.8 59.3 35.2 59.7 35.1 59.7 C 34.9 59.7 34.7 58.9 34.7 58.9 C 34.7 58.9 33.1 58.6 32.7 58.6 C 32.4 58.5 32.0 58.7 31.8 58.8 C 31.6 58.8 31.8 59.8 31.4 59.7 C 31.0 59.6 31.4 59.1 31.0 59.0 C 30.7 58.9 30.0 58.7 29.8 58.7 C 29.6 58.7 29.6 59.0 29.3 59.1 C 29.0 59.1 29.0 59.9 28.5 59.9 C 28.1 59.9 27.7 59.4 27.5 59.3 C 27.2 59.2 26.9 58.6 26.5 58.5 C 26.1 58.5 26.6 59.0 26.2 59.0 C 25.9 59.0 26.1 59.5 25.7 59.4 C 25.3 59.3 25.2 58.5 24.9 58.6 C 24.8 58.6 24.9 58.6 23.9 58.6 C 23.9 58.6 23.9 58.6 23.9 58.6 Z M 44.4 58.8 C 43.7 58.4 43.6 58.9 43.9 59.2 C 44.3 59.6 45.2 60.6 45.2 60.8 C 45.2 61.1 45.1 61.8 46.1 62.0 C 47.1 62.1 47.1 61.8 46.9 61.6 C 46.7 61.4 46.1 60.3 46.4 60.4 C 46.7 60.5 47.2 60.8 47.4 60.9 C 47.5 61.1 48.6 62.1 48.9 61.9 C 49.3 61.8 49.4 61.5 49.4 61.5 C 49.6 61.5 49.8 61.5 50.1 61.4 C 50.1 61.4 51.1 62.0 51.5 61.9 C 51.9 61.8 52.4 61.8 52.8 61.8 C 53.2 61.9 53.5 61.8 53.3 61.5 C 53.2 61.3 52.9 60.5 52.9 60.5 C 52.9 60.5 53.2 60.2 53.6 60.4 C 54.0 60.5 54.4 61.0 54.5 61.2 C 54.6 61.4 55.1 61.8 55.5 61.9 C 56.0 62.0 58.0 62.5 57.9 62.2 C 57.9 61.9 57.5 61.5 57.6 61.4 C 57.7 61.4 58.7 61.3 59.0 61.5 C 59.3 61.8 59.7 62.3 60.0 62.2 C 60.2 62.2 61.0 62.3 60.8 62.2 C 60.7 62.1 60.7 61.9 60.5 61.6 C 60.2 61.4 60.6 61.1 60.6 61.0 C 60.6 60.9 60.6 60.9 60.7 60.9 C 60.6 60.7 60.6 60.4 60.6 60.4 C 60.8 60.4 60.9 60.4 61.1 60.3 C 61.1 60.3 61.6 61.2 61.7 61.4 C 61.8 61.7 62.1 61.7 62.2 61.6 C 62.2 61.4 62.1 60.2 62.1 60.2 C 61.7 59.8 61.3 59.4 61.0 59.0 C 60.9 58.7 60.8 58.3 60.7 58.0 C 60.7 58.0 62.1 59.3 62.1 58.8 C 62.1 58.2 62.1 57.5 62.1 57.5 C 62.1 57.5 61.6 56.5 61.5 56.4 C 61.5 56.2 60.3 55.1 60.3 55.1 C 59.8 54.8 59.3 54.5 58.9 54.1 C 58.9 54.1 58.4 54.3 58.6 54.8 C 58.8 55.3 59.3 55.5 59.5 55.7 C 59.7 56.0 60.0 56.7 60.0 56.7 C 59.7 56.7 59.5 56.7 59.2 56.7 C 59.2 56.7 59.0 56.7 58.7 56.7 C 58.5 56.7 58.4 57.3 58.5 57.6 C 58.5 58.0 58.9 58.5 59.1 59.0 C 59.2 59.3 59.4 59.5 59.5 59.7 C 59.5 59.7 59.4 59.7 59.1 59.6 C 58.5 59.3 57.9 58.9 57.8 58.9 C 57.6 58.9 57.3 59.4 57.3 59.4 C 57.2 59.5 57.1 59.6 57.0 59.7 C 57.0 59.7 56.7 59.9 56.3 59.6 C 56.0 59.4 55.2 59.7 55.2 59.7 C 55.2 59.7 54.5 58.9 54.1 58.7 C 53.7 58.6 53.1 58.4 52.8 58.5 C 52.4 58.7 52.8 59.5 52.8 59.5 C 52.5 59.3 52.1 59.1 51.8 58.8 C 51.3 58.8 50.9 58.7 50.4 58.7 C 50.4 58.7 49.5 58.7 49.6 58.9 C 49.7 59.0 50.4 59.7 50.5 59.9 C 50.6 60.1 50.3 60.3 50.0 60.1 C 49.8 59.8 48.8 59.2 48.8 59.2 C 48.8 59.2 48.1 58.8 47.7 58.7 C 47.4 58.7 47.2 58.9 47.1 59.0 C 47.1 59.2 47.1 59.7 47.1 59.7 C 46.8 59.5 46.5 59.3 46.2 59.0 C 46.2 59.0 45.7 59.4 44.4 58.8 C 44.4 58.8 44.4 58.8 44.4 58.8 Z M 58.5 53.4 C 58.5 54.4 61.1 55.9 61.7 55.9 C 62.2 55.9 61.9 54.9 62.0 54.3 C 62.1 53.6 61.2 53.2 61.0 52.6 C 60.8 52.1 61.3 52.6 61.7 52.7 C 62.1 52.8 61.7 51.4 61.8 50.8 C 61.8 50.1 60.9 48.9 60.9 48.4 C 60.8 47.8 60.4 48.5 60.5 47.7 C 60.5 46.8 61.0 47.5 61.3 48.7 C 61.5 50.0 61.8 48.6 61.9 48.0 C 62.0 47.4 61.6 46.2 61.6 45.8 C 61.7 45.3 61.0 45.6 61.0 44.9 C 61.0 44.2 61.7 44.9 61.8 44.2 C 61.9 43.5 61.3 43.4 61.1 43.0 C 61.0 42.6 61.4 42.8 61.4 42.5 C 61.5 42.2 61.7 41.8 61.5 41.1 C 61.4 40.4 61.2 40.5 61.1 40.2 C 61.1 39.9 61.1 39.4 61.1 39.4 C 61.3 39.4 61.5 39.4 61.8 39.4 C 61.8 39.4 61.8 38.2 61.9 37.9 C 61.9 37.5 61.6 36.6 61.5 36.8 C 61.3 37.0 60.9 36.2 61.0 36.0 C 61.1 35.8 61.4 35.3 61.6 34.9 C 61.7 34.5 60.0 34.4 59.8 34.4 C 59.5 34.4 58.6 34.1 58.5 34.4 C 58.4 34.7 58.7 35.0 58.5 35.0 C 58.3 34.9 58.5 35.9 58.5 36.1 C 58.5 36.4 59.1 36.8 59.1 36.8 C 59.1 36.8 59.7 37.2 59.7 37.7 C 59.7 38.1 58.6 38.0 58.6 38.0 C 58.6 38.0 58.4 38.5 58.5 39.1 C 58.5 39.6 59.4 40.5 59.6 40.7 C 59.8 40.8 59.0 40.6 58.9 40.9 C 58.8 41.3 58.5 41.7 58.6 41.9 C 58.6 42.1 59.1 42.6 59.1 42.6 C 59.1 42.6 59.5 43.4 59.5 43.6 C 59.5 43.8 58.7 43.1 58.7 43.1 C 58.7 43.1 58.5 44.5 58.4 44.8 C 58.3 45.1 58.5 45.6 58.6 45.9 C 58.6 46.1 59.6 47.0 59.5 47.3 C 59.4 47.5 58.9 46.6 58.8 46.9 C 58.7 47.1 58.5 47.6 58.5 47.8 C 58.5 47.9 58.8 48.3 58.9 48.7 C 58.9 49.0 59.7 49.8 59.7 50.3 C 59.7 50.7 59.2 50.6 59.1 50.7 C 59.0 50.8 58.4 50.5 58.4 50.8 C 58.3 51.1 58.8 51.2 58.8 51.5 C 58.8 51.9 59.3 52.2 59.2 52.5 C 59.1 52.7 58.3 51.9 58.4 52.4 C 58.5 52.6 58.4 52.4 58.5 53.4 C 58.5 53.4 58.5 53.4 58.5 53.4 Z M 58.6 33.6 C 58.2 34.0 58.7 34.5 59.1 34.5 C 59.4 34.5 60.4 34.4 60.7 34.6 C 60.9 34.8 61.6 35.4 61.8 34.5 C 61.9 33.6 61.6 33.4 61.4 33.4 C 61.2 33.4 60.2 33.2 60.3 33.0 C 60.3 32.7 60.6 32.5 60.8 32.4 C 60.9 32.4 61.9 32.0 61.7 31.6 C 61.6 31.2 61.3 30.8 61.3 30.8 C 61.3 30.5 61.3 30.3 61.3 30.1 C 61.3 30.1 61.9 29.4 61.7 29.0 C 61.6 28.5 61.6 28.0 61.6 27.6 C 61.7 27.2 61.6 26.9 61.4 26.8 C 61.1 26.8 60.3 26.5 60.3 26.5 C 60.3 26.5 60.1 26.0 60.2 25.8 C 60.3 25.5 60.8 25.3 61.0 25.4 C 61.2 25.4 61.6 25.2 61.7 24.8 C 61.8 24.4 62.3 22.7 62.0 22.5 C 61.7 22.4 61.4 22.5 61.3 22.4 C 61.2 22.2 61.1 21.2 61.4 21.1 C 61.6 20.9 62.1 20.8 62.1 20.5 C 62.0 20.2 62.2 19.5 62.0 19.6 C 61.9 19.6 61.7 19.5 61.5 19.6 C 61.2 19.7 60.9 19.2 60.8 19.1 C 60.7 19.1 60.6 18.6 60.6 18.6 C 60.8 18.3 60.9 18.1 61.1 17.8 C 61.1 17.8 61.6 17.9 61.7 18.0 C 61.8 18.2 62.1 17.7 62.2 17.5 C 62.2 17.3 62.1 16.2 62.1 16.2 C 61.7 16.4 61.3 16.5 61.0 16.7 C 60.9 16.5 60.8 16.3 60.7 16.0 C 60.7 16.0 62.1 15.4 62.1 14.8 C 62.1 14.3 62.1 13.6 62.1 13.6 C 62.1 13.6 61.6 13.3 61.5 13.2 C 61.5 13.1 60.3 13.8 60.3 13.8 C 59.8 14.2 59.3 14.5 58.9 14.8 C 58.9 14.8 58.4 15.7 58.6 15.9 C 58.8 16.2 59.3 15.6 59.5 15.5 C 59.7 15.4 60.0 15.8 60.0 15.8 C 59.7 16.2 59.5 16.6 59.2 16.9 C 59.2 16.9 59.0 17.3 58.7 17.6 C 58.5 18.0 58.4 18.8 58.5 19.0 C 58.5 19.1 58.9 19.2 59.1 19.4 C 59.3 19.5 59.7 19.3 59.4 19.8 C 59.1 20.3 58.7 20.6 58.7 20.8 C 58.7 20.9 59.2 21.5 59.2 21.5 C 59.3 21.6 59.4 21.8 59.5 22.0 C 59.5 22.0 59.7 22.4 59.5 22.6 C 59.2 22.8 59.5 23.8 59.5 23.8 C 59.5 23.8 58.7 23.9 58.5 24.2 C 58.4 24.5 58.2 25.0 58.4 25.4 C 58.5 25.8 59.3 26.0 59.3 26.0 C 59.1 26.2 58.9 26.3 58.7 26.5 C 58.6 26.9 58.6 27.4 58.5 27.8 C 58.5 27.8 58.5 28.7 58.7 28.7 C 58.8 28.7 59.5 28.5 59.7 28.5 C 59.9 28.5 60.1 29.0 59.9 29.1 C 59.7 29.2 59.0 29.7 59.0 29.7 C 59.0 29.7 58.6 30.1 58.5 30.4 C 58.5 30.7 58.7 31.1 58.9 31.2 C 59.0 31.3 59.5 31.8 59.5 31.8 C 59.3 31.9 59.1 32.0 58.9 32.1 C 58.9 32.1 59.2 32.9 58.6 33.6 C 58.6 33.6 58.6 33.6 58.6 33.6 Z M 58.5 14.7 C 58.5 15.6 61.1 13.3 61.7 12.5 C 62.2 11.8 61.9 11.2 62.0 10.5 C 62.1 9.6 61.2 10.5 61.0 10.3 C 60.8 10.0 61.3 9.8 61.7 9.3 C 62.1 8.8 61.7 8.0 61.8 7.3 C 61.8 6.6 60.9 6.6 60.9 6.2 C 60.8 5.7 60.4 7.0 60.5 6.1 C 60.5 5.1 61.0 5.1 61.3 5.9 C 61.5 6.8 61.8 5.0 61.9 4.3 C 62.0 3.6 61.6 3.0 61.6 2.5 C 61.6 2.3 61.6 2.3 61.5 2.4 C 61.3 2.5 61.1 2.9 60.6 2.9 C 60.0 2.9 61.0 2.2 60.4 2.1 C 59.8 2.0 59.3 2.6 58.8 2.8 C 58.3 2.9 58.7 2.5 58.5 2.5 C 58.2 2.4 57.9 2.2 57.1 2.4 C 56.3 2.5 56.3 2.7 56.0 2.8 C 55.7 2.8 55.1 2.8 55.1 2.8 C 55.3 2.6 55.4 2.4 55.6 2.1 C 55.6 2.1 54.4 2.1 54.1 2.0 C 53.7 2.0 52.7 2.3 52.8 2.4 C 52.9 2.6 51.8 3.0 51.7 2.9 C 51.6 2.8 51.2 2.5 50.9 2.3 C 50.6 2.2 49.6 3.9 49.5 4.1 C 49.3 4.4 48.5 5.3 48.8 5.4 C 49.0 5.5 49.5 5.1 49.3 5.4 C 49.1 5.6 50.2 5.4 50.5 5.4 C 50.8 5.4 51.6 4.8 51.6 4.8 C 51.6 4.8 52.2 4.2 52.7 4.2 C 53.1 4.2 52.5 5.3 52.5 5.3 C 52.5 5.3 52.8 5.5 53.4 5.4 C 54.0 5.4 55.3 4.5 55.6 4.3 C 55.9 4.1 55.2 4.9 55.5 5.0 C 55.8 5.1 56.1 5.4 56.3 5.3 C 56.5 5.3 57.3 4.8 57.3 4.8 C 57.3 4.8 58.3 4.4 58.5 4.4 C 58.7 4.4 57.6 5.2 57.6 5.2 C 57.6 5.2 58.1 5.3 58.5 5.4 C 58.5 5.7 58.4 6.1 58.4 6.2 C 58.3 6.6 58.5 6.8 58.6 7.0 C 58.6 7.2 59.6 6.6 59.5 7.0 C 59.4 7.4 58.9 7.3 58.8 7.7 C 58.7 8.1 58.5 8.9 58.5 9.0 C 58.5 9.2 58.8 9.1 58.9 9.3 C 58.9 9.6 59.7 9.3 59.7 9.8 C 59.7 10.2 59.2 10.8 59.1 11.1 C 59.0 11.3 58.4 11.9 58.4 12.2 C 58.3 12.6 58.8 12.0 58.8 12.4 C 58.8 12.7 59.3 12.3 59.2 12.7 C 59.1 13.1 58.3 13.5 58.4 13.8 C 58.5 13.9 58.4 13.8 58.5 14.7 C 58.5 14.7 58.5 14.7 58.5 14.7 Z M 47.1 4.6 C 47.4 4.5 47.3 5.0 47.7 5.2 C 48.2 5.3 48.8 5.4 48.9 5.1 C 49.0 4.7 48.9 4.5 49.4 4.1 C 50.0 3.7 50.8 3.0 50.5 2.8 C 50.3 2.5 49.1 1.8 48.3 2.2 C 47.6 2.5 47.3 2.7 46.8 2.9 C 46.3 3.2 47.0 2.4 47.0 2.4 C 47.0 2.4 46.2 2.3 45.5 2.2 C 44.9 2.2 44.1 2.1 44.0 2.3 C 43.9 2.4 43.5 2.7 43.5 2.7 C 43.5 2.7 43.3 2.3 42.8 2.2 C 42.4 2.2 42.5 2.4 42.5 2.6 C 42.5 2.8 42.9 3.3 42.7 3.3 C 42.5 3.3 42.1 2.5 41.8 2.4 C 41.5 2.3 40.7 2.4 40.7 2.4 C 40.7 2.4 40.6 2.8 40.5 2.9 C 40.4 3.0 39.7 3.1 39.7 2.9 C 39.7 2.8 39.9 2.3 39.5 2.3 C 38.3 2.2 38.3 3.1 38.2 3.1 C 38.1 3.1 38.2 2.4 38.0 2.3 C 37.7 2.2 35.3 2.3 35.2 2.5 C 35.1 2.6 34.3 2.0 33.9 2.5 C 33.6 2.9 33.5 3.0 33.4 3.1 C 33.3 3.2 32.8 3.9 32.7 3.6 C 32.5 3.4 33.4 2.6 33.1 2.4 C 32.8 2.2 31.4 2.1 31.1 2.3 C 30.8 2.6 30.7 3.3 30.5 3.3 C 30.3 3.3 29.4 2.4 29.4 2.6 C 29.3 2.7 29.3 3.4 29.3 3.6 C 29.3 3.7 29.2 4.9 29.3 5.1 C 29.5 5.3 30.3 5.7 30.2 5.4 C 30.1 5.0 29.9 4.6 30.1 4.4 C 30.4 4.3 30.6 4.2 30.7 4.4 C 30.7 4.5 30.6 4.7 31.1 4.9 C 31.5 5.1 31.3 5.4 31.7 5.4 C 32.2 5.4 32.6 5.3 32.5 5.0 C 32.5 4.7 33.0 4.3 33.3 4.4 C 33.6 4.4 33.1 5.0 34.0 5.2 C 35.0 5.5 35.6 5.5 35.9 5.3 C 36.3 5.1 36.4 4.3 36.9 4.7 C 37.3 5.0 37.0 5.2 37.6 5.2 C 38.3 5.1 38.7 4.6 39.1 4.5 C 39.5 4.5 39.6 4.5 39.6 4.5 C 39.6 4.5 39.2 5.4 40.1 5.4 C 41.0 5.5 41.1 5.5 41.2 4.9 C 41.2 4.3 41.9 4.3 41.8 4.7 C 41.7 5.1 42.1 5.3 42.4 5.4 C 42.7 5.4 43.2 4.4 43.4 4.4 C 43.5 4.4 43.8 4.4 43.6 4.8 C 43.3 5.1 43.6 5.1 43.8 5.3 C 44.1 5.4 44.9 5.3 45.0 5.1 C 45.1 4.9 45.0 4.3 45.4 4.6 C 45.8 4.9 45.7 5.5 46.3 5.4 C 46.8 5.4 46.7 4.8 47.1 4.6 C 47.1 4.6 47.1 4.6 47.1 4.6 Z M 28.6 5.3 C 29.1 5.7 29.5 5.2 29.4 4.8 C 29.3 4.5 29.0 3.5 29.2 3.2 C 29.3 2.9 29.9 2.3 28.9 2.1 C 28.0 2.0 27.8 2.3 27.9 2.5 C 27.9 2.7 27.9 3.7 27.6 3.6 C 27.4 3.5 27.1 3.3 27.0 3.1 C 26.9 3.0 26.4 2.0 26.0 2.2 C 25.6 2.3 25.2 2.6 25.2 2.6 C 25.0 2.6 24.8 2.6 24.6 2.6 C 24.6 2.6 23.8 2.0 23.4 2.2 C 22.9 2.3 22.4 2.3 22.0 2.3 C 21.6 2.2 21.3 2.3 21.3 2.5 C 21.3 2.8 21.2 3.6 21.2 3.6 C 21.2 3.6 20.7 3.8 20.4 3.7 C 20.1 3.5 19.9 3.1 19.9 2.9 C 19.9 2.7 19.6 2.3 19.2 2.2 C 18.8 2.1 17.0 1.6 16.9 1.9 C 16.8 2.2 17.0 2.5 16.9 2.6 C 16.7 2.7 15.7 2.8 15.5 2.5 C 15.3 2.3 15.1 1.8 14.8 1.8 C 14.5 1.9 13.8 1.7 13.9 1.9 C 14.0 2.0 13.9 2.2 14.0 2.4 C 14.2 2.7 13.7 2.9 13.7 3.1 C 13.6 3.2 13.2 3.3 13.2 3.3 C 12.9 3.1 12.6 3.0 12.3 2.8 C 12.3 2.8 12.3 2.3 12.4 2.2 C 12.6 2.1 12.1 1.8 11.8 1.7 C 11.6 1.7 10.5 1.8 10.5 1.8 C 10.8 2.2 11.0 2.5 11.3 2.9 C 11.0 3.0 10.8 3.1 10.6 3.2 C 10.6 3.2 9.7 1.8 9.2 1.8 C 8.6 1.8 7.9 1.8 7.9 1.8 C 7.9 1.8 7.8 2.3 7.7 2.4 C 7.6 2.4 8.5 3.6 8.5 3.6 C 8.9 4.1 9.3 4.6 9.8 5.0 C 9.8 5.0 10.7 5.5 10.9 5.3 C 11.1 5.1 10.4 4.6 10.3 4.4 C 10.2 4.1 10.5 3.9 10.5 3.9 C 10.9 4.2 11.4 4.4 11.8 4.7 C 11.8 4.7 12.2 4.9 12.6 5.2 C 12.9 5.4 13.8 5.5 14.0 5.4 C 14.1 5.3 14.1 5.0 14.2 4.8 C 14.4 4.6 14.1 4.1 14.6 4.5 C 15.1 4.8 15.5 5.2 15.7 5.2 C 15.9 5.2 16.3 4.7 16.3 4.7 C 16.5 4.6 16.6 4.5 16.7 4.4 C 16.7 4.4 17.2 4.1 17.4 4.4 C 17.6 4.7 18.6 4.4 18.6 4.4 C 18.6 4.4 18.9 5.2 19.2 5.3 C 19.5 5.5 20.0 5.7 20.4 5.5 C 20.8 5.4 20.8 4.6 20.8 4.6 C 21.0 4.8 21.2 5.0 21.5 5.2 C 21.9 5.3 22.3 5.3 22.8 5.4 C 22.8 5.4 23.7 5.3 23.6 5.2 C 23.6 5.1 23.3 4.4 23.3 4.2 C 23.3 4.0 23.7 3.8 23.8 4.0 C 24.0 4.2 24.6 4.9 24.6 4.9 C 24.6 4.9 25.1 5.3 25.4 5.3 C 25.7 5.4 26.0 5.2 26.1 5.0 C 26.2 4.9 26.5 4.4 26.5 4.4 C 26.7 4.6 26.9 4.8 27.0 5.0 C 27.0 5.0 27.7 4.7 28.6 5.3 C 28.6 5.3 28.6 5.3 28.6 5.3 Z M 9.7 5.4 C 10.6 5.4 7.8 2.8 6.9 2.2 C 6.1 1.7 5.6 2.0 4.8 1.9 C 4.0 1.8 5.0 2.7 4.8 2.9 C 4.6 3.1 4.3 2.6 3.7 2.2 C 3.2 1.9 2.6 2.1 2.0 2.1 C 2.0 2.2 2.0 2.3 2.0 2.4 C 1.9 3.0 2.8 4.6 2.9 5.1 C 2.9 5.7 3.3 5.1 3.3 6.0 C 3.2 6.9 2.7 6.0 2.5 4.6 C 2.2 3.3 1.9 4.6 1.8 5.1 C 1.7 5.6 2.1 6.9 2.1 7.4 C 2.0 7.8 2.7 7.8 2.7 8.5 C 2.7 9.1 2.0 8.2 1.9 8.8 C 1.8 9.4 2.4 9.8 2.6 10.3 C 2.7 10.8 2.3 10.4 2.3 10.6 C 2.2 10.9 2.0 11.2 2.2 12.0 C 2.3 12.7 2.5 12.7 2.6 13.0 C 2.6 13.4 2.6 13.9 2.6 13.9 C 2.4 13.7 2.2 13.6 1.9 13.5 C 1.9 13.5 1.9 14.6 1.8 14.9 C 1.8 15.2 2.1 16.3 2.2 16.1 C 2.4 16.0 2.8 17.2 2.7 17.3 C 2.6 17.4 2.3 17.7 2.1 18.0 C 2.0 18.3 3.7 19.4 3.9 19.6 C 4.2 19.8 5.1 20.7 5.2 20.4 C 5.3 20.2 5.0 19.6 5.2 19.9 C 5.5 20.1 5.2 18.9 5.2 18.7 C 5.2 18.4 4.6 17.5 4.6 17.5 C 4.6 17.5 4.1 16.9 4.1 16.4 C 4.1 15.9 5.1 16.6 5.1 16.6 C 5.1 16.6 5.3 16.2 5.3 15.6 C 5.2 15.0 4.3 13.7 4.1 13.4 C 3.9 13.1 4.8 13.8 4.9 13.5 C 5.0 13.2 5.2 12.9 5.2 12.7 C 5.1 12.5 4.6 11.7 4.6 11.7 C 4.6 11.7 4.2 10.7 4.2 10.5 C 4.2 10.3 5.0 11.3 5.0 11.3 C 5.0 11.3 5.3 10.0 5.3 9.8 C 5.4 9.5 5.2 8.8 5.1 8.6 C 5.1 8.3 4.1 7.0 4.2 6.8 C 4.3 6.5 4.8 7.7 4.9 7.5 C 5.0 7.2 5.2 6.8 5.2 6.7 C 5.2 6.5 4.9 5.9 4.8 5.6 C 4.8 5.4 4.5 4.9 4.3 4.5 C 4.3 4.3 4.4 4.2 4.6 4.2 C 5.0 4.2 5.7 4.7 5.9 4.8 C 6.2 4.9 6.9 5.5 7.3 5.5 C 7.6 5.5 7.0 5.1 7.3 5.1 C 7.6 5.1 7.2 4.6 7.6 4.7 C 8.0 4.8 8.5 5.6 8.8 5.5 C 8.9 5.4 8.8 5.5 9.7 5.4 C 9.7 5.4 9.7 5.4 9.7 5.4 Z M 5.1 21.2 C 5.5 21.0 5.0 20.2 4.7 20.0 C 4.3 19.8 3.3 19.3 3.0 18.9 C 2.8 18.5 2.1 17.4 1.9 18.2 C 1.8 19.0 2.1 19.4 2.3 19.5 C 2.5 19.7 3.6 20.6 3.5 20.8 C 3.4 20.9 3.1 21.0 3.0 20.9 C 2.8 20.9 1.8 20.6 2.0 21.1 C 2.1 21.6 2.4 22.2 2.4 22.2 C 2.4 22.4 2.4 22.7 2.4 22.9 C 2.4 22.9 1.8 23.1 2.0 23.7 C 2.1 24.2 2.1 24.8 2.1 25.1 C 2.0 25.4 2.1 25.8 2.4 26.0 C 2.6 26.2 3.4 27.2 3.4 27.2 C 3.4 27.2 3.6 27.8 3.5 28.0 C 3.4 28.1 2.9 27.9 2.7 27.8 C 2.5 27.6 2.1 27.4 2.0 27.7 C 1.9 28.0 1.4 29.3 1.7 29.7 C 2.0 30.1 2.4 30.2 2.4 30.5 C 2.5 30.7 2.6 31.7 2.4 31.7 C 2.1 31.7 1.6 31.3 1.7 31.7 C 1.7 32.0 1.6 32.5 1.7 32.6 C 1.8 32.6 2.0 32.9 2.3 33.1 C 2.5 33.2 2.8 33.9 2.9 34.1 C 3.0 34.3 3.1 34.8 3.1 34.8 C 2.9 34.9 2.8 35.0 2.6 35.1 C 2.6 35.1 2.1 34.6 2.0 34.3 C 1.9 34.1 1.6 34.3 1.6 34.4 C 1.5 34.6 1.6 35.8 1.6 35.8 C 2.0 36.0 2.4 36.1 2.8 36.3 C 2.8 36.6 2.9 36.9 3.0 37.2 C 3.0 37.2 1.7 36.6 1.7 37.1 C 1.7 37.7 1.7 38.3 1.7 38.3 C 1.7 38.3 2.2 39.1 2.2 39.2 C 2.3 39.4 3.5 39.9 3.5 39.9 C 3.9 40.0 4.4 40.1 4.9 40.3 C 4.9 40.3 5.3 39.8 5.1 39.4 C 4.9 39.0 4.4 39.1 4.2 38.9 C 4.0 38.8 3.7 38.2 3.7 38.2 C 4.0 38.0 4.3 37.9 4.5 37.8 C 4.5 37.8 4.8 37.7 5.0 37.5 C 5.2 37.4 5.4 36.7 5.3 36.4 C 5.2 36.1 4.9 35.8 4.6 35.4 C 4.4 35.0 4.0 34.9 4.3 34.7 C 4.6 34.5 5.0 34.5 5.0 34.3 C 5.0 34.1 4.5 33.2 4.5 33.2 C 4.4 32.9 4.3 32.7 4.2 32.4 C 4.2 32.4 4.0 31.7 4.2 31.8 C 4.5 31.9 4.2 30.6 4.2 30.6 C 4.2 30.6 5.0 31.1 5.2 30.9 C 5.3 30.7 5.5 30.4 5.4 29.8 C 5.2 29.3 4.4 28.5 4.4 28.5 C 4.6 28.5 4.8 28.5 5.0 28.4 C 5.1 28.1 5.2 27.7 5.2 27.3 C 5.2 27.3 5.2 26.3 5.0 26.2 C 4.9 26.1 4.2 25.8 4.0 25.6 C 3.8 25.5 3.6 24.8 3.8 24.9 C 4.1 25.0 4.7 24.9 4.7 24.9 C 4.7 24.9 5.1 24.8 5.2 24.5 C 5.2 24.3 5.0 23.7 4.9 23.5 C 4.7 23.3 4.2 22.5 4.2 22.5 C 4.4 22.5 4.6 22.5 4.9 22.6 C 4.9 22.6 4.5 21.6 5.1 21.2 C 5.1 21.2 5.1 21.2 5.1 21.2 Z M 5.3 40.8 C 5.2 39.8 2.6 39.5 2.0 39.7 C 1.5 39.9 1.8 40.8 1.7 41.5 C 1.6 42.1 2.5 42.2 2.7 42.6 C 3.0 43.1 2.4 42.8 2.0 42.9 C 1.6 42.9 2.0 44.1 2.0 44.8 C 1.9 45.4 2.8 46.3 2.9 46.8 C 2.9 47.4 3.3 46.5 3.3 47.4 C 3.2 48.3 2.7 47.7 2.5 46.6 C 2.2 45.5 1.9 46.9 1.8 47.5 C 1.7 48.1 2.1 49.1 2.1 49.6 C 2.0 50.1 2.7 49.6 2.7 50.3 C 2.7 50.9 2.0 50.5 1.9 51.2 C 1.8 51.8 2.4 51.8 2.6 52.2 C 2.7 52.6 2.3 52.5 2.3 52.7 C 2.2 53.0 2.0 53.5 2.2 54.1 C 2.3 54.8 2.5 54.6 2.6 54.9 C 2.6 55.2 2.6 55.8 2.6 55.8 C 2.4 55.8 2.2 55.8 1.9 55.8 C 1.9 55.8 1.9 57.0 1.8 57.3 C 1.8 57.7 2.1 58.5 2.2 58.3 C 2.4 58.1 2.8 58.9 2.7 59.1 C 2.6 59.2 2.3 59.8 2.1 60.2 C 2.0 60.6 3.7 60.5 3.9 60.5 C 4.2 60.5 5.1 60.7 5.2 60.4 C 5.3 60.1 5.0 59.8 5.2 59.8 C 5.5 59.9 5.2 58.9 5.2 58.6 C 5.2 58.3 4.6 58.0 4.6 58.0 C 4.6 58.0 4.1 57.7 4.1 57.2 C 4.1 56.8 5.1 56.7 5.1 56.7 C 5.1 56.7 5.3 56.1 5.3 55.6 C 5.2 55.0 4.3 54.3 4.1 54.2 C 3.9 54.0 4.8 54.2 4.9 53.8 C 5.0 53.4 5.2 52.8 5.2 52.7 C 5.1 52.5 4.6 52.1 4.6 52.1 C 4.6 52.1 4.2 51.4 4.2 51.2 C 4.2 51.0 5.0 51.4 5.0 51.4 C 5.0 51.4 5.3 50.0 5.3 49.7 C 5.4 49.4 5.2 48.8 5.1 48.6 C 5.1 48.4 4.1 47.8 4.2 47.5 C 4.3 47.2 4.8 48.0 4.9 47.7 C 5.0 47.4 5.2 46.8 5.2 46.6 C 5.2 46.5 4.9 46.2 4.8 45.9 C 4.8 45.6 4.0 45.0 4.0 44.5 C 4.0 44.1 4.5 44.0 4.6 43.8 C 4.7 43.7 5.3 43.8 5.4 43.4 C 5.4 43.1 4.9 43.2 4.9 42.9 C 4.9 42.5 4.4 42.4 4.5 42.1 C 4.6 41.8 5.4 42.2 5.3 41.8 C 5.3 41.6 5.3 41.8 5.3 40.8 C 5.3 40.8 5.3 40.8 5.3 40.8 Z M 5.3 40.8 " fill="#605F5C"></path></g></svg>