<?xml version="1.0" encoding="UTF-8" standalone="no"?><svg xmlns="http://www.w3.org/2000/svg" xmlns:xlink="http://www.w3.org/1999/xlink" clip-rule="evenodd" stroke-miterlimit="10" viewBox="0 0 198 23"><desc>SVG generated by Keynote</desc><defs></defs><g transform="matrix(1.00, 0.00, -0.00, -1.00, 0.0, 23.0)"><text xml:space="preserve" font-family="ZapfDingbatsITC,Zapf Dingbats" font-size="14.7" fill="#5B86B8" transform="matrix(1.00, 0.00, -0.00, -1.00, 0.2, 5.4)">✤</text><text xml:space="preserve" font-family="Palatino-Roman,Palatino" font-size="21.0" fill="#000000" transform="matrix(1.00, 0.00, -0.00, -1.00, 22.3, 4.1)">S</text><text xml:space="preserve" font-family="Palatino-Roman,Palatino" font-size="21.0" fill="#000000" transform="matrix(1.00, 0.00, -0.00, -1.00, 33.3, 4.1)">h</text><text xml:space="preserve" font-family="Palatino-Roman,Palatino" font-size="21.0" fill="#000000" transform="matrix(1.00, 0.00, -0.00, -1.00, 45.6, 4.1)">o</text><text xml:space="preserve" font-family="Palatino-Roman,Palatino" font-size="21.0" fill="#000000" transform="matrix(1.00, 0.00, -0.00, -1.00, 57.0, 4.1)">w</text><text xml:space="preserve" font-family="Palatino-Roman,Palatino" font-size="21.0" fill="#000000" transform="matrix(1.00, 0.00, -0.00, -1.00, 74.5, 4.1)"> </text><text xml:space="preserve" font-family="Palatino-Roman,Palatino" font-size="21.0" fill="#000000" transform="matrix(1.00, 0.00, -0.00, -1.00, 79.8, 4.1)">m</text><text xml:space="preserve" font-family="Palatino-Roman,Palatino" font-size="21.0" fill="#000000" transform="matrix(1.00, 0.00, -0.00, -1.00, 98.3, 4.1)">e</text><text xml:space="preserve" font-family="Palatino-Roman,Palatino" font-size="21.0" fill="#000000" transform="matrix(1.00, 0.00, -0.00, -1.00, 108.4, 4.1)"> </text><text xml:space="preserve" font-family="Palatino-Roman,Palatino" font-size="21.0" fill="#000000" transform="matrix(1.00, 0.00, -0.00, -1.00, 113.6, 4.1)">t</text><text xml:space="preserve" font-family="Palatino-Roman,Palatino" font-size="21.0" fill="#000000" transform="matrix(1.00, 0.00, -0.00, -1.00, 120.5, 4.1)">h</text><text xml:space="preserve" font-family="Palatino-Roman,Palatino" font-size="21.0" fill="#000000" transform="matrix(1.00, 0.00, -0.00, -1.00, 132.7, 4.1)">e</text><text xml:space="preserve" font-family="Palatino-Roman,Palatino" font-size="21.0" fill="#000000" transform="matrix(1.00, 0.00, -0.00, -1.00, 142.8, 4.1)"> </text><text xml:space="preserve" font-family="Palatino-Roman,Palatino" font-size="21.0" fill="#000000" transform="matrix(1.00, 0.00, -0.00, -1.00, 148.0, 4.1)">c</text><text xml:space="preserve" font-family="Palatino-Roman,Palatino" font-size="21.0" fill="#000000" transform="matrix(1.00, 0.00, -0.00, -1.00, 157.3, 4.1)">o</text><text xml:space="preserve" font-family="Palatino-Roman,Palatino" font-size="21.0" fill="#000000" transform="matrix(1.00, 0.00, -0.00, -1.00, 168.8, 4.1)">d</text><text xml:space="preserve" font-family="Palatino-Roman,Palatino" font-size="21.0" fill="#000000" transform="matrix(1.00, 0.00, -0.00, -1.00, 181.6, 4.1)">e</text><text xml:space="preserve" font-family="Palatino-Roman,Palatino" font-size="21.0" fill="#000000" transform="matrix(1.00, 0.00, -0.00, -1.00, 191.7, 4.1)">!</text></g></svg>