<?xml version="1.0" encoding="UTF-8" standalone="no"?><svg xmlns="http://www.w3.org/2000/svg" xmlns:xlink="http://www.w3.org/1999/xlink" clip-rule="evenodd" stroke-miterlimit="10" viewBox="0 0 376 71"><desc>SVG generated by Keynote</desc><defs></defs><g transform="matrix(1.00, 0.00, -0.00, -1.00, 0.0, 71.0)"><g><clipPath id="clip0x608004eb9f80"><path d="M 25.9 39.2 L 126.9 39.2 L 126.9 56.4 L 25.9 56.4 Z M 25.9 39.2 "></path></clipPath><g clip-path="url(#clip0x608004eb9f80)"><path d="M 27.0 55.0 L 126.0 55.0 L 126.0 40.0 L 27.0 40.0 Z M 26.9 55.4 " fill="#008F51"></path></g></g><g><clipPath id="clip0x608004ebabe0"><path d="M 0.5 39.2 L 62.8 39.2 L 62.8 70.0 L 0.5 70.0 Z M 0.5 39.2 "></path></clipPath><g clip-path="url(#clip0x608004ebabe0)"><path d="M 2.0 69.0 L 2.0 40.0 L 61.8 40.0 Z M 1.5 69.0 " fill="#008F51"></path></g></g><g><clipPath id="clip0x608004ebae20"><path d="M 91.1 39.2 L 153.3 39.2 L 153.3 70.0 L 91.1 70.0 Z M 91.1 39.2 "></path></clipPath><g clip-path="url(#clip0x608004ebae20)"><path d="M 152.0 69.0 L 152.0 40.0 L 92.1 40.0 Z M 152.3 69.0 " fill="#008F51"></path></g></g><g><clipPath id="clip0x608004ebb060"><path d="M 248.0 39.2 L 349.0 39.2 L 349.0 56.4 L 248.0 56.4 Z M 248.0 39.2 "></path></clipPath><g clip-path="url(#clip0x608004ebb060)"><path d="M 249.0 55.0 L 348.0 55.0 L 348.0 40.0 L 249.0 40.0 Z M 249.0 55.4 " fill="#7995B9"></path></g></g><g><clipPath id="clip0x608004ebb2a0"><path d="M 222.6 39.2 L 284.9 39.2 L 284.9 70.0 L 222.6 70.0 Z M 222.6 39.2 "></path></clipPath><g clip-path="url(#clip0x608004ebb2a0)"><path d="M 224.0 69.0 L 224.0 40.0 L 283.9 40.0 Z M 223.6 69.0 " fill="#7995B9"></path></g></g><g><clipPath id="clip0x608004ebb4e0"><path d="M 313.2 39.2 L 375.4 39.2 L 375.4 70.0 L 313.2 70.0 Z M 313.2 39.2 "></path></clipPath><g clip-path="url(#clip0x608004ebb4e0)"><path d="M 374.0 69.0 L 374.0 40.0 L 314.2 40.0 Z M 374.4 69.0 " fill="#7995B9"></path></g></g><g><clipPath id="clip0x608004ebb720"><path d="M 18.0 -2.9 L 134.8 -2.9 L 134.8 53.6 L 18.0 53.6 Z M 18.0 -2.9 "></path></clipPath><g clip-path="url(#clip0x608004ebb720)"><text xml:space="preserve" font-family="Palatino-Roman,Palatino" font-size="30.0" fill="#324763" transform="matrix(1.00, 0.00, -0.00, -1.00, 26.7, 13.6)">L</text><text xml:space="preserve" font-family="Palatino-Roman,Palatino" font-size="30.0" fill="#324763" transform="matrix(1.00, 0.00, -0.00, -1.00, 45.1, 13.6)">O</text><text xml:space="preserve" font-family="Palatino-Roman,Palatino" font-size="30.0" fill="#324763" transform="matrix(1.00, 0.00, -0.00, -1.00, 68.6, 13.6)">O</text><text xml:space="preserve" font-family="Palatino-Roman,Palatino" font-size="30.0" fill="#324763" transform="matrix(1.00, 0.00, -0.00, -1.00, 92.2, 13.6)">P</text><text xml:space="preserve" font-family="Palatino-Roman,Palatino" font-size="30.0" fill="#324763" transform="matrix(1.00, 0.00, -0.00, -1.00, 110.3, 13.6)">S</text></g></g><g><clipPath id="clip0x608004ebbae0"><path d="M 247.9 -2.9 L 349.1 -2.9 L 349.1 53.6 L 247.9 53.6 Z M 247.9 -2.9 "></path></clipPath><g clip-path="url(#clip0x608004ebbae0)"><text xml:space="preserve" font-family="Palatino-Roman,Palatino" font-size="30.0" fill="#324763" transform="matrix(1.00, 0.00, -0.00, -1.00, 256.7, 13.6)">T</text><text xml:space="preserve" font-family="Palatino-Roman,Palatino" font-size="30.0" fill="#324763" transform="matrix(1.00, 0.00, -0.00, -1.00, 272.8, 13.6)">A</text><text xml:space="preserve" font-family="Palatino-Roman,Palatino" font-size="30.0" fill="#324763" transform="matrix(1.00, 0.00, -0.00, -1.00, 296.2, 13.6)">I</text><text xml:space="preserve" font-family="Palatino-Roman,Palatino" font-size="30.0" fill="#324763" transform="matrix(1.00, 0.00, -0.00, -1.00, 306.3, 13.6)">L</text><text xml:space="preserve" font-family="Palatino-Roman,Palatino" font-size="30.0" fill="#324763" transform="matrix(1.00, 0.00, -0.00, -1.00, 324.6, 13.6)">S</text></g></g></g></svg>