<?xml version="1.0" encoding="UTF-8" standalone="no"?><svg xmlns="http://www.w3.org/2000/svg" xmlns:xlink="http://www.w3.org/1999/xlink" clip-rule="evenodd" stroke-miterlimit="10" viewBox="0 0 920 49"><desc>SVG generated by Keynote</desc><defs></defs><g transform="matrix(1.00, 0.00, -0.00, -1.00, 0.0, 49.0)"><text xml:space="preserve" font-family="ZapfDingbatsITC,Zapf Dingbats" font-size="13.8" fill="#5B86B8" transform="matrix(1.00, 0.00, -0.00, -1.00, 0.0, 33.1)">✤</text><text xml:space="preserve" font-family="Palatino-Roman,Palatino" font-size="19.8" fill="#000000" transform="matrix(1.00, 0.00, -0.00, -1.00, 20.8, 32.1)">A</text><text xml:space="preserve" font-family="Palatino-Roman,Palatino" font-size="19.8" fill="#000000" transform="matrix(1.00, 0.00, -0.00, -1.00, 35.1, 32.1)"> </text><text xml:space="preserve" font-family="Palatino-Bold,Palatino" font-weight="bold" font-size="19.8" fill="#000000" transform="matrix(1.00, 0.00, -0.00, -1.00, 40.0, 32.1)">l</text><text xml:space="preserve" font-family="Palatino-Bold,Palatino" font-weight="bold" font-size="19.8" fill="#000000" transform="matrix(1.00, 0.00, -0.00, -1.00, 46.6, 32.1)">o</text><text xml:space="preserve" font-family="Palatino-Bold,Palatino" font-weight="bold" font-size="19.8" fill="#000000" transform="matrix(1.00, 0.00, -0.00, -1.00, 57.6, 32.1)">o</text><text xml:space="preserve" font-family="Palatino-Bold,Palatino" font-weight="bold" font-size="19.8" fill="#000000" transform="matrix(1.00, 0.00, -0.00, -1.00, 68.6, 32.1)">p</text><text xml:space="preserve" font-family="Palatino-Bold,Palatino" font-weight="bold" font-size="19.8" fill="#000000" transform="matrix(1.00, 0.00, -0.00, -1.00, 80.7, 32.1)"> </text><text xml:space="preserve" font-family="Palatino-Bold,Palatino" font-weight="bold" font-size="19.8" fill="#000000" transform="matrix(1.00, 0.00, -0.00, -1.00, 85.6, 32.1)">s</text><text xml:space="preserve" font-family="Palatino-Bold,Palatino" font-weight="bold" font-size="19.8" fill="#000000" transform="matrix(1.00, 0.00, -0.00, -1.00, 94.4, 32.1)">t</text><text xml:space="preserve" font-family="Palatino-Bold,Palatino" font-weight="bold" font-size="19.8" fill="#000000" transform="matrix(1.00, 0.00, -0.00, -1.00, 100.9, 32.1)">a</text><text xml:space="preserve" font-family="Palatino-Bold,Palatino" font-weight="bold" font-size="19.8" fill="#000000" transform="matrix(1.00, 0.00, -0.00, -1.00, 110.8, 32.1)">c</text><text xml:space="preserve" font-family="Palatino-Bold,Palatino" font-weight="bold" font-size="19.8" fill="#000000" transform="matrix(1.00, 0.00, -0.00, -1.00, 119.6, 32.1)">k</text><text xml:space="preserve" font-family="Palatino-Roman,Palatino" font-size="19.8" fill="#000000" transform="matrix(1.00, 0.00, -0.00, -1.00, 131.7, 32.1)"> </text><text xml:space="preserve" font-family="Palatino-Roman,Palatino" font-size="19.8" fill="#000000" transform="matrix(1.00, 0.00, -0.00, -1.00, 136.6, 32.1)">w</text><text xml:space="preserve" font-family="Palatino-Roman,Palatino" font-size="19.8" fill="#000000" transform="matrix(1.00, 0.00, -0.00, -1.00, 153.1, 32.1)">i</text><text xml:space="preserve" font-family="Palatino-Roman,Palatino" font-size="19.8" fill="#000000" transform="matrix(1.00, 0.00, -0.00, -1.00, 158.8, 32.1)">l</text><text xml:space="preserve" font-family="Palatino-Roman,Palatino" font-size="19.8" fill="#000000" transform="matrix(1.00, 0.00, -0.00, -1.00, 164.6, 32.1)">l</text><text xml:space="preserve" font-family="Palatino-Roman,Palatino" font-size="19.8" fill="#000000" transform="matrix(1.00, 0.00, -0.00, -1.00, 170.3, 32.1)"> </text><text xml:space="preserve" font-family="Palatino-Roman,Palatino" font-size="19.8" fill="#000000" transform="matrix(1.00, 0.00, -0.00, -1.00, 175.3, 32.1)">s</text><text xml:space="preserve" font-family="Palatino-Roman,Palatino" font-size="19.8" fill="#000000" transform="matrix(1.00, 0.00, -0.00, -1.00, 183.7, 32.1)">t</text><text xml:space="preserve" font-family="Palatino-Roman,Palatino" font-size="19.8" fill="#000000" transform="matrix(1.00, 0.00, -0.00, -1.00, 190.1, 32.1)">o</text><text xml:space="preserve" font-family="Palatino-Roman,Palatino" font-size="19.8" fill="#000000" transform="matrix(1.00, 0.00, -0.00, -1.00, 200.9, 32.1)">r</text><text xml:space="preserve" font-family="Palatino-Roman,Palatino" font-size="19.8" fill="#000000" transform="matrix(1.00, 0.00, -0.00, -1.00, 208.3, 32.1)">e</text><text xml:space="preserve" font-family="Palatino-Roman,Palatino" font-size="19.8" fill="#000000" transform="matrix(1.00, 0.00, -0.00, -1.00, 217.8, 32.1)"> </text><text xml:space="preserve" font-family="Palatino-Roman,Palatino" font-size="19.8" fill="#000000" transform="matrix(1.00, 0.00, -0.00, -1.00, 222.7, 32.1)">c</text><text xml:space="preserve" font-family="Palatino-Roman,Palatino" font-size="19.8" fill="#000000" transform="matrix(1.00, 0.00, -0.00, -1.00, 231.5, 32.1)">o</text><text xml:space="preserve" font-family="Palatino-Roman,Palatino" font-size="19.8" fill="#000000" transform="matrix(1.00, 0.00, -0.00, -1.00, 242.3, 32.1)">p</text><text xml:space="preserve" font-family="Palatino-Roman,Palatino" font-size="19.8" fill="#000000" transform="matrix(1.00, 0.00, -0.00, -1.00, 254.2, 32.1)">i</text><text xml:space="preserve" font-family="Palatino-Roman,Palatino" font-size="19.8" fill="#000000" transform="matrix(1.00, 0.00, -0.00, -1.00, 259.9, 32.1)">e</text><text xml:space="preserve" font-family="Palatino-Roman,Palatino" font-size="19.8" fill="#000000" transform="matrix(1.00, 0.00, -0.00, -1.00, 269.4, 32.1)">s</text><text xml:space="preserve" font-family="Palatino-Roman,Palatino" font-size="19.8" fill="#000000" transform="matrix(1.00, 0.00, -0.00, -1.00, 277.8, 32.1)"> </text><text xml:space="preserve" font-family="Palatino-Roman,Palatino" font-size="19.8" fill="#000000" transform="matrix(1.00, 0.00, -0.00, -1.00, 282.7, 32.1)">o</text><text xml:space="preserve" font-family="Palatino-Roman,Palatino" font-size="19.8" fill="#000000" transform="matrix(1.00, 0.00, -0.00, -1.00, 293.5, 32.1)">f</text><text xml:space="preserve" font-family="Palatino-Roman,Palatino" font-size="19.8" fill="#000000" transform="matrix(1.00, 0.00, -0.00, -1.00, 300.1, 32.1)"> </text><text xml:space="preserve" font-family="Palatino-Roman,Palatino" font-size="19.8" fill="#000000" transform="matrix(1.00, 0.00, -0.00, -1.00, 305.0, 32.1)">t</text><text xml:space="preserve" font-family="Palatino-Roman,Palatino" font-size="19.8" fill="#000000" transform="matrix(1.00, 0.00, -0.00, -1.00, 311.5, 32.1)">h</text><text xml:space="preserve" font-family="Palatino-Roman,Palatino" font-size="19.8" fill="#000000" transform="matrix(1.00, 0.00, -0.00, -1.00, 323.0, 32.1)">e</text><text xml:space="preserve" font-family="Palatino-Roman,Palatino" font-size="19.8" fill="#000000" transform="matrix(1.00, 0.00, -0.00, -1.00, 332.4, 32.1)"> </text><text xml:space="preserve" font-family="Palatino-Roman,Palatino" font-size="19.8" fill="#000000" transform="matrix(1.00, 0.00, -0.00, -1.00, 337.4, 32.1)">c</text><text xml:space="preserve" font-family="Palatino-Roman,Palatino" font-size="19.8" fill="#000000" transform="matrix(1.00, 0.00, -0.00, -1.00, 346.1, 32.1)">o</text><text xml:space="preserve" font-family="Palatino-Roman,Palatino" font-size="19.8" fill="#000000" transform="matrix(1.00, 0.00, -0.00, -1.00, 356.9, 32.1)">n</text><text xml:space="preserve" font-family="Palatino-Roman,Palatino" font-size="19.8" fill="#000000" transform="matrix(1.00, 0.00, -0.00, -1.00, 368.4, 32.1)">t</text><text xml:space="preserve" font-family="Palatino-Roman,Palatino" font-size="19.8" fill="#000000" transform="matrix(1.00, 0.00, -0.00, -1.00, 374.9, 32.1)">e</text><text xml:space="preserve" font-family="Palatino-Roman,Palatino" font-size="19.8" fill="#000000" transform="matrix(1.00, 0.00, -0.00, -1.00, 384.3, 32.1)">n</text><text xml:space="preserve" font-family="Palatino-Roman,Palatino" font-size="19.8" fill="#000000" transform="matrix(1.00, 0.00, -0.00, -1.00, 395.8, 32.1)">t</text><text xml:space="preserve" font-family="Palatino-Roman,Palatino" font-size="19.8" fill="#000000" transform="matrix(1.00, 0.00, -0.00, -1.00, 402.3, 32.1)">s</text><text xml:space="preserve" font-family="Palatino-Roman,Palatino" font-size="19.8" fill="#000000" transform="matrix(1.00, 0.00, -0.00, -1.00, 410.7, 32.1)"> </text><text xml:space="preserve" font-family="Palatino-Roman,Palatino" font-size="19.8" fill="#000000" transform="matrix(1.00, 0.00, -0.00, -1.00, 415.6, 32.1)">o</text><text xml:space="preserve" font-family="Palatino-Roman,Palatino" font-size="19.8" fill="#000000" transform="matrix(1.00, 0.00, -0.00, -1.00, 426.4, 32.1)">f</text><text xml:space="preserve" font-family="Palatino-Roman,Palatino" font-size="19.8" fill="#000000" transform="matrix(1.00, 0.00, -0.00, -1.00, 433.0, 32.1)"> </text><text xml:space="preserve" font-family="Palatino-Roman,Palatino" font-size="19.8" fill="#000000" transform="matrix(1.00, 0.00, -0.00, -1.00, 437.9, 32.1)">c</text><text xml:space="preserve" font-family="Palatino-Roman,Palatino" font-size="19.8" fill="#000000" transform="matrix(1.00, 0.00, -0.00, -1.00, 446.7, 32.1)">u</text><text xml:space="preserve" font-family="Palatino-Roman,Palatino" font-size="19.8" fill="#000000" transform="matrix(1.00, 0.00, -0.00, -1.00, 458.6, 32.1)">r</text><text xml:space="preserve" font-family="Palatino-Roman,Palatino" font-size="19.8" fill="#000000" transform="matrix(1.00, 0.00, -0.00, -1.00, 466.4, 32.1)">r</text><text xml:space="preserve" font-family="Palatino-Roman,Palatino" font-size="19.8" fill="#000000" transform="matrix(1.00, 0.00, -0.00, -1.00, 473.8, 32.1)">e</text><text xml:space="preserve" font-family="Palatino-Roman,Palatino" font-size="19.8" fill="#000000" transform="matrix(1.00, 0.00, -0.00, -1.00, 483.3, 32.1)">n</text><text xml:space="preserve" font-family="Palatino-Roman,Palatino" font-size="19.8" fill="#000000" transform="matrix(1.00, 0.00, -0.00, -1.00, 494.8, 32.1)">t</text><text xml:space="preserve" font-family="Palatino-Roman,Palatino" font-size="19.8" fill="#000000" transform="matrix(1.00, 0.00, -0.00, -1.00, 501.3, 32.1)">l</text><text xml:space="preserve" font-family="Palatino-Roman,Palatino" font-size="19.8" fill="#000000" transform="matrix(1.00, 0.00, -0.00, -1.00, 507.0, 32.1)">y</text><text xml:space="preserve" font-family="Palatino-Roman,Palatino" font-size="19.8" fill="#000000" transform="matrix(1.00, 0.00, -0.00, -1.00, 518.0, 32.1)"> </text><text xml:space="preserve" font-family="Palatino-Roman,Palatino" font-size="19.8" fill="#000000" transform="matrix(1.00, 0.00, -0.00, -1.00, 522.9, 32.1)">e</text><text xml:space="preserve" font-family="Palatino-Roman,Palatino" font-size="19.8" fill="#000000" transform="matrix(1.00, 0.00, -0.00, -1.00, 532.4, 32.1)">x</text><text xml:space="preserve" font-family="Palatino-Roman,Palatino" font-size="19.8" fill="#000000" transform="matrix(1.00, 0.00, -0.00, -1.00, 542.6, 32.1)">e</text><text xml:space="preserve" font-family="Palatino-Roman,Palatino" font-size="19.8" fill="#000000" transform="matrix(1.00, 0.00, -0.00, -1.00, 552.1, 32.1)">c</text><text xml:space="preserve" font-family="Palatino-Roman,Palatino" font-size="19.8" fill="#000000" transform="matrix(1.00, 0.00, -0.00, -1.00, 560.8, 32.1)">u</text><text xml:space="preserve" font-family="Palatino-Roman,Palatino" font-size="19.8" fill="#000000" transform="matrix(1.00, 0.00, -0.00, -1.00, 572.8, 32.1)">t</text><text xml:space="preserve" font-family="Palatino-Roman,Palatino" font-size="19.8" fill="#000000" transform="matrix(1.00, 0.00, -0.00, -1.00, 579.2, 32.1)">i</text><text xml:space="preserve" font-family="Palatino-Roman,Palatino" font-size="19.8" fill="#000000" transform="matrix(1.00, 0.00, -0.00, -1.00, 585.0, 32.1)">n</text><text xml:space="preserve" font-family="Palatino-Roman,Palatino" font-size="19.8" fill="#000000" transform="matrix(1.00, 0.00, -0.00, -1.00, 596.5, 32.1)">g</text><text xml:space="preserve" font-family="Palatino-Roman,Palatino" font-size="19.8" fill="#000000" transform="matrix(1.00, 0.00, -0.00, -1.00, 607.5, 32.1)"> </text><text xml:space="preserve" font-family="Palatino-Roman,Palatino" font-size="19.8" fill="#000000" transform="matrix(1.00, 0.00, -0.00, -1.00, 612.4, 32.1)">l</text><text xml:space="preserve" font-family="Palatino-Roman,Palatino" font-size="19.8" fill="#000000" transform="matrix(1.00, 0.00, -0.00, -1.00, 618.1, 32.1)">o</text><text xml:space="preserve" font-family="Palatino-Roman,Palatino" font-size="19.8" fill="#000000" transform="matrix(1.00, 0.00, -0.00, -1.00, 628.9, 32.1)">o</text><text xml:space="preserve" font-family="Palatino-Roman,Palatino" font-size="19.8" fill="#000000" transform="matrix(1.00, 0.00, -0.00, -1.00, 639.7, 32.1)">p</text><text xml:space="preserve" font-family="Palatino-Roman,Palatino" font-size="19.8" fill="#000000" transform="matrix(1.00, 0.00, -0.00, -1.00, 651.6, 32.1)">(</text><text xml:space="preserve" font-family="Palatino-Roman,Palatino" font-size="19.8" fill="#000000" transform="matrix(1.00, 0.00, -0.00, -1.00, 658.2, 32.1)">s</text><text xml:space="preserve" font-family="Palatino-Roman,Palatino" font-size="19.8" fill="#000000" transform="matrix(1.00, 0.00, -0.00, -1.00, 666.5, 32.1)">)</text><text xml:space="preserve" font-family="Palatino-Roman,Palatino" font-size="19.8" fill="#000000" transform="matrix(1.00, 0.00, -0.00, -1.00, 673.1, 32.1)">,</text><text xml:space="preserve" font-family="Palatino-Roman,Palatino" font-size="19.8" fill="#000000" transform="matrix(1.00, 0.00, -0.00, -1.00, 678.1, 32.1)"> </text><text xml:space="preserve" font-family="Palatino-Roman,Palatino" font-size="19.8" fill="#000000" transform="matrix(1.00, 0.00, -0.00, -1.00, 683.0, 32.1)">w</text><text xml:space="preserve" font-family="Palatino-Roman,Palatino" font-size="19.8" fill="#000000" transform="matrix(1.00, 0.00, -0.00, -1.00, 699.5, 32.1)">h</text><text xml:space="preserve" font-family="Palatino-Roman,Palatino" font-size="19.8" fill="#000000" transform="matrix(1.00, 0.00, -0.00, -1.00, 711.0, 32.1)">i</text><text xml:space="preserve" font-family="Palatino-Roman,Palatino" font-size="19.8" fill="#000000" transform="matrix(1.00, 0.00, -0.00, -1.00, 716.7, 32.1)">l</text><text xml:space="preserve" font-family="Palatino-Roman,Palatino" font-size="19.8" fill="#000000" transform="matrix(1.00, 0.00, -0.00, -1.00, 722.5, 32.1)">e</text><text xml:space="preserve" font-family="Palatino-Roman,Palatino" font-size="19.8" fill="#000000" transform="matrix(1.00, 0.00, -0.00, -1.00, 731.9, 32.1)"> </text><text xml:space="preserve" font-family="Palatino-Roman,Palatino" font-size="19.8" fill="#000000" transform="matrix(1.00, 0.00, -0.00, -1.00, 736.9, 32.1)">a</text><text xml:space="preserve" font-family="Palatino-Roman,Palatino" font-size="19.8" fill="#000000" transform="matrix(1.00, 0.00, -0.00, -1.00, 746.8, 32.1)"> </text><text xml:space="preserve" font-family="Palatino-Bold,Palatino" font-weight="bold" font-size="19.8" fill="#000000" transform="matrix(1.00, 0.00, -0.00, -1.00, 751.7, 32.1)">t</text><text xml:space="preserve" font-family="Palatino-Bold,Palatino" font-weight="bold" font-size="19.8" fill="#000000" transform="matrix(1.00, 0.00, -0.00, -1.00, 758.3, 32.1)">a</text><text xml:space="preserve" font-family="Palatino-Bold,Palatino" font-weight="bold" font-size="19.8" fill="#000000" transform="matrix(1.00, 0.00, -0.00, -1.00, 768.2, 32.1)">i</text><text xml:space="preserve" font-family="Palatino-Bold,Palatino" font-weight="bold" font-size="19.8" fill="#000000" transform="matrix(1.00, 0.00, -0.00, -1.00, 774.8, 32.1)">l</text><text xml:space="preserve" font-family="Palatino-Bold,Palatino" font-weight="bold" font-size="19.8" fill="#000000" transform="matrix(1.00, 0.00, -0.00, -1.00, 781.3, 32.1)"> </text><text xml:space="preserve" font-family="Palatino-Bold,Palatino" font-weight="bold" font-size="19.8" fill="#000000" transform="matrix(1.00, 0.00, -0.00, -1.00, 786.3, 32.1)">s</text><text xml:space="preserve" font-family="Palatino-Bold,Palatino" font-weight="bold" font-size="19.8" fill="#000000" transform="matrix(1.00, 0.00, -0.00, -1.00, 795.0, 32.1)">t</text><text xml:space="preserve" font-family="Palatino-Bold,Palatino" font-weight="bold" font-size="19.8" fill="#000000" transform="matrix(1.00, 0.00, -0.00, -1.00, 801.6, 32.1)">a</text><text xml:space="preserve" font-family="Palatino-Bold,Palatino" font-weight="bold" font-size="19.8" fill="#000000" transform="matrix(1.00, 0.00, -0.00, -1.00, 811.5, 32.1)">c</text><text xml:space="preserve" font-family="Palatino-Bold,Palatino" font-weight="bold" font-size="19.8" fill="#000000" transform="matrix(1.00, 0.00, -0.00, -1.00, 820.3, 32.1)">k</text><text xml:space="preserve" font-family="Palatino-Roman,Palatino" font-size="19.8" fill="#000000" transform="matrix(1.00, 0.00, -0.00, -1.00, 832.3, 32.1)"> </text><text xml:space="preserve" font-family="Palatino-Roman,Palatino" font-size="19.8" fill="#000000" transform="matrix(1.00, 0.00, -0.00, -1.00, 837.3, 32.1)">w</text><text xml:space="preserve" font-family="Palatino-Roman,Palatino" font-size="19.8" fill="#000000" transform="matrix(1.00, 0.00, -0.00, -1.00, 853.8, 32.1)">i</text><text xml:space="preserve" font-family="Palatino-Roman,Palatino" font-size="19.8" fill="#000000" transform="matrix(1.00, 0.00, -0.00, -1.00, 859.5, 32.1)">l</text><text xml:space="preserve" font-family="Palatino-Roman,Palatino" font-size="19.8" fill="#000000" transform="matrix(1.00, 0.00, -0.00, -1.00, 865.3, 32.1)">l</text><text xml:space="preserve" font-family="Palatino-Roman,Palatino" font-size="19.8" fill="#000000" transform="matrix(1.00, 0.00, -0.00, -1.00, 871.0, 32.1)"> </text><text xml:space="preserve" font-family="Palatino-Roman,Palatino" font-size="19.8" fill="#000000" transform="matrix(1.00, 0.00, -0.00, -1.00, 876.0, 32.1)">s</text><text xml:space="preserve" font-family="Palatino-Roman,Palatino" font-size="19.8" fill="#000000" transform="matrix(1.00, 0.00, -0.00, -1.00, 884.3, 32.1)">t</text><text xml:space="preserve" font-family="Palatino-Roman,Palatino" font-size="19.8" fill="#000000" transform="matrix(1.00, 0.00, -0.00, -1.00, 890.8, 32.1)">o</text><text xml:space="preserve" font-family="Palatino-Roman,Palatino" font-size="19.8" fill="#000000" transform="matrix(1.00, 0.00, -0.00, -1.00, 901.6, 32.1)">r</text><text xml:space="preserve" font-family="Palatino-Roman,Palatino" font-size="19.8" fill="#000000" transform="matrix(1.00, 0.00, -0.00, -1.00, 909.0, 32.1)">e</text><text xml:space="preserve" font-family="Palatino-Roman,Palatino" font-size="19.8" fill="#000000" transform="matrix(1.00, 0.00, -0.00, -1.00, 918.5, 32.1)"> </text><text xml:space="preserve" font-family="Palatino-Roman,Palatino" font-size="19.8" fill="#000000" transform="matrix(1.00, 0.00, -0.00, -1.00, 20.8, 7.1)">t</text><text xml:space="preserve" font-family="Palatino-Roman,Palatino" font-size="19.8" fill="#000000" transform="matrix(1.00, 0.00, -0.00, -1.00, 27.2, 7.1)">h</text><text xml:space="preserve" font-family="Palatino-Roman,Palatino" font-size="19.8" fill="#000000" transform="matrix(1.00, 0.00, -0.00, -1.00, 38.8, 7.1)">e</text><text xml:space="preserve" font-family="Palatino-Roman,Palatino" font-size="19.8" fill="#000000" transform="matrix(1.00, 0.00, -0.00, -1.00, 48.2, 7.1)"> </text><text xml:space="preserve" font-family="Palatino-Roman,Palatino" font-size="19.8" fill="#000000" transform="matrix(1.00, 0.00, -0.00, -1.00, 53.2, 7.1)">c</text><text xml:space="preserve" font-family="Palatino-Roman,Palatino" font-size="19.8" fill="#000000" transform="matrix(1.00, 0.00, -0.00, -1.00, 61.9, 7.1)">o</text><text xml:space="preserve" font-family="Palatino-Roman,Palatino" font-size="19.8" fill="#000000" transform="matrix(1.00, 0.00, -0.00, -1.00, 72.7, 7.1)">d</text><text xml:space="preserve" font-family="Palatino-Roman,Palatino" font-size="19.8" fill="#000000" transform="matrix(1.00, 0.00, -0.00, -1.00, 84.8, 7.1)">e</text><text xml:space="preserve" font-family="Palatino-Roman,Palatino" font-size="19.8" fill="#000000" transform="matrix(1.00, 0.00, -0.00, -1.00, 94.2, 7.1)"> </text><text xml:space="preserve" font-family="Palatino-Roman,Palatino" font-size="19.8" fill="#000000" transform="matrix(1.00, 0.00, -0.00, -1.00, 99.2, 7.1)">t</text><text xml:space="preserve" font-family="Palatino-Roman,Palatino" font-size="19.8" fill="#000000" transform="matrix(1.00, 0.00, -0.00, -1.00, 105.6, 7.1)">o</text><text xml:space="preserve" font-family="Palatino-Roman,Palatino" font-size="19.8" fill="#000000" transform="matrix(1.00, 0.00, -0.00, -1.00, 116.4, 7.1)"> </text><text xml:space="preserve" font-family="Palatino-Roman,Palatino" font-size="19.8" fill="#000000" transform="matrix(1.00, 0.00, -0.00, -1.00, 121.4, 7.1)">b</text><text xml:space="preserve" font-family="Palatino-Roman,Palatino" font-size="19.8" fill="#000000" transform="matrix(1.00, 0.00, -0.00, -1.00, 132.3, 7.1)">e</text><text xml:space="preserve" font-family="Palatino-Roman,Palatino" font-size="19.8" fill="#000000" transform="matrix(1.00, 0.00, -0.00, -1.00, 141.8, 7.1)"> </text><text xml:space="preserve" font-family="Palatino-Roman,Palatino" font-size="19.8" fill="#000000" transform="matrix(1.00, 0.00, -0.00, -1.00, 146.7, 7.1)">e</text><text xml:space="preserve" font-family="Palatino-Roman,Palatino" font-size="19.8" fill="#000000" transform="matrix(1.00, 0.00, -0.00, -1.00, 156.2, 7.1)">x</text><text xml:space="preserve" font-family="Palatino-Roman,Palatino" font-size="19.8" fill="#000000" transform="matrix(1.00, 0.00, -0.00, -1.00, 166.4, 7.1)">e</text><text xml:space="preserve" font-family="Palatino-Roman,Palatino" font-size="19.8" fill="#000000" transform="matrix(1.00, 0.00, -0.00, -1.00, 175.8, 7.1)">c</text><text xml:space="preserve" font-family="Palatino-Roman,Palatino" font-size="19.8" fill="#000000" transform="matrix(1.00, 0.00, -0.00, -1.00, 184.6, 7.1)">u</text><text xml:space="preserve" font-family="Palatino-Roman,Palatino" font-size="19.8" fill="#000000" transform="matrix(1.00, 0.00, -0.00, -1.00, 196.5, 7.1)">t</text><text xml:space="preserve" font-family="Palatino-Roman,Palatino" font-size="19.8" fill="#000000" transform="matrix(1.00, 0.00, -0.00, -1.00, 203.0, 7.1)">e</text><text xml:space="preserve" font-family="Palatino-Roman,Palatino" font-size="19.8" fill="#000000" transform="matrix(1.00, 0.00, -0.00, -1.00, 212.4, 7.1)">d</text><text xml:space="preserve" font-family="Palatino-Roman,Palatino" font-size="19.8" fill="#000000" transform="matrix(1.00, 0.00, -0.00, -1.00, 224.5, 7.1)"> </text><text xml:space="preserve" font-family="Palatino-Roman,Palatino" font-size="19.8" fill="#000000" transform="matrix(1.00, 0.00, -0.00, -1.00, 229.4, 7.1)">o</text><text xml:space="preserve" font-family="Palatino-Roman,Palatino" font-size="19.8" fill="#000000" transform="matrix(1.00, 0.00, -0.00, -1.00, 240.2, 7.1)">n</text><text xml:space="preserve" font-family="Palatino-Roman,Palatino" font-size="19.8" fill="#000000" transform="matrix(1.00, 0.00, -0.00, -1.00, 251.7, 7.1)">c</text><text xml:space="preserve" font-family="Palatino-Roman,Palatino" font-size="19.8" fill="#000000" transform="matrix(1.00, 0.00, -0.00, -1.00, 260.5, 7.1)">e</text><text xml:space="preserve" font-family="Palatino-Roman,Palatino" font-size="19.8" fill="#000000" transform="matrix(1.00, 0.00, -0.00, -1.00, 269.9, 7.1)"> </text><text xml:space="preserve" font-family="Palatino-Roman,Palatino" font-size="19.8" fill="#000000" transform="matrix(1.00, 0.00, -0.00, -1.00, 274.9, 7.1)">t</text><text xml:space="preserve" font-family="Palatino-Roman,Palatino" font-size="19.8" fill="#000000" transform="matrix(1.00, 0.00, -0.00, -1.00, 281.3, 7.1)">h</text><text xml:space="preserve" font-family="Palatino-Roman,Palatino" font-size="19.8" fill="#000000" transform="matrix(1.00, 0.00, -0.00, -1.00, 292.8, 7.1)">e</text><text xml:space="preserve" font-family="Palatino-Roman,Palatino" font-size="19.8" fill="#000000" transform="matrix(1.00, 0.00, -0.00, -1.00, 302.3, 7.1)"> </text><text xml:space="preserve" font-family="Palatino-Roman,Palatino" font-size="19.8" fill="#000000" transform="matrix(1.00, 0.00, -0.00, -1.00, 307.2, 7.1)">l</text><text xml:space="preserve" font-family="Palatino-Roman,Palatino" font-size="19.8" fill="#000000" transform="matrix(1.00, 0.00, -0.00, -1.00, 313.0, 7.1)">o</text><text xml:space="preserve" font-family="Palatino-Roman,Palatino" font-size="19.8" fill="#000000" transform="matrix(1.00, 0.00, -0.00, -1.00, 323.8, 7.1)">o</text><text xml:space="preserve" font-family="Palatino-Roman,Palatino" font-size="19.8" fill="#000000" transform="matrix(1.00, 0.00, -0.00, -1.00, 334.6, 7.1)">p</text><text xml:space="preserve" font-family="Palatino-Roman,Palatino" font-size="19.8" fill="#000000" transform="matrix(1.00, 0.00, -0.00, -1.00, 346.4, 7.1)"> </text><text xml:space="preserve" font-family="Palatino-Roman,Palatino" font-size="19.8" fill="#000000" transform="matrix(1.00, 0.00, -0.00, -1.00, 351.4, 7.1)">e</text><text xml:space="preserve" font-family="Palatino-Roman,Palatino" font-size="19.8" fill="#000000" transform="matrix(1.00, 0.00, -0.00, -1.00, 360.8, 7.1)">n</text><text xml:space="preserve" font-family="Palatino-Roman,Palatino" font-size="19.8" fill="#000000" transform="matrix(1.00, 0.00, -0.00, -1.00, 372.3, 7.1)">d</text><text xml:space="preserve" font-family="Palatino-Roman,Palatino" font-size="19.8" fill="#000000" transform="matrix(1.00, 0.00, -0.00, -1.00, 384.4, 7.1)">s</text></g></svg>