<?xml version="1.0" encoding="UTF-8" standalone="no"?><svg xmlns="http://www.w3.org/2000/svg" xmlns:xlink="http://www.w3.org/1999/xlink" clip-rule="evenodd" stroke-miterlimit="10" viewBox="0 0 52 55"><desc>SVG generated by Keynote</desc><defs></defs><g transform="matrix(1.00, 0.00, -0.00, -1.00, 0.0, 55.0)"><path d="M 35.1 23.6 C 34.8 23.7 34.7 23.2 34.1 23.1 C 33.4 22.9 32.5 22.9 32.7 23.2 C 32.8 23.5 33.0 23.7 32.7 24.1 C 32.3 24.5 32.0 25.2 32.4 25.5 C 32.8 25.8 33.9 26.5 34.4 26.1 C 34.9 25.7 35.2 25.6 35.6 25.3 C 36.1 25.1 35.4 25.9 35.4 25.9 C 35.4 25.9 36.1 26.0 36.5 26.1 C 37.0 26.1 37.6 26.1 37.7 26.0 C 37.9 25.9 38.4 25.6 38.4 25.6 C 38.4 25.6 38.3 26.0 38.6 26.0 C 38.9 26.1 39.0 25.9 39.2 25.7 C 39.3 25.5 39.4 25.0 39.6 25.0 C 39.8 25.0 39.4 25.8 39.6 25.9 C 39.7 26.0 40.4 25.9 40.4 25.9 C 40.4 25.9 41.0 25.5 41.2 25.3 C 41.4 25.2 42.2 25.2 42.0 25.3 C 41.7 25.5 40.9 26.0 41.2 26.0 C 42.0 26.1 43.4 25.2 43.6 25.2 C 43.7 25.2 42.5 25.9 42.5 26.0 C 42.5 26.0 43.0 26.0 43.5 26.0 C 43.3 26.4 43.1 26.7 43.2 26.7 C 43.5 26.6 41.9 27.7 42.5 27.6 C 43.1 27.5 43.3 27.5 43.4 27.4 C 43.6 27.4 44.6 27.3 44.0 27.6 C 43.4 27.9 42.5 27.8 41.9 28.2 C 41.4 28.5 40.6 29.5 40.8 29.6 C 41.1 29.6 42.2 29.3 42.0 29.5 C 41.9 29.7 40.0 30.7 40.2 30.6 C 40.4 30.6 41.5 30.4 41.7 30.3 C 41.9 30.3 43.8 30.0 44.1 29.8 C 44.5 29.5 46.0 28.5 45.3 28.8 C 44.6 29.1 43.7 29.5 43.7 29.3 C 43.6 29.1 43.7 29.0 43.9 28.8 C 44.2 28.7 44.4 28.8 45.1 28.2 C 45.9 27.6 46.2 27.7 46.5 27.3 C 46.8 26.8 47.0 26.5 46.4 26.7 C 45.9 26.9 45.5 26.8 45.8 26.5 C 46.1 26.2 46.8 26.2 48.0 25.1 C 49.3 23.9 49.9 23.2 49.6 23.1 C 49.6 23.1 49.5 23.1 49.4 23.1 C 48.5 23.4 47.5 23.9 47.6 23.6 C 47.6 23.3 48.3 23.1 47.4 23.1 C 46.6 23.1 45.3 23.7 44.7 23.7 C 44.2 23.8 44.1 23.7 44.1 23.7 C 44.1 23.7 45.7 22.9 44.5 22.9 C 43.3 22.8 43.1 22.7 42.6 23.3 C 42.0 24.0 41.2 24.0 41.6 23.6 C 42.0 23.2 41.6 22.9 41.2 22.9 C 40.9 22.8 39.8 23.9 39.6 23.9 C 39.4 23.9 39.0 23.8 39.5 23.5 C 40.0 23.2 39.5 23.1 39.3 23.0 C 39.0 22.9 37.8 23.0 37.7 23.1 C 37.6 23.3 37.6 24.0 37.2 23.7 C 36.6 23.3 36.7 22.8 35.9 22.9 C 35.2 22.9 35.6 23.5 35.1 23.6 C 35.1 23.6 35.1 23.6 35.1 23.6 Z M 44.4 30.0 C 45.1 29.0 40.4 30.8 39.3 31.3 C 38.2 31.7 38.4 32.1 37.9 32.6 C 37.4 33.0 38.7 32.7 38.8 33.0 C 38.9 33.2 38.2 33.2 37.6 33.4 C 37.0 33.5 36.9 34.2 36.5 34.7 C 36.1 35.1 36.8 35.7 36.5 36.0 C 36.3 36.4 37.3 35.8 36.7 36.5 C 36.1 37.2 35.8 36.7 36.1 35.9 C 36.4 35.1 35.3 36.1 34.9 36.5 C 34.5 36.8 34.4 37.6 34.1 37.9 C 33.8 38.2 34.8 38.1 34.3 38.6 C 33.9 39.0 33.5 38.5 33.1 38.9 C 32.6 39.3 33.2 39.6 33.1 39.9 C 33.0 40.3 32.8 40.0 32.6 40.1 C 32.4 40.3 32.0 40.5 31.7 41.0 C 31.5 41.6 31.7 41.6 31.6 41.9 C 31.4 42.1 31.1 42.5 31.1 42.5 C 31.0 42.3 30.8 42.2 30.7 42.0 C 30.7 42.0 30.0 42.7 29.8 42.9 C 29.6 43.1 29.3 43.9 29.5 43.9 C 29.7 44.0 29.4 45.0 29.3 45.0 C 29.1 45.0 28.7 45.1 28.4 45.2 C 28.2 45.3 28.7 47.3 28.8 47.6 C 28.8 47.9 28.9 49.3 29.2 49.1 C 29.5 48.9 29.6 48.2 29.6 48.6 C 29.7 48.9 30.4 47.7 30.6 47.4 C 30.8 47.1 30.8 46.1 30.8 46.1 C 30.8 46.1 30.7 45.3 31.0 44.9 C 31.3 44.5 32.0 45.4 32.0 45.4 C 32.0 45.4 32.6 45.0 33.0 44.5 C 33.4 43.9 33.2 42.6 33.2 42.4 C 33.1 42.1 33.7 42.7 34.0 42.4 C 34.4 42.1 35.0 41.8 35.1 41.6 C 35.2 41.4 35.0 40.8 35.0 40.8 C 35.0 40.8 35.2 40.0 35.3 39.8 C 35.4 39.7 35.9 40.3 35.9 40.3 C 35.9 40.3 37.3 39.0 37.6 38.7 C 37.9 38.4 38.1 37.8 38.2 37.6 C 38.3 37.4 37.5 36.8 37.8 36.6 C 38.2 36.3 38.3 37.0 38.6 36.7 C 39.0 36.4 39.7 35.8 39.8 35.7 C 40.0 35.5 39.7 35.3 39.9 35.0 C 40.0 34.7 39.3 34.4 39.7 34.0 C 40.0 33.6 40.7 33.4 41.0 33.2 C 41.2 33.0 42.2 32.8 42.5 32.5 C 42.8 32.1 42.0 32.5 42.2 32.2 C 42.5 31.8 41.8 32.0 42.2 31.6 C 42.6 31.3 43.6 31.3 43.7 30.9 C 43.8 30.8 43.7 30.9 44.4 30.0 C 44.4 30.0 44.4 30.0 44.4 30.0 Z M 28.5 49.8 C 29.0 49.8 29.2 48.8 29.1 48.4 C 28.9 48.0 28.5 46.9 28.6 46.5 C 28.6 46.0 28.7 44.7 28.2 45.1 C 27.7 45.5 27.6 46.0 27.7 46.4 C 27.7 46.7 27.8 48.2 27.7 48.2 C 27.5 48.3 27.3 48.1 27.3 47.9 C 27.2 47.8 26.9 46.6 26.7 47.1 C 26.5 47.6 26.3 48.3 26.3 48.3 C 26.1 48.5 26.0 48.7 25.9 48.8 C 25.9 48.8 25.9 48.8 25.9 48.8 C 25.8 48.4 25.5 47.6 25.3 47.5 C 25.1 47.4 24.8 47.0 24.6 46.7 C 24.4 46.4 24.2 46.3 24.1 46.5 C 24.0 46.8 23.6 47.6 23.6 47.6 C 23.6 47.6 23.2 47.5 23.1 47.1 C 23.0 46.7 23.1 46.1 23.2 45.9 C 23.3 45.7 23.4 45.1 23.2 44.8 C 23.0 44.4 22.4 42.9 22.2 43.1 C 21.9 43.2 21.8 43.6 21.7 43.6 C 21.5 43.5 20.9 42.9 21.0 42.6 C 21.1 42.3 21.4 41.9 21.2 41.7 C 21.0 41.6 20.8 41.1 20.7 41.2 C 20.6 41.3 20.5 41.3 20.3 41.5 C 20.1 41.7 19.6 41.5 19.4 41.5 C 19.3 41.5 18.9 41.2 18.9 41.2 C 18.9 40.9 18.9 40.7 18.9 40.4 C 18.9 40.4 19.5 40.3 19.7 40.4 C 19.8 40.4 19.9 40.0 19.9 39.9 C 19.8 39.7 19.2 39.1 19.2 39.1 C 18.8 39.3 18.5 39.5 18.2 39.7 C 18.0 39.5 17.7 39.4 17.5 39.2 C 17.5 39.2 18.7 38.6 18.5 38.3 C 18.2 37.9 17.9 37.5 17.9 37.5 C 17.9 37.5 17.1 37.3 16.9 37.2 C 16.8 37.1 15.5 37.5 15.5 37.5 C 15.1 37.6 14.6 37.8 14.2 38.0 C 14.2 38.0 14.2 38.7 14.6 39.0 C 15.0 39.2 15.3 38.8 15.6 38.7 C 15.9 38.7 16.4 39.0 16.4 39.0 C 16.3 39.3 16.3 39.7 16.2 40.0 C 16.2 40.0 16.1 40.3 16.1 40.7 C 16.1 41.0 16.6 41.9 16.8 42.0 C 17.1 42.2 17.5 42.2 17.9 42.3 C 18.2 42.4 18.5 42.0 18.5 42.6 C 18.5 43.1 18.4 43.6 18.5 43.7 C 18.7 43.9 19.5 44.2 19.5 44.2 C 19.7 44.3 19.9 44.4 20.1 44.5 C 20.1 44.5 20.6 44.7 20.5 45.1 C 20.4 45.4 21.4 46.1 21.4 46.1 C 21.4 46.1 20.9 46.9 21.1 47.3 C 21.3 47.7 21.6 48.4 22.0 48.6 C 22.3 48.9 22.8 48.3 22.8 48.3 C 22.9 48.6 22.9 49.0 23.0 49.4 C 23.3 49.9 23.6 50.4 23.9 50.9 C 23.9 50.9 24.7 51.8 24.7 51.6 C 24.7 51.4 24.7 50.2 24.7 50.0 C 24.8 49.8 25.2 49.9 25.2 50.3 C 25.2 50.7 25.5 52.1 25.5 52.1 C 25.5 52.1 25.7 52.7 25.9 53.2 C 25.9 53.2 26.0 53.2 26.0 53.1 C 26.2 52.9 26.5 52.1 26.6 51.8 C 26.7 51.5 27.0 50.3 27.0 50.3 C 27.1 50.5 27.2 50.7 27.3 50.9 C 27.3 50.9 27.8 49.8 28.5 49.8 C 28.5 49.8 28.5 49.8 28.5 49.8 Z M 13.4 37.7 C 14.2 38.7 16.5 37.2 16.8 36.8 C 17.2 36.4 16.4 36.0 16.2 35.5 C 16.0 35.1 15.1 35.3 14.5 35.0 C 14.0 34.7 14.8 34.8 15.1 34.7 C 15.6 34.6 14.5 33.8 14.3 33.4 C 14.0 33.0 12.3 32.3 11.9 31.9 C 11.5 31.5 11.5 32.1 11.0 31.4 C 10.5 30.7 11.6 31.3 12.6 32.1 C 13.6 32.9 13.1 32.0 13.0 31.6 C 12.8 31.3 11.7 30.4 11.5 30.1 C 11.3 29.8 10.5 29.9 10.1 29.4 C 9.8 28.9 11.2 29.6 11.0 29.2 C 10.8 28.8 9.7 28.4 9.2 28.1 C 8.8 27.7 9.5 28.0 9.5 27.9 C 9.4 27.7 9.5 27.6 8.9 27.0 C 8.2 26.4 7.9 26.3 7.7 26.1 C 7.4 25.9 7.2 25.5 7.1 25.5 C 7.1 25.5 7.1 25.5 7.1 25.5 C 7.6 25.7 8.1 25.9 8.7 26.2 C 8.7 26.2 9.8 26.2 10.2 26.3 C 10.6 26.3 10.8 26.0 10.3 25.9 C 9.8 25.7 9.8 25.3 10.1 25.4 C 10.4 25.5 11.6 25.8 12.2 26.0 C 12.8 26.1 9.8 24.4 9.4 24.2 C 9.0 23.9 7.7 23.0 7.1 22.9 C 6.6 22.8 6.8 23.1 6.5 22.9 C 6.1 22.6 5.3 22.9 5.0 22.9 C 4.7 22.9 5.5 23.5 5.5 23.5 C 5.5 23.5 6.2 24.1 5.7 24.1 C 5.2 24.1 2.9 23.0 2.9 23.0 C 2.9 23.0 2.2 22.9 1.7 22.8 C 1.7 22.9 1.8 23.1 2.0 23.2 C 2.5 23.8 4.7 25.2 5.2 25.4 C 5.6 25.7 4.0 25.0 4.1 25.3 C 4.2 25.5 4.2 25.9 4.4 26.1 C 4.6 26.3 5.8 26.9 5.8 26.9 C 5.8 26.9 6.9 27.8 7.0 28.0 C 7.2 28.1 5.5 27.4 5.5 27.4 C 5.5 27.4 6.3 28.7 6.5 29.0 C 6.6 29.3 7.3 29.8 7.6 30.1 C 7.8 30.3 9.6 31.0 9.7 31.2 C 9.8 31.5 8.5 30.7 8.6 31.0 C 8.7 31.3 8.8 31.8 9.0 32.0 C 9.1 32.1 9.8 32.4 10.0 32.7 C 10.3 33.0 11.6 33.4 11.9 33.8 C 12.2 34.2 11.8 34.4 11.8 34.5 C 11.8 34.7 11.1 34.8 11.3 35.2 C 11.6 35.5 11.9 35.2 12.2 35.5 C 12.4 35.9 13.0 35.8 13.1 36.1 C 13.2 36.4 12.2 36.4 12.6 36.7 C 12.8 36.9 12.6 36.7 13.4 37.7 C 13.4 37.7 13.4 37.7 13.4 37.7 Z M 8.3 23.0 C 7.1 22.6 7.4 23.1 8.1 23.4 C 8.8 23.8 10.6 24.8 10.9 25.1 C 11.2 25.3 11.8 26.0 12.9 26.2 C 13.9 26.3 13.6 26.0 13.2 25.8 C 12.9 25.6 11.4 24.5 11.8 24.6 C 12.2 24.7 12.8 25.0 13.1 25.1 C 13.4 25.3 15.2 26.3 15.3 26.1 C 15.5 26.0 15.5 25.7 15.5 25.7 C 15.7 25.7 15.8 25.7 16.0 25.7 C 16.0 25.7 17.4 26.3 17.6 26.1 C 17.9 26.0 18.3 26.0 18.7 26.0 C 19.1 26.1 19.3 26.0 19.1 25.7 C 18.9 25.5 18.4 24.7 18.4 24.7 C 18.4 24.7 18.7 24.5 19.1 24.6 C 19.2 24.6 19.4 24.7 19.5 24.8 C 19.7 24.9 20.0 25.1 20.1 25.3 C 20.3 25.5 20.7 25.9 20.8 25.7 C 20.9 25.4 21.4 24.3 21.1 23.8 C 20.8 23.3 20.5 23.0 20.4 22.7 C 20.3 22.4 20.2 21.3 20.5 21.5 C 20.7 21.6 21.2 22.2 21.1 21.9 C 21.1 21.5 21.2 21.1 21.1 20.9 C 21.0 20.8 20.8 20.5 20.5 20.1 C 20.3 19.8 20.0 19.0 19.9 18.8 C 19.8 18.5 19.7 18.0 19.7 18.0 C 19.9 17.9 20.0 17.9 20.2 17.8 C 20.2 17.8 20.7 18.7 20.8 19.0 C 20.9 19.3 21.2 19.3 21.2 19.1 C 21.3 19.0 21.2 17.8 21.2 17.8 C 20.8 17.4 20.4 17.0 20.0 16.6 C 20.0 16.2 19.9 15.9 19.8 15.5 C 19.8 15.5 21.1 17.0 21.1 16.4 C 21.1 15.9 21.1 15.2 21.1 15.2 C 21.1 15.2 20.6 14.1 20.6 14.0 C 20.5 13.8 19.3 12.5 19.3 12.5 C 18.9 12.1 18.4 11.7 17.9 11.2 C 17.9 11.2 17.5 11.4 17.7 12.0 C 17.9 12.5 18.4 12.7 18.6 13.0 C 18.8 13.3 19.1 14.1 19.1 14.1 C 18.8 14.1 18.5 14.1 18.3 14.0 C 18.3 14.0 18.0 14.0 17.8 14.0 C 17.6 14.0 17.4 14.7 17.5 15.1 C 17.6 15.4 17.9 16.0 18.2 16.5 C 18.4 17.0 18.8 17.4 18.5 17.4 C 18.2 17.5 17.8 17.3 17.8 17.5 C 17.8 17.6 18.3 18.9 18.3 18.9 C 18.4 19.2 18.5 19.5 18.6 19.9 C 18.6 19.9 18.8 20.7 18.6 20.5 C 18.3 20.3 18.6 21.8 18.6 21.8 C 18.6 21.8 17.8 20.8 17.6 21.0 C 17.5 21.1 17.3 21.4 17.4 22.1 C 17.5 22.4 17.8 23.0 18.1 23.4 C 18.1 23.5 18.2 23.7 18.2 23.7 C 17.8 23.5 17.5 23.3 17.1 23.1 C 16.5 23.0 15.9 22.9 15.4 22.9 C 15.4 22.9 14.3 22.9 14.4 23.1 C 14.6 23.2 15.6 23.9 15.8 24.1 C 15.9 24.3 15.7 24.5 15.3 24.3 C 14.9 24.0 13.6 23.4 13.6 23.4 C 13.6 23.4 12.6 23.0 12.2 22.9 C 11.8 22.9 11.6 23.1 11.6 23.2 C 11.7 23.4 11.9 23.9 11.9 23.9 C 11.5 23.7 11.0 23.5 10.5 23.2 C 10.5 23.2 10.2 23.6 8.3 23.0 C 8.3 23.0 8.3 23.0 8.3 23.0 Z M 17.5 10.4 C 17.6 11.5 20.2 13.4 20.8 13.6 C 21.3 13.7 21.0 12.6 21.1 12.0 C 21.2 11.4 20.3 10.8 20.1 10.1 C 19.8 9.5 20.4 10.2 20.8 10.4 C 21.2 10.6 20.8 9.2 20.9 8.5 C 20.9 7.9 20.0 6.4 20.0 5.8 C 19.9 5.2 19.5 5.8 19.5 4.9 C 19.6 4.0 20.1 4.9 20.4 6.3 C 20.6 7.6 20.9 6.4 21.0 5.9 C 21.0 5.8 21.0 5.7 21.0 5.6 C 21.4 5.5 21.7 5.3 22.1 5.3 C 22.5 5.4 21.5 4.7 22.1 4.7 C 22.7 4.7 22.8 5.4 23.4 5.5 C 24.0 5.6 23.7 5.0 23.9 4.8 C 24.2 4.7 24.2 5.1 24.5 5.1 C 24.7 5.2 25.1 5.4 25.6 5.2 C 26.2 5.1 26.0 4.9 26.3 4.8 C 26.5 4.8 27.0 4.8 27.0 4.8 C 27.0 5.0 27.0 5.2 26.9 5.5 C 26.9 5.5 27.8 5.5 28.1 5.6 C 28.3 5.6 29.1 5.3 29.0 5.2 C 28.9 5.0 29.9 4.6 30.0 4.7 C 30.0 4.8 30.3 5.1 30.5 5.3 C 30.7 5.4 32.2 3.7 32.4 3.4 C 32.6 3.2 33.8 2.3 33.4 2.2 C 33.1 2.1 32.4 2.4 32.7 2.2 C 33.0 1.9 31.4 2.2 31.1 2.2 C 30.7 2.2 29.9 2.8 29.9 2.8 C 29.9 2.8 29.3 3.3 28.8 3.3 C 28.3 3.3 28.4 2.3 28.4 2.3 C 28.4 2.3 27.7 2.1 27.0 2.1 C 26.2 2.2 25.5 3.1 25.4 3.3 C 25.2 3.4 25.2 2.6 24.7 2.5 C 24.2 2.4 23.3 2.2 23.1 2.2 C 22.9 2.3 22.8 2.8 22.8 2.8 C 22.8 2.8 22.1 3.2 21.9 3.2 C 21.7 3.2 21.6 2.4 21.6 2.4 C 21.6 2.4 19.4 2.1 19.0 2.1 C 18.5 2.0 18.0 2.2 17.8 2.3 C 17.7 2.3 17.7 2.3 17.7 2.3 C 17.9 2.7 18.7 3.8 18.6 4.1 C 18.5 4.3 18.0 3.1 17.9 3.3 C 17.8 3.6 17.6 4.0 17.6 4.2 C 17.6 4.4 17.9 5.0 18.0 5.3 C 18.0 5.7 18.8 6.8 18.8 7.3 C 18.8 7.8 18.3 7.6 18.2 7.6 C 18.1 7.7 17.5 7.2 17.5 7.5 C 17.4 7.9 17.9 8.1 17.9 8.4 C 17.9 8.8 18.4 9.3 18.3 9.5 C 18.2 9.8 17.4 8.8 17.5 9.3 C 17.5 9.5 17.5 9.3 17.5 10.4 C 17.5 10.4 17.5 10.4 17.5 10.4 Z M 33.4 4.7 C 33.3 4.6 33.8 3.9 33.9 3.2 C 34.0 2.8 34.0 2.5 34.0 2.3 C 33.7 2.3 33.3 2.3 33.3 2.5 C 33.1 2.8 33.2 3.0 32.5 3.4 C 31.8 3.8 30.8 4.5 31.0 4.8 C 31.0 4.9 31.1 5.0 31.2 5.1 C 30.9 6.0 30.7 7.1 30.9 7.2 C 31.3 7.3 31.4 7.3 31.7 7.5 C 31.9 7.7 31.1 8.1 31.1 8.1 C 31.1 8.1 31.0 9.0 31.0 9.6 C 30.9 10.3 30.9 11.0 31.0 11.0 C 31.1 11.0 31.4 11.0 31.4 11.0 C 31.4 11.0 31.1 11.6 31.0 12.1 C 30.9 12.5 31.1 12.3 31.3 12.1 C 31.5 11.9 32.0 11.0 32.0 11.2 C 32.0 11.4 31.2 12.5 31.1 12.9 C 31.1 13.2 31.1 13.9 31.1 13.9 C 31.1 13.9 31.6 13.6 31.7 13.6 C 31.8 13.6 31.8 14.3 31.7 14.4 C 31.5 14.5 31.0 14.7 31.0 15.1 C 30.9 16.2 31.8 15.7 31.8 15.8 C 31.8 15.9 31.2 16.2 31.1 16.5 C 31.0 16.8 31.1 18.9 31.2 19.0 C 31.4 19.0 30.8 19.9 31.2 20.1 C 31.6 20.4 31.7 20.4 31.9 20.5 C 32.0 20.5 32.6 20.8 32.4 21.1 C 32.1 21.3 31.3 20.6 31.1 20.9 C 30.9 21.2 30.9 22.6 31.1 22.8 C 31.4 23.1 32.0 23.1 32.0 23.3 C 32.0 23.5 31.2 24.3 31.3 24.4 C 31.5 24.5 32.2 24.6 32.3 24.6 C 32.4 24.6 33.7 24.8 33.8 24.7 C 34.0 24.5 34.5 23.5 34.1 23.7 C 33.8 23.8 33.3 24.0 33.2 23.7 C 33.0 23.4 33.0 23.2 33.1 23.1 C 33.2 23.1 33.4 23.2 33.6 22.7 C 33.9 22.1 34.2 22.4 34.1 21.8 C 34.1 21.3 34.0 20.9 33.8 21.0 C 33.5 21.1 33.1 20.6 33.1 20.2 C 33.1 19.9 33.7 20.3 34.0 19.1 C 34.2 17.9 34.3 17.1 34.0 16.9 C 33.8 16.6 33.1 16.8 33.4 16.2 C 33.7 15.5 33.9 15.7 33.9 15.0 C 33.9 14.3 33.3 14.2 33.3 13.8 C 33.2 13.3 33.3 13.2 33.3 13.2 C 33.3 13.2 34.1 13.0 34.2 11.9 C 34.2 10.8 34.3 10.5 33.7 11.1 C 33.1 11.7 33.0 10.9 33.4 10.7 C 33.8 10.4 34.1 9.6 34.1 9.2 C 34.2 8.7 33.2 9.4 33.1 9.2 C 33.1 9.1 33.2 8.6 33.5 8.6 C 33.8 8.5 33.9 8.0 34.0 7.6 C 34.1 7.2 34.0 6.3 33.9 6.4 C 33.7 6.6 33.0 7.6 33.4 6.7 C 33.7 5.7 34.2 5.1 34.2 4.5 C 34.1 3.9 33.5 5.0 33.4 4.7 C 33.4 4.7 33.4 4.7 33.4 4.7 Z M 33.4 4.7 " fill="#605F5C"></path></g></svg>