<?xml version="1.0" encoding="UTF-8" standalone="no"?><svg xmlns="http://www.w3.org/2000/svg" xmlns:xlink="http://www.w3.org/1999/xlink" clip-rule="evenodd" stroke-miterlimit="10" viewBox="0 0 861 25"><desc>SVG generated by Keynote</desc><defs></defs><g transform="matrix(1.00, 0.00, -0.00, -1.00, 0.0, 25.0)"><text xml:space="preserve" font-family="ZapfDingbatsITC,Zapf Dingbats" font-size="13.8" fill="#5B86B8" transform="matrix(1.00, 0.00, -0.00, -1.00, 0.0, 8.5)">✤</text><text xml:space="preserve" font-family="Palatino-Roman,Palatino" font-size="19.8" fill="#000000" transform="matrix(1.00, 0.00, -0.00, -1.00, 20.8, 7.1)">W</text><text xml:space="preserve" font-family="Palatino-Roman,Palatino" font-size="19.8" fill="#000000" transform="matrix(1.00, 0.00, -0.00, -1.00, 40.6, 7.1)">h</text><text xml:space="preserve" font-family="Palatino-Roman,Palatino" font-size="19.8" fill="#000000" transform="matrix(1.00, 0.00, -0.00, -1.00, 52.1, 7.1)">e</text><text xml:space="preserve" font-family="Palatino-Roman,Palatino" font-size="19.8" fill="#000000" transform="matrix(1.00, 0.00, -0.00, -1.00, 61.5, 7.1)">n</text><text xml:space="preserve" font-family="Palatino-Roman,Palatino" font-size="19.8" fill="#000000" transform="matrix(1.00, 0.00, -0.00, -1.00, 73.0, 7.1)"> </text><text xml:space="preserve" font-family="Palatino-Roman,Palatino" font-size="19.8" fill="#000000" transform="matrix(1.00, 0.00, -0.00, -1.00, 78.0, 7.1)">e</text><text xml:space="preserve" font-family="Palatino-Roman,Palatino" font-size="19.8" fill="#000000" transform="matrix(1.00, 0.00, -0.00, -1.00, 87.4, 7.1)">n</text><text xml:space="preserve" font-family="Palatino-Roman,Palatino" font-size="19.8" fill="#000000" transform="matrix(1.00, 0.00, -0.00, -1.00, 98.9, 7.1)">c</text><text xml:space="preserve" font-family="Palatino-Roman,Palatino" font-size="19.8" fill="#000000" transform="matrix(1.00, 0.00, -0.00, -1.00, 107.7, 7.1)">o</text><text xml:space="preserve" font-family="Palatino-Roman,Palatino" font-size="19.8" fill="#000000" transform="matrix(1.00, 0.00, -0.00, -1.00, 118.5, 7.1)">u</text><text xml:space="preserve" font-family="Palatino-Roman,Palatino" font-size="19.8" fill="#000000" transform="matrix(1.00, 0.00, -0.00, -1.00, 130.4, 7.1)">n</text><text xml:space="preserve" font-family="Palatino-Roman,Palatino" font-size="19.8" fill="#000000" transform="matrix(1.00, 0.00, -0.00, -1.00, 141.9, 7.1)">t</text><text xml:space="preserve" font-family="Palatino-Roman,Palatino" font-size="19.8" fill="#000000" transform="matrix(1.00, 0.00, -0.00, -1.00, 148.4, 7.1)">e</text><text xml:space="preserve" font-family="Palatino-Roman,Palatino" font-size="19.8" fill="#000000" transform="matrix(1.00, 0.00, -0.00, -1.00, 157.8, 7.1)">r</text><text xml:space="preserve" font-family="Palatino-Roman,Palatino" font-size="19.8" fill="#000000" transform="matrix(1.00, 0.00, -0.00, -1.00, 165.6, 7.1)">i</text><text xml:space="preserve" font-family="Palatino-Roman,Palatino" font-size="19.8" fill="#000000" transform="matrix(1.00, 0.00, -0.00, -1.00, 171.4, 7.1)">n</text><text xml:space="preserve" font-family="Palatino-Roman,Palatino" font-size="19.8" fill="#000000" transform="matrix(1.00, 0.00, -0.00, -1.00, 182.9, 7.1)">g</text><text xml:space="preserve" font-family="Palatino-Roman,Palatino" font-size="19.8" fill="#000000" transform="matrix(1.00, 0.00, -0.00, -1.00, 193.9, 7.1)"> </text><text xml:space="preserve" font-family="Palatino-Roman,Palatino" font-size="19.8" fill="#000000" transform="matrix(1.00, 0.00, -0.00, -1.00, 198.8, 7.1)">a</text><text xml:space="preserve" font-family="Palatino-Roman,Palatino" font-size="19.8" fill="#000000" transform="matrix(1.00, 0.00, -0.00, -1.00, 208.7, 7.1)">n</text><text xml:space="preserve" font-family="Palatino-Roman,Palatino" font-size="19.8" fill="#000000" transform="matrix(1.00, 0.00, -0.00, -1.00, 220.2, 7.1)"> </text><text xml:space="preserve" font-family="Palatino-Roman,Palatino" font-size="19.8" fill="#000000" transform="matrix(1.00, 0.00, -0.00, -1.00, 225.1, 7.1)">o</text><text xml:space="preserve" font-family="Palatino-Roman,Palatino" font-size="19.8" fill="#000000" transform="matrix(1.00, 0.00, -0.00, -1.00, 235.9, 7.1)">p</text><text xml:space="preserve" font-family="Palatino-Roman,Palatino" font-size="19.8" fill="#000000" transform="matrix(1.00, 0.00, -0.00, -1.00, 247.8, 7.1)">e</text><text xml:space="preserve" font-family="Palatino-Roman,Palatino" font-size="19.8" fill="#000000" transform="matrix(1.00, 0.00, -0.00, -1.00, 257.3, 7.1)">n</text><text xml:space="preserve" font-family="Palatino-Roman,Palatino" font-size="19.8" fill="#000000" transform="matrix(1.00, 0.00, -0.00, -1.00, 268.8, 7.1)">i</text><text xml:space="preserve" font-family="Palatino-Roman,Palatino" font-size="19.8" fill="#000000" transform="matrix(1.00, 0.00, -0.00, -1.00, 274.5, 7.1)">n</text><text xml:space="preserve" font-family="Palatino-Roman,Palatino" font-size="19.8" fill="#000000" transform="matrix(1.00, 0.00, -0.00, -1.00, 286.0, 7.1)">g</text><text xml:space="preserve" font-family="Palatino-Roman,Palatino" font-size="19.8" fill="#000000" transform="matrix(1.00, 0.00, -0.00, -1.00, 297.0, 7.1)"> </text><text xml:space="preserve" font-family="Monaco,Monaco" font-size="19.8" fill="#000000" transform="matrix(1.00, 0.00, -0.00, -1.00, 301.9, 7.1)">[</text><text xml:space="preserve" font-family="Palatino-Roman,Palatino" font-size="19.8" fill="#000000" transform="matrix(1.00, 0.00, -0.00, -1.00, 313.8, 7.1)">,</text><text xml:space="preserve" font-family="Palatino-Roman,Palatino" font-size="19.8" fill="#000000" transform="matrix(1.00, 0.00, -0.00, -1.00, 318.7, 7.1)"> </text><text xml:space="preserve" font-family="Palatino-Roman,Palatino" font-size="19.8" fill="#000000" transform="matrix(1.00, 0.00, -0.00, -1.00, 323.7, 7.1)">i</text><text xml:space="preserve" font-family="Palatino-Roman,Palatino" font-size="19.8" fill="#000000" transform="matrix(1.00, 0.00, -0.00, -1.00, 329.4, 7.1)">f</text><text xml:space="preserve" font-family="Palatino-Roman,Palatino" font-size="19.8" fill="#000000" transform="matrix(1.00, 0.00, -0.00, -1.00, 336.0, 7.1)"> </text><text xml:space="preserve" font-family="Palatino-Roman,Palatino" font-size="19.8" fill="#000000" transform="matrix(1.00, 0.00, -0.00, -1.00, 340.9, 7.1)">t</text><text xml:space="preserve" font-family="Palatino-Roman,Palatino" font-size="19.8" fill="#000000" transform="matrix(1.00, 0.00, -0.00, -1.00, 347.4, 7.1)">h</text><text xml:space="preserve" font-family="Palatino-Roman,Palatino" font-size="19.8" fill="#000000" transform="matrix(1.00, 0.00, -0.00, -1.00, 358.9, 7.1)">e</text><text xml:space="preserve" font-family="Palatino-Roman,Palatino" font-size="19.8" fill="#000000" transform="matrix(1.00, 0.00, -0.00, -1.00, 368.4, 7.1)"> </text><text xml:space="preserve" font-family="Palatino-Roman,Palatino" font-size="19.8" fill="#000000" transform="matrix(1.00, 0.00, -0.00, -1.00, 373.3, 7.1)">c</text><text xml:space="preserve" font-family="Palatino-Roman,Palatino" font-size="19.8" fill="#000000" transform="matrix(1.00, 0.00, -0.00, -1.00, 382.1, 7.1)">u</text><text xml:space="preserve" font-family="Palatino-Roman,Palatino" font-size="19.8" fill="#000000" transform="matrix(1.00, 0.00, -0.00, -1.00, 394.0, 7.1)">r</text><text xml:space="preserve" font-family="Palatino-Roman,Palatino" font-size="19.8" fill="#000000" transform="matrix(1.00, 0.00, -0.00, -1.00, 401.8, 7.1)">r</text><text xml:space="preserve" font-family="Palatino-Roman,Palatino" font-size="19.8" fill="#000000" transform="matrix(1.00, 0.00, -0.00, -1.00, 409.2, 7.1)">e</text><text xml:space="preserve" font-family="Palatino-Roman,Palatino" font-size="19.8" fill="#000000" transform="matrix(1.00, 0.00, -0.00, -1.00, 418.7, 7.1)">n</text><text xml:space="preserve" font-family="Palatino-Roman,Palatino" font-size="19.8" fill="#000000" transform="matrix(1.00, 0.00, -0.00, -1.00, 430.2, 7.1)">t</text><text xml:space="preserve" font-family="Palatino-Roman,Palatino" font-size="19.8" fill="#000000" transform="matrix(1.00, 0.00, -0.00, -1.00, 436.7, 7.1)"> </text><text xml:space="preserve" font-family="Palatino-Roman,Palatino" font-size="19.8" fill="#000000" transform="matrix(1.00, 0.00, -0.00, -1.00, 441.6, 7.1)">m</text><text xml:space="preserve" font-family="Palatino-Roman,Palatino" font-size="19.8" fill="#000000" transform="matrix(1.00, 0.00, -0.00, -1.00, 459.0, 7.1)">e</text><text xml:space="preserve" font-family="Palatino-Roman,Palatino" font-size="19.8" fill="#000000" transform="matrix(1.00, 0.00, -0.00, -1.00, 468.5, 7.1)">m</text><text xml:space="preserve" font-family="Palatino-Roman,Palatino" font-size="19.8" fill="#000000" transform="matrix(1.00, 0.00, -0.00, -1.00, 485.9, 7.1)">o</text><text xml:space="preserve" font-family="Palatino-Roman,Palatino" font-size="19.8" fill="#000000" transform="matrix(1.00, 0.00, -0.00, -1.00, 496.7, 7.1)">r</text><text xml:space="preserve" font-family="Palatino-Roman,Palatino" font-size="19.8" fill="#000000" transform="matrix(1.00, 0.00, -0.00, -1.00, 504.5, 7.1)">y</text><text xml:space="preserve" font-family="Palatino-Roman,Palatino" font-size="19.8" fill="#000000" transform="matrix(1.00, 0.00, -0.00, -1.00, 515.5, 7.1)"> </text><text xml:space="preserve" font-family="Palatino-Roman,Palatino" font-size="19.8" fill="#000000" transform="matrix(1.00, 0.00, -0.00, -1.00, 520.5, 7.1)">c</text><text xml:space="preserve" font-family="Palatino-Roman,Palatino" font-size="19.8" fill="#000000" transform="matrix(1.00, 0.00, -0.00, -1.00, 529.2, 7.1)">e</text><text xml:space="preserve" font-family="Palatino-Roman,Palatino" font-size="19.8" fill="#000000" transform="matrix(1.00, 0.00, -0.00, -1.00, 538.7, 7.1)">l</text><text xml:space="preserve" font-family="Palatino-Roman,Palatino" font-size="19.8" fill="#000000" transform="matrix(1.00, 0.00, -0.00, -1.00, 544.5, 7.1)">l</text><text xml:space="preserve" font-family="Palatino-Roman,Palatino" font-size="19.8" fill="#000000" transform="matrix(1.00, 0.00, -0.00, -1.00, 550.2, 7.1)"> </text><text xml:space="preserve" font-family="Palatino-Roman,Palatino" font-size="19.8" fill="#000000" transform="matrix(1.00, 0.00, -0.00, -1.00, 555.1, 7.1)">i</text><text xml:space="preserve" font-family="Palatino-Roman,Palatino" font-size="19.8" fill="#000000" transform="matrix(1.00, 0.00, -0.00, -1.00, 560.9, 7.1)">s</text><text xml:space="preserve" font-family="Palatino-Roman,Palatino" font-size="19.8" fill="#000000" transform="matrix(1.00, 0.00, -0.00, -1.00, 569.3, 7.1)"> </text><text xml:space="preserve" font-family="Palatino-Roman,Palatino" font-size="19.8" fill="#000000" transform="matrix(1.00, 0.00, -0.00, -1.00, 574.2, 7.1)">n</text><text xml:space="preserve" font-family="Palatino-Roman,Palatino" font-size="19.8" fill="#000000" transform="matrix(1.00, 0.00, -0.00, -1.00, 585.7, 7.1)">o</text><text xml:space="preserve" font-family="Palatino-Roman,Palatino" font-size="19.8" fill="#000000" transform="matrix(1.00, 0.00, -0.00, -1.00, 596.5, 7.1)">n</text><text xml:space="preserve" font-family="Palatino-Roman,Palatino" font-size="19.8" fill="#000000" transform="matrix(1.00, 0.00, -0.00, -1.00, 608.0, 7.1)">z</text><text xml:space="preserve" font-family="Palatino-Roman,Palatino" font-size="19.8" fill="#000000" transform="matrix(1.00, 0.00, -0.00, -1.00, 617.9, 7.1)">e</text><text xml:space="preserve" font-family="Palatino-Roman,Palatino" font-size="19.8" fill="#000000" transform="matrix(1.00, 0.00, -0.00, -1.00, 627.3, 7.1)">r</text><text xml:space="preserve" font-family="Palatino-Roman,Palatino" font-size="19.8" fill="#000000" transform="matrix(1.00, 0.00, -0.00, -1.00, 634.8, 7.1)">o</text><text xml:space="preserve" font-family="Palatino-Roman,Palatino" font-size="19.8" fill="#000000" transform="matrix(1.00, 0.00, -0.00, -1.00, 645.6, 7.1)">,</text><text xml:space="preserve" font-family="Palatino-Roman,Palatino" font-size="19.8" fill="#000000" transform="matrix(1.00, 0.00, -0.00, -1.00, 650.5, 7.1)"> </text><text xml:space="preserve" font-family="Palatino-Roman,Palatino" font-size="19.8" fill="#000000" transform="matrix(1.00, 0.00, -0.00, -1.00, 655.5, 7.1)">s</text><text xml:space="preserve" font-family="Palatino-Roman,Palatino" font-size="19.8" fill="#000000" transform="matrix(1.00, 0.00, -0.00, -1.00, 663.8, 7.1)">t</text><text xml:space="preserve" font-family="Palatino-Roman,Palatino" font-size="19.8" fill="#000000" transform="matrix(1.00, 0.00, -0.00, -1.00, 670.3, 7.1)">a</text><text xml:space="preserve" font-family="Palatino-Roman,Palatino" font-size="19.8" fill="#000000" transform="matrix(1.00, 0.00, -0.00, -1.00, 680.2, 7.1)">r</text><text xml:space="preserve" font-family="Palatino-Roman,Palatino" font-size="19.8" fill="#000000" transform="matrix(1.00, 0.00, -0.00, -1.00, 688.0, 7.1)">t</text><text xml:space="preserve" font-family="Palatino-Roman,Palatino" font-size="19.8" fill="#000000" transform="matrix(1.00, 0.00, -0.00, -1.00, 694.4, 7.1)"> </text><text xml:space="preserve" font-family="Palatino-Roman,Palatino" font-size="19.8" fill="#000000" transform="matrix(1.00, 0.00, -0.00, -1.00, 699.4, 7.1)">e</text><text xml:space="preserve" font-family="Palatino-Roman,Palatino" font-size="19.8" fill="#000000" transform="matrix(1.00, 0.00, -0.00, -1.00, 708.8, 7.1)">x</text><text xml:space="preserve" font-family="Palatino-Roman,Palatino" font-size="19.8" fill="#000000" transform="matrix(1.00, 0.00, -0.00, -1.00, 719.0, 7.1)">e</text><text xml:space="preserve" font-family="Palatino-Roman,Palatino" font-size="19.8" fill="#000000" transform="matrix(1.00, 0.00, -0.00, -1.00, 728.5, 7.1)">c</text><text xml:space="preserve" font-family="Palatino-Roman,Palatino" font-size="19.8" fill="#000000" transform="matrix(1.00, 0.00, -0.00, -1.00, 737.3, 7.1)">u</text><text xml:space="preserve" font-family="Palatino-Roman,Palatino" font-size="19.8" fill="#000000" transform="matrix(1.00, 0.00, -0.00, -1.00, 749.2, 7.1)">t</text><text xml:space="preserve" font-family="Palatino-Roman,Palatino" font-size="19.8" fill="#000000" transform="matrix(1.00, 0.00, -0.00, -1.00, 755.6, 7.1)">i</text><text xml:space="preserve" font-family="Palatino-Roman,Palatino" font-size="19.8" fill="#000000" transform="matrix(1.00, 0.00, -0.00, -1.00, 761.4, 7.1)">n</text><text xml:space="preserve" font-family="Palatino-Roman,Palatino" font-size="19.8" fill="#000000" transform="matrix(1.00, 0.00, -0.00, -1.00, 772.9, 7.1)">g</text><text xml:space="preserve" font-family="Palatino-Roman,Palatino" font-size="19.8" fill="#000000" transform="matrix(1.00, 0.00, -0.00, -1.00, 783.9, 7.1)"> </text><text xml:space="preserve" font-family="Palatino-Roman,Palatino" font-size="19.8" fill="#000000" transform="matrix(1.00, 0.00, -0.00, -1.00, 788.8, 7.1)">t</text><text xml:space="preserve" font-family="Palatino-Roman,Palatino" font-size="19.8" fill="#000000" transform="matrix(1.00, 0.00, -0.00, -1.00, 795.3, 7.1)">h</text><text xml:space="preserve" font-family="Palatino-Roman,Palatino" font-size="19.8" fill="#000000" transform="matrix(1.00, 0.00, -0.00, -1.00, 806.8, 7.1)">e</text><text xml:space="preserve" font-family="Palatino-Roman,Palatino" font-size="19.8" fill="#000000" transform="matrix(1.00, 0.00, -0.00, -1.00, 816.2, 7.1)"> </text><text xml:space="preserve" font-family="Palatino-Roman,Palatino" font-size="19.8" fill="#000000" transform="matrix(1.00, 0.00, -0.00, -1.00, 821.2, 7.1)">l</text><text xml:space="preserve" font-family="Palatino-Roman,Palatino" font-size="19.8" fill="#000000" transform="matrix(1.00, 0.00, -0.00, -1.00, 826.9, 7.1)">o</text><text xml:space="preserve" font-family="Palatino-Roman,Palatino" font-size="19.8" fill="#000000" transform="matrix(1.00, 0.00, -0.00, -1.00, 837.7, 7.1)">o</text><text xml:space="preserve" font-family="Palatino-Roman,Palatino" font-size="19.8" fill="#000000" transform="matrix(1.00, 0.00, -0.00, -1.00, 848.5, 7.1)">p</text></g></svg>