<?xml version="1.0" encoding="UTF-8" standalone="no"?><svg xmlns="http://www.w3.org/2000/svg" xmlns:xlink="http://www.w3.org/1999/xlink" clip-rule="evenodd" stroke-miterlimit="10" viewBox="0 0 747 64"><desc>SVG generated by Keynote</desc><defs></defs><g transform="matrix(1.00, 0.00, -0.00, -1.00, 0.0, 64.0)"><text xml:space="preserve" font-family="Didot-Bold,Didot" font-weight="bold" font-size="60.0" fill="#304863" transform="matrix(1.00, 0.00, -0.00, -1.00, -1.0, 18.2)">H</text><text xml:space="preserve" font-family="Didot-Bold,Didot" font-weight="bold" font-size="60.0" fill="#304863" transform="matrix(1.00, 0.00, -0.00, -1.00, 47.8, 18.2)">o</text><text xml:space="preserve" font-family="Didot-Bold,Didot" font-weight="bold" font-size="60.0" fill="#304863" transform="matrix(1.00, 0.00, -0.00, -1.00, 79.3, 18.2)">w</text><text xml:space="preserve" font-family="Didot,Didot" font-size="60.0" fill="#304863" transform="matrix(1.00, 0.00, -0.00, -1.00, 122.6, 18.2)"> </text><text xml:space="preserve" font-family="Didot,Didot" font-size="60.0" fill="#304863" transform="matrix(1.00, 0.00, -0.00, -1.00, 138.1, 18.2)">w</text><text xml:space="preserve" font-family="Didot,Didot" font-size="60.0" fill="#304863" transform="matrix(1.00, 0.00, -0.00, -1.00, 181.3, 18.2)">i</text><text xml:space="preserve" font-family="Didot,Didot" font-size="60.0" fill="#304863" transform="matrix(1.00, 0.00, -0.00, -1.00, 197.9, 18.2)">l</text><text xml:space="preserve" font-family="Didot,Didot" font-size="60.0" fill="#304863" transform="matrix(1.00, 0.00, -0.00, -1.00, 214.5, 18.2)">l</text><text xml:space="preserve" font-family="Didot,Didot" font-size="60.0" fill="#304863" transform="matrix(1.00, 0.00, -0.00, -1.00, 231.0, 18.2)"> </text><text xml:space="preserve" font-family="Didot,Didot" font-size="60.0" fill="#304863" transform="matrix(1.00, 0.00, -0.00, -1.00, 246.5, 18.2)">w</text><text xml:space="preserve" font-family="Didot,Didot" font-size="60.0" fill="#304863" transform="matrix(1.00, 0.00, -0.00, -1.00, 289.2, 18.2)">e</text><text xml:space="preserve" font-family="Didot,Didot" font-size="60.0" fill="#304863" transform="matrix(1.00, 0.00, -0.00, -1.00, 318.0, 18.2)"> </text><text xml:space="preserve" font-family="Didot,Didot" font-size="60.0" fill="#304863" transform="matrix(1.00, 0.00, -0.00, -1.00, 333.4, 18.2)">h</text><text xml:space="preserve" font-family="Didot,Didot" font-size="60.0" fill="#304863" transform="matrix(1.00, 0.00, -0.00, -1.00, 368.9, 18.2)">a</text><text xml:space="preserve" font-family="Didot,Didot" font-size="60.0" fill="#304863" transform="matrix(1.00, 0.00, -0.00, -1.00, 396.6, 18.2)">n</text><text xml:space="preserve" font-family="Didot,Didot" font-size="60.0" fill="#304863" transform="matrix(1.00, 0.00, -0.00, -1.00, 432.0, 18.2)">d</text><text xml:space="preserve" font-family="Didot,Didot" font-size="60.0" fill="#304863" transform="matrix(1.00, 0.00, -0.00, -1.00, 466.4, 18.2)">l</text><text xml:space="preserve" font-family="Didot,Didot" font-size="60.0" fill="#304863" transform="matrix(1.00, 0.00, -0.00, -1.00, 483.0, 18.2)">e</text><text xml:space="preserve" font-family="Didot,Didot" font-size="60.0" fill="#304863" transform="matrix(1.00, 0.00, -0.00, -1.00, 511.8, 18.2)"> </text><text xml:space="preserve" font-family="Didot,Didot" font-size="60.0" fill="#304863" transform="matrix(1.00, 0.00, -0.00, -1.00, 527.2, 18.2)">l</text><text xml:space="preserve" font-family="Didot,Didot" font-size="60.0" fill="#304863" transform="matrix(1.00, 0.00, -0.00, -1.00, 543.8, 18.2)">o</text><text xml:space="preserve" font-family="Didot,Didot" font-size="60.0" fill="#304863" transform="matrix(1.00, 0.00, -0.00, -1.00, 576.0, 18.2)">o</text><text xml:space="preserve" font-family="Didot,Didot" font-size="60.0" fill="#304863" transform="matrix(1.00, 0.00, -0.00, -1.00, 608.1, 18.2)">p</text><text xml:space="preserve" font-family="Didot,Didot" font-size="60.0" fill="#304863" transform="matrix(1.00, 0.00, -0.00, -1.00, 642.5, 18.2)">i</text><text xml:space="preserve" font-family="Didot,Didot" font-size="60.0" fill="#304863" transform="matrix(1.00, 0.00, -0.00, -1.00, 659.1, 18.2)">n</text><text xml:space="preserve" font-family="Didot,Didot" font-size="60.0" fill="#304863" transform="matrix(1.00, 0.00, -0.00, -1.00, 694.5, 18.2)">g</text><text xml:space="preserve" font-family="Didot,Didot" font-size="60.0" fill="#304863" transform="matrix(1.00, 0.00, -0.00, -1.00, 724.5, 18.2)">?</text></g></svg>