<?xml version="1.0" encoding="UTF-8" standalone="no"?><svg xmlns="http://www.w3.org/2000/svg" xmlns:xlink="http://www.w3.org/1999/xlink" clip-rule="evenodd" stroke-miterlimit="10" viewBox="0 0 916 25"><desc>SVG generated by Keynote</desc><defs></defs><g transform="matrix(1.00, 0.00, -0.00, -1.00, 0.0, 25.0)"><text xml:space="preserve" font-family="ZapfDingbatsITC,Zapf Dingbats" font-size="13.8" fill="#5B86B8" transform="matrix(1.00, 0.00, -0.00, -1.00, 0.0, 8.6)">✤</text><text xml:space="preserve" font-family="Palatino-Roman,Palatino" font-size="19.8" fill="#000000" transform="matrix(1.00, 0.00, -0.00, -1.00, 20.8, 7.1)">W</text><text xml:space="preserve" font-family="Palatino-Roman,Palatino" font-size="19.8" fill="#000000" transform="matrix(1.00, 0.00, -0.00, -1.00, 40.6, 7.1)">h</text><text xml:space="preserve" font-family="Palatino-Roman,Palatino" font-size="19.8" fill="#000000" transform="matrix(1.00, 0.00, -0.00, -1.00, 52.1, 7.1)">e</text><text xml:space="preserve" font-family="Palatino-Roman,Palatino" font-size="19.8" fill="#000000" transform="matrix(1.00, 0.00, -0.00, -1.00, 61.5, 7.1)">n</text><text xml:space="preserve" font-family="Palatino-Roman,Palatino" font-size="19.8" fill="#000000" transform="matrix(1.00, 0.00, -0.00, -1.00, 73.0, 7.1)"> </text><text xml:space="preserve" font-family="Palatino-Roman,Palatino" font-size="19.8" fill="#000000" transform="matrix(1.00, 0.00, -0.00, -1.00, 78.0, 7.1)">e</text><text xml:space="preserve" font-family="Palatino-Roman,Palatino" font-size="19.8" fill="#000000" transform="matrix(1.00, 0.00, -0.00, -1.00, 87.4, 7.1)">n</text><text xml:space="preserve" font-family="Palatino-Roman,Palatino" font-size="19.8" fill="#000000" transform="matrix(1.00, 0.00, -0.00, -1.00, 98.9, 7.1)">c</text><text xml:space="preserve" font-family="Palatino-Roman,Palatino" font-size="19.8" fill="#000000" transform="matrix(1.00, 0.00, -0.00, -1.00, 107.7, 7.1)">o</text><text xml:space="preserve" font-family="Palatino-Roman,Palatino" font-size="19.8" fill="#000000" transform="matrix(1.00, 0.00, -0.00, -1.00, 118.5, 7.1)">u</text><text xml:space="preserve" font-family="Palatino-Roman,Palatino" font-size="19.8" fill="#000000" transform="matrix(1.00, 0.00, -0.00, -1.00, 130.4, 7.1)">n</text><text xml:space="preserve" font-family="Palatino-Roman,Palatino" font-size="19.8" fill="#000000" transform="matrix(1.00, 0.00, -0.00, -1.00, 141.9, 7.1)">t</text><text xml:space="preserve" font-family="Palatino-Roman,Palatino" font-size="19.8" fill="#000000" transform="matrix(1.00, 0.00, -0.00, -1.00, 148.4, 7.1)">e</text><text xml:space="preserve" font-family="Palatino-Roman,Palatino" font-size="19.8" fill="#000000" transform="matrix(1.00, 0.00, -0.00, -1.00, 157.8, 7.1)">r</text><text xml:space="preserve" font-family="Palatino-Roman,Palatino" font-size="19.8" fill="#000000" transform="matrix(1.00, 0.00, -0.00, -1.00, 165.6, 7.1)">i</text><text xml:space="preserve" font-family="Palatino-Roman,Palatino" font-size="19.8" fill="#000000" transform="matrix(1.00, 0.00, -0.00, -1.00, 171.4, 7.1)">n</text><text xml:space="preserve" font-family="Palatino-Roman,Palatino" font-size="19.8" fill="#000000" transform="matrix(1.00, 0.00, -0.00, -1.00, 182.9, 7.1)">g</text><text xml:space="preserve" font-family="Palatino-Roman,Palatino" font-size="19.8" fill="#000000" transform="matrix(1.00, 0.00, -0.00, -1.00, 193.9, 7.1)"> </text><text xml:space="preserve" font-family="Palatino-Roman,Palatino" font-size="19.8" fill="#000000" transform="matrix(1.00, 0.00, -0.00, -1.00, 198.8, 7.1)">a</text><text xml:space="preserve" font-family="Palatino-Roman,Palatino" font-size="19.8" fill="#000000" transform="matrix(1.00, 0.00, -0.00, -1.00, 208.7, 7.1)"> </text><text xml:space="preserve" font-family="Palatino-Roman,Palatino" font-size="19.8" fill="#000000" transform="matrix(1.00, 0.00, -0.00, -1.00, 213.6, 7.1)">c</text><text xml:space="preserve" font-family="Palatino-Roman,Palatino" font-size="19.8" fill="#000000" transform="matrix(1.00, 0.00, -0.00, -1.00, 222.4, 7.1)">l</text><text xml:space="preserve" font-family="Palatino-Roman,Palatino" font-size="19.8" fill="#000000" transform="matrix(1.00, 0.00, -0.00, -1.00, 228.1, 7.1)">o</text><text xml:space="preserve" font-family="Palatino-Roman,Palatino" font-size="19.8" fill="#000000" transform="matrix(1.00, 0.00, -0.00, -1.00, 238.9, 7.1)">s</text><text xml:space="preserve" font-family="Palatino-Roman,Palatino" font-size="19.8" fill="#000000" transform="matrix(1.00, 0.00, -0.00, -1.00, 247.3, 7.1)">i</text><text xml:space="preserve" font-family="Palatino-Roman,Palatino" font-size="19.8" fill="#000000" transform="matrix(1.00, 0.00, -0.00, -1.00, 253.0, 7.1)">n</text><text xml:space="preserve" font-family="Palatino-Roman,Palatino" font-size="19.8" fill="#000000" transform="matrix(1.00, 0.00, -0.00, -1.00, 264.6, 7.1)">g</text><text xml:space="preserve" font-family="Palatino-Roman,Palatino" font-size="19.8" fill="#000000" transform="matrix(1.00, 0.00, -0.00, -1.00, 275.5, 7.1)"> </text><text xml:space="preserve" font-family="Monaco,Monaco" font-size="19.8" fill="#000000" transform="matrix(1.00, 0.00, -0.00, -1.00, 280.5, 7.1)">]</text><text xml:space="preserve" font-family="Palatino-Roman,Palatino" font-size="19.8" fill="#000000" transform="matrix(1.00, 0.00, -0.00, -1.00, 292.3, 7.1)">,</text><text xml:space="preserve" font-family="Palatino-Roman,Palatino" font-size="19.8" fill="#000000" transform="matrix(1.00, 0.00, -0.00, -1.00, 297.3, 7.1)"> </text><text xml:space="preserve" font-family="Palatino-Roman,Palatino" font-size="19.8" fill="#000000" transform="matrix(1.00, 0.00, -0.00, -1.00, 302.2, 7.1)">i</text><text xml:space="preserve" font-family="Palatino-Roman,Palatino" font-size="19.8" fill="#000000" transform="matrix(1.00, 0.00, -0.00, -1.00, 308.0, 7.1)">f</text><text xml:space="preserve" font-family="Palatino-Roman,Palatino" font-size="19.8" fill="#000000" transform="matrix(1.00, 0.00, -0.00, -1.00, 314.6, 7.1)"> </text><text xml:space="preserve" font-family="Palatino-Roman,Palatino" font-size="19.8" fill="#000000" transform="matrix(1.00, 0.00, -0.00, -1.00, 319.5, 7.1)">t</text><text xml:space="preserve" font-family="Palatino-Roman,Palatino" font-size="19.8" fill="#000000" transform="matrix(1.00, 0.00, -0.00, -1.00, 325.9, 7.1)">h</text><text xml:space="preserve" font-family="Palatino-Roman,Palatino" font-size="19.8" fill="#000000" transform="matrix(1.00, 0.00, -0.00, -1.00, 337.4, 7.1)">e</text><text xml:space="preserve" font-family="Palatino-Roman,Palatino" font-size="19.8" fill="#000000" transform="matrix(1.00, 0.00, -0.00, -1.00, 346.9, 7.1)"> </text><text xml:space="preserve" font-family="Palatino-Roman,Palatino" font-size="19.8" fill="#000000" transform="matrix(1.00, 0.00, -0.00, -1.00, 351.9, 7.1)">c</text><text xml:space="preserve" font-family="Palatino-Roman,Palatino" font-size="19.8" fill="#000000" transform="matrix(1.00, 0.00, -0.00, -1.00, 360.6, 7.1)">u</text><text xml:space="preserve" font-family="Palatino-Roman,Palatino" font-size="19.8" fill="#000000" transform="matrix(1.00, 0.00, -0.00, -1.00, 372.5, 7.1)">r</text><text xml:space="preserve" font-family="Palatino-Roman,Palatino" font-size="19.8" fill="#000000" transform="matrix(1.00, 0.00, -0.00, -1.00, 380.3, 7.1)">r</text><text xml:space="preserve" font-family="Palatino-Roman,Palatino" font-size="19.8" fill="#000000" transform="matrix(1.00, 0.00, -0.00, -1.00, 387.8, 7.1)">e</text><text xml:space="preserve" font-family="Palatino-Roman,Palatino" font-size="19.8" fill="#000000" transform="matrix(1.00, 0.00, -0.00, -1.00, 397.3, 7.1)">n</text><text xml:space="preserve" font-family="Palatino-Roman,Palatino" font-size="19.8" fill="#000000" transform="matrix(1.00, 0.00, -0.00, -1.00, 408.8, 7.1)">t</text><text xml:space="preserve" font-family="Palatino-Roman,Palatino" font-size="19.8" fill="#000000" transform="matrix(1.00, 0.00, -0.00, -1.00, 415.2, 7.1)"> </text><text xml:space="preserve" font-family="Palatino-Roman,Palatino" font-size="19.8" fill="#000000" transform="matrix(1.00, 0.00, -0.00, -1.00, 420.2, 7.1)">m</text><text xml:space="preserve" font-family="Palatino-Roman,Palatino" font-size="19.8" fill="#000000" transform="matrix(1.00, 0.00, -0.00, -1.00, 437.6, 7.1)">e</text><text xml:space="preserve" font-family="Palatino-Roman,Palatino" font-size="19.8" fill="#000000" transform="matrix(1.00, 0.00, -0.00, -1.00, 447.1, 7.1)">m</text><text xml:space="preserve" font-family="Palatino-Roman,Palatino" font-size="19.8" fill="#000000" transform="matrix(1.00, 0.00, -0.00, -1.00, 464.5, 7.1)">o</text><text xml:space="preserve" font-family="Palatino-Roman,Palatino" font-size="19.8" fill="#000000" transform="matrix(1.00, 0.00, -0.00, -1.00, 475.3, 7.1)">r</text><text xml:space="preserve" font-family="Palatino-Roman,Palatino" font-size="19.8" fill="#000000" transform="matrix(1.00, 0.00, -0.00, -1.00, 483.1, 7.1)">y</text><text xml:space="preserve" font-family="Palatino-Roman,Palatino" font-size="19.8" fill="#000000" transform="matrix(1.00, 0.00, -0.00, -1.00, 494.1, 7.1)"> </text><text xml:space="preserve" font-family="Palatino-Roman,Palatino" font-size="19.8" fill="#000000" transform="matrix(1.00, 0.00, -0.00, -1.00, 499.0, 7.1)">c</text><text xml:space="preserve" font-family="Palatino-Roman,Palatino" font-size="19.8" fill="#000000" transform="matrix(1.00, 0.00, -0.00, -1.00, 507.8, 7.1)">e</text><text xml:space="preserve" font-family="Palatino-Roman,Palatino" font-size="19.8" fill="#000000" transform="matrix(1.00, 0.00, -0.00, -1.00, 517.3, 7.1)">l</text><text xml:space="preserve" font-family="Palatino-Roman,Palatino" font-size="19.8" fill="#000000" transform="matrix(1.00, 0.00, -0.00, -1.00, 523.0, 7.1)">l</text><text xml:space="preserve" font-family="Palatino-Roman,Palatino" font-size="19.8" fill="#000000" transform="matrix(1.00, 0.00, -0.00, -1.00, 528.8, 7.1)"> </text><text xml:space="preserve" font-family="Palatino-Roman,Palatino" font-size="19.8" fill="#000000" transform="matrix(1.00, 0.00, -0.00, -1.00, 533.7, 7.1)">i</text><text xml:space="preserve" font-family="Palatino-Roman,Palatino" font-size="19.8" fill="#000000" transform="matrix(1.00, 0.00, -0.00, -1.00, 539.4, 7.1)">s</text><text xml:space="preserve" font-family="Palatino-Roman,Palatino" font-size="19.8" fill="#000000" transform="matrix(1.00, 0.00, -0.00, -1.00, 547.8, 7.1)"> </text><text xml:space="preserve" font-family="Palatino-Roman,Palatino" font-size="19.8" fill="#000000" transform="matrix(1.00, 0.00, -0.00, -1.00, 552.8, 7.1)">n</text><text xml:space="preserve" font-family="Palatino-Roman,Palatino" font-size="19.8" fill="#000000" transform="matrix(1.00, 0.00, -0.00, -1.00, 564.3, 7.1)">o</text><text xml:space="preserve" font-family="Palatino-Roman,Palatino" font-size="19.8" fill="#000000" transform="matrix(1.00, 0.00, -0.00, -1.00, 575.0, 7.1)">n</text><text xml:space="preserve" font-family="Palatino-Roman,Palatino" font-size="19.8" fill="#000000" transform="matrix(1.00, 0.00, -0.00, -1.00, 586.5, 7.1)">z</text><text xml:space="preserve" font-family="Palatino-Roman,Palatino" font-size="19.8" fill="#000000" transform="matrix(1.00, 0.00, -0.00, -1.00, 596.4, 7.1)">e</text><text xml:space="preserve" font-family="Palatino-Roman,Palatino" font-size="19.8" fill="#000000" transform="matrix(1.00, 0.00, -0.00, -1.00, 605.9, 7.1)">r</text><text xml:space="preserve" font-family="Palatino-Roman,Palatino" font-size="19.8" fill="#000000" transform="matrix(1.00, 0.00, -0.00, -1.00, 613.3, 7.1)">o</text><text xml:space="preserve" font-family="Palatino-Roman,Palatino" font-size="19.8" fill="#000000" transform="matrix(1.00, 0.00, -0.00, -1.00, 624.1, 7.1)">,</text><text xml:space="preserve" font-family="Palatino-Roman,Palatino" font-size="19.8" fill="#000000" transform="matrix(1.00, 0.00, -0.00, -1.00, 629.1, 7.1)"> </text><text xml:space="preserve" font-family="Palatino-Roman,Palatino" font-size="19.8" fill="#000000" transform="matrix(1.00, 0.00, -0.00, -1.00, 634.0, 7.1)">w</text><text xml:space="preserve" font-family="Palatino-Roman,Palatino" font-size="19.8" fill="#000000" transform="matrix(1.00, 0.00, -0.00, -1.00, 650.5, 7.1)">e</text><text xml:space="preserve" font-family="Palatino-Roman,Palatino" font-size="19.8" fill="#000000" transform="matrix(1.00, 0.00, -0.00, -1.00, 660.0, 7.1)"> </text><text xml:space="preserve" font-family="Palatino-Roman,Palatino" font-size="19.8" fill="#000000" transform="matrix(1.00, 0.00, -0.00, -1.00, 664.9, 7.1)">j</text><text xml:space="preserve" font-family="Palatino-Roman,Palatino" font-size="19.8" fill="#000000" transform="matrix(1.00, 0.00, -0.00, -1.00, 669.5, 7.1)">u</text><text xml:space="preserve" font-family="Palatino-Roman,Palatino" font-size="19.8" fill="#000000" transform="matrix(1.00, 0.00, -0.00, -1.00, 681.4, 7.1)">m</text><text xml:space="preserve" font-family="Palatino-Roman,Palatino" font-size="19.8" fill="#000000" transform="matrix(1.00, 0.00, -0.00, -1.00, 698.9, 7.1)">p</text><text xml:space="preserve" font-family="Palatino-Roman,Palatino" font-size="19.8" fill="#000000" transform="matrix(1.00, 0.00, -0.00, -1.00, 710.8, 7.1)"> </text><text xml:space="preserve" font-family="Palatino-Roman,Palatino" font-size="19.8" fill="#000000" transform="matrix(1.00, 0.00, -0.00, -1.00, 715.7, 7.1)">b</text><text xml:space="preserve" font-family="Palatino-Roman,Palatino" font-size="19.8" fill="#000000" transform="matrix(1.00, 0.00, -0.00, -1.00, 726.6, 7.1)">a</text><text xml:space="preserve" font-family="Palatino-Roman,Palatino" font-size="19.8" fill="#000000" transform="matrix(1.00, 0.00, -0.00, -1.00, 736.5, 7.1)">c</text><text xml:space="preserve" font-family="Palatino-Roman,Palatino" font-size="19.8" fill="#000000" transform="matrix(1.00, 0.00, -0.00, -1.00, 745.3, 7.1)">k</text><text xml:space="preserve" font-family="Palatino-Roman,Palatino" font-size="19.8" fill="#000000" transform="matrix(1.00, 0.00, -0.00, -1.00, 756.3, 7.1)"> </text><text xml:space="preserve" font-family="Palatino-Roman,Palatino" font-size="19.8" fill="#000000" transform="matrix(1.00, 0.00, -0.00, -1.00, 761.2, 7.1)">t</text><text xml:space="preserve" font-family="Palatino-Roman,Palatino" font-size="19.8" fill="#000000" transform="matrix(1.00, 0.00, -0.00, -1.00, 767.7, 7.1)">o</text><text xml:space="preserve" font-family="Palatino-Roman,Palatino" font-size="19.8" fill="#000000" transform="matrix(1.00, 0.00, -0.00, -1.00, 778.4, 7.1)"> </text><text xml:space="preserve" font-family="Palatino-Roman,Palatino" font-size="19.8" fill="#000000" transform="matrix(1.00, 0.00, -0.00, -1.00, 783.4, 7.1)">t</text><text xml:space="preserve" font-family="Palatino-Roman,Palatino" font-size="19.8" fill="#000000" transform="matrix(1.00, 0.00, -0.00, -1.00, 789.8, 7.1)">h</text><text xml:space="preserve" font-family="Palatino-Roman,Palatino" font-size="19.8" fill="#000000" transform="matrix(1.00, 0.00, -0.00, -1.00, 801.3, 7.1)">e</text><text xml:space="preserve" font-family="Palatino-Roman,Palatino" font-size="19.8" fill="#000000" transform="matrix(1.00, 0.00, -0.00, -1.00, 810.8, 7.1)"> </text><text xml:space="preserve" font-family="Palatino-Roman,Palatino" font-size="19.8" fill="#000000" transform="matrix(1.00, 0.00, -0.00, -1.00, 815.7, 7.1)">m</text><text xml:space="preserve" font-family="Palatino-Roman,Palatino" font-size="19.8" fill="#000000" transform="matrix(1.00, 0.00, -0.00, -1.00, 833.2, 7.1)">a</text><text xml:space="preserve" font-family="Palatino-Roman,Palatino" font-size="19.8" fill="#000000" transform="matrix(1.00, 0.00, -0.00, -1.00, 843.1, 7.1)">t</text><text xml:space="preserve" font-family="Palatino-Roman,Palatino" font-size="19.8" fill="#000000" transform="matrix(1.00, 0.00, -0.00, -1.00, 849.5, 7.1)">c</text><text xml:space="preserve" font-family="Palatino-Roman,Palatino" font-size="19.8" fill="#000000" transform="matrix(1.00, 0.00, -0.00, -1.00, 858.3, 7.1)">h</text><text xml:space="preserve" font-family="Palatino-Roman,Palatino" font-size="19.8" fill="#000000" transform="matrix(1.00, 0.00, -0.00, -1.00, 869.8, 7.1)">i</text><text xml:space="preserve" font-family="Palatino-Roman,Palatino" font-size="19.8" fill="#000000" transform="matrix(1.00, 0.00, -0.00, -1.00, 875.5, 7.1)">n</text><text xml:space="preserve" font-family="Palatino-Roman,Palatino" font-size="19.8" fill="#000000" transform="matrix(1.00, 0.00, -0.00, -1.00, 887.0, 7.1)">g</text><text xml:space="preserve" font-family="Palatino-Roman,Palatino" font-size="19.8" fill="#000000" transform="matrix(1.00, 0.00, -0.00, -1.00, 898.0, 7.1)"> </text><text xml:space="preserve" font-family="Monaco,Monaco" font-size="19.8" fill="#000000" transform="matrix(1.00, 0.00, -0.00, -1.00, 903.0, 7.1)">[</text></g></svg>