<?xml version="1.0" encoding="UTF-8" standalone="no"?><svg xmlns="http://www.w3.org/2000/svg" xmlns:xlink="http://www.w3.org/1999/xlink" clip-rule="evenodd" stroke-miterlimit="10" viewBox="0 0 164 34"><desc>SVG generated by Keynote</desc><defs></defs><g transform="matrix(1.00, 0.00, -0.00, -1.00, 0.0, 34.0)"><text xml:space="preserve" font-family="Monaco,Monaco" font-size="30.0" fill="#324763" transform="matrix(1.00, 0.00, -0.00, -1.00, 1.2, 7.3)">+</text><text xml:space="preserve" font-family="Monaco,Monaco" font-size="30.0" fill="#324763" transform="matrix(1.00, 0.00, -0.00, -1.00, 19.2, 7.3)">[</text><text xml:space="preserve" font-family="Monaco,Monaco" font-size="30.0" fill="#324763" transform="matrix(1.00, 0.00, -0.00, -1.00, 37.2, 7.3)">[</text><text xml:space="preserve" font-family="Monaco,Monaco" font-size="30.0" fill="#324763" transform="matrix(1.00, 0.00, -0.00, -1.00, 55.2, 7.3)">-</text><text xml:space="preserve" font-family="Monaco,Monaco" font-size="30.0" fill="#324763" transform="matrix(1.00, 0.00, -0.00, -1.00, 73.2, 7.3)">]</text><text xml:space="preserve" font-family="Monaco,Monaco" font-size="30.0" fill="#324763" transform="matrix(1.00, 0.00, -0.00, -1.00, 91.2, 7.3)">&gt;</text><text xml:space="preserve" font-family="Monaco,Monaco" font-size="30.0" fill="#324763" transform="matrix(1.00, 0.00, -0.00, -1.00, 109.2, 7.3)">+</text><text xml:space="preserve" font-family="Monaco,Monaco" font-size="30.0" fill="#324763" transform="matrix(1.00, 0.00, -0.00, -1.00, 127.2, 7.3)">]</text><text xml:space="preserve" font-family="Monaco,Monaco" font-size="30.0" fill="#324763" transform="matrix(1.00, 0.00, -0.00, -1.00, 145.2, 7.3)">&gt;</text></g></svg>