<?xml version="1.0" encoding="UTF-8" standalone="no"?><svg xmlns="http://www.w3.org/2000/svg" xmlns:xlink="http://www.w3.org/1999/xlink" clip-rule="evenodd" stroke-miterlimit="10" viewBox="0 0 914 25"><desc>SVG generated by Keynote</desc><defs></defs><g transform="matrix(1.00, 0.00, -0.00, -1.00, 0.0, 25.0)"><text xml:space="preserve" font-family="ZapfDingbatsITC,Zapf Dingbats" font-size="13.8" fill="#5B86B8" transform="matrix(1.00, 0.00, -0.00, -1.00, 0.0, 8.7)">✤</text><text xml:space="preserve" font-family="Palatino-Roman,Palatino" font-size="19.8" fill="#000000" transform="matrix(1.00, 0.00, -0.00, -1.00, 20.8, 7.7)">S</text><text xml:space="preserve" font-family="Palatino-Roman,Palatino" font-size="19.8" fill="#000000" transform="matrix(1.00, 0.00, -0.00, -1.00, 31.2, 7.7)">h</text><text xml:space="preserve" font-family="Palatino-Roman,Palatino" font-size="19.8" fill="#000000" transform="matrix(1.00, 0.00, -0.00, -1.00, 42.7, 7.7)">o</text><text xml:space="preserve" font-family="Palatino-Roman,Palatino" font-size="19.8" fill="#000000" transform="matrix(1.00, 0.00, -0.00, -1.00, 53.5, 7.7)">r</text><text xml:space="preserve" font-family="Palatino-Roman,Palatino" font-size="19.8" fill="#000000" transform="matrix(1.00, 0.00, -0.00, -1.00, 61.3, 7.7)">t</text><text xml:space="preserve" font-family="Palatino-Roman,Palatino" font-size="19.8" fill="#000000" transform="matrix(1.00, 0.00, -0.00, -1.00, 67.7, 7.7)">c</text><text xml:space="preserve" font-family="Palatino-Roman,Palatino" font-size="19.8" fill="#000000" transform="matrix(1.00, 0.00, -0.00, -1.00, 76.5, 7.7)">u</text><text xml:space="preserve" font-family="Palatino-Roman,Palatino" font-size="19.8" fill="#000000" transform="matrix(1.00, 0.00, -0.00, -1.00, 88.4, 7.7)">t</text><text xml:space="preserve" font-family="Palatino-Roman,Palatino" font-size="19.8" fill="#000000" transform="matrix(1.00, 0.00, -0.00, -1.00, 94.8, 7.7)">:</text><text xml:space="preserve" font-family="Palatino-Roman,Palatino" font-size="19.8" fill="#000000" transform="matrix(1.00, 0.00, -0.00, -1.00, 99.8, 7.7)"> </text><text xml:space="preserve" font-family="Palatino-Roman,Palatino" font-size="19.8" fill="#000000" transform="matrix(1.00, 0.00, -0.00, -1.00, 104.7, 7.7)">R</text><text xml:space="preserve" font-family="Palatino-Roman,Palatino" font-size="19.8" fill="#000000" transform="matrix(1.00, 0.00, -0.00, -1.00, 117.9, 7.7)">u</text><text xml:space="preserve" font-family="Palatino-Roman,Palatino" font-size="19.8" fill="#000000" transform="matrix(1.00, 0.00, -0.00, -1.00, 129.8, 7.7)">s</text><text xml:space="preserve" font-family="Palatino-Roman,Palatino" font-size="19.8" fill="#000000" transform="matrix(1.00, 0.00, -0.00, -1.00, 138.2, 7.7)">t</text><text xml:space="preserve" font-family="Palatino-Roman,Palatino" font-size="19.8" fill="#000000" transform="matrix(1.00, 0.00, -0.00, -1.00, 144.7, 7.7)"> </text><text xml:space="preserve" font-family="Palatino-Roman,Palatino" font-size="19.8" fill="#000000" transform="matrix(1.00, 0.00, -0.00, -1.00, 149.6, 7.7)">m</text><text xml:space="preserve" font-family="Palatino-Roman,Palatino" font-size="19.8" fill="#000000" transform="matrix(1.00, 0.00, -0.00, -1.00, 167.0, 7.7)">a</text><text xml:space="preserve" font-family="Palatino-Roman,Palatino" font-size="19.8" fill="#000000" transform="matrix(1.00, 0.00, -0.00, -1.00, 176.9, 7.7)">c</text><text xml:space="preserve" font-family="Palatino-Roman,Palatino" font-size="19.8" fill="#000000" transform="matrix(1.00, 0.00, -0.00, -1.00, 185.7, 7.7)">r</text><text xml:space="preserve" font-family="Palatino-Roman,Palatino" font-size="19.8" fill="#000000" transform="matrix(1.00, 0.00, -0.00, -1.00, 193.1, 7.7)">o</text><text xml:space="preserve" font-family="Palatino-Roman,Palatino" font-size="19.8" fill="#000000" transform="matrix(1.00, 0.00, -0.00, -1.00, 203.9, 7.7)">s</text><text xml:space="preserve" font-family="Palatino-Roman,Palatino" font-size="19.8" fill="#000000" transform="matrix(1.00, 0.00, -0.00, -1.00, 212.3, 7.7)"> </text><text xml:space="preserve" font-family="Palatino-Roman,Palatino" font-size="19.8" fill="#000000" transform="matrix(1.00, 0.00, -0.00, -1.00, 217.2, 7.7)">a</text><text xml:space="preserve" font-family="Palatino-Roman,Palatino" font-size="19.8" fill="#000000" transform="matrix(1.00, 0.00, -0.00, -1.00, 227.1, 7.7)">l</text><text xml:space="preserve" font-family="Palatino-Roman,Palatino" font-size="19.8" fill="#000000" transform="matrix(1.00, 0.00, -0.00, -1.00, 232.9, 7.7)">r</text><text xml:space="preserve" font-family="Palatino-Roman,Palatino" font-size="19.8" fill="#000000" transform="matrix(1.00, 0.00, -0.00, -1.00, 240.3, 7.7)">e</text><text xml:space="preserve" font-family="Palatino-Roman,Palatino" font-size="19.8" fill="#000000" transform="matrix(1.00, 0.00, -0.00, -1.00, 249.8, 7.7)">a</text><text xml:space="preserve" font-family="Palatino-Roman,Palatino" font-size="19.8" fill="#000000" transform="matrix(1.00, 0.00, -0.00, -1.00, 259.7, 7.7)">d</text><text xml:space="preserve" font-family="Palatino-Roman,Palatino" font-size="19.8" fill="#000000" transform="matrix(1.00, 0.00, -0.00, -1.00, 271.7, 7.7)">y</text><text xml:space="preserve" font-family="Palatino-Roman,Palatino" font-size="19.8" fill="#000000" transform="matrix(1.00, 0.00, -0.00, -1.00, 282.7, 7.7)"> </text><text xml:space="preserve" font-family="Palatino-Roman,Palatino" font-size="19.8" fill="#000000" transform="matrix(1.00, 0.00, -0.00, -1.00, 287.7, 7.7)">h</text><text xml:space="preserve" font-family="Palatino-Roman,Palatino" font-size="19.8" fill="#000000" transform="matrix(1.00, 0.00, -0.00, -1.00, 299.2, 7.7)">a</text><text xml:space="preserve" font-family="Palatino-Roman,Palatino" font-size="19.8" fill="#000000" transform="matrix(1.00, 0.00, -0.00, -1.00, 309.1, 7.7)">v</text><text xml:space="preserve" font-family="Palatino-Roman,Palatino" font-size="19.8" fill="#000000" transform="matrix(1.00, 0.00, -0.00, -1.00, 320.2, 7.7)">e</text><text xml:space="preserve" font-family="Palatino-Roman,Palatino" font-size="19.8" fill="#000000" transform="matrix(1.00, 0.00, -0.00, -1.00, 329.7, 7.7)"> </text><text xml:space="preserve" font-family="Palatino-Roman,Palatino" font-size="19.8" fill="#000000" transform="matrix(1.00, 0.00, -0.00, -1.00, 334.6, 7.7)">a</text><text xml:space="preserve" font-family="Palatino-Roman,Palatino" font-size="19.8" fill="#000000" transform="matrix(1.00, 0.00, -0.00, -1.00, 344.5, 7.7)"> </text><text xml:space="preserve" font-family="Palatino-Roman,Palatino" font-size="19.8" fill="#000000" transform="matrix(1.00, 0.00, -0.00, -1.00, 349.4, 7.7)">p</text><text xml:space="preserve" font-family="Palatino-Roman,Palatino" font-size="19.8" fill="#000000" transform="matrix(1.00, 0.00, -0.00, -1.00, 361.3, 7.7)">e</text><text xml:space="preserve" font-family="Palatino-Roman,Palatino" font-size="19.8" fill="#000000" transform="matrix(1.00, 0.00, -0.00, -1.00, 370.8, 7.7)">r</text><text xml:space="preserve" font-family="Palatino-Roman,Palatino" font-size="19.8" fill="#000000" transform="matrix(1.00, 0.00, -0.00, -1.00, 378.6, 7.7)">f</text><text xml:space="preserve" font-family="Palatino-Roman,Palatino" font-size="19.8" fill="#000000" transform="matrix(1.00, 0.00, -0.00, -1.00, 385.2, 7.7)">e</text><text xml:space="preserve" font-family="Palatino-Roman,Palatino" font-size="19.8" fill="#000000" transform="matrix(1.00, 0.00, -0.00, -1.00, 394.6, 7.7)">c</text><text xml:space="preserve" font-family="Palatino-Roman,Palatino" font-size="19.8" fill="#000000" transform="matrix(1.00, 0.00, -0.00, -1.00, 403.4, 7.7)">t</text><text xml:space="preserve" font-family="Palatino-Roman,Palatino" font-size="19.8" fill="#000000" transform="matrix(1.00, 0.00, -0.00, -1.00, 409.8, 7.7)">l</text><text xml:space="preserve" font-family="Palatino-Roman,Palatino" font-size="19.8" fill="#000000" transform="matrix(1.00, 0.00, -0.00, -1.00, 415.6, 7.7)">y</text><text xml:space="preserve" font-family="Palatino-Roman,Palatino" font-size="19.8" fill="#000000" transform="matrix(1.00, 0.00, -0.00, -1.00, 426.6, 7.7)"> </text><text xml:space="preserve" font-family="Palatino-Roman,Palatino" font-size="19.8" fill="#000000" transform="matrix(1.00, 0.00, -0.00, -1.00, 431.5, 7.7)">g</text><text xml:space="preserve" font-family="Palatino-Roman,Palatino" font-size="19.8" fill="#000000" transform="matrix(1.00, 0.00, -0.00, -1.00, 442.5, 7.7)">o</text><text xml:space="preserve" font-family="Palatino-Roman,Palatino" font-size="19.8" fill="#000000" transform="matrix(1.00, 0.00, -0.00, -1.00, 453.3, 7.7)">o</text><text xml:space="preserve" font-family="Palatino-Roman,Palatino" font-size="19.8" fill="#000000" transform="matrix(1.00, 0.00, -0.00, -1.00, 464.1, 7.7)">d</text><text xml:space="preserve" font-family="Palatino-Roman,Palatino" font-size="19.8" fill="#000000" transform="matrix(1.00, 0.00, -0.00, -1.00, 476.2, 7.7)"> </text><text xml:space="preserve" font-family="Palatino-Roman,Palatino" font-size="19.8" fill="#000000" transform="matrix(1.00, 0.00, -0.00, -1.00, 481.1, 7.7)">s</text><text xml:space="preserve" font-family="Palatino-Roman,Palatino" font-size="19.8" fill="#000000" transform="matrix(1.00, 0.00, -0.00, -1.00, 489.5, 7.7)">y</text><text xml:space="preserve" font-family="Palatino-Roman,Palatino" font-size="19.8" fill="#000000" transform="matrix(1.00, 0.00, -0.00, -1.00, 500.5, 7.7)">s</text><text xml:space="preserve" font-family="Palatino-Roman,Palatino" font-size="19.8" fill="#000000" transform="matrix(1.00, 0.00, -0.00, -1.00, 508.8, 7.7)">t</text><text xml:space="preserve" font-family="Palatino-Roman,Palatino" font-size="19.8" fill="#000000" transform="matrix(1.00, 0.00, -0.00, -1.00, 515.3, 7.7)">e</text><text xml:space="preserve" font-family="Palatino-Roman,Palatino" font-size="19.8" fill="#000000" transform="matrix(1.00, 0.00, -0.00, -1.00, 524.8, 7.7)">m</text><text xml:space="preserve" font-family="Palatino-Roman,Palatino" font-size="19.8" fill="#000000" transform="matrix(1.00, 0.00, -0.00, -1.00, 542.2, 7.7)"> </text><text xml:space="preserve" font-family="Palatino-Roman,Palatino" font-size="19.8" fill="#000000" transform="matrix(1.00, 0.00, -0.00, -1.00, 547.1, 7.7)">f</text><text xml:space="preserve" font-family="Palatino-Roman,Palatino" font-size="19.8" fill="#000000" transform="matrix(1.00, 0.00, -0.00, -1.00, 553.7, 7.7)">o</text><text xml:space="preserve" font-family="Palatino-Roman,Palatino" font-size="19.8" fill="#000000" transform="matrix(1.00, 0.00, -0.00, -1.00, 564.5, 7.7)">r</text><text xml:space="preserve" font-family="Palatino-Roman,Palatino" font-size="19.8" fill="#000000" transform="matrix(1.00, 0.00, -0.00, -1.00, 572.3, 7.7)"> </text><text xml:space="preserve" font-family="Palatino-Roman,Palatino" font-size="19.8" fill="#000000" transform="matrix(1.00, 0.00, -0.00, -1.00, 577.2, 7.7)">m</text><text xml:space="preserve" font-family="Palatino-Roman,Palatino" font-size="19.8" fill="#000000" transform="matrix(1.00, 0.00, -0.00, -1.00, 594.7, 7.7)">a</text><text xml:space="preserve" font-family="Palatino-Roman,Palatino" font-size="19.8" fill="#000000" transform="matrix(1.00, 0.00, -0.00, -1.00, 604.6, 7.7)">t</text><text xml:space="preserve" font-family="Palatino-Roman,Palatino" font-size="19.8" fill="#000000" transform="matrix(1.00, 0.00, -0.00, -1.00, 611.0, 7.7)">c</text><text xml:space="preserve" font-family="Palatino-Roman,Palatino" font-size="19.8" fill="#000000" transform="matrix(1.00, 0.00, -0.00, -1.00, 619.8, 7.7)">h</text><text xml:space="preserve" font-family="Palatino-Roman,Palatino" font-size="19.8" fill="#000000" transform="matrix(1.00, 0.00, -0.00, -1.00, 631.3, 7.7)">i</text><text xml:space="preserve" font-family="Palatino-Roman,Palatino" font-size="19.8" fill="#000000" transform="matrix(1.00, 0.00, -0.00, -1.00, 637.0, 7.7)">n</text><text xml:space="preserve" font-family="Palatino-Roman,Palatino" font-size="19.8" fill="#000000" transform="matrix(1.00, 0.00, -0.00, -1.00, 648.5, 7.7)">g</text><text xml:space="preserve" font-family="Palatino-Roman,Palatino" font-size="19.8" fill="#000000" transform="matrix(1.00, 0.00, -0.00, -1.00, 659.5, 7.7)"> </text><text xml:space="preserve" font-family="Palatino-Roman,Palatino" font-size="19.8" fill="#000000" transform="matrix(1.00, 0.00, -0.00, -1.00, 664.5, 7.7)">n</text><text xml:space="preserve" font-family="Palatino-Roman,Palatino" font-size="19.8" fill="#000000" transform="matrix(1.00, 0.00, -0.00, -1.00, 676.0, 7.7)">e</text><text xml:space="preserve" font-family="Palatino-Roman,Palatino" font-size="19.8" fill="#000000" transform="matrix(1.00, 0.00, -0.00, -1.00, 685.4, 7.7)">s</text><text xml:space="preserve" font-family="Palatino-Roman,Palatino" font-size="19.8" fill="#000000" transform="matrix(1.00, 0.00, -0.00, -1.00, 693.8, 7.7)">t</text><text xml:space="preserve" font-family="Palatino-Roman,Palatino" font-size="19.8" fill="#000000" transform="matrix(1.00, 0.00, -0.00, -1.00, 700.3, 7.7)">e</text><text xml:space="preserve" font-family="Palatino-Roman,Palatino" font-size="19.8" fill="#000000" transform="matrix(1.00, 0.00, -0.00, -1.00, 709.7, 7.7)">d</text><text xml:space="preserve" font-family="Palatino-Roman,Palatino" font-size="19.8" fill="#000000" transform="matrix(1.00, 0.00, -0.00, -1.00, 721.8, 7.7)"> </text><text xml:space="preserve" font-family="Palatino-Roman,Palatino" font-size="19.8" fill="#000000" transform="matrix(1.00, 0.00, -0.00, -1.00, 726.7, 7.7)">b</text><text xml:space="preserve" font-family="Palatino-Roman,Palatino" font-size="19.8" fill="#000000" transform="matrix(1.00, 0.00, -0.00, -1.00, 737.7, 7.7)">r</text><text xml:space="preserve" font-family="Palatino-Roman,Palatino" font-size="19.8" fill="#000000" transform="matrix(1.00, 0.00, -0.00, -1.00, 745.5, 7.7)">a</text><text xml:space="preserve" font-family="Palatino-Roman,Palatino" font-size="19.8" fill="#000000" transform="matrix(1.00, 0.00, -0.00, -1.00, 755.3, 7.7)">c</text><text xml:space="preserve" font-family="Palatino-Roman,Palatino" font-size="19.8" fill="#000000" transform="matrix(1.00, 0.00, -0.00, -1.00, 764.1, 7.7)">k</text><text xml:space="preserve" font-family="Palatino-Roman,Palatino" font-size="19.8" fill="#000000" transform="matrix(1.00, 0.00, -0.00, -1.00, 775.1, 7.7)">e</text><text xml:space="preserve" font-family="Palatino-Roman,Palatino" font-size="19.8" fill="#000000" transform="matrix(1.00, 0.00, -0.00, -1.00, 784.6, 7.7)">t</text><text xml:space="preserve" font-family="Palatino-Roman,Palatino" font-size="19.8" fill="#000000" transform="matrix(1.00, 0.00, -0.00, -1.00, 791.0, 7.7)">s</text><text xml:space="preserve" font-family="Palatino-Roman,Palatino" font-size="19.8" fill="#000000" transform="matrix(1.00, 0.00, -0.00, -1.00, 799.4, 7.7)"> </text><text xml:space="preserve" font-family="Palatino-Roman,Palatino" font-size="19.8" fill="#000000" transform="matrix(1.00, 0.00, -0.00, -1.00, 804.3, 7.7)">-</text><text xml:space="preserve" font-family="Palatino-Roman,Palatino" font-size="19.8" fill="#000000" transform="matrix(1.00, 0.00, -0.00, -1.00, 810.9, 7.7)">-</text><text xml:space="preserve" font-family="Palatino-Roman,Palatino" font-size="19.8" fill="#000000" transform="matrix(1.00, 0.00, -0.00, -1.00, 817.5, 7.7)"> </text><text xml:space="preserve" font-family="Palatino-Roman,Palatino" font-size="19.8" fill="#000000" transform="matrix(1.00, 0.00, -0.00, -1.00, 822.4, 7.7)">l</text><text xml:space="preserve" font-family="Palatino-Roman,Palatino" font-size="19.8" fill="#000000" transform="matrix(1.00, 0.00, -0.00, -1.00, 828.2, 7.7)">e</text><text xml:space="preserve" font-family="Palatino-Roman,Palatino" font-size="19.8" fill="#000000" transform="matrix(1.00, 0.00, -0.00, -1.00, 837.6, 7.7)">t</text><text xml:space="preserve" font-family="Palatino-Roman,Palatino" font-size="19.8" fill="#000000" transform="matrix(1.00, 0.00, -0.00, -1.00, 844.1, 7.7)">'</text><text xml:space="preserve" font-family="Palatino-Roman,Palatino" font-size="19.8" fill="#000000" transform="matrix(1.00, 0.00, -0.00, -1.00, 848.2, 7.7)">s</text><text xml:space="preserve" font-family="Palatino-Roman,Palatino" font-size="19.8" fill="#000000" transform="matrix(1.00, 0.00, -0.00, -1.00, 856.6, 7.7)"> </text><text xml:space="preserve" font-family="Palatino-Roman,Palatino" font-size="19.8" fill="#000000" transform="matrix(1.00, 0.00, -0.00, -1.00, 861.5, 7.7)">u</text><text xml:space="preserve" font-family="Palatino-Roman,Palatino" font-size="19.8" fill="#000000" transform="matrix(1.00, 0.00, -0.00, -1.00, 873.4, 7.7)">s</text><text xml:space="preserve" font-family="Palatino-Roman,Palatino" font-size="19.8" fill="#000000" transform="matrix(1.00, 0.00, -0.00, -1.00, 881.8, 7.7)">e</text><text xml:space="preserve" font-family="Palatino-Roman,Palatino" font-size="19.8" fill="#000000" transform="matrix(1.00, 0.00, -0.00, -1.00, 891.3, 7.7)"> </text><text xml:space="preserve" font-family="Palatino-Roman,Palatino" font-size="19.8" fill="#000000" transform="matrix(1.00, 0.00, -0.00, -1.00, 896.2, 7.7)">i</text><text xml:space="preserve" font-family="Palatino-Roman,Palatino" font-size="19.8" fill="#000000" transform="matrix(1.00, 0.00, -0.00, -1.00, 902.0, 7.7)">t</text><text xml:space="preserve" font-family="Palatino-Roman,Palatino" font-size="19.8" fill="#000000" transform="matrix(1.00, 0.00, -0.00, -1.00, 908.4, 7.7)">!</text></g></svg>