<?xml version="1.0" encoding="UTF-8" standalone="no"?><svg xmlns="http://www.w3.org/2000/svg" xmlns:xlink="http://www.w3.org/1999/xlink" clip-rule="evenodd" stroke-miterlimit="10" viewBox="0 0 816 64"><desc>SVG generated by Keynote</desc><defs></defs><g transform="matrix(1.00, 0.00, -0.00, -1.00, 0.0, 64.0)"><text xml:space="preserve" font-family="Didot-Bold,Didot" font-weight="bold" font-size="60.0" fill="#304863" transform="matrix(1.00, 0.00, -0.00, -1.00, -1.0, 18.2)">H</text><text xml:space="preserve" font-family="Didot-Bold,Didot" font-weight="bold" font-size="60.0" fill="#304863" transform="matrix(1.00, 0.00, -0.00, -1.00, 47.8, 18.2)">o</text><text xml:space="preserve" font-family="Didot-Bold,Didot" font-weight="bold" font-size="60.0" fill="#304863" transform="matrix(1.00, 0.00, -0.00, -1.00, 79.3, 18.2)">w</text><text xml:space="preserve" font-family="Didot,Didot" font-size="60.0" fill="#304863" transform="matrix(1.00, 0.00, -0.00, -1.00, 122.6, 18.2)"> </text><text xml:space="preserve" font-family="Didot,Didot" font-size="60.0" fill="#304863" transform="matrix(1.00, 0.00, -0.00, -1.00, 138.1, 18.2)">w</text><text xml:space="preserve" font-family="Didot,Didot" font-size="60.0" fill="#304863" transform="matrix(1.00, 0.00, -0.00, -1.00, 181.3, 18.2)">i</text><text xml:space="preserve" font-family="Didot,Didot" font-size="60.0" fill="#304863" transform="matrix(1.00, 0.00, -0.00, -1.00, 197.9, 18.2)">l</text><text xml:space="preserve" font-family="Didot,Didot" font-size="60.0" fill="#304863" transform="matrix(1.00, 0.00, -0.00, -1.00, 214.5, 18.2)">l</text><text xml:space="preserve" font-family="Didot,Didot" font-size="60.0" fill="#304863" transform="matrix(1.00, 0.00, -0.00, -1.00, 231.0, 18.2)"> </text><text xml:space="preserve" font-family="Didot,Didot" font-size="60.0" fill="#304863" transform="matrix(1.00, 0.00, -0.00, -1.00, 246.5, 18.2)">w</text><text xml:space="preserve" font-family="Didot,Didot" font-size="60.0" fill="#304863" transform="matrix(1.00, 0.00, -0.00, -1.00, 289.2, 18.2)">e</text><text xml:space="preserve" font-family="Didot,Didot" font-size="60.0" fill="#304863" transform="matrix(1.00, 0.00, -0.00, -1.00, 318.0, 18.2)"> </text><text xml:space="preserve" font-family="Didot,Didot" font-size="60.0" fill="#304863" transform="matrix(1.00, 0.00, -0.00, -1.00, 333.4, 18.2)">p</text><text xml:space="preserve" font-family="Didot,Didot" font-size="60.0" fill="#304863" transform="matrix(1.00, 0.00, -0.00, -1.00, 367.8, 18.2)">u</text><text xml:space="preserve" font-family="Didot,Didot" font-size="60.0" fill="#304863" transform="matrix(1.00, 0.00, -0.00, -1.00, 402.2, 18.2)">l</text><text xml:space="preserve" font-family="Didot,Didot" font-size="60.0" fill="#304863" transform="matrix(1.00, 0.00, -0.00, -1.00, 418.8, 18.2)">l</text><text xml:space="preserve" font-family="Didot,Didot" font-size="60.0" fill="#304863" transform="matrix(1.00, 0.00, -0.00, -1.00, 435.3, 18.2)"> </text><text xml:space="preserve" font-family="Didot,Didot" font-size="60.0" fill="#304863" transform="matrix(1.00, 0.00, -0.00, -1.00, 450.8, 18.2)">i</text><text xml:space="preserve" font-family="Didot,Didot" font-size="60.0" fill="#304863" transform="matrix(1.00, 0.00, -0.00, -1.00, 467.4, 18.2)">t</text><text xml:space="preserve" font-family="Didot,Didot" font-size="60.0" fill="#304863" transform="matrix(1.00, 0.00, -0.00, -1.00, 486.1, 18.2)"> </text><text xml:space="preserve" font-family="Didot,Didot" font-size="60.0" fill="#304863" transform="matrix(1.00, 0.00, -0.00, -1.00, 501.6, 18.2)">a</text><text xml:space="preserve" font-family="Didot,Didot" font-size="60.0" fill="#304863" transform="matrix(1.00, 0.00, -0.00, -1.00, 529.3, 18.2)">l</text><text xml:space="preserve" font-family="Didot,Didot" font-size="60.0" fill="#304863" transform="matrix(1.00, 0.00, -0.00, -1.00, 545.8, 18.2)">l</text><text xml:space="preserve" font-family="Didot,Didot" font-size="60.0" fill="#304863" transform="matrix(1.00, 0.00, -0.00, -1.00, 562.4, 18.2)"> </text><text xml:space="preserve" font-family="Didot,Didot" font-size="60.0" fill="#304863" transform="matrix(1.00, 0.00, -0.00, -1.00, 577.9, 18.2)">t</text><text xml:space="preserve" font-family="Didot,Didot" font-size="60.0" fill="#304863" transform="matrix(1.00, 0.00, -0.00, -1.00, 596.7, 18.2)">o</text><text xml:space="preserve" font-family="Didot,Didot" font-size="60.0" fill="#304863" transform="matrix(1.00, 0.00, -0.00, -1.00, 628.8, 18.2)">g</text><text xml:space="preserve" font-family="Didot,Didot" font-size="60.0" fill="#304863" transform="matrix(1.00, 0.00, -0.00, -1.00, 658.8, 18.2)">e</text><text xml:space="preserve" font-family="Didot,Didot" font-size="60.0" fill="#304863" transform="matrix(1.00, 0.00, -0.00, -1.00, 687.6, 18.2)">t</text><text xml:space="preserve" font-family="Didot,Didot" font-size="60.0" fill="#304863" transform="matrix(1.00, 0.00, -0.00, -1.00, 706.3, 18.2)">h</text><text xml:space="preserve" font-family="Didot,Didot" font-size="60.0" fill="#304863" transform="matrix(1.00, 0.00, -0.00, -1.00, 741.8, 18.2)">e</text><text xml:space="preserve" font-family="Didot,Didot" font-size="60.0" fill="#304863" transform="matrix(1.00, 0.00, -0.00, -1.00, 770.6, 18.2)">r</text><text xml:space="preserve" font-family="Didot,Didot" font-size="60.0" fill="#304863" transform="matrix(1.00, 0.00, -0.00, -1.00, 793.8, 18.2)">?</text></g></svg>