<?xml version="1.0" encoding="UTF-8" standalone="no"?><svg xmlns="http://www.w3.org/2000/svg" xmlns:xlink="http://www.w3.org/1999/xlink" clip-rule="evenodd" stroke-miterlimit="10" viewBox="0 0 527 68"><desc>SVG generated by Keynote</desc><defs></defs><g transform="matrix(1.00, 0.00, -0.00, -1.00, 0.0, 68.0)"><text xml:space="preserve" font-family="Palatino-Roman,Palatino" font-size="90.0" fill="#000000" transform="matrix(1.00, 0.00, -0.00, -1.00, 0.7, 3.0)">D</text><text xml:space="preserve" font-family="Palatino-Roman,Palatino" font-size="90.0" fill="#000000" transform="matrix(1.00, 0.00, -0.00, -1.00, 70.4, 3.0)">E</text><text xml:space="preserve" font-family="Palatino-Roman,Palatino" font-size="90.0" fill="#000000" transform="matrix(1.00, 0.00, -0.00, -1.00, 125.3, 3.0)">M</text><text xml:space="preserve" font-family="Palatino-Roman,Palatino" font-size="90.0" fill="#000000" transform="matrix(1.00, 0.00, -0.00, -1.00, 210.4, 3.0)">O</text><text xml:space="preserve" font-family="Palatino-Roman,Palatino" font-size="90.0" fill="#000000" transform="matrix(1.00, 0.00, -0.00, -1.00, 281.2, 3.0)"> </text><text xml:space="preserve" font-family="Palatino-Roman,Palatino" font-size="90.0" fill="#000000" transform="matrix(1.00, 0.00, -0.00, -1.00, 303.7, 3.0)">T</text><text xml:space="preserve" font-family="Palatino-Roman,Palatino" font-size="90.0" fill="#000000" transform="matrix(1.00, 0.00, -0.00, -1.00, 358.8, 3.0)">I</text><text xml:space="preserve" font-family="Palatino-Roman,Palatino" font-size="90.0" fill="#000000" transform="matrix(1.00, 0.00, -0.00, -1.00, 389.1, 3.0)">M</text><text xml:space="preserve" font-family="Palatino-Roman,Palatino" font-size="90.0" fill="#000000" transform="matrix(1.00, 0.00, -0.00, -1.00, 474.2, 3.0)">E</text></g></svg>