<?xml version="1.0" encoding="UTF-8" standalone="no"?><svg xmlns="http://www.w3.org/2000/svg" xmlns:xlink="http://www.w3.org/1999/xlink" clip-rule="evenodd" stroke-miterlimit="10" viewBox="0 0 342 23"><desc>SVG generated by Keynote</desc><defs></defs><g transform="matrix(1.00, 0.00, -0.00, -1.00, 0.0, 23.0)"><text xml:space="preserve" font-family="ZapfDingbatsITC,Zapf Dingbats" font-size="17.4" fill="#5B86B8" transform="matrix(1.00, 0.00, -0.00, -1.00, 0.0, 4.3)">✤</text><text xml:space="preserve" font-family="Monaco,Monaco" font-size="24.8" fill="#000000" transform="matrix(1.00, 0.00, -0.00, -1.00, 26.1, 2.6)">+</text><text xml:space="preserve" font-family="Monaco,Monaco" font-size="24.8" fill="#000000" transform="matrix(1.00, 0.00, -0.00, -1.00, 41.0, 2.6)"> </text><text xml:space="preserve" font-family="Monaco,Monaco" font-size="24.8" fill="#000000" transform="matrix(1.00, 0.00, -0.00, -1.00, 55.9, 2.6)"> </text><text xml:space="preserve" font-family="Monaco,Monaco" font-size="24.8" fill="#000000" transform="matrix(1.00, 0.00, -0.00, -1.00, 70.8, 2.6)"> </text><text xml:space="preserve" font-family="Monaco,Monaco" font-size="24.8" fill="#000000" transform="matrix(1.00, 0.00, -0.00, -1.00, 85.6, 2.6)"> </text><text xml:space="preserve" font-family="Palatino-Roman,Palatino" font-size="24.8" fill="#000000" transform="matrix(1.00, 0.00, -0.00, -1.00, 100.5, 2.6)">I</text><text xml:space="preserve" font-family="Palatino-Roman,Palatino" font-size="24.8" fill="#000000" transform="matrix(1.00, 0.00, -0.00, -1.00, 108.9, 2.6)">n</text><text xml:space="preserve" font-family="Palatino-Roman,Palatino" font-size="24.8" fill="#000000" transform="matrix(1.00, 0.00, -0.00, -1.00, 123.3, 2.6)">c</text><text xml:space="preserve" font-family="Palatino-Roman,Palatino" font-size="24.8" fill="#000000" transform="matrix(1.00, 0.00, -0.00, -1.00, 134.3, 2.6)">r</text><text xml:space="preserve" font-family="Palatino-Roman,Palatino" font-size="24.8" fill="#000000" transform="matrix(1.00, 0.00, -0.00, -1.00, 143.7, 2.6)">e</text><text xml:space="preserve" font-family="Palatino-Roman,Palatino" font-size="24.8" fill="#000000" transform="matrix(1.00, 0.00, -0.00, -1.00, 155.5, 2.6)">m</text><text xml:space="preserve" font-family="Palatino-Roman,Palatino" font-size="24.8" fill="#000000" transform="matrix(1.00, 0.00, -0.00, -1.00, 177.4, 2.6)">e</text><text xml:space="preserve" font-family="Palatino-Roman,Palatino" font-size="24.8" fill="#000000" transform="matrix(1.00, 0.00, -0.00, -1.00, 189.3, 2.6)">n</text><text xml:space="preserve" font-family="Palatino-Roman,Palatino" font-size="24.8" fill="#000000" transform="matrix(1.00, 0.00, -0.00, -1.00, 203.7, 2.6)">t</text><text xml:space="preserve" font-family="Palatino-Roman,Palatino" font-size="24.8" fill="#000000" transform="matrix(1.00, 0.00, -0.00, -1.00, 211.8, 2.6)"> </text><text xml:space="preserve" font-family="Palatino-Roman,Palatino" font-size="24.8" fill="#000000" transform="matrix(1.00, 0.00, -0.00, -1.00, 218.0, 2.6)">c</text><text xml:space="preserve" font-family="Palatino-Roman,Palatino" font-size="24.8" fill="#000000" transform="matrix(1.00, 0.00, -0.00, -1.00, 229.0, 2.6)">u</text><text xml:space="preserve" font-family="Palatino-Roman,Palatino" font-size="24.8" fill="#000000" transform="matrix(1.00, 0.00, -0.00, -1.00, 244.0, 2.6)">r</text><text xml:space="preserve" font-family="Palatino-Roman,Palatino" font-size="24.8" fill="#000000" transform="matrix(1.00, 0.00, -0.00, -1.00, 253.8, 2.6)">r</text><text xml:space="preserve" font-family="Palatino-Roman,Palatino" font-size="24.8" fill="#000000" transform="matrix(1.00, 0.00, -0.00, -1.00, 263.2, 2.6)">e</text><text xml:space="preserve" font-family="Palatino-Roman,Palatino" font-size="24.8" fill="#000000" transform="matrix(1.00, 0.00, -0.00, -1.00, 275.0, 2.6)">n</text><text xml:space="preserve" font-family="Palatino-Roman,Palatino" font-size="24.8" fill="#000000" transform="matrix(1.00, 0.00, -0.00, -1.00, 289.5, 2.6)">t</text><text xml:space="preserve" font-family="Palatino-Roman,Palatino" font-size="24.8" fill="#000000" transform="matrix(1.00, 0.00, -0.00, -1.00, 297.6, 2.6)"> </text><text xml:space="preserve" font-family="Palatino-Roman,Palatino" font-size="24.8" fill="#000000" transform="matrix(1.00, 0.00, -0.00, -1.00, 303.8, 2.6)">c</text><text xml:space="preserve" font-family="Palatino-Roman,Palatino" font-size="24.8" fill="#000000" transform="matrix(1.00, 0.00, -0.00, -1.00, 314.8, 2.6)">e</text><text xml:space="preserve" font-family="Palatino-Roman,Palatino" font-size="24.8" fill="#000000" transform="matrix(1.00, 0.00, -0.00, -1.00, 326.6, 2.6)">l</text><text xml:space="preserve" font-family="Palatino-Roman,Palatino" font-size="24.8" fill="#000000" transform="matrix(1.00, 0.00, -0.00, -1.00, 333.9, 2.6)">l</text></g></svg>