<?xml version="1.0" encoding="UTF-8" standalone="no"?><svg xmlns="http://www.w3.org/2000/svg" xmlns:xlink="http://www.w3.org/1999/xlink" clip-rule="evenodd" stroke-miterlimit="10" viewBox="0 0 531 52"><desc>SVG generated by Keynote</desc><defs></defs><g transform="matrix(1.00, 0.00, -0.00, -1.00, 0.0, 52.0)"><text xml:space="preserve" font-family="Didot-Bold,Didot" font-weight="bold" font-size="64.0" fill="#304863" transform="matrix(1.00, 0.00, -0.00, -1.00, 2.0, 3.5)">W</text><text xml:space="preserve" font-family="Didot-Bold,Didot" font-weight="bold" font-size="64.0" fill="#304863" transform="matrix(1.00, 0.00, -0.00, -1.00, 67.1, 3.5)">h</text><text xml:space="preserve" font-family="Didot-Bold,Didot" font-weight="bold" font-size="64.0" fill="#304863" transform="matrix(1.00, 0.00, -0.00, -1.00, 106.1, 3.5)">a</text><text xml:space="preserve" font-family="Didot-Bold,Didot" font-weight="bold" font-size="64.0" fill="#304863" transform="matrix(1.00, 0.00, -0.00, -1.00, 138.1, 3.5)">t</text><text xml:space="preserve" font-family="Didot,Didot" font-size="64.0" fill="#304863" transform="matrix(1.00, 0.00, -0.00, -1.00, 160.5, 3.5)"> </text><text xml:space="preserve" font-family="Didot,Didot" font-size="64.0" fill="#304863" transform="matrix(1.00, 0.00, -0.00, -1.00, 177.0, 3.5)">i</text><text xml:space="preserve" font-family="Didot,Didot" font-size="64.0" fill="#304863" transform="matrix(1.00, 0.00, -0.00, -1.00, 194.6, 3.5)">s</text><text xml:space="preserve" font-family="Didot,Didot" font-size="64.0" fill="#304863" transform="matrix(1.00, 0.00, -0.00, -1.00, 220.6, 3.5)"> </text><text xml:space="preserve" font-family="Didot,Didot" font-size="64.0" fill="#304863" transform="matrix(1.00, 0.00, -0.00, -1.00, 237.1, 3.5)">B</text><text xml:space="preserve" font-family="Didot,Didot" font-size="64.0" fill="#304863" transform="matrix(1.00, 0.00, -0.00, -1.00, 278.5, 3.5)">r</text><text xml:space="preserve" font-family="Didot,Didot" font-size="64.0" fill="#304863" transform="matrix(1.00, 0.00, -0.00, -1.00, 303.3, 3.5)">a</text><text xml:space="preserve" font-family="Didot,Didot" font-size="64.0" fill="#304863" transform="matrix(1.00, 0.00, -0.00, -1.00, 332.8, 3.5)">i</text><text xml:space="preserve" font-family="Didot,Didot" font-size="64.0" fill="#304863" transform="matrix(1.00, 0.00, -0.00, -1.00, 350.5, 3.5)">n</text><text xml:space="preserve" font-family="Didot,Didot" font-size="64.0" fill="#304863" transform="matrix(1.00, 0.00, -0.00, -1.00, 388.3, 3.5)">f</text><text xml:space="preserve" font-family="Didot,Didot" font-size="64.0" fill="#304863" transform="matrix(1.00, 0.00, -0.00, -1.00, 408.3, 3.5)">u</text><text xml:space="preserve" font-family="Didot,Didot" font-size="64.0" fill="#304863" transform="matrix(1.00, 0.00, -0.00, -1.00, 445.0, 3.5)">c</text><text xml:space="preserve" font-family="Didot,Didot" font-size="64.0" fill="#304863" transform="matrix(1.00, 0.00, -0.00, -1.00, 473.9, 3.5)">k</text><text xml:space="preserve" font-family="Didot,Didot" font-size="64.0" fill="#304863" transform="matrix(1.00, 0.00, -0.00, -1.00, 507.0, 3.5)">?</text></g></svg>