<?xml version="1.0" encoding="UTF-8" standalone="no"?><svg xmlns="http://www.w3.org/2000/svg" xmlns:xlink="http://www.w3.org/1999/xlink" clip-rule="evenodd" stroke-miterlimit="10" viewBox="0 0 409 30"><desc>SVG generated by Keynote</desc><defs></defs><g transform="matrix(1.00, 0.00, -0.00, -1.00, 0.0, 30.0)"><text xml:space="preserve" font-family="ZapfDingbatsITC,Zapf Dingbats" font-size="17.4" fill="#5B86B8" transform="matrix(1.00, 0.00, -0.00, -1.00, 0.0, 10.1)">✤</text><text xml:space="preserve" font-family="Monaco,Monaco" font-size="24.8" fill="#000000" transform="matrix(1.00, 0.00, -0.00, -1.00, 26.1, 8.4)">&gt;</text><text xml:space="preserve" font-family="Monaco,Monaco" font-size="24.8" fill="#000000" transform="matrix(1.00, 0.00, -0.00, -1.00, 41.0, 8.4)"> </text><text xml:space="preserve" font-family="Monaco,Monaco" font-size="24.8" fill="#000000" transform="matrix(1.00, 0.00, -0.00, -1.00, 55.9, 8.4)"> </text><text xml:space="preserve" font-family="Monaco,Monaco" font-size="24.8" fill="#000000" transform="matrix(1.00, 0.00, -0.00, -1.00, 70.8, 8.4)"> </text><text xml:space="preserve" font-family="Monaco,Monaco" font-size="24.8" fill="#000000" transform="matrix(1.00, 0.00, -0.00, -1.00, 85.6, 8.4)"> </text><text xml:space="preserve" font-family="Palatino-Roman,Palatino" font-size="24.8" fill="#000000" transform="matrix(1.00, 0.00, -0.00, -1.00, 100.5, 8.4)">S</text><text xml:space="preserve" font-family="Palatino-Roman,Palatino" font-size="24.8" fill="#000000" transform="matrix(1.00, 0.00, -0.00, -1.00, 113.5, 8.4)">h</text><text xml:space="preserve" font-family="Palatino-Roman,Palatino" font-size="24.8" fill="#000000" transform="matrix(1.00, 0.00, -0.00, -1.00, 128.0, 8.4)">i</text><text xml:space="preserve" font-family="Palatino-Roman,Palatino" font-size="24.8" fill="#000000" transform="matrix(1.00, 0.00, -0.00, -1.00, 135.2, 8.4)">f</text><text xml:space="preserve" font-family="Palatino-Roman,Palatino" font-size="24.8" fill="#000000" transform="matrix(1.00, 0.00, -0.00, -1.00, 143.4, 8.4)">t</text><text xml:space="preserve" font-family="Palatino-Roman,Palatino" font-size="24.8" fill="#000000" transform="matrix(1.00, 0.00, -0.00, -1.00, 151.5, 8.4)"> </text><text xml:space="preserve" font-family="Palatino-Roman,Palatino" font-size="24.8" fill="#000000" transform="matrix(1.00, 0.00, -0.00, -1.00, 157.7, 8.4)">c</text><text xml:space="preserve" font-family="Palatino-Roman,Palatino" font-size="24.8" fill="#000000" transform="matrix(1.00, 0.00, -0.00, -1.00, 168.7, 8.4)">e</text><text xml:space="preserve" font-family="Palatino-Roman,Palatino" font-size="24.8" fill="#000000" transform="matrix(1.00, 0.00, -0.00, -1.00, 180.6, 8.4)">l</text><text xml:space="preserve" font-family="Palatino-Roman,Palatino" font-size="24.8" fill="#000000" transform="matrix(1.00, 0.00, -0.00, -1.00, 187.8, 8.4)">l</text><text xml:space="preserve" font-family="Palatino-Roman,Palatino" font-size="24.8" fill="#000000" transform="matrix(1.00, 0.00, -0.00, -1.00, 195.1, 8.4)"> </text><text xml:space="preserve" font-family="Palatino-Roman,Palatino" font-size="24.8" fill="#000000" transform="matrix(1.00, 0.00, -0.00, -1.00, 201.3, 8.4)">p</text><text xml:space="preserve" font-family="Palatino-Roman,Palatino" font-size="24.8" fill="#000000" transform="matrix(1.00, 0.00, -0.00, -1.00, 216.2, 8.4)">o</text><text xml:space="preserve" font-family="Palatino-Roman,Palatino" font-size="24.8" fill="#000000" transform="matrix(1.00, 0.00, -0.00, -1.00, 229.7, 8.4)">i</text><text xml:space="preserve" font-family="Palatino-Roman,Palatino" font-size="24.8" fill="#000000" transform="matrix(1.00, 0.00, -0.00, -1.00, 236.9, 8.4)">n</text><text xml:space="preserve" font-family="Palatino-Roman,Palatino" font-size="24.8" fill="#000000" transform="matrix(1.00, 0.00, -0.00, -1.00, 251.3, 8.4)">t</text><text xml:space="preserve" font-family="Palatino-Roman,Palatino" font-size="24.8" fill="#000000" transform="matrix(1.00, 0.00, -0.00, -1.00, 259.4, 8.4)">e</text><text xml:space="preserve" font-family="Palatino-Roman,Palatino" font-size="24.8" fill="#000000" transform="matrix(1.00, 0.00, -0.00, -1.00, 271.3, 8.4)">r</text><text xml:space="preserve" font-family="Palatino-Roman,Palatino" font-size="24.8" fill="#000000" transform="matrix(1.00, 0.00, -0.00, -1.00, 281.1, 8.4)"> </text><text xml:space="preserve" font-family="Palatino-Roman,Palatino" font-size="24.8" fill="#000000" transform="matrix(1.00, 0.00, -0.00, -1.00, 287.3, 8.4)">r</text><text xml:space="preserve" font-family="Palatino-Roman,Palatino" font-size="24.8" fill="#000000" transform="matrix(1.00, 0.00, -0.00, -1.00, 297.1, 8.4)">i</text><text xml:space="preserve" font-family="Palatino-Roman,Palatino" font-size="24.8" fill="#000000" transform="matrix(1.00, 0.00, -0.00, -1.00, 304.3, 8.4)">g</text><text xml:space="preserve" font-family="Palatino-Roman,Palatino" font-size="24.8" fill="#000000" transform="matrix(1.00, 0.00, -0.00, -1.00, 318.1, 8.4)">h</text><text xml:space="preserve" font-family="Palatino-Roman,Palatino" font-size="24.8" fill="#000000" transform="matrix(1.00, 0.00, -0.00, -1.00, 332.6, 8.4)">t</text><text xml:space="preserve" font-family="Palatino-Roman,Palatino" font-size="24.8" fill="#000000" transform="matrix(1.00, 0.00, -0.00, -1.00, 340.7, 8.4)">w</text><text xml:space="preserve" font-family="Palatino-Roman,Palatino" font-size="24.8" fill="#000000" transform="matrix(1.00, 0.00, -0.00, -1.00, 361.3, 8.4)">a</text><text xml:space="preserve" font-family="Palatino-Roman,Palatino" font-size="24.8" fill="#000000" transform="matrix(1.00, 0.00, -0.00, -1.00, 373.7, 8.4)">r</text><text xml:space="preserve" font-family="Palatino-Roman,Palatino" font-size="24.8" fill="#000000" transform="matrix(1.00, 0.00, -0.00, -1.00, 383.1, 8.4)">d</text><text xml:space="preserve" font-family="Palatino-Roman,Palatino" font-size="24.8" fill="#000000" transform="matrix(1.00, 0.00, -0.00, -1.00, 398.2, 8.4)">s</text></g></svg>