<?xml version="1.0" encoding="UTF-8" standalone="no"?><svg xmlns="http://www.w3.org/2000/svg" xmlns:xlink="http://www.w3.org/1999/xlink" clip-rule="evenodd" stroke-miterlimit="10" viewBox="0 0 205 31"><desc>SVG generated by Keynote</desc><defs></defs><g transform="matrix(1.00, 0.00, -0.00, -1.00, 0.0, 31.0)"><text xml:space="preserve" font-family="ZapfDingbatsITC,Zapf Dingbats" font-size="17.4" fill="#5B86B8" transform="matrix(1.00, 0.00, -0.00, -1.00, 0.0, 11.0)">✤</text><text xml:space="preserve" font-family="Monaco,Monaco" font-size="24.8" fill="#000000" transform="matrix(1.00, 0.00, -0.00, -1.00, 28.0, 9.3)">]</text><text xml:space="preserve" font-family="Monaco,Monaco" font-size="24.8" fill="#000000" transform="matrix(1.00, 0.00, -0.00, -1.00, 42.9, 9.3)"> </text><text xml:space="preserve" font-family="Monaco,Monaco" font-size="24.8" fill="#000000" transform="matrix(1.00, 0.00, -0.00, -1.00, 57.8, 9.3)"> </text><text xml:space="preserve" font-family="Monaco,Monaco" font-size="24.8" fill="#000000" transform="matrix(1.00, 0.00, -0.00, -1.00, 72.7, 9.3)"> </text><text xml:space="preserve" font-family="Palatino-Roman,Palatino" font-size="24.8" fill="#000000" transform="matrix(1.00, 0.00, -0.00, -1.00, 87.5, 9.3)"> </text><text xml:space="preserve" font-family="Palatino-Roman,Palatino" font-size="24.8" fill="#000000" transform="matrix(1.00, 0.00, -0.00, -1.00, 93.7, 9.3)"> </text><text xml:space="preserve" font-family="Palatino-Roman,Palatino" font-size="24.8" fill="#000000" transform="matrix(1.00, 0.00, -0.00, -1.00, 99.9, 9.3)">L</text><text xml:space="preserve" font-family="Palatino-Roman,Palatino" font-size="24.8" fill="#000000" transform="matrix(1.00, 0.00, -0.00, -1.00, 115.1, 9.3)">o</text><text xml:space="preserve" font-family="Palatino-Roman,Palatino" font-size="24.8" fill="#000000" transform="matrix(1.00, 0.00, -0.00, -1.00, 128.6, 9.3)">o</text><text xml:space="preserve" font-family="Palatino-Roman,Palatino" font-size="24.8" fill="#000000" transform="matrix(1.00, 0.00, -0.00, -1.00, 142.1, 9.3)">p</text><text xml:space="preserve" font-family="Palatino-Roman,Palatino" font-size="24.8" fill="#000000" transform="matrix(1.00, 0.00, -0.00, -1.00, 157.1, 9.3)"> </text><text xml:space="preserve" font-family="Palatino-Roman,Palatino" font-size="24.8" fill="#000000" transform="matrix(1.00, 0.00, -0.00, -1.00, 163.3, 9.3)">e</text><text xml:space="preserve" font-family="Palatino-Roman,Palatino" font-size="24.8" fill="#000000" transform="matrix(1.00, 0.00, -0.00, -1.00, 175.1, 9.3)">n</text><text xml:space="preserve" font-family="Palatino-Roman,Palatino" font-size="24.8" fill="#000000" transform="matrix(1.00, 0.00, -0.00, -1.00, 189.6, 9.3)">d</text></g></svg>