<?xml version="1.0" encoding="UTF-8" standalone="no"?><svg xmlns="http://www.w3.org/2000/svg" xmlns:xlink="http://www.w3.org/1999/xlink" clip-rule="evenodd" stroke-miterlimit="10" viewBox="0 0 113 24"><desc>SVG generated by Keynote</desc><defs></defs><g transform="matrix(1.00, 0.00, -0.00, -1.00, 0.0, 24.0)"><text xml:space="preserve" font-family="Monaco,Monaco" font-size="20.5" fill="#324763" transform="matrix(1.00, 0.00, -0.00, -1.00, 0.3, 6.1)">c</text><text xml:space="preserve" font-family="Monaco,Monaco" font-size="20.5" fill="#324763" transform="matrix(1.00, 0.00, -0.00, -1.00, 12.5, 6.1)">u</text><text xml:space="preserve" font-family="Monaco,Monaco" font-size="20.5" fill="#324763" transform="matrix(1.00, 0.00, -0.00, -1.00, 24.8, 6.1)">r</text><text xml:space="preserve" font-family="Monaco,Monaco" font-size="20.5" fill="#324763" transform="matrix(1.00, 0.00, -0.00, -1.00, 37.1, 6.1)"> </text><text xml:space="preserve" font-family="Monaco,Monaco" font-size="20.5" fill="#3D5A84" transform="matrix(1.00, 0.00, -0.00, -1.00, 49.4, 6.1)">+</text><text xml:space="preserve" font-family="Monaco,Monaco" font-size="20.5" fill="#3D5A84" transform="matrix(1.00, 0.00, -0.00, -1.00, 61.7, 6.1)">=</text><text xml:space="preserve" font-family="Monaco,Monaco" font-size="20.5" fill="#324763" transform="matrix(1.00, 0.00, -0.00, -1.00, 73.9, 6.1)"> </text><text xml:space="preserve" font-family="Monaco,Monaco" font-size="20.5" fill="#B08000" transform="matrix(1.00, 0.00, -0.00, -1.00, 86.2, 6.1)">1</text><text xml:space="preserve" font-family="Monaco,Monaco" font-size="20.5" fill="#324763" transform="matrix(1.00, 0.00, -0.00, -1.00, 98.5, 6.1)">;</text><text xml:space="preserve" font-family="Monaco,Monaco" font-size="20.5" fill="#324763" transform="matrix(1.00, 0.00, -0.00, -1.00, 110.8, 6.1)">	</text></g></svg>