<?xml version="1.0" encoding="UTF-8" standalone="no"?><svg xmlns="http://www.w3.org/2000/svg" xmlns:xlink="http://www.w3.org/1999/xlink" clip-rule="evenodd" stroke-miterlimit="10" viewBox="0 0 52 56"><desc>SVG generated by Keynote</desc><defs></defs><g transform="matrix(1.00, 0.00, -0.00, -1.00, 0.0, 56.0)"><path d="M 35.5 23.8 C 35.2 23.9 35.1 23.4 34.5 23.2 C 33.8 23.1 32.9 23.0 33.0 23.4 C 33.2 23.7 33.4 23.9 33.0 24.3 C 32.7 24.7 32.4 25.4 32.8 25.6 C 33.1 25.9 34.3 26.6 34.8 26.3 C 35.3 25.9 35.5 25.7 36.0 25.5 C 36.5 25.3 35.8 26.1 35.8 26.1 C 35.8 26.1 36.4 26.1 36.9 26.2 C 37.4 26.3 37.9 26.3 38.1 26.1 C 38.3 26.0 38.8 25.7 38.8 25.7 C 38.8 25.7 38.7 26.1 39.0 26.2 C 39.3 26.3 39.4 26.0 39.5 25.9 C 39.7 25.7 39.8 25.1 40.0 25.1 C 40.2 25.1 39.8 25.9 39.9 26.0 C 40.1 26.1 40.8 26.0 40.8 26.0 C 40.8 26.0 41.4 25.6 41.6 25.5 C 41.8 25.4 42.6 25.3 42.4 25.5 C 42.1 25.7 41.3 26.1 41.6 26.2 C 42.3 26.2 43.8 25.4 43.9 25.3 C 44.1 25.3 42.8 26.0 42.9 26.1 C 42.9 26.2 43.4 26.2 43.9 26.1 C 43.6 26.5 43.4 26.9 43.6 26.9 C 43.8 26.8 42.2 27.8 42.9 27.7 C 43.5 27.6 43.6 27.6 43.8 27.6 C 44.0 27.5 45.0 27.4 44.4 27.7 C 43.7 28.1 42.8 28.0 42.3 28.3 C 41.8 28.7 40.9 29.7 41.2 29.7 C 41.5 29.8 42.5 29.5 42.4 29.6 C 42.3 29.8 40.4 30.8 40.6 30.8 C 40.8 30.8 41.9 30.5 42.1 30.5 C 42.3 30.4 44.1 30.1 44.5 29.9 C 44.9 29.7 46.3 28.6 45.6 28.9 C 45.0 29.2 44.1 29.6 44.0 29.4 C 44.0 29.2 44.0 29.1 44.3 29.0 C 44.6 28.9 44.7 28.9 45.5 28.3 C 46.3 27.7 46.6 27.8 46.9 27.4 C 47.2 27.0 47.3 26.6 46.8 26.9 C 46.3 27.1 45.9 26.9 46.2 26.6 C 46.4 26.3 47.2 26.4 48.4 25.2 C 49.7 24.0 50.3 23.3 50.0 23.3 C 50.0 23.2 49.9 23.3 49.8 23.3 C 48.9 23.6 47.9 24.0 48.0 23.8 C 48.0 23.4 48.7 23.2 47.8 23.3 C 46.9 23.3 45.6 23.9 45.1 23.9 C 44.6 23.9 44.4 23.9 44.4 23.9 C 44.4 23.9 46.0 23.0 44.8 23.0 C 43.6 23.0 43.5 22.9 43.0 23.5 C 42.4 24.1 41.6 24.1 42.0 23.7 C 42.4 23.3 42.0 23.1 41.6 23.0 C 41.2 23.0 40.1 24.0 39.9 24.0 C 39.8 24.0 39.4 24.0 39.9 23.7 C 40.3 23.3 39.9 23.3 39.6 23.1 C 39.4 23.0 38.1 23.1 38.1 23.3 C 38.0 23.5 38.0 24.1 37.5 23.8 C 37.0 23.5 37.1 23.0 36.3 23.0 C 35.6 23.0 36.0 23.6 35.5 23.8 C 35.5 23.8 35.5 23.8 35.5 23.8 Z M 44.8 30.1 C 45.5 29.1 40.7 30.9 39.6 31.4 C 38.6 31.9 38.8 32.2 38.3 32.7 C 37.7 33.2 39.1 32.9 39.2 33.1 C 39.3 33.4 38.6 33.3 38.0 33.5 C 37.3 33.7 37.2 34.4 36.8 34.8 C 36.5 35.2 37.1 35.8 36.9 36.2 C 36.7 36.6 37.7 35.9 37.1 36.6 C 36.5 37.3 36.2 36.9 36.5 36.0 C 36.8 35.3 35.7 36.2 35.3 36.6 C 34.9 37.0 34.8 37.8 34.5 38.1 C 34.2 38.4 35.1 38.2 34.7 38.7 C 34.3 39.2 33.9 38.6 33.4 39.0 C 33.0 39.4 33.6 39.7 33.5 40.1 C 33.4 40.4 33.1 40.1 32.9 40.3 C 32.7 40.5 32.3 40.6 32.1 41.2 C 31.8 41.8 32.1 41.8 31.9 42.0 C 31.8 42.3 31.5 42.7 31.5 42.7 C 31.4 42.5 31.2 42.3 31.0 42.1 C 31.0 42.1 30.4 42.9 30.2 43.0 C 30.0 43.2 29.7 44.1 29.9 44.1 C 30.1 44.1 29.8 45.2 29.6 45.2 C 29.5 45.2 29.1 45.2 28.8 45.3 C 28.5 45.4 29.1 47.5 29.1 47.8 C 29.2 48.1 29.3 49.5 29.6 49.3 C 29.9 49.1 30.0 48.4 30.0 48.7 C 30.0 49.1 30.7 47.8 31.0 47.5 C 31.2 47.3 31.1 46.3 31.1 46.3 C 31.1 46.3 31.1 45.5 31.4 45.1 C 31.7 44.7 32.4 45.5 32.4 45.5 C 32.4 45.5 32.9 45.2 33.3 44.6 C 33.7 44.0 33.6 42.8 33.6 42.5 C 33.5 42.3 34.1 42.9 34.4 42.6 C 34.8 42.3 35.4 41.9 35.5 41.7 C 35.6 41.5 35.4 40.9 35.4 40.9 C 35.4 40.9 35.6 40.1 35.7 40.0 C 35.8 39.8 36.3 40.5 36.3 40.5 C 36.3 40.5 37.7 39.1 38.0 38.8 C 38.3 38.5 38.5 38.0 38.6 37.7 C 38.7 37.5 37.9 37.0 38.2 36.7 C 38.5 36.4 38.7 37.1 39.0 36.8 C 39.4 36.5 40.1 36.0 40.2 35.8 C 40.3 35.7 40.1 35.4 40.2 35.2 C 40.4 34.9 39.7 34.5 40.0 34.1 C 40.3 33.8 41.1 33.5 41.3 33.4 C 41.6 33.2 42.6 33.0 42.9 32.6 C 43.2 32.3 42.4 32.6 42.6 32.3 C 42.9 32.0 42.2 32.1 42.5 31.8 C 42.9 31.4 44.0 31.4 44.1 31.1 C 44.1 30.9 44.1 31.1 44.8 30.1 C 44.8 30.1 44.8 30.1 44.8 30.1 Z M 28.9 50.0 C 29.4 50.0 29.6 49.0 29.4 48.6 C 29.3 48.2 28.9 47.1 28.9 46.6 C 29.0 46.1 29.1 44.9 28.6 45.3 C 28.1 45.7 28.0 46.2 28.1 46.5 C 28.1 46.8 28.2 48.3 28.0 48.4 C 27.9 48.4 27.7 48.2 27.6 48.1 C 27.6 47.9 27.3 46.8 27.1 47.2 C 26.8 47.7 26.6 48.5 26.6 48.5 C 26.5 48.6 26.4 48.8 26.3 49.0 C 26.3 49.0 26.3 49.0 26.2 48.9 C 26.1 48.6 25.9 47.7 25.7 47.6 C 25.4 47.5 25.2 47.1 25.0 46.8 C 24.8 46.5 24.6 46.4 24.5 46.7 C 24.4 47.0 24.0 47.7 24.0 47.7 C 24.0 47.7 23.6 47.6 23.5 47.2 C 23.4 46.9 23.5 46.3 23.5 46.1 C 23.6 45.9 23.7 45.3 23.6 44.9 C 23.4 44.6 22.8 43.1 22.6 43.2 C 22.3 43.3 22.2 43.7 22.0 43.7 C 21.9 43.7 21.3 43.0 21.4 42.7 C 21.5 42.5 21.8 42.0 21.6 41.9 C 21.4 41.7 21.2 41.2 21.1 41.3 C 21.0 41.5 20.8 41.4 20.6 41.7 C 20.5 41.9 20.0 41.6 19.8 41.6 C 19.6 41.6 19.3 41.3 19.3 41.3 C 19.3 41.1 19.3 40.8 19.3 40.6 C 19.3 40.6 19.9 40.5 20.1 40.5 C 20.2 40.6 20.3 40.2 20.2 40.0 C 20.2 39.9 19.6 39.2 19.6 39.2 C 19.2 39.4 18.9 39.6 18.6 39.8 C 18.3 39.7 18.1 39.5 17.9 39.3 C 17.9 39.3 19.1 38.8 18.8 38.4 C 18.6 38.1 18.2 37.6 18.2 37.6 C 18.2 37.6 17.4 37.4 17.3 37.4 C 17.2 37.3 15.9 37.6 15.9 37.6 C 15.5 37.8 15.0 37.9 14.5 38.1 C 14.5 38.1 14.6 38.9 15.0 39.1 C 15.4 39.4 15.7 38.9 16.0 38.9 C 16.2 38.8 16.8 39.2 16.8 39.2 C 16.7 39.5 16.6 39.8 16.6 40.2 C 16.6 40.2 16.5 40.5 16.5 40.8 C 16.5 41.1 17.0 42.0 17.2 42.2 C 17.5 42.3 17.9 42.3 18.2 42.4 C 18.6 42.5 18.9 42.2 18.9 42.7 C 18.9 43.3 18.8 43.7 18.9 43.9 C 19.0 44.0 19.9 44.3 19.9 44.3 C 20.1 44.4 20.3 44.5 20.5 44.6 C 20.5 44.6 21.0 44.9 20.9 45.2 C 20.8 45.5 21.8 46.2 21.8 46.2 C 21.8 46.2 21.3 47.0 21.5 47.4 C 21.6 47.8 21.9 48.5 22.3 48.8 C 22.7 49.1 23.2 48.4 23.2 48.4 C 23.3 48.8 23.3 49.2 23.4 49.6 C 23.7 50.1 24.0 50.5 24.3 51.0 C 24.3 51.0 25.0 51.9 25.0 51.7 C 25.1 51.5 25.1 50.4 25.1 50.1 C 25.2 49.9 25.5 50.0 25.6 50.4 C 25.6 50.8 25.9 52.2 25.9 52.2 C 25.9 52.2 26.1 52.9 26.2 53.3 C 26.3 53.3 26.3 53.3 26.4 53.3 C 26.6 53.1 26.9 52.3 27.0 51.9 C 27.1 51.6 27.4 50.5 27.4 50.5 C 27.5 50.7 27.6 50.9 27.7 51.1 C 27.7 51.1 28.2 49.9 28.9 50.0 C 28.9 50.0 28.9 50.0 28.9 50.0 Z M 13.8 37.8 C 14.6 38.8 16.9 37.4 17.2 36.9 C 17.6 36.5 16.8 36.1 16.6 35.7 C 16.3 35.2 15.4 35.4 14.9 35.1 C 14.4 34.9 15.1 34.9 15.5 34.8 C 15.9 34.7 14.9 34.0 14.6 33.5 C 14.3 33.1 12.7 32.5 12.3 32.0 C 11.9 31.6 11.9 32.3 11.4 31.6 C 10.9 30.9 11.9 31.4 13.0 32.2 C 14.0 33.1 13.5 32.1 13.4 31.8 C 13.2 31.4 12.0 30.6 11.9 30.3 C 11.7 30.0 10.9 30.0 10.5 29.5 C 10.2 29.1 11.6 29.7 11.4 29.3 C 11.2 28.9 10.1 28.6 9.6 28.2 C 9.1 27.8 9.9 28.2 9.8 28.0 C 9.8 27.9 9.9 27.7 9.3 27.1 C 8.6 26.5 8.3 26.5 8.1 26.2 C 7.8 26.0 7.6 25.7 7.5 25.6 C 7.5 25.6 7.5 25.6 7.5 25.6 C 8.0 25.8 8.5 26.1 9.0 26.3 C 9.0 26.3 10.2 26.3 10.6 26.4 C 11.0 26.4 11.1 26.1 10.7 26.0 C 10.2 25.9 10.1 25.4 10.5 25.5 C 10.8 25.6 12.0 26.0 12.6 26.1 C 13.2 26.3 10.2 24.5 9.8 24.3 C 9.4 24.1 8.1 23.1 7.5 23.0 C 6.9 22.9 7.2 23.3 6.8 23.0 C 6.5 22.8 5.7 23.0 5.4 23.0 C 5.0 23.0 5.8 23.7 5.8 23.7 C 5.8 23.7 6.6 24.2 6.1 24.2 C 5.6 24.2 3.2 23.1 3.2 23.1 C 3.2 23.1 2.6 23.0 2.1 23.0 C 2.1 23.1 2.2 23.2 2.3 23.3 C 2.9 23.9 5.1 25.3 5.5 25.6 C 6.0 25.8 4.4 25.1 4.5 25.4 C 4.6 25.7 4.5 26.0 4.8 26.2 C 5.0 26.4 6.2 27.1 6.2 27.1 C 6.2 27.1 7.3 28.0 7.4 28.1 C 7.5 28.3 5.9 27.5 5.9 27.5 C 5.9 27.5 6.7 28.8 6.8 29.1 C 7.0 29.4 7.7 30.0 7.9 30.2 C 8.2 30.5 10.0 31.1 10.1 31.4 C 10.1 31.6 8.8 30.9 8.9 31.1 C 9.0 31.4 9.2 32.0 9.4 32.1 C 9.5 32.3 10.1 32.6 10.4 32.8 C 10.7 33.1 12.0 33.6 12.3 33.9 C 12.6 34.3 12.2 34.5 12.2 34.7 C 12.2 34.8 11.5 34.9 11.7 35.3 C 11.9 35.6 12.3 35.4 12.5 35.7 C 12.8 36.0 13.4 35.9 13.5 36.3 C 13.6 36.6 12.5 36.5 13.0 36.9 C 13.1 37.0 13.0 36.9 13.8 37.8 C 13.8 37.8 13.8 37.8 13.8 37.8 Z M 8.7 23.1 C 7.5 22.7 7.7 23.2 8.4 23.6 C 9.1 23.9 11.0 24.9 11.3 25.2 C 11.5 25.5 12.2 26.2 13.2 26.3 C 14.3 26.4 14.0 26.2 13.6 25.9 C 13.2 25.7 11.8 24.7 12.2 24.8 C 12.5 24.9 13.2 25.1 13.5 25.3 C 13.7 25.4 15.5 26.4 15.7 26.3 C 15.9 26.1 15.9 25.8 15.9 25.8 C 16.0 25.8 16.2 25.8 16.4 25.8 C 16.4 25.8 17.7 26.4 18.0 26.3 C 18.2 26.1 18.7 26.1 19.1 26.2 C 19.5 26.2 19.7 26.1 19.5 25.9 C 19.3 25.7 18.8 24.8 18.8 24.8 C 18.8 24.8 19.1 24.6 19.5 24.7 C 19.6 24.8 19.7 24.8 19.9 24.9 C 20.1 25.0 20.3 25.3 20.5 25.4 C 20.6 25.7 21.1 26.1 21.2 25.8 C 21.3 25.6 21.8 24.5 21.5 23.9 C 21.2 23.4 20.8 23.1 20.7 22.8 C 20.6 22.6 20.6 21.5 20.8 21.6 C 21.1 21.8 21.6 22.4 21.5 22.0 C 21.5 21.7 21.6 21.2 21.5 21.1 C 21.3 20.9 21.2 20.6 20.9 20.3 C 20.6 20.0 20.4 19.2 20.3 18.9 C 20.1 18.6 20.1 18.1 20.1 18.1 C 20.2 18.1 20.4 18.0 20.5 18.0 C 20.5 18.0 21.1 18.8 21.1 19.1 C 21.2 19.4 21.6 19.4 21.6 19.3 C 21.7 19.1 21.6 17.9 21.6 17.9 C 21.2 17.5 20.8 17.1 20.4 16.7 C 20.3 16.3 20.3 16.0 20.2 15.6 C 20.2 15.6 21.5 17.1 21.5 16.6 C 21.5 16.0 21.5 15.4 21.5 15.4 C 21.5 15.4 21.0 14.3 21.0 14.1 C 20.9 13.9 19.7 12.6 19.7 12.6 C 19.3 12.2 18.8 11.8 18.3 11.4 C 18.3 11.4 17.9 11.6 18.1 12.1 C 18.2 12.7 18.7 12.9 19.0 13.2 C 19.2 13.5 19.4 14.2 19.4 14.2 C 19.2 14.2 18.9 14.2 18.7 14.2 C 18.7 14.2 18.4 14.2 18.2 14.2 C 18.0 14.2 17.8 14.9 17.9 15.2 C 18.0 15.6 18.3 16.1 18.6 16.6 C 18.8 17.2 19.2 17.5 18.9 17.6 C 18.6 17.6 18.2 17.4 18.2 17.6 C 18.2 17.8 18.7 19.0 18.7 19.0 C 18.8 19.3 18.9 19.7 19.0 20.0 C 19.0 20.0 19.2 20.8 18.9 20.6 C 18.7 20.4 19.0 21.9 19.0 21.9 C 19.0 21.9 18.1 21.0 18.0 21.1 C 17.9 21.3 17.7 21.6 17.8 22.2 C 17.9 22.6 18.2 23.1 18.4 23.5 C 18.5 23.7 18.6 23.8 18.6 23.8 C 18.2 23.6 17.8 23.4 17.4 23.2 C 16.9 23.1 16.3 23.1 15.7 23.0 C 15.7 23.0 14.7 23.1 14.8 23.2 C 15.0 23.3 16.0 24.0 16.1 24.2 C 16.3 24.4 16.0 24.6 15.7 24.4 C 15.3 24.2 14.0 23.5 14.0 23.5 C 14.0 23.5 13.0 23.1 12.6 23.1 C 12.1 23.0 11.9 23.3 12.0 23.4 C 12.1 23.5 12.3 24.0 12.3 24.0 C 11.9 23.8 11.4 23.6 10.9 23.4 C 10.9 23.4 10.5 23.7 8.7 23.1 C 8.7 23.1 8.7 23.1 8.7 23.1 Z M 17.9 10.5 C 18.0 11.6 20.6 13.6 21.1 13.7 C 21.7 13.8 21.3 12.8 21.4 12.2 C 21.5 11.5 20.7 10.9 20.5 10.3 C 20.2 9.6 20.8 10.3 21.1 10.5 C 21.5 10.7 21.2 9.3 21.2 8.7 C 21.3 8.1 20.4 6.5 20.3 5.9 C 20.3 5.3 19.9 5.9 19.9 5.0 C 20.0 4.1 20.5 5.1 20.7 6.4 C 21.0 7.8 21.2 6.5 21.3 6.0 C 21.4 5.9 21.4 5.8 21.3 5.7 C 21.8 5.7 22.1 5.4 22.4 5.4 C 22.9 5.5 21.9 4.8 22.5 4.8 C 23.1 4.9 23.2 5.5 23.8 5.6 C 24.4 5.7 24.0 5.1 24.3 5.0 C 24.5 4.8 24.6 5.2 24.9 5.2 C 25.1 5.3 25.5 5.5 26.0 5.4 C 26.5 5.2 26.4 5.0 26.7 5.0 C 26.9 4.9 27.4 4.9 27.4 4.9 C 27.4 5.1 27.3 5.4 27.3 5.6 C 27.3 5.6 28.2 5.6 28.4 5.7 C 28.7 5.7 29.5 5.4 29.4 5.3 C 29.3 5.2 30.2 4.7 30.3 4.8 C 30.4 4.9 30.7 5.2 30.9 5.4 C 31.0 5.5 32.6 3.8 32.8 3.6 C 33.0 3.3 34.2 2.4 33.8 2.3 C 33.5 2.2 32.8 2.6 33.1 2.3 C 33.4 2.1 31.8 2.3 31.4 2.3 C 31.1 2.3 30.3 3.0 30.3 3.0 C 30.3 3.0 29.7 3.5 29.2 3.5 C 28.7 3.5 28.8 2.4 28.8 2.4 C 28.8 2.4 28.1 2.2 27.4 2.3 C 26.6 2.3 25.8 3.2 25.7 3.4 C 25.6 3.6 25.6 2.8 25.1 2.7 C 24.5 2.6 23.7 2.3 23.5 2.4 C 23.3 2.4 23.2 3.0 23.2 3.0 C 23.2 3.0 22.4 3.3 22.2 3.3 C 22.0 3.3 22.0 2.5 22.0 2.5 C 22.0 2.5 19.8 2.3 19.3 2.2 C 18.9 2.1 18.4 2.4 18.1 2.4 C 18.1 2.4 18.1 2.4 18.1 2.4 C 18.3 2.9 19.1 4.0 19.0 4.2 C 18.9 4.5 18.4 3.2 18.3 3.5 C 18.2 3.7 18.0 4.2 18.0 4.4 C 18.0 4.5 18.3 5.1 18.4 5.5 C 18.4 5.8 19.1 7.0 19.1 7.4 C 19.1 7.9 18.7 7.7 18.6 7.8 C 18.5 7.8 17.9 7.3 17.8 7.7 C 17.8 8.0 18.3 8.2 18.3 8.6 C 18.3 8.9 18.7 9.4 18.6 9.7 C 18.5 9.9 17.8 8.9 17.9 9.4 C 17.9 9.6 17.9 9.4 17.9 10.5 C 17.9 10.5 17.9 10.5 17.9 10.5 Z M 33.8 4.9 C 33.7 4.7 34.2 4.1 34.3 3.3 C 34.4 3.0 34.4 2.7 34.4 2.4 C 34.1 2.4 33.7 2.5 33.7 2.7 C 33.5 3.0 33.6 3.2 32.8 3.6 C 32.2 4.0 31.2 4.7 31.3 4.9 C 31.4 5.0 31.5 5.1 31.6 5.3 C 31.3 6.1 31.0 7.2 31.3 7.3 C 31.7 7.5 31.8 7.5 32.0 7.6 C 32.3 7.8 31.5 8.2 31.5 8.2 C 31.5 8.2 31.4 9.1 31.3 9.8 C 31.3 10.4 31.3 11.1 31.4 11.1 C 31.5 11.1 31.8 11.1 31.8 11.1 C 31.8 11.1 31.4 11.7 31.4 12.2 C 31.3 12.7 31.5 12.4 31.7 12.2 C 31.9 12.0 32.4 11.1 32.4 11.3 C 32.4 11.5 31.6 12.6 31.5 13.0 C 31.4 13.4 31.5 14.0 31.5 14.0 C 31.5 14.0 31.9 13.7 32.0 13.7 C 32.2 13.8 32.2 14.5 32.0 14.6 C 31.9 14.7 31.4 14.9 31.4 15.2 C 31.3 16.4 32.2 15.8 32.2 15.9 C 32.2 16.0 31.5 16.3 31.4 16.6 C 31.3 16.9 31.4 19.0 31.6 19.1 C 31.8 19.2 31.2 20.0 31.6 20.3 C 32.0 20.5 32.1 20.6 32.2 20.6 C 32.3 20.7 33.0 21.0 32.8 21.2 C 32.5 21.5 31.7 20.7 31.5 21.0 C 31.3 21.3 31.3 22.7 31.5 22.9 C 31.8 23.2 32.4 23.2 32.4 23.5 C 32.4 23.7 31.6 24.5 31.7 24.5 C 31.8 24.6 32.5 24.7 32.7 24.7 C 32.8 24.7 34.1 25.0 34.2 24.8 C 34.4 24.6 34.9 23.7 34.5 23.8 C 34.2 23.9 33.7 24.2 33.5 23.8 C 33.4 23.5 33.4 23.4 33.5 23.3 C 33.6 23.2 33.8 23.4 34.0 22.8 C 34.3 22.2 34.5 22.5 34.5 22.0 C 34.5 21.5 34.4 21.0 34.1 21.1 C 33.9 21.2 33.5 20.7 33.5 20.4 C 33.5 20.0 34.1 20.5 34.4 19.3 C 34.6 18.0 34.7 17.3 34.4 17.0 C 34.2 16.8 33.5 17.0 33.8 16.3 C 34.1 15.6 34.3 15.9 34.3 15.1 C 34.3 14.4 33.7 14.4 33.6 13.9 C 33.6 13.5 33.7 13.3 33.7 13.3 C 33.7 13.3 34.5 13.1 34.5 12.0 C 34.6 10.9 34.6 10.7 34.0 11.3 C 33.4 11.8 33.4 11.1 33.8 10.8 C 34.2 10.5 34.5 9.7 34.5 9.3 C 34.6 8.9 33.5 9.5 33.5 9.4 C 33.5 9.2 33.6 8.8 33.9 8.7 C 34.2 8.6 34.3 8.2 34.4 7.8 C 34.5 7.3 34.4 6.4 34.2 6.6 C 34.1 6.7 33.4 7.7 33.7 6.8 C 34.1 5.9 34.6 5.3 34.5 4.7 C 34.5 4.0 33.9 5.1 33.8 4.9 C 33.8 4.9 33.8 4.9 33.8 4.9 Z M 33.8 4.9 " fill="#605F5C"></path></g></svg>