<?xml version="1.0" encoding="UTF-8" standalone="no"?><svg xmlns="http://www.w3.org/2000/svg" xmlns:xlink="http://www.w3.org/1999/xlink" clip-rule="evenodd" stroke-miterlimit="10" viewBox="0 0 175 25"><desc>SVG generated by Keynote</desc><defs></defs><g transform="matrix(1.00, 0.00, -0.00, -1.00, 0.0, 25.0)"><text xml:space="preserve" font-family="Monaco,Monaco" font-size="20.5" fill="#324763" transform="matrix(1.00, 0.00, -0.00, -1.00, 1.3, 6.7)">m</text><text xml:space="preserve" font-family="Monaco,Monaco" font-size="20.5" fill="#324763" transform="matrix(1.00, 0.00, -0.00, -1.00, 13.5, 6.7)">e</text><text xml:space="preserve" font-family="Monaco,Monaco" font-size="20.5" fill="#324763" transform="matrix(1.00, 0.00, -0.00, -1.00, 25.8, 6.7)">m</text><text xml:space="preserve" font-family="Monaco,Monaco" font-size="20.5" fill="#324763" transform="matrix(1.00, 0.00, -0.00, -1.00, 38.1, 6.7)">[</text><text xml:space="preserve" font-family="Monaco,Monaco" font-size="20.5" fill="#324763" transform="matrix(1.00, 0.00, -0.00, -1.00, 50.4, 6.7)">c</text><text xml:space="preserve" font-family="Monaco,Monaco" font-size="20.5" fill="#324763" transform="matrix(1.00, 0.00, -0.00, -1.00, 62.7, 6.7)">u</text><text xml:space="preserve" font-family="Monaco,Monaco" font-size="20.5" fill="#324763" transform="matrix(1.00, 0.00, -0.00, -1.00, 74.9, 6.7)">r</text><text xml:space="preserve" font-family="Monaco,Monaco" font-size="20.5" fill="#324763" transform="matrix(1.00, 0.00, -0.00, -1.00, 87.2, 6.7)">]</text><text xml:space="preserve" font-family="Monaco,Monaco" font-size="20.5" fill="#324763" transform="matrix(1.00, 0.00, -0.00, -1.00, 99.5, 6.7)"> </text><text xml:space="preserve" font-family="Monaco,Monaco" font-size="20.5" fill="#3D5A84" transform="matrix(1.00, 0.00, -0.00, -1.00, 111.8, 6.7)">-</text><text xml:space="preserve" font-family="Monaco,Monaco" font-size="20.5" fill="#3D5A84" transform="matrix(1.00, 0.00, -0.00, -1.00, 124.0, 6.7)">=</text><text xml:space="preserve" font-family="Monaco,Monaco" font-size="20.5" fill="#324763" transform="matrix(1.00, 0.00, -0.00, -1.00, 136.3, 6.7)"> </text><text xml:space="preserve" font-family="Monaco,Monaco" font-size="20.5" fill="#B08000" transform="matrix(1.00, 0.00, -0.00, -1.00, 148.6, 6.7)">1</text><text xml:space="preserve" font-family="Monaco,Monaco" font-size="20.5" fill="#324763" transform="matrix(1.00, 0.00, -0.00, -1.00, 160.9, 6.7)">;</text><text xml:space="preserve" font-family="Monaco,Monaco" font-size="20.5" fill="#324763" transform="matrix(1.00, 0.00, -0.00, -1.00, 173.2, 6.7)">	</text></g></svg>