<?xml version="1.0" encoding="UTF-8" standalone="no"?><svg xmlns="http://www.w3.org/2000/svg" xmlns:xlink="http://www.w3.org/1999/xlink" clip-rule="evenodd" stroke-miterlimit="10" viewBox="0 0 1024 768"><desc>SVG generated by Keynote</desc><defs></defs><g transform="matrix(1.00, 0.00, -0.00, -1.00, 0.0, 768.0)"><g><clipPath id="clip0x608004aa8520"><path d="M 0.0 768.0 L 1024.0 768.0 L 1024.0 0.0 L 0.0 0.0 Z M 0.0 768.0 "></path></clipPath><g clip-path="url(#clip0x608004aa8520)"><image xlink:href="../../CABF5236-1324-4602-9291-A4670FFDE0C7/assets/1783979FC7716684DCC3F94F50982FFC.jpeg" width="2048.00" height="1536.00" transform="matrix(0.50, 0.00, -0.00, -0.50, 0.0, 768.0)"></image></g></g><path d="M 0.0 0.5 L 960.0 0.5 L 960.0 0.5 L 0.0 0.5 Z M 0.0 0.0 " fill="none" stroke="#7995B9" stroke-width="1.00" transform="matrix(1.00, 0.00, 0.00, -1.00, 32.0, 566.0)"></path><path d="M 0.0 0.5 L 960.0 0.5 L 960.0 0.5 L 0.0 0.5 Z M 0.0 0.0 " fill="none" stroke="#7995B9" stroke-width="1.00" transform="matrix(1.00, 0.00, 0.00, -1.00, 32.0, 562.0)"></path><text xml:space="preserve" font-family="Didot-Bold,Didot" font-weight="bold" font-size="60.0" fill="#304863" transform="matrix(1.00, 0.00, -0.00, -1.00, 32.0, 632.2)">H</text><text xml:space="preserve" font-family="Didot-Bold,Didot" font-weight="bold" font-size="60.0" fill="#304863" transform="matrix(1.00, 0.00, -0.00, -1.00, 80.8, 632.2)">o</text><text xml:space="preserve" font-family="Didot-Bold,Didot" font-weight="bold" font-size="60.0" fill="#304863" transform="matrix(1.00, 0.00, -0.00, -1.00, 112.3, 632.2)">w</text><text xml:space="preserve" font-family="Didot,Didot" font-size="60.0" fill="#304863" transform="matrix(1.00, 0.00, -0.00, -1.00, 155.6, 632.2)"> </text><text xml:space="preserve" font-family="Didot,Didot" font-size="60.0" fill="#304863" transform="matrix(1.00, 0.00, -0.00, -1.00, 171.1, 632.2)">w</text><text xml:space="preserve" font-family="Didot,Didot" font-size="60.0" fill="#304863" transform="matrix(1.00, 0.00, -0.00, -1.00, 214.3, 632.2)">i</text><text xml:space="preserve" font-family="Didot,Didot" font-size="60.0" fill="#304863" transform="matrix(1.00, 0.00, -0.00, -1.00, 230.9, 632.2)">l</text><text xml:space="preserve" font-family="Didot,Didot" font-size="60.0" fill="#304863" transform="matrix(1.00, 0.00, -0.00, -1.00, 247.5, 632.2)">l</text><text xml:space="preserve" font-family="Didot,Didot" font-size="60.0" fill="#304863" transform="matrix(1.00, 0.00, -0.00, -1.00, 264.0, 632.2)"> </text><text xml:space="preserve" font-family="Didot,Didot" font-size="60.0" fill="#304863" transform="matrix(1.00, 0.00, -0.00, -1.00, 279.5, 632.2)">w</text><text xml:space="preserve" font-family="Didot,Didot" font-size="60.0" fill="#304863" transform="matrix(1.00, 0.00, -0.00, -1.00, 322.2, 632.2)">e</text><text xml:space="preserve" font-family="Didot,Didot" font-size="60.0" fill="#304863" transform="matrix(1.00, 0.00, -0.00, -1.00, 351.0, 632.2)"> </text><text xml:space="preserve" font-family="Didot,Didot" font-size="60.0" fill="#304863" transform="matrix(1.00, 0.00, -0.00, -1.00, 366.4, 632.2)">r</text><text xml:space="preserve" font-family="Didot,Didot" font-size="60.0" fill="#304863" transform="matrix(1.00, 0.00, -0.00, -1.00, 389.7, 632.2)">e</text><text xml:space="preserve" font-family="Didot,Didot" font-size="60.0" fill="#304863" transform="matrix(1.00, 0.00, -0.00, -1.00, 418.5, 632.2)">p</text><text xml:space="preserve" font-family="Didot,Didot" font-size="60.0" fill="#304863" transform="matrix(1.00, 0.00, -0.00, -1.00, 452.8, 632.2)">r</text><text xml:space="preserve" font-family="Didot,Didot" font-size="60.0" fill="#304863" transform="matrix(1.00, 0.00, -0.00, -1.00, 476.1, 632.2)">e</text><text xml:space="preserve" font-family="Didot,Didot" font-size="60.0" fill="#304863" transform="matrix(1.00, 0.00, -0.00, -1.00, 504.9, 632.2)">s</text><text xml:space="preserve" font-family="Didot,Didot" font-size="60.0" fill="#304863" transform="matrix(1.00, 0.00, -0.00, -1.00, 529.2, 632.2)">e</text><text xml:space="preserve" font-family="Didot,Didot" font-size="60.0" fill="#304863" transform="matrix(1.00, 0.00, -0.00, -1.00, 558.0, 632.2)">n</text><text xml:space="preserve" font-family="Didot,Didot" font-size="60.0" fill="#304863" transform="matrix(1.00, 0.00, -0.00, -1.00, 593.5, 632.2)">t</text><text xml:space="preserve" font-family="Didot,Didot" font-size="60.0" fill="#304863" transform="matrix(1.00, 0.00, -0.00, -1.00, 612.3, 632.2)"> </text><text xml:space="preserve" font-family="Didot,Didot" font-size="60.0" fill="#304863" transform="matrix(1.00, 0.00, -0.00, -1.00, 627.7, 632.2)">i</text><text xml:space="preserve" font-family="Didot,Didot" font-size="60.0" fill="#304863" transform="matrix(1.00, 0.00, -0.00, -1.00, 644.3, 632.2)">n</text><text xml:space="preserve" font-family="Didot,Didot" font-size="60.0" fill="#304863" transform="matrix(1.00, 0.00, -0.00, -1.00, 679.8, 632.2)">t</text><text xml:space="preserve" font-family="Didot,Didot" font-size="60.0" fill="#304863" transform="matrix(1.00, 0.00, -0.00, -1.00, 698.5, 632.2)">e</text><text xml:space="preserve" font-family="Didot,Didot" font-size="60.0" fill="#304863" transform="matrix(1.00, 0.00, -0.00, -1.00, 727.3, 632.2)">g</text><text xml:space="preserve" font-family="Didot,Didot" font-size="60.0" fill="#304863" transform="matrix(1.00, 0.00, -0.00, -1.00, 757.3, 632.2)">e</text><text xml:space="preserve" font-family="Didot,Didot" font-size="60.0" fill="#304863" transform="matrix(1.00, 0.00, -0.00, -1.00, 786.1, 632.2)">r</text><text xml:space="preserve" font-family="Didot,Didot" font-size="60.0" fill="#304863" transform="matrix(1.00, 0.00, -0.00, -1.00, 809.3, 632.2)">s</text><text xml:space="preserve" font-family="Didot,Didot" font-size="60.0" fill="#304863" transform="matrix(1.00, 0.00, -0.00, -1.00, 833.7, 632.2)">?</text></g></svg>