<?xml version="1.0" encoding="UTF-8" standalone="no"?><svg xmlns="http://www.w3.org/2000/svg" xmlns:xlink="http://www.w3.org/1999/xlink" clip-rule="evenodd" stroke-miterlimit="10" viewBox="0 0 880 29"><desc>SVG generated by Keynote</desc><defs></defs><g transform="matrix(1.00, 0.00, -0.00, -1.00, 0.0, 29.0)"><text xml:space="preserve" font-family="ZapfDingbatsITC,Zapf Dingbats" font-size="16.9" fill="#5B86B8" transform="matrix(1.00, 0.00, -0.00, -1.00, 0.0, 10.5)">✤</text><text xml:space="preserve" font-family="Palatino-Roman,Palatino" font-size="24.2" fill="#000000" transform="matrix(1.00, 0.00, -0.00, -1.00, 25.5, 8.7)">P</text><text xml:space="preserve" font-family="Palatino-Roman,Palatino" font-size="24.2" fill="#000000" transform="matrix(1.00, 0.00, -0.00, -1.00, 40.1, 8.7)">r</text><text xml:space="preserve" font-family="Palatino-Roman,Palatino" font-size="24.2" fill="#000000" transform="matrix(1.00, 0.00, -0.00, -1.00, 49.2, 8.7)">o</text><text xml:space="preserve" font-family="Palatino-Roman,Palatino" font-size="24.2" fill="#000000" transform="matrix(1.00, 0.00, -0.00, -1.00, 62.4, 8.7)">v</text><text xml:space="preserve" font-family="Palatino-Roman,Palatino" font-size="24.2" fill="#000000" transform="matrix(1.00, 0.00, -0.00, -1.00, 76.0, 8.7)">a</text><text xml:space="preserve" font-family="Palatino-Roman,Palatino" font-size="24.2" fill="#000000" transform="matrix(1.00, 0.00, -0.00, -1.00, 88.1, 8.7)">b</text><text xml:space="preserve" font-family="Palatino-Roman,Palatino" font-size="24.2" fill="#000000" transform="matrix(1.00, 0.00, -0.00, -1.00, 101.5, 8.7)">l</text><text xml:space="preserve" font-family="Palatino-Roman,Palatino" font-size="24.2" fill="#000000" transform="matrix(1.00, 0.00, -0.00, -1.00, 108.5, 8.7)">y</text><text xml:space="preserve" font-family="Palatino-Roman,Palatino" font-size="24.2" fill="#000000" transform="matrix(1.00, 0.00, -0.00, -1.00, 122.0, 8.7)"> </text><text xml:space="preserve" font-family="Palatino-Roman,Palatino" font-size="24.2" fill="#000000" transform="matrix(1.00, 0.00, -0.00, -1.00, 128.0, 8.7)">e</text><text xml:space="preserve" font-family="Palatino-Roman,Palatino" font-size="24.2" fill="#000000" transform="matrix(1.00, 0.00, -0.00, -1.00, 139.6, 8.7)">q</text><text xml:space="preserve" font-family="Palatino-Roman,Palatino" font-size="24.2" fill="#000000" transform="matrix(1.00, 0.00, -0.00, -1.00, 153.2, 8.7)">u</text><text xml:space="preserve" font-family="Palatino-Roman,Palatino" font-size="24.2" fill="#000000" transform="matrix(1.00, 0.00, -0.00, -1.00, 167.8, 8.7)">i</text><text xml:space="preserve" font-family="Palatino-Roman,Palatino" font-size="24.2" fill="#000000" transform="matrix(1.00, 0.00, -0.00, -1.00, 174.8, 8.7)">v</text><text xml:space="preserve" font-family="Palatino-Roman,Palatino" font-size="24.2" fill="#000000" transform="matrix(1.00, 0.00, -0.00, -1.00, 188.4, 8.7)">a</text><text xml:space="preserve" font-family="Palatino-Roman,Palatino" font-size="24.2" fill="#000000" transform="matrix(1.00, 0.00, -0.00, -1.00, 200.5, 8.7)">l</text><text xml:space="preserve" font-family="Palatino-Roman,Palatino" font-size="24.2" fill="#000000" transform="matrix(1.00, 0.00, -0.00, -1.00, 207.6, 8.7)">e</text><text xml:space="preserve" font-family="Palatino-Roman,Palatino" font-size="24.2" fill="#000000" transform="matrix(1.00, 0.00, -0.00, -1.00, 219.2, 8.7)">n</text><text xml:space="preserve" font-family="Palatino-Roman,Palatino" font-size="24.2" fill="#000000" transform="matrix(1.00, 0.00, -0.00, -1.00, 233.2, 8.7)">t</text><text xml:space="preserve" font-family="Palatino-Roman,Palatino" font-size="24.2" fill="#000000" transform="matrix(1.00, 0.00, -0.00, -1.00, 241.1, 8.7)"> </text><text xml:space="preserve" font-family="Palatino-Roman,Palatino" font-size="24.2" fill="#000000" transform="matrix(1.00, 0.00, -0.00, -1.00, 247.2, 8.7)">t</text><text xml:space="preserve" font-family="Palatino-Roman,Palatino" font-size="24.2" fill="#000000" transform="matrix(1.00, 0.00, -0.00, -1.00, 255.1, 8.7)">o</text><text xml:space="preserve" font-family="Palatino-Roman,Palatino" font-size="24.2" fill="#000000" transform="matrix(1.00, 0.00, -0.00, -1.00, 268.3, 8.7)"> </text><text xml:space="preserve" font-family="Palatino-Roman,Palatino" font-size="24.2" fill="#000000" transform="matrix(1.00, 0.00, -0.00, -1.00, 274.3, 8.7)">a</text><text xml:space="preserve" font-family="Palatino-Roman,Palatino" font-size="24.2" fill="#000000" transform="matrix(1.00, 0.00, -0.00, -1.00, 286.4, 8.7)"> </text><text xml:space="preserve" font-family="Palatino-Roman,Palatino" font-size="24.2" fill="#000000" transform="matrix(1.00, 0.00, -0.00, -1.00, 292.4, 8.7)">u</text><text xml:space="preserve" font-family="Palatino-Roman,Palatino" font-size="24.2" fill="#000000" transform="matrix(1.00, 0.00, -0.00, -1.00, 307.0, 8.7)">n</text><text xml:space="preserve" font-family="Palatino-Roman,Palatino" font-size="24.2" fill="#000000" transform="matrix(1.00, 0.00, -0.00, -1.00, 321.1, 8.7)">i</text><text xml:space="preserve" font-family="Palatino-Roman,Palatino" font-size="24.2" fill="#000000" transform="matrix(1.00, 0.00, -0.00, -1.00, 328.1, 8.7)">v</text><text xml:space="preserve" font-family="Palatino-Roman,Palatino" font-size="24.2" fill="#000000" transform="matrix(1.00, 0.00, -0.00, -1.00, 341.8, 8.7)">e</text><text xml:space="preserve" font-family="Palatino-Roman,Palatino" font-size="24.2" fill="#000000" transform="matrix(1.00, 0.00, -0.00, -1.00, 353.4, 8.7)">r</text><text xml:space="preserve" font-family="Palatino-Roman,Palatino" font-size="24.2" fill="#000000" transform="matrix(1.00, 0.00, -0.00, -1.00, 362.9, 8.7)">s</text><text xml:space="preserve" font-family="Palatino-Roman,Palatino" font-size="24.2" fill="#000000" transform="matrix(1.00, 0.00, -0.00, -1.00, 373.2, 8.7)">a</text><text xml:space="preserve" font-family="Palatino-Roman,Palatino" font-size="24.2" fill="#000000" transform="matrix(1.00, 0.00, -0.00, -1.00, 385.3, 8.7)">l</text><text xml:space="preserve" font-family="Palatino-Roman,Palatino" font-size="24.2" fill="#000000" transform="matrix(1.00, 0.00, -0.00, -1.00, 392.3, 8.7)"> </text><text xml:space="preserve" font-family="Palatino-Roman,Palatino" font-size="24.2" fill="#000000" transform="matrix(1.00, 0.00, -0.00, -1.00, 398.3, 8.7)">T</text><text xml:space="preserve" font-family="Palatino-Roman,Palatino" font-size="24.2" fill="#000000" transform="matrix(1.00, 0.00, -0.00, -1.00, 411.0, 8.7)">u</text><text xml:space="preserve" font-family="Palatino-Roman,Palatino" font-size="24.2" fill="#000000" transform="matrix(1.00, 0.00, -0.00, -1.00, 425.6, 8.7)">r</text><text xml:space="preserve" font-family="Palatino-Roman,Palatino" font-size="24.2" fill="#000000" transform="matrix(1.00, 0.00, -0.00, -1.00, 435.1, 8.7)">i</text><text xml:space="preserve" font-family="Palatino-Roman,Palatino" font-size="24.2" fill="#000000" transform="matrix(1.00, 0.00, -0.00, -1.00, 442.1, 8.7)">n</text><text xml:space="preserve" font-family="Palatino-Roman,Palatino" font-size="24.2" fill="#000000" transform="matrix(1.00, 0.00, -0.00, -1.00, 456.2, 8.7)">g</text><text xml:space="preserve" font-family="Palatino-Roman,Palatino" font-size="24.2" fill="#000000" transform="matrix(1.00, 0.00, -0.00, -1.00, 469.7, 8.7)"> </text><text xml:space="preserve" font-family="Palatino-Roman,Palatino" font-size="24.2" fill="#000000" transform="matrix(1.00, 0.00, -0.00, -1.00, 475.7, 8.7)">m</text><text xml:space="preserve" font-family="Palatino-Roman,Palatino" font-size="24.2" fill="#000000" transform="matrix(1.00, 0.00, -0.00, -1.00, 497.1, 8.7)">a</text><text xml:space="preserve" font-family="Palatino-Roman,Palatino" font-size="24.2" fill="#000000" transform="matrix(1.00, 0.00, -0.00, -1.00, 509.1, 8.7)">c</text><text xml:space="preserve" font-family="Palatino-Roman,Palatino" font-size="24.2" fill="#000000" transform="matrix(1.00, 0.00, -0.00, -1.00, 519.9, 8.7)">h</text><text xml:space="preserve" font-family="Palatino-Roman,Palatino" font-size="24.2" fill="#000000" transform="matrix(1.00, 0.00, -0.00, -1.00, 533.9, 8.7)">i</text><text xml:space="preserve" font-family="Palatino-Roman,Palatino" font-size="24.2" fill="#000000" transform="matrix(1.00, 0.00, -0.00, -1.00, 541.0, 8.7)">n</text><text xml:space="preserve" font-family="Palatino-Roman,Palatino" font-size="24.2" fill="#000000" transform="matrix(1.00, 0.00, -0.00, -1.00, 555.1, 8.7)">e</text><text xml:space="preserve" font-family="Palatino-Roman,Palatino" font-size="24.2" fill="#000000" transform="matrix(1.00, 0.00, -0.00, -1.00, 566.6, 8.7)"> </text><text xml:space="preserve" font-family="Palatino-Roman,Palatino" font-size="24.2" fill="#000000" transform="matrix(1.00, 0.00, -0.00, -1.00, 572.7, 8.7)">(</text><text xml:space="preserve" font-family="Palatino-Roman,Palatino" font-size="24.2" fill="#000000" transform="matrix(1.00, 0.00, -0.00, -1.00, 580.7, 8.7)">b</text><text xml:space="preserve" font-family="Palatino-Roman,Palatino" font-size="24.2" fill="#000000" transform="matrix(1.00, 0.00, -0.00, -1.00, 594.1, 8.7)">e</text><text xml:space="preserve" font-family="Palatino-Roman,Palatino" font-size="24.2" fill="#000000" transform="matrix(1.00, 0.00, -0.00, -1.00, 605.7, 8.7)">c</text><text xml:space="preserve" font-family="Palatino-Roman,Palatino" font-size="24.2" fill="#000000" transform="matrix(1.00, 0.00, -0.00, -1.00, 616.4, 8.7)">a</text><text xml:space="preserve" font-family="Palatino-Roman,Palatino" font-size="24.2" fill="#000000" transform="matrix(1.00, 0.00, -0.00, -1.00, 628.5, 8.7)">u</text><text xml:space="preserve" font-family="Palatino-Roman,Palatino" font-size="24.2" fill="#000000" transform="matrix(1.00, 0.00, -0.00, -1.00, 643.1, 8.7)">s</text><text xml:space="preserve" font-family="Palatino-Roman,Palatino" font-size="24.2" fill="#000000" transform="matrix(1.00, 0.00, -0.00, -1.00, 653.3, 8.7)">e</text><text xml:space="preserve" font-family="Palatino-Roman,Palatino" font-size="24.2" fill="#000000" transform="matrix(1.00, 0.00, -0.00, -1.00, 664.9, 8.7)"> </text><text xml:space="preserve" font-family="Palatino-Roman,Palatino" font-size="24.2" fill="#000000" transform="matrix(1.00, 0.00, -0.00, -1.00, 671.0, 8.7)">i</text><text xml:space="preserve" font-family="Palatino-Roman,Palatino" font-size="24.2" fill="#000000" transform="matrix(1.00, 0.00, -0.00, -1.00, 678.0, 8.7)">t</text><text xml:space="preserve" font-family="Palatino-Roman,Palatino" font-size="24.2" fill="#000000" transform="matrix(1.00, 0.00, -0.00, -1.00, 685.9, 8.7)"> </text><text xml:space="preserve" font-family="Palatino-Roman,Palatino" font-size="24.2" fill="#000000" transform="matrix(1.00, 0.00, -0.00, -1.00, 691.9, 8.7)">c</text><text xml:space="preserve" font-family="Palatino-Roman,Palatino" font-size="24.2" fill="#000000" transform="matrix(1.00, 0.00, -0.00, -1.00, 702.7, 8.7)">a</text><text xml:space="preserve" font-family="Palatino-Roman,Palatino" font-size="24.2" fill="#000000" transform="matrix(1.00, 0.00, -0.00, -1.00, 714.8, 8.7)">n</text><text xml:space="preserve" font-family="Palatino-Roman,Palatino" font-size="24.2" fill="#000000" transform="matrix(1.00, 0.00, -0.00, -1.00, 728.8, 8.7)"> </text><text xml:space="preserve" font-family="Palatino-Roman,Palatino" font-size="24.2" fill="#000000" transform="matrix(1.00, 0.00, -0.00, -1.00, 734.9, 8.7)">s</text><text xml:space="preserve" font-family="Palatino-Roman,Palatino" font-size="24.2" fill="#000000" transform="matrix(1.00, 0.00, -0.00, -1.00, 745.1, 8.7)">i</text><text xml:space="preserve" font-family="Palatino-Roman,Palatino" font-size="24.2" fill="#000000" transform="matrix(1.00, 0.00, -0.00, -1.00, 752.2, 8.7)">m</text><text xml:space="preserve" font-family="Palatino-Roman,Palatino" font-size="24.2" fill="#000000" transform="matrix(1.00, 0.00, -0.00, -1.00, 773.5, 8.7)">u</text><text xml:space="preserve" font-family="Palatino-Roman,Palatino" font-size="24.2" fill="#000000" transform="matrix(1.00, 0.00, -0.00, -1.00, 788.1, 8.7)">l</text><text xml:space="preserve" font-family="Palatino-Roman,Palatino" font-size="24.2" fill="#000000" transform="matrix(1.00, 0.00, -0.00, -1.00, 795.1, 8.7)">a</text><text xml:space="preserve" font-family="Palatino-Roman,Palatino" font-size="24.2" fill="#000000" transform="matrix(1.00, 0.00, -0.00, -1.00, 807.2, 8.7)">t</text><text xml:space="preserve" font-family="Palatino-Roman,Palatino" font-size="24.2" fill="#000000" transform="matrix(1.00, 0.00, -0.00, -1.00, 815.1, 8.7)">e</text><text xml:space="preserve" font-family="Palatino-Roman,Palatino" font-size="24.2" fill="#000000" transform="matrix(1.00, 0.00, -0.00, -1.00, 826.7, 8.7)"> </text><text xml:space="preserve" font-family="Palatino-Roman,Palatino" font-size="24.2" fill="#000000" transform="matrix(1.00, 0.00, -0.00, -1.00, 832.7, 8.7)">o</text><text xml:space="preserve" font-family="Palatino-Roman,Palatino" font-size="24.2" fill="#000000" transform="matrix(1.00, 0.00, -0.00, -1.00, 845.9, 8.7)">n</text><text xml:space="preserve" font-family="Palatino-Roman,Palatino" font-size="24.2" fill="#000000" transform="matrix(1.00, 0.00, -0.00, -1.00, 860.0, 8.7)">e</text><text xml:space="preserve" font-family="Palatino-Roman,Palatino" font-size="24.2" fill="#000000" transform="matrix(1.00, 0.00, -0.00, -1.00, 871.6, 8.7)">)</text></g></svg>