<?xml version="1.0" encoding="UTF-8" standalone="no"?><svg xmlns="http://www.w3.org/2000/svg" xmlns:xlink="http://www.w3.org/1999/xlink" clip-rule="evenodd" stroke-miterlimit="10" viewBox="0 0 64 64"><desc>SVG generated by Keynote</desc><defs></defs><g transform="matrix(1.00, 0.00, -0.00, -1.00, 0.0, 64.0)"><path d="M 6.1 59.6 C 5.9 59.7 5.7 59.2 5.2 59.0 C 4.6 58.9 3.9 58.8 4.1 59.2 C 4.2 59.5 4.4 59.7 4.1 60.1 C 3.8 60.5 3.5 61.2 3.9 61.4 C 4.3 61.7 5.9 62.4 6.4 62.0 C 6.9 61.7 7.0 61.5 7.4 61.3 C 7.8 61.0 7.6 61.8 7.6 61.8 C 7.6 61.8 8.4 61.9 9.1 62.0 C 9.7 62.0 10.5 62.1 10.5 61.9 C 10.6 61.8 10.8 61.5 10.8 61.5 C 10.8 61.5 11.2 61.9 11.7 62.0 C 12.2 62.0 12.0 61.8 11.9 61.6 C 11.8 61.5 11.1 60.9 11.3 60.9 C 11.5 60.9 12.3 61.7 12.6 61.8 C 13.0 61.9 13.7 61.8 13.7 61.8 C 13.7 61.8 13.6 61.4 13.6 61.3 C 13.7 61.2 14.4 61.1 14.4 61.3 C 14.5 61.4 14.5 61.9 14.9 62.0 C 16.1 62.0 15.8 61.2 15.9 61.1 C 16.0 61.1 16.1 61.8 16.4 61.9 C 16.7 62.0 19.0 61.9 19.1 61.7 C 19.1 61.6 20.1 62.2 20.3 61.8 C 20.5 61.3 20.6 61.2 20.6 61.1 C 20.6 61.0 20.9 60.3 21.2 60.6 C 21.4 60.8 20.8 61.6 21.1 61.8 C 21.5 62.0 22.9 62.1 23.1 61.9 C 23.3 61.6 23.2 60.9 23.4 60.9 C 23.6 60.9 24.7 61.8 24.7 61.6 C 24.8 61.5 24.6 60.8 24.5 60.7 C 24.5 60.5 24.3 59.3 24.1 59.1 C 23.9 58.9 22.9 58.5 23.1 58.8 C 23.3 59.2 23.7 59.6 23.4 59.8 C 23.2 60.0 23.0 60.0 22.9 59.8 C 22.8 59.7 22.9 59.6 22.4 59.3 C 21.8 59.1 22.0 58.8 21.5 58.8 C 21.1 58.8 20.7 58.9 20.8 59.2 C 20.9 59.5 20.6 59.9 20.2 59.8 C 19.9 59.8 20.3 59.2 19.2 59.0 C 18.1 58.7 17.4 58.7 17.2 58.9 C 17.0 59.1 17.1 59.9 16.5 59.6 C 16.0 59.2 16.2 59.0 15.5 59.1 C 14.9 59.1 14.7 59.7 14.3 59.7 C 13.9 59.7 13.8 59.7 13.8 59.7 C 13.8 59.7 13.9 58.8 12.9 58.8 C 12.0 58.8 11.8 58.7 12.0 59.3 C 12.3 59.9 11.6 59.9 11.5 59.5 C 11.4 59.1 10.8 58.9 10.5 58.8 C 10.2 58.8 10.2 59.8 10.1 59.8 C 9.9 59.8 9.6 59.8 9.7 59.4 C 9.8 59.1 9.4 59.1 9.1 58.9 C 8.8 58.8 7.9 58.9 8.0 59.1 C 8.0 59.3 8.5 59.9 7.9 59.6 C 7.2 59.3 7.1 58.8 6.5 58.8 C 6.0 58.8 6.5 59.4 6.1 59.6 C 6.1 59.6 6.1 59.6 6.1 59.6 Z M 24.3 58.8 C 23.3 58.8 24.9 61.5 25.6 62.0 C 26.2 62.5 26.7 62.2 27.5 62.3 C 28.2 62.4 27.7 61.6 28.0 61.3 C 28.3 61.1 28.4 61.6 28.7 62.0 C 29.0 62.4 30.0 62.0 30.7 62.1 C 31.3 62.1 31.6 61.2 32.1 61.2 C 32.6 61.1 31.4 60.7 32.3 60.8 C 33.3 60.8 33.1 61.3 32.1 61.6 C 31.2 61.9 32.8 62.1 33.5 62.2 C 34.1 62.3 34.9 61.9 35.4 61.9 C 35.9 62.0 34.9 61.3 35.6 61.3 C 36.3 61.4 36.3 62.0 37.1 62.1 C 37.8 62.2 37.4 61.6 37.6 61.5 C 37.9 61.3 38.1 61.7 38.4 61.7 C 38.7 61.8 39.3 62.0 39.9 61.9 C 40.4 61.7 40.1 61.5 40.4 61.5 C 40.6 61.4 41.2 61.4 41.2 61.4 C 41.3 61.6 41.5 61.9 41.7 62.1 C 41.7 62.1 42.9 62.1 43.3 62.2 C 43.7 62.2 44.3 61.9 44.0 61.8 C 43.7 61.7 44.2 61.2 44.4 61.3 C 44.6 61.4 45.5 61.7 46.0 61.9 C 46.5 62.0 45.1 60.3 45.0 60.1 C 44.8 59.8 44.3 58.9 43.9 58.8 C 43.5 58.7 43.5 59.1 43.4 58.8 C 43.2 58.6 42.4 58.8 42.1 58.8 C 41.9 58.8 42.0 59.5 42.0 59.5 C 42.0 59.5 42.0 60.0 41.6 60.0 C 41.1 60.0 40.3 58.9 40.3 58.9 C 40.3 58.9 39.6 58.7 39.0 58.8 C 38.5 58.8 38.5 59.7 38.5 59.9 C 38.5 60.1 38.0 59.3 37.5 59.2 C 37.1 59.1 36.4 58.8 36.2 58.9 C 36.1 58.9 36.1 59.5 36.1 59.5 C 36.1 59.5 35.6 59.8 35.4 59.8 C 35.2 59.8 35.1 59.0 35.1 59.0 C 35.1 59.0 33.4 58.8 33.1 58.7 C 32.8 58.6 32.4 58.9 32.2 58.9 C 32.0 59.0 32.1 59.9 31.8 59.8 C 31.4 59.7 31.8 59.2 31.4 59.1 C 31.0 59.0 30.3 58.8 30.1 58.8 C 30.0 58.8 29.9 59.2 29.7 59.2 C 29.4 59.3 29.3 60.0 28.9 60.0 C 28.4 60.0 28.0 59.5 27.8 59.5 C 27.6 59.4 27.2 58.7 26.9 58.7 C 26.5 58.7 26.9 59.1 26.6 59.1 C 26.3 59.1 26.5 59.6 26.1 59.5 C 25.7 59.4 25.6 58.6 25.3 58.7 C 25.1 58.8 25.3 58.7 24.3 58.8 C 24.3 58.8 24.3 58.8 24.3 58.8 Z M 44.8 58.9 C 44.1 58.5 44.0 59.0 44.3 59.4 C 44.6 59.7 45.5 60.7 45.5 61.0 C 45.6 61.3 45.5 62.0 46.5 62.1 C 47.5 62.2 47.4 62.0 47.3 61.7 C 47.1 61.5 46.5 60.5 46.8 60.6 C 47.1 60.7 47.5 60.9 47.7 61.1 C 47.9 61.2 49.0 62.2 49.3 62.1 C 49.6 61.9 49.8 61.6 49.8 61.6 C 50.0 61.6 50.2 61.6 50.4 61.6 C 50.4 61.6 51.5 62.2 51.9 62.1 C 52.2 61.9 52.7 61.9 53.1 62.0 C 53.5 62.0 53.8 61.9 53.7 61.7 C 53.5 61.5 53.3 60.6 53.3 60.6 C 53.3 60.6 53.6 60.4 54.0 60.5 C 54.3 60.7 54.8 61.1 54.9 61.3 C 55.0 61.5 55.5 62.0 55.9 62.1 C 56.3 62.1 58.3 62.6 58.3 62.3 C 58.3 62.1 57.9 61.7 58.0 61.6 C 58.1 61.5 59.0 61.4 59.3 61.7 C 59.6 61.9 60.1 62.4 60.3 62.4 C 60.6 62.3 61.3 62.5 61.2 62.3 C 61.1 62.2 61.1 62.1 60.9 61.8 C 60.6 61.5 61.0 61.3 60.9 61.1 C 60.9 61.1 61.0 61.0 61.1 61.0 C 61.0 60.8 61.0 60.6 61.0 60.6 C 61.1 60.5 61.3 60.5 61.4 60.4 C 61.4 60.4 62.0 61.3 62.0 61.6 C 62.1 61.8 62.5 61.9 62.5 61.7 C 62.6 61.6 62.5 60.3 62.5 60.3 C 62.1 59.9 61.7 59.6 61.3 59.2 C 61.2 58.8 61.2 58.5 61.1 58.1 C 61.1 58.1 62.4 59.5 62.4 58.9 C 62.4 58.4 62.4 57.7 62.4 57.7 C 62.4 57.7 61.9 56.7 61.9 56.5 C 61.8 56.3 60.6 55.3 60.6 55.3 C 60.2 54.9 59.7 54.6 59.2 54.3 C 59.2 54.3 58.8 54.5 59.0 55.0 C 59.1 55.4 59.6 55.6 59.9 55.9 C 60.1 56.1 60.3 56.8 60.3 56.8 C 60.1 56.8 59.8 56.8 59.6 56.8 C 59.6 56.8 59.3 56.8 59.1 56.8 C 58.9 56.8 58.7 57.5 58.8 57.8 C 58.9 58.1 59.2 58.6 59.5 59.1 C 59.6 59.4 59.8 59.7 59.9 59.8 C 59.9 59.9 59.8 59.9 59.5 59.7 C 58.8 59.4 58.3 59.0 58.1 59.0 C 58.0 59.0 57.7 59.5 57.7 59.5 C 57.6 59.6 57.5 59.7 57.4 59.8 C 57.4 59.8 57.0 60.1 56.7 59.8 C 56.3 59.5 55.5 59.8 55.5 59.8 C 55.5 59.8 54.9 59.0 54.5 58.9 C 54.1 58.7 53.4 58.5 53.1 58.7 C 52.8 58.8 53.1 59.6 53.1 59.6 C 52.8 59.4 52.5 59.2 52.2 59.0 C 51.7 58.9 51.2 58.9 50.8 58.8 C 50.8 58.8 49.8 58.9 50.0 59.0 C 50.1 59.1 50.8 59.8 50.9 60.0 C 51.0 60.2 50.6 60.4 50.4 60.2 C 50.1 60.0 49.2 59.3 49.2 59.3 C 49.2 59.3 48.4 58.9 48.1 58.9 C 47.8 58.8 47.5 59.0 47.5 59.2 C 47.5 59.3 47.4 59.8 47.4 59.8 C 47.2 59.6 46.9 59.4 46.6 59.2 C 46.6 59.2 46.1 59.5 44.8 58.9 C 44.8 58.9 44.8 58.9 44.8 58.9 Z M 58.8 53.5 C 58.9 54.5 61.5 56.0 62.0 56.1 C 62.6 56.1 62.2 55.1 62.3 54.4 C 62.4 53.7 61.6 53.4 61.4 52.8 C 61.1 52.2 61.7 52.7 62.0 52.8 C 62.4 52.9 62.1 51.6 62.1 50.9 C 62.2 50.3 61.3 49.1 61.2 48.5 C 61.2 47.9 60.8 48.7 60.8 47.8 C 60.9 46.9 61.4 47.6 61.6 48.8 C 61.9 50.1 62.1 48.7 62.2 48.1 C 62.3 47.6 61.9 46.4 62.0 45.9 C 62.0 45.4 61.4 45.7 61.4 45.1 C 61.4 44.4 62.1 45.0 62.2 44.4 C 62.3 43.7 61.7 43.5 61.5 43.1 C 61.4 42.7 61.7 42.9 61.8 42.6 C 61.8 42.4 62.0 42.0 61.9 41.2 C 61.7 40.5 61.6 40.7 61.5 40.3 C 61.5 40.0 61.5 39.5 61.5 39.5 C 61.7 39.5 61.9 39.6 62.1 39.6 C 62.1 39.6 62.2 38.4 62.2 38.0 C 62.3 37.7 62.0 36.8 61.8 37.0 C 61.7 37.2 61.3 36.3 61.4 36.1 C 61.5 36.0 61.8 35.4 61.9 35.0 C 62.1 34.6 60.4 34.6 60.1 34.6 C 59.9 34.5 59.0 34.2 58.9 34.6 C 58.8 34.9 59.1 35.2 58.9 35.1 C 58.6 35.0 58.9 36.0 58.9 36.3 C 58.9 36.6 59.5 37.0 59.5 37.0 C 59.5 37.0 60.0 37.4 60.0 37.8 C 60.0 38.3 59.0 38.2 59.0 38.2 C 59.0 38.2 58.8 38.7 58.8 39.2 C 58.9 39.8 59.7 40.6 59.9 40.8 C 60.1 41.0 59.3 40.7 59.2 41.1 C 59.1 41.4 58.9 41.9 58.9 42.1 C 59.0 42.2 59.5 42.7 59.5 42.7 C 59.5 42.7 59.8 43.6 59.8 43.7 C 59.8 43.9 59.0 43.3 59.0 43.3 C 59.0 43.3 58.8 44.7 58.7 44.9 C 58.7 45.2 58.9 45.8 58.9 46.0 C 59.0 46.3 60.0 47.1 59.9 47.4 C 59.8 47.7 59.3 46.7 59.2 47.0 C 59.1 47.3 58.9 47.7 58.9 47.9 C 58.9 48.1 59.2 48.5 59.3 48.8 C 59.3 49.1 60.0 50.0 60.0 50.4 C 60.0 50.8 59.6 50.8 59.5 50.9 C 59.4 51.0 58.8 50.6 58.7 50.9 C 58.7 51.3 59.2 51.3 59.2 51.7 C 59.2 52.0 59.6 52.4 59.5 52.6 C 59.4 52.9 58.7 52.1 58.8 52.5 C 58.8 52.7 58.8 52.5 58.8 53.5 C 58.8 53.5 58.8 53.5 58.8 53.5 Z M 59.0 33.8 C 58.6 34.2 59.0 34.6 59.4 34.6 C 59.8 34.6 60.8 34.5 61.0 34.7 C 61.3 34.9 62.0 35.6 62.1 34.7 C 62.3 33.8 62.0 33.6 61.8 33.6 C 61.5 33.5 60.5 33.3 60.6 33.1 C 60.7 32.9 61.0 32.6 61.1 32.6 C 61.3 32.5 62.2 32.2 62.1 31.7 C 62.0 31.3 61.7 30.9 61.7 30.9 C 61.7 30.7 61.6 30.5 61.6 30.2 C 61.6 30.2 62.2 29.6 62.1 29.1 C 62.0 28.6 62.0 28.1 62.0 27.7 C 62.1 27.3 62.0 27.0 61.7 27.0 C 61.5 27.0 60.7 26.6 60.7 26.6 C 60.7 26.6 60.4 26.2 60.6 25.9 C 60.7 25.6 61.2 25.5 61.4 25.5 C 61.5 25.5 62.0 25.3 62.1 25.0 C 62.2 24.6 62.7 22.8 62.4 22.7 C 62.1 22.5 61.7 22.7 61.6 22.5 C 61.5 22.4 61.5 21.4 61.7 21.2 C 62.0 21.0 62.5 20.9 62.4 20.6 C 62.4 20.3 62.5 19.6 62.4 19.7 C 62.2 19.8 62.1 19.6 61.8 19.7 C 61.5 19.8 61.3 19.3 61.2 19.3 C 61.0 19.2 61.0 18.7 61.0 18.7 C 61.1 18.5 61.3 18.2 61.4 17.9 C 61.4 17.9 62.0 18.0 62.0 18.2 C 62.1 18.3 62.5 17.9 62.5 17.7 C 62.6 17.4 62.5 16.3 62.5 16.3 C 62.1 16.5 61.7 16.7 61.3 16.9 C 61.2 16.6 61.2 16.4 61.1 16.2 C 61.1 16.2 62.4 15.5 62.4 15.0 C 62.4 14.4 62.4 13.7 62.4 13.7 C 62.4 13.7 61.9 13.5 61.9 13.4 C 61.8 13.3 60.6 14.0 60.6 14.0 C 60.2 14.3 59.7 14.6 59.2 15.0 C 59.2 15.0 58.8 15.9 59.0 16.1 C 59.1 16.3 59.6 15.7 59.9 15.6 C 60.1 15.6 60.3 15.9 60.3 15.9 C 60.1 16.3 59.8 16.7 59.6 17.1 C 59.6 17.1 59.3 17.4 59.1 17.8 C 58.9 18.1 58.7 18.9 58.8 19.1 C 58.9 19.3 59.2 19.3 59.5 19.5 C 59.7 19.7 60.1 19.4 59.8 19.9 C 59.5 20.4 59.1 20.7 59.1 20.9 C 59.1 21.1 59.6 21.6 59.6 21.6 C 59.7 21.8 59.8 21.9 59.9 22.1 C 59.9 22.1 60.1 22.6 59.8 22.7 C 59.6 22.9 59.9 23.9 59.9 23.9 C 59.9 23.9 59.0 24.0 58.9 24.4 C 58.8 24.7 58.6 25.2 58.7 25.6 C 58.9 26.0 59.6 26.1 59.6 26.1 C 59.4 26.3 59.2 26.5 59.0 26.7 C 59.0 27.1 58.9 27.5 58.9 27.9 C 58.9 27.9 58.9 28.8 59.0 28.8 C 59.2 28.8 59.9 28.6 60.1 28.6 C 60.2 28.7 60.5 29.2 60.2 29.2 C 60.0 29.3 59.4 29.8 59.4 29.8 C 59.4 29.8 59.0 30.3 58.9 30.5 C 58.9 30.8 59.1 31.2 59.2 31.3 C 59.4 31.5 59.9 31.9 59.9 31.9 C 59.7 32.0 59.4 32.1 59.2 32.3 C 59.2 32.3 59.6 33.0 59.0 33.8 C 59.0 33.8 59.0 33.8 59.0 33.8 Z M 58.8 14.8 C 58.9 15.8 61.5 13.4 62.0 12.7 C 62.6 11.9 62.2 11.4 62.3 10.6 C 62.4 9.8 61.6 10.7 61.4 10.4 C 61.1 10.2 61.7 9.9 62.0 9.4 C 62.4 9.0 62.1 8.1 62.1 7.4 C 62.2 6.7 61.3 6.8 61.2 6.3 C 61.2 5.8 60.8 7.2 60.8 6.2 C 60.9 5.2 61.4 5.2 61.6 6.1 C 61.9 6.9 62.1 5.2 62.2 4.5 C 62.3 3.8 61.9 3.1 62.0 2.6 C 62.0 2.5 62.0 2.5 61.9 2.5 C 61.7 2.7 61.5 3.0 61.0 3.0 C 60.3 3.0 61.4 2.3 60.8 2.2 C 60.1 2.1 59.6 2.7 59.1 2.9 C 58.6 3.0 59.1 2.7 58.8 2.6 C 58.6 2.6 58.3 2.4 57.5 2.5 C 56.7 2.7 56.7 2.8 56.4 2.9 C 56.0 2.9 55.5 2.9 55.5 2.9 C 55.6 2.7 55.8 2.5 55.9 2.3 C 55.9 2.3 54.8 2.2 54.4 2.2 C 54.1 2.1 53.1 2.4 53.2 2.6 C 53.3 2.7 52.2 3.1 52.1 3.0 C 52.0 2.9 51.6 2.6 51.3 2.5 C 50.9 2.3 50.0 4.0 49.8 4.3 C 49.7 4.5 48.9 5.4 49.1 5.5 C 49.4 5.6 49.9 5.3 49.7 5.5 C 49.5 5.8 50.6 5.5 50.9 5.5 C 51.1 5.5 51.9 4.9 51.9 4.9 C 51.9 4.9 52.6 4.4 53.0 4.4 C 53.5 4.4 52.8 5.4 52.8 5.4 C 52.8 5.4 53.2 5.6 53.8 5.6 C 54.4 5.5 55.7 4.7 56.0 4.5 C 56.3 4.3 55.5 5.1 55.8 5.2 C 56.1 5.3 56.5 5.5 56.7 5.5 C 56.9 5.4 57.6 4.9 57.6 4.9 C 57.6 4.9 58.7 4.6 58.8 4.6 C 59.0 4.6 58.0 5.4 58.0 5.4 C 58.0 5.4 58.4 5.4 58.9 5.5 C 58.8 5.9 58.8 6.2 58.7 6.3 C 58.7 6.7 58.9 7.0 58.9 7.2 C 59.0 7.3 60.0 6.7 59.9 7.2 C 59.8 7.6 59.3 7.4 59.2 7.8 C 59.1 8.2 58.9 9.0 58.9 9.2 C 58.9 9.3 59.2 9.2 59.3 9.5 C 59.3 9.7 60.0 9.5 60.0 9.9 C 60.0 10.4 59.6 11.0 59.5 11.2 C 59.4 11.4 58.8 12.0 58.7 12.4 C 58.7 12.7 59.2 12.2 59.2 12.5 C 59.2 12.8 59.6 12.5 59.5 12.9 C 59.4 13.3 58.7 13.6 58.8 13.9 C 58.8 14.0 58.8 13.9 58.8 14.8 C 58.8 14.8 58.8 14.8 58.8 14.8 Z M 47.5 4.8 C 47.7 4.7 47.6 5.2 48.1 5.3 C 48.5 5.5 49.2 5.5 49.2 5.2 C 49.3 4.9 49.2 4.7 49.8 4.3 C 50.3 3.9 51.1 3.2 50.9 2.9 C 50.6 2.6 49.4 1.9 48.7 2.3 C 48.0 2.7 47.7 2.8 47.2 3.1 C 46.7 3.3 47.4 2.5 47.4 2.5 C 47.4 2.5 46.5 2.4 45.9 2.4 C 45.2 2.3 44.5 2.3 44.4 2.4 C 44.2 2.5 43.9 2.8 43.9 2.8 C 43.9 2.8 43.7 2.5 43.2 2.4 C 42.7 2.3 42.8 2.5 42.9 2.7 C 42.9 2.9 43.2 3.4 43.0 3.4 C 42.8 3.4 42.5 2.6 42.2 2.5 C 41.9 2.5 41.1 2.5 41.1 2.5 C 41.1 2.5 41.0 3.0 40.9 3.1 C 40.8 3.2 40.0 3.2 40.1 3.1 C 40.1 2.9 40.3 2.4 39.9 2.4 C 38.7 2.3 38.7 3.2 38.5 3.2 C 38.4 3.2 38.6 2.6 38.3 2.5 C 38.1 2.4 35.7 2.5 35.6 2.6 C 35.4 2.8 34.7 2.2 34.3 2.6 C 33.9 3.0 33.8 3.1 33.7 3.3 C 33.7 3.4 33.2 4.0 33.0 3.8 C 32.8 3.5 33.7 2.7 33.5 2.5 C 33.2 2.3 31.7 2.3 31.5 2.5 C 31.1 2.8 31.1 3.4 30.9 3.4 C 30.7 3.4 29.8 2.6 29.7 2.7 C 29.7 2.9 29.6 3.6 29.6 3.7 C 29.7 3.8 29.5 5.1 29.7 5.2 C 29.9 5.4 30.7 5.9 30.6 5.5 C 30.4 5.2 30.2 4.7 30.5 4.6 C 30.8 4.4 30.9 4.4 31.0 4.5 C 31.1 4.6 30.9 4.8 31.4 5.0 C 31.9 5.3 31.7 5.6 32.1 5.5 C 32.5 5.5 32.9 5.4 32.9 5.2 C 32.9 4.9 33.4 4.5 33.7 4.5 C 34.0 4.5 33.4 5.1 34.4 5.4 C 35.4 5.6 36.0 5.7 36.3 5.4 C 36.6 5.2 36.8 4.5 37.2 4.8 C 37.6 5.1 37.4 5.3 38.0 5.3 C 38.6 5.3 39.0 4.7 39.5 4.7 C 39.9 4.6 40.0 4.7 40.0 4.7 C 40.0 4.7 39.5 5.5 40.4 5.6 C 41.3 5.6 41.5 5.7 41.5 5.1 C 41.5 4.5 42.3 4.4 42.1 4.8 C 42.0 5.2 42.5 5.5 42.8 5.5 C 43.1 5.6 43.6 4.6 43.7 4.5 C 43.9 4.5 44.2 4.6 43.9 4.9 C 43.6 5.2 44.0 5.3 44.2 5.4 C 44.4 5.5 45.3 5.4 45.4 5.3 C 45.5 5.1 45.4 4.4 45.8 4.8 C 46.2 5.1 46.1 5.6 46.6 5.6 C 47.2 5.5 47.0 4.9 47.5 4.8 C 47.5 4.8 47.5 4.8 47.5 4.8 Z M 28.9 5.4 C 29.4 5.8 29.8 5.4 29.7 5.0 C 29.6 4.6 29.4 3.6 29.5 3.4 C 29.7 3.1 30.2 2.4 29.3 2.3 C 28.4 2.1 28.2 2.4 28.2 2.6 C 28.3 2.9 28.2 3.9 28.0 3.8 C 27.7 3.7 27.5 3.4 27.4 3.3 C 27.3 3.1 26.8 2.2 26.4 2.3 C 25.9 2.4 25.6 2.7 25.6 2.7 C 25.4 2.7 25.2 2.8 24.9 2.8 C 24.9 2.8 24.2 2.2 23.7 2.3 C 23.3 2.4 22.7 2.4 22.3 2.4 C 22.0 2.3 21.6 2.4 21.7 2.7 C 21.7 2.9 21.5 3.7 21.5 3.7 C 21.5 3.7 21.1 4.0 20.8 3.8 C 20.5 3.7 20.3 3.2 20.2 3.0 C 20.2 2.9 20.0 2.4 19.6 2.3 C 19.2 2.2 17.3 1.7 17.2 2.0 C 17.1 2.3 17.4 2.7 17.2 2.8 C 17.1 2.9 16.1 2.9 15.9 2.7 C 15.7 2.4 15.4 1.9 15.2 2.0 C 14.9 2.0 14.2 1.9 14.3 2.0 C 14.3 2.2 14.2 2.3 14.4 2.6 C 14.5 2.9 14.1 3.1 14.0 3.2 C 14.0 3.4 13.6 3.4 13.6 3.4 C 13.3 3.3 13.0 3.1 12.7 3.0 C 12.7 3.0 12.7 2.4 12.8 2.4 C 12.9 2.3 12.4 1.9 12.2 1.9 C 12.0 1.8 10.9 1.9 10.9 1.9 C 11.1 2.3 11.4 2.7 11.6 3.1 C 11.4 3.2 11.2 3.2 11.0 3.3 C 11.0 3.3 10.1 2.0 9.5 2.0 C 9.0 2.0 8.3 2.0 8.3 2.0 C 8.3 2.0 8.1 2.5 8.0 2.5 C 7.9 2.6 8.9 3.8 8.9 3.8 C 9.3 4.2 9.7 4.7 10.1 5.2 C 10.1 5.2 11.1 5.6 11.3 5.4 C 11.5 5.3 10.8 4.8 10.7 4.5 C 10.5 4.3 10.9 4.1 10.9 4.1 C 11.3 4.3 11.7 4.6 12.2 4.8 C 12.2 4.8 12.5 5.1 12.9 5.3 C 13.3 5.5 14.2 5.7 14.3 5.6 C 14.5 5.5 14.5 5.2 14.6 4.9 C 14.7 4.7 14.4 4.3 15.0 4.6 C 15.5 4.9 15.9 5.3 16.1 5.3 C 16.2 5.3 16.7 4.8 16.7 4.8 C 16.8 4.7 17.0 4.6 17.1 4.5 C 17.1 4.5 17.5 4.3 17.8 4.6 C 18.0 4.8 18.9 4.5 18.9 4.5 C 18.9 4.5 19.2 5.4 19.6 5.5 C 19.9 5.6 20.4 5.8 20.8 5.7 C 21.2 5.5 21.2 4.8 21.2 4.8 C 21.4 5.0 21.6 5.2 21.8 5.4 C 22.3 5.4 22.7 5.5 23.1 5.5 C 23.1 5.5 24.0 5.5 24.0 5.4 C 23.9 5.2 23.6 4.5 23.6 4.3 C 23.6 4.2 24.1 3.9 24.2 4.2 C 24.3 4.4 24.9 5.0 24.9 5.0 C 24.9 5.0 25.4 5.4 25.7 5.5 C 26.0 5.5 26.4 5.3 26.5 5.2 C 26.6 5.0 26.9 4.5 26.9 4.5 C 27.1 4.7 27.2 5.0 27.4 5.2 C 27.4 5.2 28.1 4.8 28.9 5.4 C 28.9 5.4 28.9 5.4 28.9 5.4 Z M 10.0 5.6 C 11.0 5.5 8.2 2.9 7.3 2.4 C 6.4 1.8 6.0 2.2 5.2 2.1 C 4.3 2.0 5.4 2.8 5.2 3.0 C 5.0 3.3 4.6 2.7 4.1 2.4 C 3.6 2.0 2.9 2.2 2.3 2.3 C 2.3 2.4 2.3 2.5 2.3 2.6 C 2.3 3.2 3.2 4.7 3.2 5.3 C 3.3 5.8 3.7 5.3 3.6 6.2 C 3.6 7.0 3.1 6.1 2.8 4.8 C 2.5 3.4 2.3 4.7 2.2 5.2 C 2.1 5.7 2.5 7.1 2.5 7.5 C 2.4 7.9 3.1 8.0 3.1 8.6 C 3.0 9.3 2.4 8.3 2.3 8.9 C 2.1 9.5 2.8 10.0 2.9 10.5 C 3.1 10.9 2.7 10.5 2.6 10.8 C 2.6 11.0 2.4 11.3 2.5 12.1 C 2.7 12.9 2.9 12.9 2.9 13.2 C 3.0 13.5 3.0 14.0 3.0 14.0 C 2.8 13.9 2.5 13.7 2.3 13.6 C 2.3 13.6 2.3 14.7 2.2 15.1 C 2.2 15.4 2.5 16.4 2.6 16.3 C 2.7 16.2 3.2 17.3 3.1 17.4 C 3.0 17.5 2.6 17.9 2.5 18.2 C 2.4 18.5 4.1 19.6 4.3 19.8 C 4.6 19.9 5.5 20.8 5.6 20.6 C 5.7 20.3 5.3 19.8 5.6 20.0 C 5.8 20.2 5.6 19.1 5.6 18.8 C 5.6 18.5 4.9 17.7 4.9 17.7 C 4.9 17.7 4.4 17.0 4.4 16.5 C 4.4 16.1 5.5 16.8 5.5 16.8 C 5.5 16.8 5.7 16.4 5.6 15.8 C 5.6 15.2 4.7 13.8 4.5 13.6 C 4.3 13.3 5.1 14.0 5.2 13.7 C 5.3 13.4 5.6 13.0 5.5 12.8 C 5.5 12.6 4.9 11.8 4.9 11.8 C 4.9 11.8 4.6 10.8 4.6 10.6 C 4.6 10.5 5.4 11.5 5.4 11.5 C 5.4 11.5 5.6 10.2 5.7 9.9 C 5.8 9.7 5.5 9.0 5.5 8.7 C 5.4 8.4 4.5 7.2 4.6 6.9 C 4.7 6.7 5.2 7.9 5.3 7.6 C 5.4 7.4 5.6 7.0 5.6 6.8 C 5.6 6.6 5.2 6.1 5.2 5.7 C 5.2 5.5 4.9 5.1 4.7 4.6 C 4.7 4.5 4.7 4.4 4.9 4.4 C 5.4 4.4 6.0 4.8 6.3 4.9 C 6.5 5.0 7.2 5.6 7.6 5.7 C 8.0 5.7 7.3 5.2 7.6 5.2 C 8.0 5.2 7.5 4.8 7.9 4.9 C 8.4 5.0 8.9 5.7 9.1 5.6 C 9.2 5.6 9.1 5.6 10.0 5.6 C 10.0 5.6 10.0 5.6 10.0 5.6 Z M 5.5 21.3 C 5.9 21.1 5.4 20.4 5.0 20.2 C 4.7 19.9 3.7 19.4 3.4 19.0 C 3.1 18.7 2.4 17.6 2.3 18.3 C 2.2 19.1 2.4 19.5 2.7 19.7 C 2.9 19.8 3.9 20.7 3.8 20.9 C 3.7 21.1 3.5 21.1 3.3 21.1 C 3.2 21.0 2.2 20.7 2.3 21.2 C 2.5 21.8 2.8 22.4 2.8 22.4 C 2.8 22.6 2.8 22.8 2.8 23.0 C 2.8 23.0 2.2 23.2 2.3 23.8 C 2.5 24.4 2.5 24.9 2.4 25.2 C 2.4 25.6 2.5 26.0 2.7 26.2 C 2.9 26.4 3.8 27.3 3.8 27.3 C 3.8 27.3 4.0 28.0 3.9 28.1 C 3.7 28.3 3.3 28.1 3.1 27.9 C 2.9 27.8 2.4 27.5 2.3 27.8 C 2.3 28.2 1.8 29.5 2.1 29.9 C 2.3 30.2 2.7 30.4 2.8 30.6 C 2.9 30.8 3.0 31.9 2.7 31.8 C 2.5 31.8 2.0 31.5 2.0 31.8 C 2.1 32.1 1.9 32.7 2.1 32.7 C 2.2 32.8 2.3 33.1 2.6 33.2 C 2.9 33.4 3.1 34.1 3.3 34.2 C 3.4 34.4 3.5 34.9 3.5 34.9 C 3.3 35.0 3.2 35.2 3.0 35.3 C 3.0 35.3 2.5 34.7 2.4 34.5 C 2.3 34.3 2.0 34.4 1.9 34.6 C 1.9 34.7 2.0 35.9 2.0 35.9 C 2.4 36.1 2.7 36.3 3.1 36.5 C 3.2 36.8 3.3 37.1 3.4 37.4 C 3.4 37.4 2.0 36.7 2.0 37.3 C 2.0 37.8 2.0 38.5 2.0 38.5 C 2.0 38.5 2.5 39.2 2.6 39.4 C 2.6 39.5 3.8 40.0 3.8 40.0 C 4.3 40.1 4.7 40.3 5.2 40.4 C 5.2 40.4 5.7 39.9 5.5 39.5 C 5.3 39.1 4.8 39.2 4.6 39.1 C 4.3 38.9 4.1 38.3 4.1 38.3 C 4.4 38.2 4.6 38.1 4.9 37.9 C 4.9 37.9 5.1 37.8 5.4 37.7 C 5.6 37.6 5.7 36.8 5.6 36.6 C 5.5 36.3 5.2 35.9 5.0 35.5 C 4.8 35.1 4.3 35.0 4.7 34.8 C 5.0 34.6 5.4 34.6 5.4 34.5 C 5.4 34.3 4.9 33.3 4.9 33.3 C 4.8 33.1 4.7 32.8 4.6 32.5 C 4.6 32.5 4.3 31.9 4.6 31.9 C 4.9 32.0 4.6 30.7 4.6 30.7 C 4.6 30.7 5.4 31.3 5.5 31.1 C 5.7 30.8 5.9 30.5 5.7 30.0 C 5.6 29.5 4.8 28.7 4.8 28.7 C 5.0 28.6 5.2 28.6 5.4 28.6 C 5.5 28.2 5.5 27.8 5.6 27.4 C 5.6 27.4 5.5 26.4 5.4 26.4 C 5.3 26.3 4.6 25.9 4.4 25.8 C 4.2 25.6 4.0 24.9 4.2 25.0 C 4.4 25.1 5.1 25.1 5.1 25.1 C 5.1 25.1 5.5 24.9 5.5 24.7 C 5.6 24.4 5.4 23.8 5.2 23.6 C 5.1 23.4 4.6 22.6 4.6 22.6 C 4.8 22.6 5.0 22.7 5.2 22.7 C 5.2 22.7 4.9 21.7 5.5 21.3 C 5.5 21.3 5.5 21.3 5.5 21.3 Z M 5.6 41.0 C 5.6 39.9 2.9 39.7 2.4 39.9 C 1.9 40.1 2.2 40.9 2.1 41.6 C 2.0 42.3 2.8 42.3 3.1 42.8 C 3.3 43.3 2.8 43.0 2.4 43.0 C 2.0 43.1 2.4 44.3 2.3 44.9 C 2.3 45.5 3.2 46.4 3.2 47.0 C 3.3 47.5 3.7 46.6 3.6 47.5 C 3.6 48.5 3.1 47.9 2.8 46.8 C 2.5 45.6 2.3 47.1 2.2 47.6 C 2.1 48.2 2.5 49.3 2.5 49.7 C 2.4 50.2 3.1 49.7 3.1 50.4 C 3.0 51.1 2.4 50.6 2.3 51.3 C 2.1 52.0 2.8 52.0 2.9 52.4 C 3.1 52.7 2.7 52.6 2.6 52.9 C 2.6 53.2 2.4 53.6 2.5 54.3 C 2.7 54.9 2.9 54.8 2.9 55.1 C 3.0 55.4 3.0 55.9 3.0 55.9 C 2.8 55.9 2.5 55.9 2.3 56.0 C 2.3 56.0 2.3 57.1 2.2 57.5 C 2.2 57.8 2.5 58.6 2.6 58.4 C 2.7 58.2 3.2 59.0 3.1 59.2 C 3.0 59.4 2.6 60.0 2.5 60.4 C 2.4 60.8 4.1 60.7 4.3 60.7 C 4.6 60.7 5.5 60.9 5.6 60.5 C 5.7 60.2 5.3 59.9 5.6 60.0 C 5.8 60.0 5.6 59.0 5.6 58.8 C 5.6 58.5 4.9 58.1 4.9 58.1 C 4.9 58.1 4.4 57.8 4.4 57.4 C 4.4 56.9 5.5 56.8 5.5 56.8 C 5.5 56.8 5.7 56.3 5.6 55.7 C 5.6 55.2 4.7 54.4 4.5 54.3 C 4.3 54.2 5.1 54.3 5.2 53.9 C 5.3 53.5 5.6 53.0 5.5 52.8 C 5.5 52.6 4.9 52.3 4.9 52.3 C 4.9 52.3 4.6 51.5 4.6 51.3 C 4.6 51.2 5.4 51.6 5.4 51.6 C 5.4 51.6 5.6 50.1 5.7 49.8 C 5.8 49.5 5.5 49.0 5.5 48.7 C 5.4 48.5 4.5 48.0 4.6 47.6 C 4.7 47.3 5.2 48.1 5.3 47.8 C 5.4 47.5 5.6 46.9 5.6 46.8 C 5.6 46.6 5.2 46.3 5.2 46.0 C 5.1 45.7 4.4 45.1 4.4 44.7 C 4.4 44.2 4.8 44.1 4.9 44.0 C 5.0 43.8 5.7 43.9 5.7 43.6 C 5.7 43.2 5.3 43.3 5.3 43.0 C 5.3 42.7 4.8 42.5 4.9 42.2 C 5.0 41.9 5.8 42.4 5.7 42.0 C 5.6 41.8 5.7 42.0 5.6 41.0 C 5.6 41.0 5.6 41.0 5.6 41.0 Z M 5.6 41.0 " fill="#605F5C"></path></g></svg>