<?xml version="1.0" encoding="UTF-8" standalone="no"?><svg xmlns="http://www.w3.org/2000/svg" xmlns:xlink="http://www.w3.org/1999/xlink" clip-rule="evenodd" stroke-miterlimit="10" viewBox="0 0 543 25"><desc>SVG generated by Keynote</desc><defs></defs><g transform="matrix(1.00, 0.00, -0.00, -1.00, 0.0, 25.0)"><text xml:space="preserve" font-family="Monaco,Monaco" font-size="20.5" fill="#426132" transform="matrix(1.00, 0.00, -0.00, -1.00, 0.7, 6.8)">l</text><text xml:space="preserve" font-family="Monaco,Monaco" font-size="20.5" fill="#426132" transform="matrix(1.00, 0.00, -0.00, -1.00, 13.0, 6.8)">e</text><text xml:space="preserve" font-family="Monaco,Monaco" font-size="20.5" fill="#426132" transform="matrix(1.00, 0.00, -0.00, -1.00, 25.3, 6.8)">t</text><text xml:space="preserve" font-family="Monaco,Monaco" font-size="20.5" fill="#324763" transform="matrix(1.00, 0.00, -0.00, -1.00, 37.5, 6.8)"> </text><text xml:space="preserve" font-family="Monaco,Monaco" font-size="20.5" fill="#324763" transform="matrix(1.00, 0.00, -0.00, -1.00, 49.8, 6.8)">(</text><text xml:space="preserve" font-family="Monaco,Monaco" font-size="20.5" fill="#426132" transform="matrix(1.00, 0.00, -0.00, -1.00, 62.1, 6.8)">m</text><text xml:space="preserve" font-family="Monaco,Monaco" font-size="20.5" fill="#426132" transform="matrix(1.00, 0.00, -0.00, -1.00, 74.4, 6.8)">u</text><text xml:space="preserve" font-family="Monaco,Monaco" font-size="20.5" fill="#426132" transform="matrix(1.00, 0.00, -0.00, -1.00, 86.7, 6.8)">t</text><text xml:space="preserve" font-family="Monaco,Monaco" font-size="20.5" fill="#324763" transform="matrix(1.00, 0.00, -0.00, -1.00, 98.9, 6.8)"> </text><text xml:space="preserve" font-family="Monaco,Monaco" font-size="20.5" fill="#324763" transform="matrix(1.00, 0.00, -0.00, -1.00, 111.2, 6.8)">m</text><text xml:space="preserve" font-family="Monaco,Monaco" font-size="20.5" fill="#324763" transform="matrix(1.00, 0.00, -0.00, -1.00, 123.5, 6.8)">e</text><text xml:space="preserve" font-family="Monaco,Monaco" font-size="20.5" fill="#324763" transform="matrix(1.00, 0.00, -0.00, -1.00, 135.8, 6.8)">m</text><text xml:space="preserve" font-family="Monaco,Monaco" font-size="20.5" fill="#324763" transform="matrix(1.00, 0.00, -0.00, -1.00, 148.1, 6.8)">,</text><text xml:space="preserve" font-family="Monaco,Monaco" font-size="20.5" fill="#426132" transform="matrix(1.00, 0.00, -0.00, -1.00, 160.3, 6.8)"> </text><text xml:space="preserve" font-family="Monaco,Monaco" font-size="20.5" fill="#426132" transform="matrix(1.00, 0.00, -0.00, -1.00, 172.6, 6.8)">m</text><text xml:space="preserve" font-family="Monaco,Monaco" font-size="20.5" fill="#426132" transform="matrix(1.00, 0.00, -0.00, -1.00, 184.9, 6.8)">u</text><text xml:space="preserve" font-family="Monaco,Monaco" font-size="20.5" fill="#426132" transform="matrix(1.00, 0.00, -0.00, -1.00, 197.2, 6.8)">t</text><text xml:space="preserve" font-family="Monaco,Monaco" font-size="20.5" fill="#324763" transform="matrix(1.00, 0.00, -0.00, -1.00, 209.4, 6.8)"> </text><text xml:space="preserve" font-family="Monaco,Monaco" font-size="20.5" fill="#324763" transform="matrix(1.00, 0.00, -0.00, -1.00, 221.7, 6.8)">c</text><text xml:space="preserve" font-family="Monaco,Monaco" font-size="20.5" fill="#324763" transform="matrix(1.00, 0.00, -0.00, -1.00, 234.0, 6.8)">u</text><text xml:space="preserve" font-family="Monaco,Monaco" font-size="20.5" fill="#324763" transform="matrix(1.00, 0.00, -0.00, -1.00, 246.3, 6.8)">r</text><text xml:space="preserve" font-family="Monaco,Monaco" font-size="20.5" fill="#324763" transform="matrix(1.00, 0.00, -0.00, -1.00, 258.6, 6.8)">)</text><text xml:space="preserve" font-family="Monaco,Monaco" font-size="20.5" fill="#324763" transform="matrix(1.00, 0.00, -0.00, -1.00, 270.8, 6.8)"> </text><text xml:space="preserve" font-family="Monaco,Monaco" font-size="20.5" fill="#3D5A84" transform="matrix(1.00, 0.00, -0.00, -1.00, 283.1, 6.8)">=</text><text xml:space="preserve" font-family="Monaco,Monaco" font-size="20.5" fill="#324763" transform="matrix(1.00, 0.00, -0.00, -1.00, 295.4, 6.8)"> </text><text xml:space="preserve" font-family="Monaco,Monaco" font-size="20.5" fill="#324763" transform="matrix(1.00, 0.00, -0.00, -1.00, 307.7, 6.8)">(</text><text xml:space="preserve" font-family="Monaco,Monaco" font-size="20.5" fill="#324763" transform="matrix(1.00, 0.00, -0.00, -1.00, 319.9, 6.8)">[</text><text xml:space="preserve" font-family="Monaco,Monaco" font-size="20.5" fill="#B08000" transform="matrix(1.00, 0.00, -0.00, -1.00, 332.2, 6.8)">0</text><text xml:space="preserve" font-family="Monaco,Monaco" font-size="20.5" fill="#B08000" transform="matrix(1.00, 0.00, -0.00, -1.00, 344.5, 6.8)">u</text><text xml:space="preserve" font-family="Monaco,Monaco" font-size="20.5" fill="#B08000" transform="matrix(1.00, 0.00, -0.00, -1.00, 356.8, 6.8)">8</text><text xml:space="preserve" font-family="Monaco,Monaco" font-size="20.5" fill="#324763" transform="matrix(1.00, 0.00, -0.00, -1.00, 369.0, 6.8)">;</text><text xml:space="preserve" font-family="Monaco,Monaco" font-size="20.5" fill="#324763" transform="matrix(1.00, 0.00, -0.00, -1.00, 381.3, 6.8)"> </text><text xml:space="preserve" font-family="Monaco,Monaco" font-size="20.5" fill="#B08000" transform="matrix(1.00, 0.00, -0.00, -1.00, 393.6, 6.8)">3</text><text xml:space="preserve" font-family="Monaco,Monaco" font-size="20.5" fill="#B08000" transform="matrix(1.00, 0.00, -0.00, -1.00, 405.9, 6.8)">0</text><text xml:space="preserve" font-family="Monaco,Monaco" font-size="20.5" fill="#B08000" transform="matrix(1.00, 0.00, -0.00, -1.00, 418.2, 6.8)">_</text><text xml:space="preserve" font-family="Monaco,Monaco" font-size="20.5" fill="#B08000" transform="matrix(1.00, 0.00, -0.00, -1.00, 430.4, 6.8)">0</text><text xml:space="preserve" font-family="Monaco,Monaco" font-size="20.5" fill="#B08000" transform="matrix(1.00, 0.00, -0.00, -1.00, 442.7, 6.8)">0</text><text xml:space="preserve" font-family="Monaco,Monaco" font-size="20.5" fill="#B08000" transform="matrix(1.00, 0.00, -0.00, -1.00, 455.0, 6.8)">0</text><text xml:space="preserve" font-family="Monaco,Monaco" font-size="20.5" fill="#324763" transform="matrix(1.00, 0.00, -0.00, -1.00, 467.3, 6.8)">]</text><text xml:space="preserve" font-family="Monaco,Monaco" font-size="20.5" fill="#324763" transform="matrix(1.00, 0.00, -0.00, -1.00, 479.6, 6.8)">,</text><text xml:space="preserve" font-family="Monaco,Monaco" font-size="20.5" fill="#324763" transform="matrix(1.00, 0.00, -0.00, -1.00, 491.8, 6.8)"> </text><text xml:space="preserve" font-family="Monaco,Monaco" font-size="20.5" fill="#426132" transform="matrix(1.00, 0.00, -0.00, -1.00, 504.1, 6.8)">0</text><text xml:space="preserve" font-family="Monaco,Monaco" font-size="20.5" fill="#426132" transform="matrix(1.00, 0.00, -0.00, -1.00, 516.4, 6.8)">)</text><text xml:space="preserve" font-family="Monaco,Monaco" font-size="20.5" fill="#324763" transform="matrix(1.00, 0.00, -0.00, -1.00, 528.7, 6.8)">;</text><text xml:space="preserve" font-family="Monaco,Monaco" font-size="20.5" fill="#324763" transform="matrix(1.00, 0.00, -0.00, -1.00, 540.9, 6.8)">	</text></g></svg>