<?xml version="1.0" encoding="UTF-8" standalone="no"?><svg xmlns="http://www.w3.org/2000/svg" xmlns:xlink="http://www.w3.org/1999/xlink" clip-rule="evenodd" stroke-miterlimit="10" viewBox="0 0 603 35"><desc>SVG generated by Keynote</desc><defs></defs><g transform="matrix(1.00, 0.00, -0.00, -1.00, 0.0, 35.0)"><text xml:space="preserve" font-family="ZapfDingbatsITC,Zapf Dingbats" font-size="20.7" fill="#5B86B8" transform="matrix(1.00, 0.00, -0.00, -1.00, 0.0, 11.8)">✤</text><text xml:space="preserve" font-family="Palatino-Roman,Palatino" font-size="29.6" fill="#000000" transform="matrix(1.00, 0.00, -0.00, -1.00, 31.2, 9.9)">P</text><text xml:space="preserve" font-family="Palatino-Roman,Palatino" font-size="29.6" fill="#000000" transform="matrix(1.00, 0.00, -0.00, -1.00, 49.1, 9.9)">e</text><text xml:space="preserve" font-family="Palatino-Roman,Palatino" font-size="29.6" fill="#000000" transform="matrix(1.00, 0.00, -0.00, -1.00, 63.3, 9.9)">r</text><text xml:space="preserve" font-family="Palatino-Roman,Palatino" font-size="29.6" fill="#000000" transform="matrix(1.00, 0.00, -0.00, -1.00, 74.5, 9.9)">h</text><text xml:space="preserve" font-family="Palatino-Roman,Palatino" font-size="29.6" fill="#000000" transform="matrix(1.00, 0.00, -0.00, -1.00, 91.7, 9.9)">a</text><text xml:space="preserve" font-family="Palatino-Roman,Palatino" font-size="29.6" fill="#000000" transform="matrix(1.00, 0.00, -0.00, -1.00, 106.6, 9.9)">p</text><text xml:space="preserve" font-family="Palatino-Roman,Palatino" font-size="29.6" fill="#000000" transform="matrix(1.00, 0.00, -0.00, -1.00, 124.4, 9.9)">s</text><text xml:space="preserve" font-family="Palatino-Roman,Palatino" font-size="29.6" fill="#000000" transform="matrix(1.00, 0.00, -0.00, -1.00, 136.9, 9.9)"> </text><text xml:space="preserve" font-family="Palatino-Roman,Palatino" font-size="29.6" fill="#000000" transform="matrix(1.00, 0.00, -0.00, -1.00, 144.3, 9.9)">t</text><text xml:space="preserve" font-family="Palatino-Roman,Palatino" font-size="29.6" fill="#000000" transform="matrix(1.00, 0.00, -0.00, -1.00, 154.0, 9.9)">h</text><text xml:space="preserve" font-family="Palatino-Roman,Palatino" font-size="29.6" fill="#000000" transform="matrix(1.00, 0.00, -0.00, -1.00, 171.3, 9.9)">e</text><text xml:space="preserve" font-family="Palatino-Roman,Palatino" font-size="29.6" fill="#000000" transform="matrix(1.00, 0.00, -0.00, -1.00, 185.5, 9.9)"> </text><text xml:space="preserve" font-family="Palatino-Roman,Palatino" font-size="29.6" fill="#000000" transform="matrix(1.00, 0.00, -0.00, -1.00, 192.9, 9.9)">m</text><text xml:space="preserve" font-family="Palatino-Roman,Palatino" font-size="29.6" fill="#000000" transform="matrix(1.00, 0.00, -0.00, -1.00, 219.0, 9.9)">o</text><text xml:space="preserve" font-family="Palatino-Roman,Palatino" font-size="29.6" fill="#000000" transform="matrix(1.00, 0.00, -0.00, -1.00, 235.2, 9.9)">s</text><text xml:space="preserve" font-family="Palatino-Roman,Palatino" font-size="29.6" fill="#000000" transform="matrix(1.00, 0.00, -0.00, -1.00, 247.8, 9.9)">t</text><text xml:space="preserve" font-family="Palatino-Roman,Palatino" font-size="29.6" fill="#000000" transform="matrix(1.00, 0.00, -0.00, -1.00, 257.4, 9.9)"> </text><text xml:space="preserve" font-family="Palatino-Roman,Palatino" font-size="29.6" fill="#000000" transform="matrix(1.00, 0.00, -0.00, -1.00, 264.9, 9.9)">w</text><text xml:space="preserve" font-family="Palatino-Roman,Palatino" font-size="29.6" fill="#000000" transform="matrix(1.00, 0.00, -0.00, -1.00, 289.6, 9.9)">e</text><text xml:space="preserve" font-family="Palatino-Roman,Palatino" font-size="29.6" fill="#000000" transform="matrix(1.00, 0.00, -0.00, -1.00, 303.8, 9.9)">l</text><text xml:space="preserve" font-family="Palatino-Roman,Palatino" font-size="29.6" fill="#000000" transform="matrix(1.00, 0.00, -0.00, -1.00, 312.4, 9.9)">l</text><text xml:space="preserve" font-family="Palatino-Roman,Palatino" font-size="29.6" fill="#000000" transform="matrix(1.00, 0.00, -0.00, -1.00, 321.0, 9.9)">-</text><text xml:space="preserve" font-family="Palatino-Roman,Palatino" font-size="29.6" fill="#000000" transform="matrix(1.00, 0.00, -0.00, -1.00, 330.9, 9.9)">k</text><text xml:space="preserve" font-family="Palatino-Roman,Palatino" font-size="29.6" fill="#000000" transform="matrix(1.00, 0.00, -0.00, -1.00, 347.4, 9.9)">n</text><text xml:space="preserve" font-family="Palatino-Roman,Palatino" font-size="29.6" fill="#000000" transform="matrix(1.00, 0.00, -0.00, -1.00, 364.6, 9.9)">o</text><text xml:space="preserve" font-family="Palatino-Roman,Palatino" font-size="29.6" fill="#000000" transform="matrix(1.00, 0.00, -0.00, -1.00, 380.8, 9.9)">w</text><text xml:space="preserve" font-family="Palatino-Roman,Palatino" font-size="29.6" fill="#000000" transform="matrix(1.00, 0.00, -0.00, -1.00, 405.5, 9.9)">n</text><text xml:space="preserve" font-family="Palatino-Roman,Palatino" font-size="29.6" fill="#000000" transform="matrix(1.00, 0.00, -0.00, -1.00, 422.8, 9.9)"> </text><text xml:space="preserve" font-family="Palatino-Bold,Palatino" font-weight="bold" font-size="29.6" fill="#000000" transform="matrix(1.00, 0.00, -0.00, -1.00, 430.2, 9.9)">T</text><text xml:space="preserve" font-family="Palatino-Bold,Palatino" font-weight="bold" font-size="29.6" fill="#000000" transform="matrix(1.00, 0.00, -0.00, -1.00, 446.1, 9.9)">u</text><text xml:space="preserve" font-family="Palatino-Bold,Palatino" font-weight="bold" font-size="29.6" fill="#000000" transform="matrix(1.00, 0.00, -0.00, -1.00, 464.2, 9.9)">r</text><text xml:space="preserve" font-family="Palatino-Bold,Palatino" font-weight="bold" font-size="29.6" fill="#000000" transform="matrix(1.00, 0.00, -0.00, -1.00, 475.8, 9.9)">i</text><text xml:space="preserve" font-family="Palatino-Bold,Palatino" font-weight="bold" font-size="29.6" fill="#000000" transform="matrix(1.00, 0.00, -0.00, -1.00, 485.7, 9.9)">n</text><text xml:space="preserve" font-family="Palatino-Bold,Palatino" font-weight="bold" font-size="29.6" fill="#000000" transform="matrix(1.00, 0.00, -0.00, -1.00, 503.8, 9.9)">g</text><text xml:space="preserve" font-family="Palatino-Bold,Palatino" font-weight="bold" font-size="29.6" fill="#000000" transform="matrix(1.00, 0.00, -0.00, -1.00, 520.2, 9.9)"> </text><text xml:space="preserve" font-family="Palatino-Bold,Palatino" font-weight="bold" font-size="29.6" fill="#000000" transform="matrix(1.00, 0.00, -0.00, -1.00, 527.7, 9.9)">t</text><text xml:space="preserve" font-family="Palatino-Bold,Palatino" font-weight="bold" font-size="29.6" fill="#000000" transform="matrix(1.00, 0.00, -0.00, -1.00, 537.5, 9.9)">a</text><text xml:space="preserve" font-family="Palatino-Bold,Palatino" font-weight="bold" font-size="29.6" fill="#000000" transform="matrix(1.00, 0.00, -0.00, -1.00, 552.3, 9.9)">r</text><text xml:space="preserve" font-family="Palatino-Bold,Palatino" font-weight="bold" font-size="29.6" fill="#000000" transform="matrix(1.00, 0.00, -0.00, -1.00, 563.9, 9.9)">p</text><text xml:space="preserve" font-family="Palatino-Bold,Palatino" font-weight="bold" font-size="29.6" fill="#000000" transform="matrix(1.00, 0.00, -0.00, -1.00, 582.0, 9.9)">i</text><text xml:space="preserve" font-family="Palatino-Bold,Palatino" font-weight="bold" font-size="29.6" fill="#000000" transform="matrix(1.00, 0.00, -0.00, -1.00, 591.9, 9.9)">t</text></g></svg>