<?xml version="1.0" encoding="UTF-8" standalone="no"?><svg xmlns="http://www.w3.org/2000/svg" xmlns:xlink="http://www.w3.org/1999/xlink" clip-rule="evenodd" stroke-miterlimit="10" viewBox="0 0 938 35"><desc>SVG generated by Keynote</desc><defs></defs><g transform="matrix(1.00, 0.00, -0.00, -1.00, 0.0, 35.0)"><text xml:space="preserve" font-family="ZapfDingbatsITC,Zapf Dingbats" font-size="20.7" fill="#5B86B8" transform="matrix(1.00, 0.00, -0.00, -1.00, 0.0, 11.9)">✤</text><text xml:space="preserve" font-family="Palatino-Roman,Palatino" font-size="29.6" fill="#000000" transform="matrix(1.00, 0.00, -0.00, -1.00, 31.2, 9.9)">A</text><text xml:space="preserve" font-family="Palatino-Roman,Palatino" font-size="29.6" fill="#000000" transform="matrix(1.00, 0.00, -0.00, -1.00, 52.6, 9.9)"> </text><text xml:space="preserve" font-family="Palatino-Roman,Palatino" font-size="29.6" fill="#000000" transform="matrix(1.00, 0.00, -0.00, -1.00, 60.0, 9.9)">"</text><text xml:space="preserve" font-family="Palatino-Roman,Palatino" font-size="29.6" fill="#000000" transform="matrix(1.00, 0.00, -0.00, -1.00, 71.0, 9.9)">g</text><text xml:space="preserve" font-family="Palatino-Roman,Palatino" font-size="29.6" fill="#000000" transform="matrix(1.00, 0.00, -0.00, -1.00, 87.5, 9.9)">e</text><text xml:space="preserve" font-family="Palatino-Roman,Palatino" font-size="29.6" fill="#000000" transform="matrix(1.00, 0.00, -0.00, -1.00, 101.7, 9.9)">n</text><text xml:space="preserve" font-family="Palatino-Roman,Palatino" font-size="29.6" fill="#000000" transform="matrix(1.00, 0.00, -0.00, -1.00, 119.0, 9.9)">e</text><text xml:space="preserve" font-family="Palatino-Roman,Palatino" font-size="29.6" fill="#000000" transform="matrix(1.00, 0.00, -0.00, -1.00, 133.2, 9.9)">r</text><text xml:space="preserve" font-family="Palatino-Roman,Palatino" font-size="29.6" fill="#000000" transform="matrix(1.00, 0.00, -0.00, -1.00, 144.9, 9.9)">a</text><text xml:space="preserve" font-family="Palatino-Roman,Palatino" font-size="29.6" fill="#000000" transform="matrix(1.00, 0.00, -0.00, -1.00, 159.7, 9.9)">l</text><text xml:space="preserve" font-family="Palatino-Roman,Palatino" font-size="29.6" fill="#000000" transform="matrix(1.00, 0.00, -0.00, -1.00, 168.3, 9.9)"> </text><text xml:space="preserve" font-family="Palatino-Roman,Palatino" font-size="29.6" fill="#000000" transform="matrix(1.00, 0.00, -0.00, -1.00, 175.7, 9.9)">p</text><text xml:space="preserve" font-family="Palatino-Roman,Palatino" font-size="29.6" fill="#000000" transform="matrix(1.00, 0.00, -0.00, -1.00, 193.6, 9.9)">u</text><text xml:space="preserve" font-family="Palatino-Roman,Palatino" font-size="29.6" fill="#000000" transform="matrix(1.00, 0.00, -0.00, -1.00, 211.4, 9.9)">r</text><text xml:space="preserve" font-family="Palatino-Roman,Palatino" font-size="29.6" fill="#000000" transform="matrix(1.00, 0.00, -0.00, -1.00, 223.1, 9.9)">p</text><text xml:space="preserve" font-family="Palatino-Roman,Palatino" font-size="29.6" fill="#000000" transform="matrix(1.00, 0.00, -0.00, -1.00, 241.0, 9.9)">o</text><text xml:space="preserve" font-family="Palatino-Roman,Palatino" font-size="29.6" fill="#000000" transform="matrix(1.00, 0.00, -0.00, -1.00, 257.1, 9.9)">s</text><text xml:space="preserve" font-family="Palatino-Roman,Palatino" font-size="29.6" fill="#000000" transform="matrix(1.00, 0.00, -0.00, -1.00, 269.7, 9.9)">e</text><text xml:space="preserve" font-family="Palatino-Roman,Palatino" font-size="29.6" fill="#000000" transform="matrix(1.00, 0.00, -0.00, -1.00, 283.9, 9.9)">"</text><text xml:space="preserve" font-family="Palatino-Roman,Palatino" font-size="29.6" fill="#000000" transform="matrix(1.00, 0.00, -0.00, -1.00, 294.9, 9.9)"> </text><text xml:space="preserve" font-family="Palatino-Roman,Palatino" font-size="29.6" fill="#000000" transform="matrix(1.00, 0.00, -0.00, -1.00, 302.3, 9.9)">p</text><text xml:space="preserve" font-family="Palatino-Roman,Palatino" font-size="29.6" fill="#000000" transform="matrix(1.00, 0.00, -0.00, -1.00, 320.1, 9.9)">r</text><text xml:space="preserve" font-family="Palatino-Roman,Palatino" font-size="29.6" fill="#000000" transform="matrix(1.00, 0.00, -0.00, -1.00, 331.3, 9.9)">o</text><text xml:space="preserve" font-family="Palatino-Roman,Palatino" font-size="29.6" fill="#000000" transform="matrix(1.00, 0.00, -0.00, -1.00, 347.5, 9.9)">g</text><text xml:space="preserve" font-family="Palatino-Roman,Palatino" font-size="29.6" fill="#000000" transform="matrix(1.00, 0.00, -0.00, -1.00, 364.0, 9.9)">r</text><text xml:space="preserve" font-family="Palatino-Roman,Palatino" font-size="29.6" fill="#000000" transform="matrix(1.00, 0.00, -0.00, -1.00, 375.7, 9.9)">a</text><text xml:space="preserve" font-family="Palatino-Roman,Palatino" font-size="29.6" fill="#000000" transform="matrix(1.00, 0.00, -0.00, -1.00, 390.5, 9.9)">m</text><text xml:space="preserve" font-family="Palatino-Roman,Palatino" font-size="29.6" fill="#000000" transform="matrix(1.00, 0.00, -0.00, -1.00, 416.7, 9.9)">m</text><text xml:space="preserve" font-family="Palatino-Roman,Palatino" font-size="29.6" fill="#000000" transform="matrix(1.00, 0.00, -0.00, -1.00, 442.8, 9.9)">i</text><text xml:space="preserve" font-family="Palatino-Roman,Palatino" font-size="29.6" fill="#000000" transform="matrix(1.00, 0.00, -0.00, -1.00, 451.5, 9.9)">n</text><text xml:space="preserve" font-family="Palatino-Roman,Palatino" font-size="29.6" fill="#000000" transform="matrix(1.00, 0.00, -0.00, -1.00, 468.7, 9.9)">g</text><text xml:space="preserve" font-family="Palatino-Roman,Palatino" font-size="29.6" fill="#000000" transform="matrix(1.00, 0.00, -0.00, -1.00, 485.2, 9.9)"> </text><text xml:space="preserve" font-family="Palatino-Roman,Palatino" font-size="29.6" fill="#000000" transform="matrix(1.00, 0.00, -0.00, -1.00, 492.6, 9.9)">l</text><text xml:space="preserve" font-family="Palatino-Roman,Palatino" font-size="29.6" fill="#000000" transform="matrix(1.00, 0.00, -0.00, -1.00, 501.2, 9.9)">a</text><text xml:space="preserve" font-family="Palatino-Roman,Palatino" font-size="29.6" fill="#000000" transform="matrix(1.00, 0.00, -0.00, -1.00, 516.1, 9.9)">n</text><text xml:space="preserve" font-family="Palatino-Roman,Palatino" font-size="29.6" fill="#000000" transform="matrix(1.00, 0.00, -0.00, -1.00, 533.3, 9.9)">g</text><text xml:space="preserve" font-family="Palatino-Roman,Palatino" font-size="29.6" fill="#000000" transform="matrix(1.00, 0.00, -0.00, -1.00, 549.8, 9.9)">u</text><text xml:space="preserve" font-family="Palatino-Roman,Palatino" font-size="29.6" fill="#000000" transform="matrix(1.00, 0.00, -0.00, -1.00, 567.7, 9.9)">a</text><text xml:space="preserve" font-family="Palatino-Roman,Palatino" font-size="29.6" fill="#000000" transform="matrix(1.00, 0.00, -0.00, -1.00, 582.5, 9.9)">g</text><text xml:space="preserve" font-family="Palatino-Roman,Palatino" font-size="29.6" fill="#000000" transform="matrix(1.00, 0.00, -0.00, -1.00, 599.0, 9.9)">e</text><text xml:space="preserve" font-family="Palatino-Roman,Palatino" font-size="29.6" fill="#000000" transform="matrix(1.00, 0.00, -0.00, -1.00, 613.2, 9.9)"> </text><text xml:space="preserve" font-family="Palatino-Roman,Palatino" font-size="29.6" fill="#000000" transform="matrix(1.00, 0.00, -0.00, -1.00, 620.6, 9.9)">w</text><text xml:space="preserve" font-family="Palatino-Roman,Palatino" font-size="29.6" fill="#000000" transform="matrix(1.00, 0.00, -0.00, -1.00, 645.3, 9.9)">i</text><text xml:space="preserve" font-family="Palatino-Roman,Palatino" font-size="29.6" fill="#000000" transform="matrix(1.00, 0.00, -0.00, -1.00, 653.9, 9.9)">t</text><text xml:space="preserve" font-family="Palatino-Roman,Palatino" font-size="29.6" fill="#000000" transform="matrix(1.00, 0.00, -0.00, -1.00, 663.6, 9.9)">h</text><text xml:space="preserve" font-family="Palatino-Roman,Palatino" font-size="29.6" fill="#000000" transform="matrix(1.00, 0.00, -0.00, -1.00, 680.9, 9.9)"> </text><text xml:space="preserve" font-family="Palatino-Roman,Palatino" font-size="29.6" fill="#000000" transform="matrix(1.00, 0.00, -0.00, -1.00, 688.3, 9.9)">o</text><text xml:space="preserve" font-family="Palatino-Roman,Palatino" font-size="29.6" fill="#000000" transform="matrix(1.00, 0.00, -0.00, -1.00, 704.4, 9.9)">n</text><text xml:space="preserve" font-family="Palatino-Roman,Palatino" font-size="29.6" fill="#000000" transform="matrix(1.00, 0.00, -0.00, -1.00, 721.7, 9.9)">l</text><text xml:space="preserve" font-family="Palatino-Roman,Palatino" font-size="29.6" fill="#000000" transform="matrix(1.00, 0.00, -0.00, -1.00, 730.3, 9.9)">y</text><text xml:space="preserve" font-family="Palatino-Roman,Palatino" font-size="29.6" fill="#000000" transform="matrix(1.00, 0.00, -0.00, -1.00, 746.8, 9.9)"> </text><text xml:space="preserve" font-family="Palatino-Roman,Palatino" font-size="29.6" fill="#000000" transform="matrix(1.00, 0.00, -0.00, -1.00, 754.2, 9.9)">8</text><text xml:space="preserve" font-family="Palatino-Roman,Palatino" font-size="29.6" fill="#000000" transform="matrix(1.00, 0.00, -0.00, -1.00, 769.0, 9.9)"> </text><text xml:space="preserve" font-family="Palatino-Roman,Palatino" font-size="29.6" fill="#000000" transform="matrix(1.00, 0.00, -0.00, -1.00, 776.4, 9.9)">i</text><text xml:space="preserve" font-family="Palatino-Roman,Palatino" font-size="29.6" fill="#000000" transform="matrix(1.00, 0.00, -0.00, -1.00, 785.1, 9.9)">n</text><text xml:space="preserve" font-family="Palatino-Roman,Palatino" font-size="29.6" fill="#000000" transform="matrix(1.00, 0.00, -0.00, -1.00, 802.3, 9.9)">s</text><text xml:space="preserve" font-family="Palatino-Roman,Palatino" font-size="29.6" fill="#000000" transform="matrix(1.00, 0.00, -0.00, -1.00, 814.9, 9.9)">t</text><text xml:space="preserve" font-family="Palatino-Roman,Palatino" font-size="29.6" fill="#000000" transform="matrix(1.00, 0.00, -0.00, -1.00, 824.6, 9.9)">r</text><text xml:space="preserve" font-family="Palatino-Roman,Palatino" font-size="29.6" fill="#000000" transform="matrix(1.00, 0.00, -0.00, -1.00, 836.0, 9.9)">u</text><text xml:space="preserve" font-family="Palatino-Roman,Palatino" font-size="29.6" fill="#000000" transform="matrix(1.00, 0.00, -0.00, -1.00, 853.9, 9.9)">c</text><text xml:space="preserve" font-family="Palatino-Roman,Palatino" font-size="29.6" fill="#000000" transform="matrix(1.00, 0.00, -0.00, -1.00, 867.1, 9.9)">t</text><text xml:space="preserve" font-family="Palatino-Roman,Palatino" font-size="29.6" fill="#000000" transform="matrix(1.00, 0.00, -0.00, -1.00, 876.7, 9.9)">i</text><text xml:space="preserve" font-family="Palatino-Roman,Palatino" font-size="29.6" fill="#000000" transform="matrix(1.00, 0.00, -0.00, -1.00, 885.4, 9.9)">o</text><text xml:space="preserve" font-family="Palatino-Roman,Palatino" font-size="29.6" fill="#000000" transform="matrix(1.00, 0.00, -0.00, -1.00, 901.5, 9.9)">n</text><text xml:space="preserve" font-family="Palatino-Roman,Palatino" font-size="29.6" fill="#000000" transform="matrix(1.00, 0.00, -0.00, -1.00, 918.8, 9.9)">s</text><text xml:space="preserve" font-family="Palatino-Roman,Palatino" font-size="29.6" fill="#000000" transform="matrix(1.00, 0.00, -0.00, -1.00, 931.3, 9.9)">!</text></g></svg>