<?xml version="1.0" encoding="UTF-8" standalone="no"?><svg xmlns="http://www.w3.org/2000/svg" xmlns:xlink="http://www.w3.org/1999/xlink" clip-rule="evenodd" stroke-miterlimit="10" viewBox="0 0 213 31"><desc>SVG generated by Keynote</desc><defs></defs><g transform="matrix(1.00, 0.00, -0.00, -1.00, 0.0, 31.0)"><text xml:space="preserve" font-family="ZapfDingbatsITC,Zapf Dingbats" font-size="17.4" fill="#5B86B8" transform="matrix(1.00, 0.00, -0.00, -1.00, 0.0, 10.8)">✤</text><text xml:space="preserve" font-family="Monaco,Monaco" font-size="24.8" fill="#000000" transform="matrix(1.00, 0.00, -0.00, -1.00, 24.8, 9.1)">[</text><text xml:space="preserve" font-family="Monaco,Monaco" font-size="24.8" fill="#000000" transform="matrix(1.00, 0.00, -0.00, -1.00, 39.7, 9.1)"> </text><text xml:space="preserve" font-family="Monaco,Monaco" font-size="24.8" fill="#000000" transform="matrix(1.00, 0.00, -0.00, -1.00, 54.6, 9.1)"> </text><text xml:space="preserve" font-family="Monaco,Monaco" font-size="24.8" fill="#000000" transform="matrix(1.00, 0.00, -0.00, -1.00, 69.5, 9.1)"> </text><text xml:space="preserve" font-family="Monaco,Monaco" font-size="24.8" fill="#000000" transform="matrix(1.00, 0.00, -0.00, -1.00, 84.3, 9.1)"> </text><text xml:space="preserve" font-family="Palatino-Roman,Palatino" font-size="24.8" fill="#000000" transform="matrix(1.00, 0.00, -0.00, -1.00, 99.2, 9.1)">L</text><text xml:space="preserve" font-family="Palatino-Roman,Palatino" font-size="24.8" fill="#000000" transform="matrix(1.00, 0.00, -0.00, -1.00, 114.4, 9.1)">o</text><text xml:space="preserve" font-family="Palatino-Roman,Palatino" font-size="24.8" fill="#000000" transform="matrix(1.00, 0.00, -0.00, -1.00, 127.9, 9.1)">o</text><text xml:space="preserve" font-family="Palatino-Roman,Palatino" font-size="24.8" fill="#000000" transform="matrix(1.00, 0.00, -0.00, -1.00, 141.4, 9.1)">p</text><text xml:space="preserve" font-family="Palatino-Roman,Palatino" font-size="24.8" fill="#000000" transform="matrix(1.00, 0.00, -0.00, -1.00, 156.3, 9.1)"> </text><text xml:space="preserve" font-family="Palatino-Roman,Palatino" font-size="24.8" fill="#000000" transform="matrix(1.00, 0.00, -0.00, -1.00, 162.5, 9.1)">s</text><text xml:space="preserve" font-family="Palatino-Roman,Palatino" font-size="24.8" fill="#000000" transform="matrix(1.00, 0.00, -0.00, -1.00, 173.0, 9.1)">t</text><text xml:space="preserve" font-family="Palatino-Roman,Palatino" font-size="24.8" fill="#000000" transform="matrix(1.00, 0.00, -0.00, -1.00, 181.1, 9.1)">a</text><text xml:space="preserve" font-family="Palatino-Roman,Palatino" font-size="24.8" fill="#000000" transform="matrix(1.00, 0.00, -0.00, -1.00, 193.5, 9.1)">r</text><text xml:space="preserve" font-family="Palatino-Roman,Palatino" font-size="24.8" fill="#000000" transform="matrix(1.00, 0.00, -0.00, -1.00, 203.3, 9.1)">t</text></g></svg>