<?xml version="1.0" encoding="UTF-8" standalone="no"?><svg xmlns="http://www.w3.org/2000/svg" xmlns:xlink="http://www.w3.org/1999/xlink" clip-rule="evenodd" stroke-miterlimit="10" viewBox="0 0 350 23"><desc>SVG generated by Keynote</desc><defs></defs><g transform="matrix(1.00, 0.00, -0.00, -1.00, 0.0, 23.0)"><text xml:space="preserve" font-family="ZapfDingbatsITC,Zapf Dingbats" font-size="17.4" fill="#5B86B8" transform="matrix(1.00, 0.00, -0.00, -1.00, 0.0, 4.5)">✤</text><text xml:space="preserve" font-family="Monaco,Monaco" font-size="24.8" fill="#000000" transform="matrix(1.00, 0.00, -0.00, -1.00, 26.1, 2.8)">-</text><text xml:space="preserve" font-family="Monaco,Monaco" font-size="24.8" fill="#000000" transform="matrix(1.00, 0.00, -0.00, -1.00, 41.0, 2.8)"> </text><text xml:space="preserve" font-family="Monaco,Monaco" font-size="24.8" fill="#000000" transform="matrix(1.00, 0.00, -0.00, -1.00, 55.9, 2.8)"> </text><text xml:space="preserve" font-family="Monaco,Monaco" font-size="24.8" fill="#000000" transform="matrix(1.00, 0.00, -0.00, -1.00, 70.8, 2.8)"> </text><text xml:space="preserve" font-family="Monaco,Monaco" font-size="24.8" fill="#000000" transform="matrix(1.00, 0.00, -0.00, -1.00, 85.6, 2.8)"> </text><text xml:space="preserve" font-family="Palatino-Roman,Palatino" font-size="24.8" fill="#000000" transform="matrix(1.00, 0.00, -0.00, -1.00, 100.5, 2.8)">D</text><text xml:space="preserve" font-family="Palatino-Roman,Palatino" font-size="24.8" fill="#000000" transform="matrix(1.00, 0.00, -0.00, -1.00, 119.7, 2.8)">e</text><text xml:space="preserve" font-family="Palatino-Roman,Palatino" font-size="24.8" fill="#000000" transform="matrix(1.00, 0.00, -0.00, -1.00, 131.6, 2.8)">c</text><text xml:space="preserve" font-family="Palatino-Roman,Palatino" font-size="24.8" fill="#000000" transform="matrix(1.00, 0.00, -0.00, -1.00, 142.6, 2.8)">r</text><text xml:space="preserve" font-family="Palatino-Roman,Palatino" font-size="24.8" fill="#000000" transform="matrix(1.00, 0.00, -0.00, -1.00, 152.0, 2.8)">e</text><text xml:space="preserve" font-family="Palatino-Roman,Palatino" font-size="24.8" fill="#000000" transform="matrix(1.00, 0.00, -0.00, -1.00, 163.8, 2.8)">m</text><text xml:space="preserve" font-family="Palatino-Roman,Palatino" font-size="24.8" fill="#000000" transform="matrix(1.00, 0.00, -0.00, -1.00, 185.7, 2.8)">e</text><text xml:space="preserve" font-family="Palatino-Roman,Palatino" font-size="24.8" fill="#000000" transform="matrix(1.00, 0.00, -0.00, -1.00, 197.6, 2.8)">n</text><text xml:space="preserve" font-family="Palatino-Roman,Palatino" font-size="24.8" fill="#000000" transform="matrix(1.00, 0.00, -0.00, -1.00, 212.0, 2.8)">t</text><text xml:space="preserve" font-family="Palatino-Roman,Palatino" font-size="24.8" fill="#000000" transform="matrix(1.00, 0.00, -0.00, -1.00, 220.1, 2.8)"> </text><text xml:space="preserve" font-family="Palatino-Roman,Palatino" font-size="24.8" fill="#000000" transform="matrix(1.00, 0.00, -0.00, -1.00, 226.3, 2.8)">c</text><text xml:space="preserve" font-family="Palatino-Roman,Palatino" font-size="24.8" fill="#000000" transform="matrix(1.00, 0.00, -0.00, -1.00, 237.3, 2.8)">u</text><text xml:space="preserve" font-family="Palatino-Roman,Palatino" font-size="24.8" fill="#000000" transform="matrix(1.00, 0.00, -0.00, -1.00, 252.3, 2.8)">r</text><text xml:space="preserve" font-family="Palatino-Roman,Palatino" font-size="24.8" fill="#000000" transform="matrix(1.00, 0.00, -0.00, -1.00, 262.1, 2.8)">r</text><text xml:space="preserve" font-family="Palatino-Roman,Palatino" font-size="24.8" fill="#000000" transform="matrix(1.00, 0.00, -0.00, -1.00, 271.4, 2.8)">e</text><text xml:space="preserve" font-family="Palatino-Roman,Palatino" font-size="24.8" fill="#000000" transform="matrix(1.00, 0.00, -0.00, -1.00, 283.3, 2.8)">n</text><text xml:space="preserve" font-family="Palatino-Roman,Palatino" font-size="24.8" fill="#000000" transform="matrix(1.00, 0.00, -0.00, -1.00, 297.8, 2.8)">t</text><text xml:space="preserve" font-family="Palatino-Roman,Palatino" font-size="24.8" fill="#000000" transform="matrix(1.00, 0.00, -0.00, -1.00, 305.8, 2.8)"> </text><text xml:space="preserve" font-family="Palatino-Roman,Palatino" font-size="24.8" fill="#000000" transform="matrix(1.00, 0.00, -0.00, -1.00, 312.0, 2.8)">c</text><text xml:space="preserve" font-family="Palatino-Roman,Palatino" font-size="24.8" fill="#000000" transform="matrix(1.00, 0.00, -0.00, -1.00, 323.0, 2.8)">e</text><text xml:space="preserve" font-family="Palatino-Roman,Palatino" font-size="24.8" fill="#000000" transform="matrix(1.00, 0.00, -0.00, -1.00, 334.9, 2.8)">l</text><text xml:space="preserve" font-family="Palatino-Roman,Palatino" font-size="24.8" fill="#000000" transform="matrix(1.00, 0.00, -0.00, -1.00, 342.1, 2.8)">l</text></g></svg>