<?xml version="1.0" encoding="UTF-8" standalone="no"?><svg xmlns="http://www.w3.org/2000/svg" xmlns:xlink="http://www.w3.org/1999/xlink" clip-rule="evenodd" stroke-miterlimit="10" viewBox="0 0 527 34"><desc>SVG generated by Keynote</desc><defs></defs><g transform="matrix(1.00, 0.00, -0.00, -1.00, 0.0, 34.0)"><text xml:space="preserve" font-family="Palatino-Roman,Palatino" font-size="29.0" fill="#3D5A84" transform="matrix(1.00, 0.00, -0.00, -1.00, 2.3, 9.9)">h</text><text xml:space="preserve" font-family="Palatino-Roman,Palatino" font-size="29.0" fill="#3D5A84" transform="matrix(1.00, 0.00, -0.00, -1.00, 19.2, 9.9)">t</text><text xml:space="preserve" font-family="Palatino-Roman,Palatino" font-size="29.0" fill="#3D5A84" transform="matrix(1.00, 0.00, -0.00, -1.00, 28.7, 9.9)">t</text><text xml:space="preserve" font-family="Palatino-Roman,Palatino" font-size="29.0" fill="#3D5A84" transform="matrix(1.00, 0.00, -0.00, -1.00, 38.1, 9.9)">p</text><text xml:space="preserve" font-family="Palatino-Roman,Palatino" font-size="29.0" fill="#3D5A84" transform="matrix(1.00, 0.00, -0.00, -1.00, 55.6, 9.9)">s</text><text xml:space="preserve" font-family="Palatino-Roman,Palatino" font-size="29.0" fill="#3D5A84" transform="matrix(1.00, 0.00, -0.00, -1.00, 67.8, 9.9)">:</text><text xml:space="preserve" font-family="Palatino-Roman,Palatino" font-size="29.0" fill="#3D5A84" transform="matrix(1.00, 0.00, -0.00, -1.00, 75.1, 9.9)">/</text><text xml:space="preserve" font-family="Palatino-Roman,Palatino" font-size="29.0" fill="#3D5A84" transform="matrix(1.00, 0.00, -0.00, -1.00, 92.7, 9.9)">/</text><text xml:space="preserve" font-family="Palatino-Roman,Palatino" font-size="29.0" fill="#3D5A84" transform="matrix(1.00, 0.00, -0.00, -1.00, 110.2, 9.9)">g</text><text xml:space="preserve" font-family="Palatino-Roman,Palatino" font-size="29.0" fill="#3D5A84" transform="matrix(1.00, 0.00, -0.00, -1.00, 126.4, 9.9)">i</text><text xml:space="preserve" font-family="Palatino-Roman,Palatino" font-size="29.0" fill="#3D5A84" transform="matrix(1.00, 0.00, -0.00, -1.00, 134.8, 9.9)">t</text><text xml:space="preserve" font-family="Palatino-Roman,Palatino" font-size="29.0" fill="#3D5A84" transform="matrix(1.00, 0.00, -0.00, -1.00, 144.3, 9.9)">h</text><text xml:space="preserve" font-family="Palatino-Roman,Palatino" font-size="29.0" fill="#3D5A84" transform="matrix(1.00, 0.00, -0.00, -1.00, 161.2, 9.9)">u</text><text xml:space="preserve" font-family="Palatino-Roman,Palatino" font-size="29.0" fill="#3D5A84" transform="matrix(1.00, 0.00, -0.00, -1.00, 178.6, 9.9)">b</text><text xml:space="preserve" font-family="Palatino-Roman,Palatino" font-size="29.0" fill="#3D5A84" transform="matrix(1.00, 0.00, -0.00, -1.00, 194.7, 9.9)">.</text><text xml:space="preserve" font-family="Palatino-Roman,Palatino" font-size="29.0" fill="#3D5A84" transform="matrix(1.00, 0.00, -0.00, -1.00, 201.9, 9.9)">c</text><text xml:space="preserve" font-family="Palatino-Roman,Palatino" font-size="29.0" fill="#3D5A84" transform="matrix(1.00, 0.00, -0.00, -1.00, 214.8, 9.9)">o</text><text xml:space="preserve" font-family="Palatino-Roman,Palatino" font-size="29.0" fill="#3D5A84" transform="matrix(1.00, 0.00, -0.00, -1.00, 230.6, 9.9)">m</text><text xml:space="preserve" font-family="Palatino-Roman,Palatino" font-size="29.0" fill="#3D5A84" transform="matrix(1.00, 0.00, -0.00, -1.00, 256.2, 9.9)">/</text><text xml:space="preserve" font-family="Palatino-Roman,Palatino" font-size="29.0" fill="#3D5A84" transform="matrix(1.00, 0.00, -0.00, -1.00, 273.8, 9.9)">d</text><text xml:space="preserve" font-family="Palatino-Roman,Palatino" font-size="29.0" fill="#3D5A84" transform="matrix(1.00, 0.00, -0.00, -1.00, 291.5, 9.9)">u</text><text xml:space="preserve" font-family="Palatino-Roman,Palatino" font-size="29.0" fill="#3D5A84" transform="matrix(1.00, 0.00, -0.00, -1.00, 309.0, 9.9)">r</text><text xml:space="preserve" font-family="Palatino-Roman,Palatino" font-size="29.0" fill="#3D5A84" transform="matrix(1.00, 0.00, -0.00, -1.00, 320.5, 9.9)">k</text><text xml:space="preserve" font-family="Palatino-Roman,Palatino" font-size="29.0" fill="#3D5A84" transform="matrix(1.00, 0.00, -0.00, -1.00, 336.6, 9.9)">a</text><text xml:space="preserve" font-family="Palatino-Roman,Palatino" font-size="29.0" fill="#3D5A84" transform="matrix(1.00, 0.00, -0.00, -1.00, 351.1, 9.9)">/</text><text xml:space="preserve" font-family="Palatino-Roman,Palatino" font-size="29.0" fill="#3D5A84" transform="matrix(1.00, 0.00, -0.00, -1.00, 368.7, 9.9)">b</text><text xml:space="preserve" font-family="Palatino-Roman,Palatino" font-size="29.0" fill="#3D5A84" transform="matrix(1.00, 0.00, -0.00, -1.00, 384.7, 9.9)">r</text><text xml:space="preserve" font-family="Palatino-Roman,Palatino" font-size="29.0" fill="#3D5A84" transform="matrix(1.00, 0.00, -0.00, -1.00, 396.2, 9.9)">a</text><text xml:space="preserve" font-family="Palatino-Roman,Palatino" font-size="29.0" fill="#3D5A84" transform="matrix(1.00, 0.00, -0.00, -1.00, 410.7, 9.9)">i</text><text xml:space="preserve" font-family="Palatino-Roman,Palatino" font-size="29.0" fill="#3D5A84" transform="matrix(1.00, 0.00, -0.00, -1.00, 419.1, 9.9)">n</text><text xml:space="preserve" font-family="Palatino-Roman,Palatino" font-size="29.0" fill="#3D5A84" transform="matrix(1.00, 0.00, -0.00, -1.00, 436.0, 9.9)">m</text><text xml:space="preserve" font-family="Palatino-Roman,Palatino" font-size="29.0" fill="#3D5A84" transform="matrix(1.00, 0.00, -0.00, -1.00, 461.6, 9.9)">u</text><text xml:space="preserve" font-family="Palatino-Roman,Palatino" font-size="29.0" fill="#3D5A84" transform="matrix(1.00, 0.00, -0.00, -1.00, 479.1, 9.9)">n</text><text xml:space="preserve" font-family="Palatino-Roman,Palatino" font-size="29.0" fill="#3D5A84" transform="matrix(1.00, 0.00, -0.00, -1.00, 495.9, 9.9)">c</text><text xml:space="preserve" font-family="Palatino-Roman,Palatino" font-size="29.0" fill="#3D5A84" transform="matrix(1.00, 0.00, -0.00, -1.00, 508.8, 9.9)">h</text></g></svg>