<?xml version="1.0" encoding="UTF-8" standalone="no"?><svg xmlns="http://www.w3.org/2000/svg" xmlns:xlink="http://www.w3.org/1999/xlink" clip-rule="evenodd" stroke-miterlimit="10" viewBox="0 0 1024 768"><desc>SVG generated by Keynote</desc><defs></defs><g transform="matrix(1.00, 0.00, -0.00, -1.00, 0.0, 768.0)"><g><clipPath id="clip0x60800d6b5780"><path d="M 0.0 768.0 L 1024.0 768.0 L 1024.0 0.0 L 0.0 0.0 Z M 0.0 768.0 "></path></clipPath><g clip-path="url(#clip0x60800d6b5780)"><image xlink:href="../../CABF5236-1324-4602-9291-A4670FFDE0C7/assets/1783979FC7716684DCC3F94F50982FFC.jpeg" width="2048.00" height="1536.00" transform="matrix(0.50, 0.00, -0.00, -0.50, 0.0, 768.0)"></image></g></g><path d="M 0.0 0.5 L 960.0 0.5 L 960.0 0.5 L 0.0 0.5 Z M 0.0 0.0 " fill="none" stroke="#7995B9" stroke-width="1.00" transform="matrix(1.00, 0.00, 0.00, -1.00, 32.0, 566.0)"></path><path d="M 0.0 0.5 L 960.0 0.5 L 960.0 0.5 L 0.0 0.5 Z M 0.0 0.0 " fill="none" stroke="#7995B9" stroke-width="1.00" transform="matrix(1.00, 0.00, 0.00, -1.00, 32.0, 562.0)"></path><text xml:space="preserve" font-family="Didot,Didot" font-size="64.0" fill="#304863" transform="matrix(1.00, 0.00, -0.00, -1.00, 32.0, 631.7)">R</text><text xml:space="preserve" font-family="Didot,Didot" font-size="64.0" fill="#304863" transform="matrix(1.00, 0.00, -0.00, -1.00, 76.9, 631.7)">e</text><text xml:space="preserve" font-family="Didot,Didot" font-size="64.0" fill="#304863" transform="matrix(1.00, 0.00, -0.00, -1.00, 107.6, 631.7)">c</text><text xml:space="preserve" font-family="Didot,Didot" font-size="64.0" fill="#304863" transform="matrix(1.00, 0.00, -0.00, -1.00, 137.2, 631.7)">u</text><text xml:space="preserve" font-family="Didot,Didot" font-size="64.0" fill="#304863" transform="matrix(1.00, 0.00, -0.00, -1.00, 173.8, 631.7)">r</text><text xml:space="preserve" font-family="Didot,Didot" font-size="64.0" fill="#304863" transform="matrix(1.00, 0.00, -0.00, -1.00, 198.6, 631.7)">s</text><text xml:space="preserve" font-family="Didot,Didot" font-size="64.0" fill="#304863" transform="matrix(1.00, 0.00, -0.00, -1.00, 224.6, 631.7)">i</text><text xml:space="preserve" font-family="Didot,Didot" font-size="64.0" fill="#304863" transform="matrix(1.00, 0.00, -0.00, -1.00, 242.2, 631.7)">o</text><text xml:space="preserve" font-family="Didot,Didot" font-size="64.0" fill="#304863" transform="matrix(1.00, 0.00, -0.00, -1.00, 276.5, 631.7)">n</text><text xml:space="preserve" font-family="Didot,Didot" font-size="64.0" fill="#304863" transform="matrix(1.00, 0.00, -0.00, -1.00, 314.4, 631.7)"> </text><text xml:space="preserve" font-family="Didot,Didot" font-size="64.0" fill="#304863" transform="matrix(1.00, 0.00, -0.00, -1.00, 330.9, 631.7)">l</text><text xml:space="preserve" font-family="Didot,Didot" font-size="64.0" fill="#304863" transform="matrix(1.00, 0.00, -0.00, -1.00, 348.5, 631.7)">i</text><text xml:space="preserve" font-family="Didot,Didot" font-size="64.0" fill="#304863" transform="matrix(1.00, 0.00, -0.00, -1.00, 366.2, 631.7)">m</text><text xml:space="preserve" font-family="Didot,Didot" font-size="64.0" fill="#304863" transform="matrix(1.00, 0.00, -0.00, -1.00, 420.6, 631.7)">i</text><text xml:space="preserve" font-family="Didot,Didot" font-size="64.0" fill="#304863" transform="matrix(1.00, 0.00, -0.00, -1.00, 438.3, 631.7)">t</text><text xml:space="preserve" font-family="Didot,Didot" font-size="64.0" fill="#304863" transform="matrix(1.00, 0.00, -0.00, -1.00, 458.3, 631.7)"> </text><text xml:space="preserve" font-family="Didot,Didot" font-size="64.0" fill="#304863" transform="matrix(1.00, 0.00, -0.00, -1.00, 474.8, 631.7)">r</text><text xml:space="preserve" font-family="Didot,Didot" font-size="64.0" fill="#304863" transform="matrix(1.00, 0.00, -0.00, -1.00, 499.6, 631.7)">e</text><text xml:space="preserve" font-family="Didot,Didot" font-size="64.0" fill="#304863" transform="matrix(1.00, 0.00, -0.00, -1.00, 530.3, 631.7)">a</text><text xml:space="preserve" font-family="Didot,Didot" font-size="64.0" fill="#304863" transform="matrix(1.00, 0.00, -0.00, -1.00, 559.8, 631.7)">c</text><text xml:space="preserve" font-family="Didot,Didot" font-size="64.0" fill="#304863" transform="matrix(1.00, 0.00, -0.00, -1.00, 588.7, 631.7)">h</text><text xml:space="preserve" font-family="Didot,Didot" font-size="64.0" fill="#304863" transform="matrix(1.00, 0.00, -0.00, -1.00, 626.5, 631.7)">e</text><text xml:space="preserve" font-family="Didot,Didot" font-size="64.0" fill="#304863" transform="matrix(1.00, 0.00, -0.00, -1.00, 657.2, 631.7)">d</text><text xml:space="preserve" font-family="Monaco,Monaco" font-size="62.0" fill="#000000" transform="matrix(1.00, 0.00, -0.00, -1.00, 314.2, 260.1)">Q</text><text xml:space="preserve" font-family="Monaco,Monaco" font-size="62.0" fill="#000000" transform="matrix(1.00, 0.00, -0.00, -1.00, 351.4, 260.1)">u</text><text xml:space="preserve" font-family="Monaco,Monaco" font-size="62.0" fill="#000000" transform="matrix(1.00, 0.00, -0.00, -1.00, 388.6, 260.1)">e</text><text xml:space="preserve" font-family="Monaco,Monaco" font-size="62.0" fill="#000000" transform="matrix(1.00, 0.00, -0.00, -1.00, 425.8, 260.1)">s</text><text xml:space="preserve" font-family="Monaco,Monaco" font-size="62.0" fill="#000000" transform="matrix(1.00, 0.00, -0.00, -1.00, 463.0, 260.1)">t</text><text xml:space="preserve" font-family="Monaco,Monaco" font-size="62.0" fill="#000000" transform="matrix(1.00, 0.00, -0.00, -1.00, 500.2, 260.1)">i</text><text xml:space="preserve" font-family="Monaco,Monaco" font-size="62.0" fill="#000000" transform="matrix(1.00, 0.00, -0.00, -1.00, 537.4, 260.1)">o</text><text xml:space="preserve" font-family="Monaco,Monaco" font-size="62.0" fill="#000000" transform="matrix(1.00, 0.00, -0.00, -1.00, 574.6, 260.1)">n</text><text xml:space="preserve" font-family="Monaco,Monaco" font-size="62.0" fill="#000000" transform="matrix(1.00, 0.00, -0.00, -1.00, 611.8, 260.1)">s</text><text xml:space="preserve" font-family="Monaco,Monaco" font-size="62.0" fill="#000000" transform="matrix(1.00, 0.00, -0.00, -1.00, 649.4, 260.7)">?</text><text xml:space="preserve" font-family="Monaco,Monaco" font-size="62.0" fill="#000000" transform="matrix(1.00, 0.00, -0.00, -1.00, 686.6, 260.7)">;</text><text xml:space="preserve" font-family="Palatino-Roman,Palatino" font-size="29.0" fill="#3D5A84" transform="matrix(1.00, 0.00, -0.00, -1.00, 250.3, 485.9)">h</text><text xml:space="preserve" font-family="Palatino-Roman,Palatino" font-size="29.0" fill="#3D5A84" transform="matrix(1.00, 0.00, -0.00, -1.00, 267.2, 485.9)">t</text><text xml:space="preserve" font-family="Palatino-Roman,Palatino" font-size="29.0" fill="#3D5A84" transform="matrix(1.00, 0.00, -0.00, -1.00, 276.7, 485.9)">t</text><text xml:space="preserve" font-family="Palatino-Roman,Palatino" font-size="29.0" fill="#3D5A84" transform="matrix(1.00, 0.00, -0.00, -1.00, 286.1, 485.9)">p</text><text xml:space="preserve" font-family="Palatino-Roman,Palatino" font-size="29.0" fill="#3D5A84" transform="matrix(1.00, 0.00, -0.00, -1.00, 303.6, 485.9)">s</text><text xml:space="preserve" font-family="Palatino-Roman,Palatino" font-size="29.0" fill="#3D5A84" transform="matrix(1.00, 0.00, -0.00, -1.00, 315.8, 485.9)">:</text><text xml:space="preserve" font-family="Palatino-Roman,Palatino" font-size="29.0" fill="#3D5A84" transform="matrix(1.00, 0.00, -0.00, -1.00, 323.1, 485.9)">/</text><text xml:space="preserve" font-family="Palatino-Roman,Palatino" font-size="29.0" fill="#3D5A84" transform="matrix(1.00, 0.00, -0.00, -1.00, 340.7, 485.9)">/</text><text xml:space="preserve" font-family="Palatino-Roman,Palatino" font-size="29.0" fill="#3D5A84" transform="matrix(1.00, 0.00, -0.00, -1.00, 358.2, 485.9)">g</text><text xml:space="preserve" font-family="Palatino-Roman,Palatino" font-size="29.0" fill="#3D5A84" transform="matrix(1.00, 0.00, -0.00, -1.00, 374.4, 485.9)">i</text><text xml:space="preserve" font-family="Palatino-Roman,Palatino" font-size="29.0" fill="#3D5A84" transform="matrix(1.00, 0.00, -0.00, -1.00, 382.8, 485.9)">t</text><text xml:space="preserve" font-family="Palatino-Roman,Palatino" font-size="29.0" fill="#3D5A84" transform="matrix(1.00, 0.00, -0.00, -1.00, 392.3, 485.9)">h</text><text xml:space="preserve" font-family="Palatino-Roman,Palatino" font-size="29.0" fill="#3D5A84" transform="matrix(1.00, 0.00, -0.00, -1.00, 409.2, 485.9)">u</text><text xml:space="preserve" font-family="Palatino-Roman,Palatino" font-size="29.0" fill="#3D5A84" transform="matrix(1.00, 0.00, -0.00, -1.00, 426.6, 485.9)">b</text><text xml:space="preserve" font-family="Palatino-Roman,Palatino" font-size="29.0" fill="#3D5A84" transform="matrix(1.00, 0.00, -0.00, -1.00, 442.7, 485.9)">.</text><text xml:space="preserve" font-family="Palatino-Roman,Palatino" font-size="29.0" fill="#3D5A84" transform="matrix(1.00, 0.00, -0.00, -1.00, 449.9, 485.9)">c</text><text xml:space="preserve" font-family="Palatino-Roman,Palatino" font-size="29.0" fill="#3D5A84" transform="matrix(1.00, 0.00, -0.00, -1.00, 462.8, 485.9)">o</text><text xml:space="preserve" font-family="Palatino-Roman,Palatino" font-size="29.0" fill="#3D5A84" transform="matrix(1.00, 0.00, -0.00, -1.00, 478.6, 485.9)">m</text><text xml:space="preserve" font-family="Palatino-Roman,Palatino" font-size="29.0" fill="#3D5A84" transform="matrix(1.00, 0.00, -0.00, -1.00, 504.2, 485.9)">/</text><text xml:space="preserve" font-family="Palatino-Roman,Palatino" font-size="29.0" fill="#3D5A84" transform="matrix(1.00, 0.00, -0.00, -1.00, 521.8, 485.9)">d</text><text xml:space="preserve" font-family="Palatino-Roman,Palatino" font-size="29.0" fill="#3D5A84" transform="matrix(1.00, 0.00, -0.00, -1.00, 539.5, 485.9)">u</text><text xml:space="preserve" font-family="Palatino-Roman,Palatino" font-size="29.0" fill="#3D5A84" transform="matrix(1.00, 0.00, -0.00, -1.00, 557.0, 485.9)">r</text><text xml:space="preserve" font-family="Palatino-Roman,Palatino" font-size="29.0" fill="#3D5A84" transform="matrix(1.00, 0.00, -0.00, -1.00, 568.5, 485.9)">k</text><text xml:space="preserve" font-family="Palatino-Roman,Palatino" font-size="29.0" fill="#3D5A84" transform="matrix(1.00, 0.00, -0.00, -1.00, 584.6, 485.9)">a</text><text xml:space="preserve" font-family="Palatino-Roman,Palatino" font-size="29.0" fill="#3D5A84" transform="matrix(1.00, 0.00, -0.00, -1.00, 599.1, 485.9)">/</text><text xml:space="preserve" font-family="Palatino-Roman,Palatino" font-size="29.0" fill="#3D5A84" transform="matrix(1.00, 0.00, -0.00, -1.00, 616.7, 485.9)">b</text><text xml:space="preserve" font-family="Palatino-Roman,Palatino" font-size="29.0" fill="#3D5A84" transform="matrix(1.00, 0.00, -0.00, -1.00, 632.7, 485.9)">r</text><text xml:space="preserve" font-family="Palatino-Roman,Palatino" font-size="29.0" fill="#3D5A84" transform="matrix(1.00, 0.00, -0.00, -1.00, 644.2, 485.9)">a</text><text xml:space="preserve" font-family="Palatino-Roman,Palatino" font-size="29.0" fill="#3D5A84" transform="matrix(1.00, 0.00, -0.00, -1.00, 658.7, 485.9)">i</text><text xml:space="preserve" font-family="Palatino-Roman,Palatino" font-size="29.0" fill="#3D5A84" transform="matrix(1.00, 0.00, -0.00, -1.00, 667.1, 485.9)">n</text><text xml:space="preserve" font-family="Palatino-Roman,Palatino" font-size="29.0" fill="#3D5A84" transform="matrix(1.00, 0.00, -0.00, -1.00, 684.0, 485.9)">m</text><text xml:space="preserve" font-family="Palatino-Roman,Palatino" font-size="29.0" fill="#3D5A84" transform="matrix(1.00, 0.00, -0.00, -1.00, 709.6, 485.9)">u</text><text xml:space="preserve" font-family="Palatino-Roman,Palatino" font-size="29.0" fill="#3D5A84" transform="matrix(1.00, 0.00, -0.00, -1.00, 727.1, 485.9)">n</text><text xml:space="preserve" font-family="Palatino-Roman,Palatino" font-size="29.0" fill="#3D5A84" transform="matrix(1.00, 0.00, -0.00, -1.00, 743.9, 485.9)">c</text><text xml:space="preserve" font-family="Palatino-Roman,Palatino" font-size="29.0" fill="#3D5A84" transform="matrix(1.00, 0.00, -0.00, -1.00, 756.8, 485.9)">h</text></g></svg>